<svg width="71" height="71" viewBox="0 0 71 71" fill="none" xmlns="http://www.w3.org/2000/svg">
<rect width="71" height="71" rx="10" fill="#F6F8F9"/>
<path fill-rule="evenodd" clip-rule="evenodd" d="M35.2464 58.8796C33.4509 58.8796 32.5279 57.7088 32.5279 57.7088C31.052 57.6447 19.5181 57.6767 19.5181 57.6767L18.3954 48.1985C18.3954 48.1985 11.2914 43.1918 10.7142 42.6139C7.30427 27.1438 19.6296 12.3967 35.2468 12.3967C50.8644 12.3967 63.1898 27.1442 59.7798 42.6139C59.2023 43.1914 52.0986 48.1985 52.0986 48.1985L50.9752 57.6767C50.9752 57.6767 39.442 57.6447 37.9662 57.7088C37.9662 57.7088 37.0431 58.8796 35.2464 58.8796Z" fill="#ED1C24"/>
<path fill-rule="evenodd" clip-rule="evenodd" d="M35.2631 44.4654L34.1733 17.1061C32.8591 16.8378 29.5059 17.1598 27.7093 18.5009L32.9391 44.5727L25.8049 19.5734C24.0943 19.5525 20.643 22.4444 20.3863 23.3018L30.7938 45.4842L19.0988 25.2062C17.9457 25.6355 15.4244 30.2758 15.8267 30.8151L28.8624 46.772L15.4511 33.1461C15.4511 33.1461 13.7077 35.8017 14.8446 40.2995L22.42 45.7698L23.3685 53.2437H32.6561C32.6561 53.2437 34.1756 54.6845 35.2538 54.6845C36.3316 54.6845 37.8511 53.2441 37.8511 53.2441H47.1391L48.0876 45.7702L55.6626 40.2995C56.7999 35.8017 55.0565 33.1461 55.0565 33.1461L41.6452 46.772L54.6809 30.8155C55.0832 30.2762 52.5615 25.6359 51.4084 25.2066L39.7138 45.4849L50.1209 23.3026C49.8646 22.4456 46.4129 19.5533 44.7027 19.5741L37.5678 44.5727L42.7987 18.5009C41.0017 17.1598 37.6488 16.8378 36.3343 17.1061L35.2631 44.4654Z" fill="#FFD500"/>
</svg>
