<svg width="344" height="115" viewBox="0 0 344 115" fill="none" xmlns="http://www.w3.org/2000/svg">
<path d="M177.558 51.104C177.647 51.1797 177.736 51.2554 177.827 51.3335C177.912 51.4041 177.997 51.4748 178.084 51.5476C178.884 52.2621 179.252 53.0996 179.431 54.155C179.444 54.3927 179.45 54.6308 179.45 54.8689C179.451 55.01 179.452 55.1512 179.453 55.2966C179.453 55.5269 179.453 55.5269 179.453 55.7619C179.454 55.9249 179.455 56.0879 179.455 56.2558C179.457 56.7032 179.458 57.1506 179.458 57.5981C179.459 57.88 179.459 58.162 179.46 58.444C179.462 59.3329 179.463 60.2219 179.464 61.1108C179.464 62.024 179.466 62.9371 179.469 63.8503C179.495 70.447 179.175 76.8 177.946 83.2937C180.145 82.983 181.925 81.5667 183.264 79.8224C183.796 79.1065 184.209 78.3416 184.615 77.5475C185.202 76.4531 185.988 75.6851 186.935 74.9013C187.726 74.0353 187.774 72.8899 187.925 71.7682C188.218 69.7749 188.666 68.0365 190.331 66.7749C192.303 65.4518 194.696 65.3911 196.967 65.7917C200.696 66.6728 203.843 69.3949 205.856 72.6227C207.969 76.145 208.63 79.9179 208.339 83.9777C209.546 82.9649 210.636 81.9703 211.581 80.6945C211.704 80.5345 211.827 80.3747 211.95 80.2152C212.711 79.2258 213.084 78.6736 213.12 77.3835C213.129 77.1186 213.138 76.8538 213.147 76.5889C213.152 76.4495 213.157 76.3102 213.161 76.1666C213.255 73.4979 213.414 70.8778 213.877 68.2456C213.898 68.1276 213.918 68.0097 213.94 67.8883C214.214 66.3921 214.684 64.9986 215.946 64.0731C217.694 63.0266 219.956 62.947 221.903 63.3634C223.26 63.7289 224.739 64.3938 225.494 65.6463C225.983 67.133 225.625 68.652 225.385 70.1522C225.024 72.4828 224.795 74.7387 224.801 77.0996C224.802 77.4468 224.801 77.794 224.8 78.1412C224.801 78.366 224.801 78.5908 224.801 78.8156C224.801 78.9683 224.801 78.9683 224.8 79.124C224.803 79.8387 224.867 80.5324 224.954 81.2417C225.772 79.3281 226.581 77.4123 227.352 75.4789C228.744 72.0024 230.268 68.6052 232.384 65.5095C232.468 65.3836 232.468 65.3836 232.555 65.2551C233.372 64.0434 234.271 62.9236 235.22 61.8159C235.381 61.6193 235.541 61.4226 235.701 61.2259C235.81 61.1046 235.919 60.9833 236.031 60.8583C236.12 60.8583 236.209 60.8583 236.301 60.8583C236.354 60.7363 236.354 60.7363 236.407 60.6119C236.701 60.0729 237.185 59.7363 237.652 59.3534C237.777 59.2506 237.902 59.1478 238.031 59.0419C240.114 57.393 242.247 56.7807 244.873 57.0813C247.192 57.5 249.144 58.739 250.539 60.6621C252.06 63.0144 252.272 65.6021 251.765 68.3105C251.147 71.303 249.962 74.0675 248.663 76.8124C247.397 79.4908 246.298 82.2259 245.221 84.987C245.037 85.4588 244.851 85.93 244.665 86.4012C242.725 91.0954 242.725 91.0954 241.388 95.9815C241.299 96.4267 241.299 96.4267 241.164 96.7003C242.347 96.17 243.352 95.4724 244.254 94.5286C244.541 94.2379 244.541 94.2379 244.836 94.0925C245.161 93.9224 245.196 93.7499 245.351 93.417C245.562 93.124 245.785 92.8657 246.027 92.5962C246.116 92.5962 246.205 92.5962 246.297 92.5962C246.33 92.5218 246.362 92.4474 246.396 92.3707C246.609 91.9704 246.871 91.6368 247.15 91.2795C248.699 89.2685 250.127 87.1649 251.565 85.0722C251.651 84.9478 251.736 84.8234 251.824 84.6953C252.183 84.174 252.541 83.6526 252.899 83.1308C253.371 82.4426 253.844 81.7555 254.32 81.0702C254.417 80.9299 254.514 80.7897 254.614 80.6452C254.799 80.3786 254.984 80.1122 255.17 79.8463C255.897 78.7944 256.5 77.7446 256.985 76.5562C258.201 73.6729 259.777 71.1047 261.696 68.656C261.835 68.4756 261.835 68.4756 261.976 68.2915C262.375 67.8027 262.835 67.4161 263.317 67.0143C263.433 66.9165 263.548 66.8186 263.667 66.7178C266.588 64.3604 270.105 63.7348 273.764 64.0301C276.302 64.3248 279.116 65.4984 280.743 67.5615C281.387 68.4614 281.727 69.3522 281.959 70.4344C282.561 70.2465 283.124 70.0057 283.695 69.737C284.776 69.2771 286.101 69.3221 287.201 69.6905C288.49 70.2392 289.485 71.136 290.028 72.4545C290.357 73.3659 290.438 74.2558 290.507 75.2192C290.52 75.3892 290.534 75.5591 290.547 75.7342C290.583 76.185 290.617 76.6358 290.651 77.0867C290.711 77.8865 290.773 78.6862 290.836 79.4857C290.85 79.6585 290.863 79.8313 290.877 80.0093C290.986 81.3369 291.141 82.6538 291.324 83.9726C291.424 84.7017 291.489 85.4331 291.549 86.1666C291.792 85.9706 292.034 85.7738 292.275 85.5766C292.41 85.4671 292.545 85.3576 292.684 85.2448C293.053 84.9468 293.053 84.9468 293.305 84.5249C293.395 84.5249 293.484 84.5249 293.576 84.5249C293.576 84.4347 293.576 84.3444 293.576 84.2513C293.724 84.0964 293.873 83.9425 294.026 83.7923C295.987 81.8296 297.82 79.3845 298.903 76.8122C300.158 73.835 301.721 71.1886 303.707 68.656C303.799 68.5357 303.891 68.4154 303.986 68.2915C304.385 67.8027 304.845 67.4161 305.328 67.0143C305.443 66.9165 305.559 66.8186 305.678 66.7178C308.598 64.3604 312.115 63.7348 315.774 64.0301C318.312 64.3248 321.126 65.4984 322.753 67.5615C323.397 68.4614 323.737 69.3522 323.969 70.4344C324.572 70.2465 325.134 70.0057 325.705 69.737C326.786 69.2771 328.111 69.3221 329.212 69.6905C330.5 70.2392 331.495 71.136 332.038 72.4545C332.368 73.3659 332.449 74.2558 332.517 75.2192C332.531 75.3892 332.544 75.5591 332.558 75.7342C332.593 76.185 332.628 76.6358 332.661 77.0867C332.721 77.8865 332.783 78.6862 332.846 79.4857C332.86 79.6585 332.874 79.8313 332.888 80.0093C332.996 81.3369 333.151 82.6538 333.335 83.9726C333.435 84.7017 333.5 85.4331 333.56 86.1666C333.783 85.9905 334.005 85.8136 334.227 85.6365C334.412 85.4889 334.412 85.4889 334.602 85.3383C334.919 85.1003 334.919 85.1003 335.046 84.7985C335.135 84.7985 335.224 84.7985 335.316 84.7985C335.316 84.7083 335.316 84.618 335.316 84.5249C335.405 84.5249 335.494 84.5249 335.586 84.5249C335.586 84.4347 335.586 84.3444 335.586 84.2513C335.734 84.0964 335.884 83.9425 336.037 83.7923C337.547 82.2805 338.781 80.5216 339.943 78.729C340.163 78.3935 340.386 78.0626 340.618 77.7362C340.707 77.6108 340.707 77.6108 340.797 77.4829C341.193 77.0537 341.613 76.9541 342.18 76.9325C342.853 76.9425 343.179 77.1477 343.653 77.6154C343.989 78.0167 344.007 78.3702 343.999 78.8898C343.877 79.8587 343.136 80.7515 342.602 81.5324C342.525 81.6457 342.447 81.759 342.368 81.8757C341.375 83.3199 340.317 84.6812 339.132 85.9688C338.871 86.2559 338.626 86.5494 338.381 86.8506C337.146 88.2864 335.49 89.5318 333.83 90.4074C333.741 90.4074 333.652 90.4074 333.56 90.4074C333.557 90.5427 333.554 90.6779 333.552 90.8173C333.297 103.333 333.297 103.333 329.102 108.602C329.03 108.693 328.957 108.784 328.882 108.878C328.81 108.966 328.739 109.054 328.665 109.144C328.6 109.224 328.535 109.304 328.468 109.386C328.292 109.56 328.292 109.56 328.021 109.56C327.977 109.695 327.932 109.831 327.886 109.97C327.557 110.323 327.177 110.621 326.806 110.928C326.678 111.034 326.551 111.141 326.419 111.251C323.207 113.881 319.452 115.118 315.324 114.895C313.913 114.716 312.601 114.097 311.677 112.98C310.248 111.084 310.086 108.878 310.375 106.565C311.116 101.985 313.337 97.885 316.269 94.3747C316.364 94.2482 316.459 94.1218 316.557 93.9915C316.64 93.8922 316.724 93.7929 316.81 93.6907C316.899 93.6907 316.988 93.6907 317.08 93.6907C317.13 93.5637 317.13 93.5637 317.181 93.4341C317.381 93.0905 317.544 93.0393 317.89 92.8698C317.935 92.7344 317.979 92.599 318.025 92.4594C318.311 92.1933 318.311 92.1933 318.684 91.8951C318.818 91.7867 318.952 91.6782 319.091 91.5665C319.299 91.399 319.299 91.399 319.511 91.2282C319.768 91.0148 320.024 90.8011 320.28 90.587C320.8 90.154 321.328 89.7428 321.881 89.3525C322.117 89.1706 322.117 89.1706 322.213 88.7658C322.226 88.442 322.231 88.1178 322.231 87.7938C322.231 87.6969 322.231 87.6 322.231 87.5001C322.232 87.1839 322.231 86.8676 322.23 86.5513C322.23 86.3903 322.23 86.3903 322.229 86.226C322.227 84.8487 322.21 83.473 322.154 82.0967C322.146 81.902 322.146 81.902 322.138 81.7033C322.107 81.0396 322.048 80.3928 321.943 79.7369C321.224 80.6778 320.51 81.6226 319.807 82.5755C318.951 83.7336 318.087 84.8841 317.215 86.0298C317.148 86.1177 317.081 86.2056 317.013 86.2962C316.302 87.2305 315.579 88.1392 314.79 89.0079C314.534 89.2901 314.287 89.5778 314.04 89.8688C312.099 92.1147 309.739 94.154 306.68 94.3959C304.077 94.5439 301.604 93.8985 299.589 92.1719C297.907 90.5548 297.205 88.4648 296.953 86.1666C296.882 86.251 296.812 86.3355 296.739 86.4225C295.706 87.626 294.529 88.5729 293.263 89.5097C293.186 89.5678 293.108 89.626 293.028 89.686C292.549 90.0332 292.108 90.2311 291.549 90.4074C291.547 90.5427 291.544 90.6779 291.541 90.8173C291.286 103.333 291.286 103.333 287.092 108.602C287.019 108.693 286.947 108.784 286.872 108.878C286.8 108.966 286.728 109.054 286.654 109.144C286.589 109.224 286.524 109.304 286.457 109.386C286.281 109.56 286.281 109.56 286.011 109.56C285.966 109.695 285.922 109.831 285.876 109.97C285.547 110.323 285.166 110.621 284.795 110.928C284.668 111.034 284.54 111.141 284.409 111.251C281.197 113.881 277.442 115.118 273.313 114.895C271.903 114.716 270.59 114.097 269.666 112.98C269.085 112.208 268.686 111.46 268.45 110.517C268.426 110.42 268.401 110.322 268.375 110.221C268.07 108.252 268.337 106.265 268.856 104.361C268.882 104.262 268.909 104.162 268.937 104.06C269.849 100.785 271.525 97.8594 273.583 95.1955C273.666 95.088 273.666 95.088 273.751 94.9784C274.473 94.0459 274.473 94.0459 274.799 93.6907C274.888 93.6907 274.978 93.6907 275.069 93.6907C275.103 93.606 275.136 93.5214 275.171 93.4341C275.37 93.0905 275.534 93.0393 275.88 92.8698C275.924 92.7344 275.969 92.599 276.015 92.4594C276.301 92.1933 276.301 92.1933 276.673 91.8951C276.808 91.7867 276.942 91.6782 277.08 91.5665C277.219 91.4549 277.358 91.3432 277.501 91.2282C277.757 91.0148 278.013 90.8011 278.269 90.587C278.789 90.154 279.318 89.7428 279.87 89.3525C280.107 89.1706 280.107 89.1706 280.202 88.7658C280.216 88.442 280.22 88.1178 280.22 87.7938C280.221 87.6969 280.221 87.6 280.221 87.5001C280.221 87.1839 280.22 86.8676 280.219 86.5513C280.219 86.3903 280.219 86.3903 280.219 86.226C280.216 84.8487 280.2 83.473 280.143 82.0967C280.135 81.902 280.135 81.902 280.127 81.7033C280.096 81.0396 280.038 80.3928 279.932 79.7369C279.213 80.6778 278.5 81.6226 277.796 82.5755C276.941 83.7336 276.076 84.8841 275.204 86.0298C275.138 86.1177 275.071 86.2056 275.002 86.2962C274.291 87.2305 273.568 88.1392 272.779 89.0079C272.524 89.2901 272.276 89.5778 272.03 89.8688C270.088 92.1147 267.729 94.154 264.67 94.3959C262.066 94.5439 259.594 93.8985 257.578 92.1719C256.056 90.708 255.424 88.8794 254.942 86.8506C254.135 87.9461 253.35 89.0524 252.595 90.1851C251.324 92.0837 249.935 93.8681 248.458 95.6059C248.342 95.7499 248.225 95.894 248.109 96.0382C247.848 96.3495 247.601 96.6105 247.293 96.8713C246.975 97.1434 246.668 97.4177 246.369 97.7108C244.415 99.6113 242.164 100.602 239.447 100.56C237.472 100.489 235.755 99.4876 234.41 98.0683C232.566 96.0526 231.98 93.3385 232.071 90.6655C232.238 87.5808 233.277 84.498 234.41 81.6521C234.455 81.5372 234.501 81.4223 234.548 81.304C235.215 79.6413 235.979 78.0545 236.82 76.4763C237.05 76.0399 237.267 75.5975 237.483 75.154C237.876 74.3501 238.28 73.5531 238.69 72.7578C239.473 71.2362 240.25 69.7111 241.013 68.1792C241.112 67.9821 241.211 67.7851 241.31 67.5883C241.823 66.5704 242.302 65.551 242.7 64.4808C242.749 64.3509 242.749 64.3509 242.798 64.2184C243.114 63.3404 243.365 62.4836 243.342 61.5423C243.338 61.3476 243.338 61.3476 243.335 61.149C243.332 61.053 243.328 60.9571 243.325 60.8583C241.731 60.8882 240.642 62.1314 239.543 63.1839C239.451 63.2694 239.36 63.3549 239.265 63.4431C233.058 69.4391 229.588 79.0225 226.977 87.0893C226.653 88.0701 226.306 89.0581 225.553 89.7833C223.783 90.5984 221.467 90.385 219.67 89.7442C217.083 88.6971 215.54 86.8359 214.283 84.3881C214.189 84.1618 214.097 83.9343 214.012 83.7041C213.923 83.7944 213.834 83.8847 213.742 83.9777C213.679 84.0409 213.617 84.104 213.552 84.169C213.405 84.3187 213.261 84.4706 213.118 84.6243C211.889 85.9256 210.22 87.4365 208.541 88.0732C208.169 88.2223 207.947 88.3388 207.664 88.629C207.397 89.2976 207.231 89.977 207.061 90.6757C206.609 92.3973 205.401 94.6179 204.151 95.8795C204.062 95.8795 203.973 95.8795 203.881 95.8795C203.849 95.9578 203.816 96.0361 203.783 96.1167C203.111 97.3307 201.658 98.0892 200.504 98.7523C200.412 98.807 200.319 98.8616 200.223 98.918C197.246 100.557 193.245 100.883 190.018 99.9483C187.243 99.0817 185.172 97.6721 183.754 95.0587C182.583 92.538 181.535 88.2333 182.403 85.4826C182.277 85.5568 182.151 85.631 182.022 85.7075C180.41 86.6336 178.886 87.1516 177 86.9874C176.911 86.9422 176.822 86.8971 176.73 86.8506C176.682 87.0142 176.635 87.1779 176.586 87.3465C175.439 90.8048 172.885 93.8986 169.706 95.6059C166.622 97.0906 162.732 97.5823 159.428 96.5731C158.107 96.0852 157.067 95.3038 156.459 93.9985C155.69 92.1019 155.955 89.9262 156.719 88.0728C157.225 86.9184 157.814 85.8966 158.629 84.9353C158.699 84.8345 158.769 84.7336 158.841 84.6297C158.905 84.55 158.969 84.4703 159.034 84.3881C159.123 84.3881 159.212 84.3881 159.304 84.3881C159.331 84.3116 159.359 84.2351 159.387 84.1562C159.648 83.7182 160.012 83.4634 160.419 83.174C160.502 83.1142 160.586 83.0543 160.672 82.9926C162.524 81.7111 164.398 81.3637 166.599 81.2417C166.612 81.1498 166.625 81.058 166.639 80.9633C166.746 80.2405 166.856 79.5209 166.993 78.8033C167.284 77.2517 167.492 75.7002 167.637 74.128C167.661 73.8769 167.661 73.8769 167.686 73.6208C168.063 69.2619 167.987 64.8561 168.021 60.4848C168.028 59.6299 168.036 58.7749 168.043 57.92C168.057 56.2546 168.071 54.5892 168.085 52.9238C168.008 52.9395 167.931 52.9551 167.851 52.9713C167.498 53.0432 167.145 53.1149 166.792 53.1867C166.671 53.2114 166.55 53.236 166.426 53.2614C162.111 54.1376 162.111 54.1376 160.655 53.1974C160.24 52.9167 159.878 52.6441 159.574 52.2398C159.524 51.7268 159.524 51.7268 159.709 51.2822C160.382 50.8411 161.069 50.7522 161.847 50.6462C161.976 50.6274 162.106 50.6085 162.24 50.5891C162.662 50.528 163.085 50.469 163.509 50.41C163.801 50.3684 164.094 50.3266 164.386 50.2847C164.977 50.2004 165.567 50.1168 166.158 50.0339C166.809 49.9422 167.46 49.8476 168.11 49.7508C168.549 49.6855 168.987 49.6212 169.426 49.5571C169.626 49.5277 169.826 49.4979 170.026 49.4677C172.923 49.0322 175.228 49.1804 177.558 51.104ZM193.885 68.7928C192.715 70.1305 192.233 71.6687 192.264 73.444C192.455 73.5287 192.455 73.5287 192.649 73.615C193.651 74.078 194.439 74.4671 194.966 75.496C195.011 75.577 195.056 75.6579 195.103 75.7413C195.769 77.1739 195.364 78.7834 194.883 80.2029C194.696 80.6945 194.696 80.6945 194.453 81.1348C194.253 81.4941 194.253 81.4941 194.366 81.8033C195.59 83.4367 197.406 84.7543 199.424 85.0722C199.505 79.9355 199.51 73.9542 195.869 69.9128C195.406 69.4623 194.557 68.7928 193.885 68.7928ZM271.895 71.7511C271.143 72.6994 270.459 73.6842 269.816 74.7111C269.676 74.9328 269.533 75.1523 269.39 75.3715C266.975 79.1643 265.295 83.9558 265.208 88.4922C267.209 87.5913 268.947 85.6497 270.243 83.9168C270.606 83.4324 270.989 82.9686 271.38 82.5071C271.808 82.0005 272.229 81.4906 272.638 80.9681C273.047 80.4456 273.468 79.9358 273.896 79.4291C274.482 78.7333 275.045 78.0222 275.599 77.3001C276.132 76.6084 276.685 75.9363 277.244 75.2673C277.829 74.541 277.698 73.6587 277.636 72.76C277.506 71.6422 277.283 70.5747 276.69 69.6136C276.647 69.5319 276.604 69.4503 276.56 69.3661C276.42 69.1049 276.42 69.1049 276.15 68.7928C274.376 68.5795 272.894 70.519 271.895 71.7511ZM313.237 72.6124C312.736 73.2916 312.274 73.9953 311.826 74.7111C311.687 74.9328 311.544 75.1523 311.401 75.3715C308.986 79.1643 307.306 83.9558 307.219 88.4922C309.219 87.5913 310.958 85.6497 312.254 83.9168C312.617 83.4324 313 82.9686 313.39 82.5071C313.818 82.0005 314.24 81.4906 314.648 80.9681C315.057 80.4456 315.479 79.9358 315.906 79.4291C316.493 78.7333 317.056 78.0222 317.61 77.3001C318.142 76.6084 318.695 75.9363 319.255 75.2673C319.84 74.5402 319.707 73.6595 319.646 72.76C319.491 71.5225 319.222 70.4046 318.566 69.34C318.506 69.2375 318.446 69.135 318.384 69.0295C318.176 68.7612 318.176 68.7612 317.837 68.742C315.815 69.0336 314.395 71.0863 313.237 72.6124ZM161.917 86.4941C160.873 87.6698 160.306 89.0469 160.353 90.6345C160.398 91.0875 160.508 91.4827 160.655 91.9122C161.467 91.8173 162.056 91.0719 162.544 90.4617C163.782 88.8509 165.383 86.6541 165.383 84.5249C164.125 84.5249 162.772 85.6531 161.917 86.4941ZM192.669 85.6194C192.314 86.6675 192.048 87.7145 191.834 88.8C191.811 88.9131 191.789 89.0262 191.765 89.1427C191.518 90.4313 191.426 91.6856 191.42 92.9981C191.417 93.1377 191.414 93.2772 191.412 93.4211C191.405 94.6711 191.587 95.8503 192.399 96.8371C192.961 97.3397 193.403 97.4758 194.134 97.4351C195.094 97.2681 195.75 96.3436 196.317 95.6059C197.698 93.5871 198.963 91.1454 198.883 88.629C198.764 88.5923 198.644 88.5556 198.521 88.5178C196.562 87.8904 194.782 87.0828 193.121 85.8502C192.851 85.606 192.851 85.606 192.669 85.6194ZM279.206 95.0758C276.186 98.1777 274.092 102.121 273.659 106.482C273.647 106.604 273.634 106.727 273.621 106.853C273.527 108.035 273.616 109.176 274.394 110.107C274.528 110.152 274.661 110.197 274.799 110.244C276.551 109.257 277.541 107.522 278.311 105.729C278.35 105.64 278.388 105.551 278.428 105.459C279.891 101.986 279.996 98.2346 279.932 94.5115C279.649 94.5115 279.39 94.8935 279.206 95.0758ZM321.217 95.0758C318.197 98.1777 316.102 102.121 315.67 106.482C315.657 106.604 315.645 106.727 315.632 106.853C315.537 108.035 315.627 109.176 316.404 110.107C316.538 110.152 316.672 110.197 316.81 110.244C318.561 109.257 319.552 107.522 320.322 105.729C320.36 105.64 320.399 105.551 320.438 105.459C321.901 101.986 322.006 98.2346 321.943 94.5115C321.659 94.5115 321.4 94.8935 321.217 95.0758Z" fill="white"/>
<path d="M120.671 51.4188C121.432 51.9984 121.9 52.7369 122.292 53.6076C122.335 53.7021 122.378 53.7966 122.423 53.894C123.741 57.4194 121.787 61.9278 120.369 65.1155C118.823 68.4968 116.798 71.5575 114.411 74.3843C114.078 74.7793 113.75 75.1782 113.427 75.5813C113.342 75.6875 113.256 75.7937 113.168 75.903C112.774 76.4568 112.781 77.0281 112.836 77.6847C112.933 78.2165 113.066 78.737 113.201 79.26C113.258 79.4841 113.258 79.4841 113.315 79.7128C113.395 80.028 113.476 80.343 113.557 80.6579C113.679 81.1351 113.8 81.6128 113.92 82.0906C113.998 82.3983 114.077 82.7059 114.155 83.0135C114.191 83.1542 114.226 83.2949 114.263 83.4399C114.513 84.409 114.809 85.3566 115.132 86.3032C115.187 86.0511 115.187 86.0511 115.243 85.794C115.383 85.1564 115.524 84.519 115.665 83.8818C115.725 83.6086 115.785 83.3353 115.845 83.062C116.809 78.6456 117.85 74.1159 121.822 71.4634C123.791 70.2368 125.943 69.7314 128.244 70.1178C130.424 70.6482 132.286 71.764 133.503 73.7174C134.578 75.671 135.008 77.7456 135.023 79.9761C135.027 80.1203 135.027 80.1203 135.032 80.2673C135.048 82.63 134.412 84.9844 133.858 87.2608C133.787 87.5564 133.716 87.852 133.645 88.1477C133.266 89.7273 132.877 91.3045 132.485 92.8809C132.446 93.0388 132.407 93.1967 132.366 93.3594C132.178 94.1177 131.988 94.8757 131.797 95.6332C131.355 97.3925 130.98 99.1535 130.667 100.941C130.817 100.791 130.967 100.641 131.117 100.49C131.201 100.407 131.284 100.323 131.37 100.237C131.721 99.8695 132.019 99.4742 132.313 99.0599C132.376 98.9722 132.439 98.8844 132.503 98.794C134.587 95.8387 136.303 92.6187 138.047 89.4517C138.659 88.3419 139.281 87.2387 139.907 86.1368C140.14 85.7257 140.371 85.3139 140.603 84.902C141.452 83.396 142.316 81.9017 143.221 80.4292C143.301 80.299 143.38 80.1688 143.463 80.0347C143.87 79.377 144.293 78.7306 144.733 78.0945C144.817 77.9733 144.9 77.852 144.987 77.7271C145.339 77.3132 145.699 77.0588 146.225 76.9269C146.866 76.9008 147.245 77.0053 147.755 77.4111C148.176 77.8353 148.391 78.1697 148.401 78.7775C148.281 79.6325 147.739 80.268 147.248 80.9423C144.968 84.082 143.188 87.6925 141.38 91.1208C140.684 92.4338 139.947 93.7198 139.199 95.0029C138.893 95.5288 138.598 96.059 138.311 96.5957C137.194 98.6751 135.844 100.657 134.314 102.446C134.208 102.587 134.102 102.728 133.993 102.873C132.946 104.035 131.209 105.474 129.58 105.616C128.002 105.658 126.615 105.639 125.128 105.045C125.009 104.999 124.889 104.952 124.765 104.904C123.33 104.266 122.11 103.081 121.481 101.625C119.546 96.0816 121.75 90.1102 123.566 84.8489C124.186 83.0518 124.779 81.2453 125.364 79.4366C125.469 79.1133 125.575 78.7904 125.682 78.4678C126.245 76.7681 126.718 75.2049 126.074 73.4438C124.385 73.6595 123.105 74.807 122.081 76.1114C118.947 80.5172 118.906 86.4041 119.288 91.597C119.443 93.7765 119.443 93.7765 118.78 94.6481C117.667 95.6686 116.051 95.9977 114.592 96.1529C114.446 96.1701 114.446 96.1701 114.297 96.1876C111.723 96.3404 109.43 94.7641 107.568 93.1432C106.489 92.1683 105.622 91.107 104.866 89.86C104.819 89.7832 104.772 89.7064 104.724 89.6273C103.492 87.5623 102.868 85.2093 102.3 82.8831C102.254 82.9589 102.208 83.0348 102.161 83.1129C101.054 84.9384 99.9114 86.7362 98.7368 88.5176C98.6745 88.6122 98.6122 88.7068 98.548 88.8042C96.3881 92.0801 96.3881 92.0801 95.2922 93.5451C95.2242 93.6362 95.1562 93.7274 95.0862 93.8213C94.8796 94.0973 94.6723 94.3727 94.4648 94.6481C94.4018 94.7323 94.3387 94.8165 94.2737 94.9032C93.4713 95.9717 92.6256 96.9767 91.7162 97.9532C91.4396 98.2531 91.176 98.5551 90.9189 98.8718C90.4841 99.3926 89.9822 99.8203 89.4668 100.257C89.3569 100.354 89.2471 100.452 89.1339 100.552C86.5941 102.754 83.9975 103.476 80.6865 103.267C78.7664 103.03 77.2971 102.23 76.0853 100.71C74.5723 98.6067 74.6448 95.6041 74.9518 93.1315C75.346 90.632 76.3717 88.2251 77.3094 85.8928C77.2084 85.9785 77.1075 86.0642 77.0034 86.1525C76.8704 86.2643 76.7373 86.3761 76.6003 86.4913C76.4686 86.6024 76.337 86.7135 76.2013 86.8279C75.8971 87.0663 75.6335 87.2439 75.2832 87.3976C75.2832 87.4879 75.2832 87.5782 75.2832 87.6712C75.0848 87.8713 75.0848 87.8713 74.8104 88.103C74.2301 88.6028 73.6749 89.1243 73.1219 89.6548C72.4949 90.2563 71.8608 90.8453 71.2085 91.4185C70.877 91.7126 70.5563 92.0176 70.2345 92.3224C68.0527 94.3254 66.0882 94.883 63.2049 94.8023C61.5356 94.719 59.7056 93.9021 58.4972 92.7227C57.4215 91.5131 56.732 90.1123 56.5068 88.492C56.1663 88.8071 55.9494 89.1339 55.7206 89.5383C55.6489 89.6637 55.5773 89.7891 55.5034 89.9183C55.4278 90.0514 55.3521 90.1845 55.2742 90.3217C54.6045 91.4833 53.9221 92.6094 53.1298 93.6905C53.0724 93.7694 53.015 93.8483 52.9559 93.9296C51.4295 96.0143 49.6558 97.8123 47.0511 98.3417C45.4374 98.5564 43.7486 98.1193 42.3908 97.2131C40.633 95.8308 39.6471 93.9166 39.2709 91.7151C39.1458 90.5978 39.1697 89.4698 39.1742 88.3466C39.1745 88.212 39.1748 88.0773 39.1752 87.9386C39.1867 84.9474 39.5162 82.1081 40.0691 79.1724C40.0875 79.0744 40.1059 78.9764 40.1249 78.8754C40.705 75.83 41.5274 72.8587 42.4246 69.8955C42.5201 69.5779 42.6155 69.2602 42.7108 68.9425C42.899 68.316 43.0876 67.6897 43.2765 67.0634C43.6042 65.9777 43.9298 64.8913 44.2549 63.8048C44.3389 63.5244 44.4231 63.2441 44.5074 62.9638C44.5568 62.7992 44.6062 62.6346 44.6571 62.465C44.6992 62.3248 44.7414 62.1847 44.7848 62.0404C44.8724 61.7387 44.9527 61.4374 45.0249 61.1317C42.3821 62.8617 40.9288 65.7181 39.6105 68.5297C39.4887 68.788 39.3634 69.0445 39.2375 69.3008C36.5908 74.7545 34.7301 80.6871 33.0786 86.5169C33.0511 86.6136 33.0236 86.7104 32.9952 86.81C32.9155 87.0913 32.8366 87.3729 32.7583 87.6546C32.7332 87.7449 32.7081 87.8352 32.6822 87.9283C32.5492 88.416 32.4294 88.9044 32.3229 89.3988C32.3001 89.5036 32.2772 89.6085 32.2537 89.7165C32.2108 89.9169 32.1695 90.1176 32.1302 90.3187C31.9995 90.931 31.8186 91.3293 31.3816 91.7752C30.2789 92.1839 29.0367 92.2688 27.8695 92.3224C27.7377 92.3313 27.6059 92.3401 27.47 92.3492C26.0144 92.4071 24.6541 92.0662 23.5374 91.0864C21.2963 88.7755 21.4863 84.6682 21.4964 81.6199C21.534 78.6741 21.8492 75.7601 22.25 72.8452C22.3747 71.9359 22.4946 71.0258 22.614 70.1157C22.6371 69.9394 22.6602 69.7632 22.684 69.5816C22.9427 67.5901 23.1422 65.5983 23.2767 63.5941C23.2858 63.4622 23.295 63.3304 23.3044 63.1945C23.4408 61.1407 23.4268 59.0851 23.4118 57.0276C23.2171 57.1322 23.0231 57.2378 22.8292 57.344C22.7211 57.4027 22.613 57.4614 22.5016 57.5219C22.193 57.697 22.193 57.697 21.9707 57.9398C21.9114 57.9999 21.852 58.0601 21.7908 58.122C21.7017 58.122 21.6125 58.122 21.5206 58.122C21.4863 58.1987 21.452 58.2755 21.4167 58.3545C21.2277 58.7124 20.9993 59.0078 20.7524 59.3276C18.0236 63.1124 17.9213 68.3356 17.4481 72.8266C17.4087 73.1995 17.369 73.5723 17.3291 73.945C17.0019 77.0057 16.6823 80.0671 16.3875 83.1311C16.3741 83.2694 16.3606 83.4076 16.3467 83.5501C16.1814 85.2539 16.1814 85.2539 16.0852 86.9628C16.0804 87.0933 16.0756 87.2238 16.0707 87.3583C16.0627 87.6055 16.0564 87.8529 16.0521 88.1003C16.0285 88.8802 15.9169 89.4933 15.3676 90.0861C13.8624 91.198 12.0878 92.1244 10.1738 91.912C7.91663 91.5536 6.00642 90.4662 4.62539 88.608C2.32609 85.1647 1.41424 80.9073 0.675825 76.881C0.643057 76.7041 0.610288 76.5272 0.576526 76.345C0.129467 73.797 -0.008673 71.2578 0.000416204 68.6729C0.000572647 68.5337 0.000724969 68.3946 0.000886154 68.2512C0.00618658 65.8529 0.14161 63.5107 0.447875 61.1317C0.479103 60.8624 0.51024 60.593 0.541271 60.3237C0.913848 57.2868 0.913848 57.2868 1.96755 56.2667C3.3768 55.2095 5.39569 55.2542 7.06689 55.386C8.06476 55.5712 8.94948 55.838 9.63344 56.6172C10.2064 57.4759 10.4513 58.2865 10.5964 59.3041C10.618 59.4455 10.6396 59.5869 10.6619 59.7326C10.9198 61.4972 11.0725 63.2735 11.2216 65.0503C11.2463 65.3426 11.2716 65.6349 11.297 65.9272C11.4994 68.254 11.6846 70.5819 11.8523 72.9116C11.8599 73.0179 11.8676 73.1243 11.8755 73.2339C11.9497 74.2663 12.0228 75.2988 12.0925 76.3316C12.112 76.6198 12.1319 76.9079 12.1519 77.1961C12.176 77.5457 12.1995 77.8954 12.2222 78.2452C12.2893 79.8558 12.2893 79.8558 12.7403 81.3783C12.9858 79.6552 13.1606 77.9255 13.3386 76.1942C15.1129 59.0122 15.1129 59.0122 20.0938 54.8559C21.9103 53.5186 23.97 52.9676 26.1936 53.2613C27.7101 53.5235 29.2674 54.0387 30.2799 55.2813C31.9358 57.8284 32.339 61.3434 32.3546 64.3374C32.3554 64.4573 32.3562 64.5772 32.357 64.7007C32.3582 64.9539 32.3591 65.2072 32.3596 65.4605C32.3609 65.8338 32.3651 66.2071 32.3694 66.5805C32.3899 69.9493 31.8467 73.2737 31.3647 76.5988C31.2915 77.1063 31.2185 77.6139 31.1458 78.1215C31.1012 78.4329 31.0563 78.7443 31.011 79.0556C30.8868 79.9195 30.7832 80.7824 30.7062 81.6519C30.7498 81.5009 30.7498 81.5009 30.7942 81.3468C32.1835 76.5499 33.6565 71.7867 35.8393 67.2877C35.9227 67.1119 36.0061 66.9361 36.0894 66.7603C37.4305 63.9589 39.0543 61.3993 41.1075 59.0796C41.2156 58.9569 41.3238 58.8342 41.4352 58.7077C43.0063 57.0203 44.9306 55.8923 47.249 55.7927C49.459 55.81 51.527 56.6133 53.1583 58.1252C54.4635 59.4864 54.7915 61.0948 54.7708 62.9352C54.6055 67.2393 53.3086 71.3529 52.0234 75.425C50.2667 81.0017 48.5535 86.6627 47.3044 92.3823C47.2637 92.5682 47.2637 92.5682 47.2222 92.758C47.099 93.3528 47.0216 93.8996 47.0511 94.5113C50.5855 92.5174 52.4071 88.1762 54.2923 84.727C55.9367 81.7192 55.9367 81.7192 56.9205 80.3266C57.4549 79.5304 57.7725 78.6941 58.1095 77.8007C59.4832 74.2038 61.7336 71.1535 64.3416 68.3822C64.4227 68.2912 64.5039 68.2002 64.5875 68.1064C65.9998 66.5683 68.0173 65.3603 70.015 64.8253C70.1663 64.7833 70.1663 64.7833 70.3205 64.7403C73.0391 64.1136 76.3111 64.4883 78.7162 65.9208C80.7478 67.243 81.9513 69.055 82.5157 71.4254C82.5885 71.8684 82.5928 72.2877 82.5908 72.7368C82.5904 72.9136 82.59 73.0904 82.5895 73.2725C82.5884 73.4579 82.5872 73.6432 82.5861 73.8286C82.5854 74.0166 82.5848 74.2046 82.5842 74.3926C82.5826 74.8516 82.5804 75.3105 82.5776 75.7694C82.7117 75.7051 82.8458 75.6407 82.9839 75.5744C85.1968 74.5364 87.2705 74.0686 89.6726 74.8113C90.4336 75.1237 90.9444 75.5199 91.3579 76.2397C91.6783 77.3956 91.3474 78.2638 90.9696 79.369C90.9143 79.5335 90.859 79.698 90.8021 79.8674C90.3432 81.2176 89.8444 82.55 89.3312 83.8797C88.8052 85.2447 88.2971 86.6165 87.7867 87.9875C87.6367 88.3903 87.4865 88.7931 87.3364 89.1959C87.2385 89.4586 87.1406 89.7213 87.0427 89.984C86.6916 90.9264 86.3402 91.8687 85.9879 92.8107C85.8667 93.1348 85.7456 93.4589 85.6247 93.7831C85.375 94.4509 85.1228 95.117 84.8582 95.7788C84.3753 96.9894 84.0085 98.1453 83.7934 99.4361C85.466 98.8776 86.7207 97.7761 87.9809 96.5633C88.1105 96.4393 88.24 96.3153 88.3735 96.1876C89.3122 95.2727 90.1266 94.2939 90.9112 93.242C91.0801 93.0168 91.2514 92.7938 91.4239 92.5715C93.1042 90.3949 94.5971 88.0932 96.0801 85.7765C96.3332 85.3811 96.5869 84.986 96.8409 84.591C97.6723 83.2977 97.6723 83.2977 98.4983 82.0009C100.784 78.3989 100.784 78.3989 101.219 77.9583C101.202 77.1177 101.112 76.2749 101.017 75.4398C100.826 73.7337 100.765 72.0478 100.771 70.3316C100.772 70.2005 100.772 70.0694 100.772 69.9344C100.778 67.9347 100.835 65.9725 101.219 64.0045C101.246 63.8628 101.246 63.8628 101.274 63.7181C101.902 60.6137 103.384 57.9019 105.406 55.5228C105.497 55.4057 105.587 55.2886 105.68 55.168C105.92 54.8715 106.157 54.6323 106.445 54.3856C106.732 54.1382 107.017 53.8912 107.292 53.6295C111.057 50.0641 116.07 48.549 120.671 51.4188ZM116.023 54.6037C112.967 57.8516 112.248 64.123 112.245 68.3822C112.245 68.4764 112.244 68.5706 112.244 68.6677C112.164 69.7061 112.164 69.7061 112.566 70.571C117.121 63.8832 117.121 63.8832 118.374 56.07C118.199 55.1509 117.892 54.4588 117.294 53.7444C116.766 53.7444 116.39 54.2573 116.023 54.6037ZM75.8235 68.2454C75.5943 68.4847 75.3834 68.7246 75.1735 68.9807C75.1079 69.0603 75.0424 69.14 74.9749 69.2221C71.3921 73.6404 68.7717 78.7765 66.9926 84.1827C66.9584 84.2864 66.9242 84.3901 66.889 84.497C66.009 86.8592 66.009 86.8592 65.6924 89.3128C66.1952 89.3128 66.2831 89.1982 66.6633 88.8767C66.8414 88.7281 66.8414 88.7281 67.0232 88.5764C67.0899 88.5201 67.1566 88.4638 67.2254 88.4058C67.66 88.0406 68.0992 87.6812 68.5376 87.3206C68.632 87.2429 68.7263 87.1651 68.8236 87.0849C69.382 86.6253 69.9438 86.1711 70.5137 85.726C71.7134 84.7886 72.8971 83.8324 74.071 82.8621C74.8022 82.2588 75.5419 81.6676 76.2863 81.0812C76.3584 81.0212 76.4304 80.9613 76.5047 80.8995C76.7691 80.6943 76.7691 80.6943 77.1502 80.4549C77.7727 80.0274 78.1861 79.719 78.3889 78.9657C78.4548 78.3789 78.4406 77.7952 78.4239 77.2059C78.4231 76.9958 78.4229 76.7858 78.4232 76.5758C78.422 75.9873 78.4074 75.4 78.3901 74.8118C78.3871 74.6729 78.3841 74.5339 78.3811 74.3907C78.3659 73.7517 78.3269 73.1218 78.255 72.4862C78.2414 72.3598 78.2278 72.2333 78.2139 72.1031C77.9904 70.6182 77.1962 69.2412 76.0937 68.2454C76.0045 68.2454 75.9154 68.2454 75.8235 68.2454Z" fill="white"/>
<path d="M208.499 2.40975C208.688 2.56211 208.688 2.56211 208.879 2.71755C208.954 2.77716 209.028 2.83676 209.105 2.89818C210.431 4.08029 211.089 6.00039 211.2 7.74521C211.544 15.5759 207.61 23.4432 203.881 30.0779C203.753 30.3069 203.753 30.3069 203.622 30.5406C201.608 34.1195 199.429 37.5634 196.798 40.7142C196.702 40.8293 196.702 40.8293 196.605 40.9467C195.592 42.1354 195.592 42.1354 194.915 42.3596C194.817 42.3668 194.72 42.374 194.62 42.3815C194.522 42.3912 194.424 42.4009 194.324 42.4109C193.258 42.3377 192.482 41.4464 191.816 40.6798C191.359 40.1262 190.933 39.5492 190.508 38.97C190.439 38.8774 190.371 38.7847 190.3 38.6893C185.29 31.9291 180.703 22.4994 180.74 13.884C180.74 13.7912 180.741 13.6983 180.741 13.6027C180.748 12.215 180.796 10.8976 181.188 9.55763C181.214 9.46814 181.24 9.37864 181.267 9.28644C181.916 7.14164 183.05 5.25272 185.063 4.16252C186.465 3.56816 188.029 3.64988 189.428 4.22237C189.869 4.45592 190.253 4.73061 190.643 5.04318C190.753 5.13047 190.863 5.21776 190.976 5.3077C193.01 7.03686 194.075 9.5005 194.831 12.0201C194.893 11.8994 194.893 11.8994 194.956 11.7764C196.205 9.36193 197.557 7.27772 199.424 5.31678C199.523 5.20727 199.623 5.09776 199.725 4.98493C201.92 2.6371 205.408 0.690852 208.499 2.40975Z" fill="#A10800"/>
<path d="M267.579 1.56497C268.832 2.82238 269.252 4.32625 269.278 6.0794C269.279 6.31264 269.279 6.54588 269.279 6.77912C269.279 6.9085 269.279 7.03788 269.279 7.17118C269.28 7.60255 269.28 8.03392 269.28 8.4653C269.281 8.77548 269.281 9.08567 269.282 9.39585C269.283 10.237 269.283 11.0782 269.283 11.9194C269.283 12.4454 269.283 12.9713 269.284 13.4973C269.285 15.2388 269.286 16.9804 269.286 18.7219C269.286 18.8156 269.286 18.9094 269.286 19.006C269.286 19.0998 269.286 19.1937 269.286 19.2904C269.285 20.8108 269.287 22.3312 269.289 23.8516C269.291 25.4154 269.292 26.9793 269.291 28.5431C269.291 29.42 269.292 30.2969 269.293 31.1738C269.295 31.9989 269.295 32.8239 269.294 33.649C269.293 33.951 269.294 34.253 269.295 34.5549C269.307 39.3121 269.307 39.3121 267.673 41.0734C266.297 42.3506 264.975 42.7274 263.14 42.6979C261.539 42.5881 260.375 41.8563 259.333 40.6518C258.415 39.5143 258.102 38.2761 258.114 36.8291C258.113 36.6905 258.112 36.5519 258.111 36.4091C258.109 35.9491 258.11 35.4891 258.112 35.0291C258.111 34.6975 258.11 34.3659 258.108 34.0343C258.105 33.2297 258.105 32.4251 258.106 31.6204C258.107 30.9659 258.107 30.3113 258.106 29.6568C258.106 29.5634 258.106 29.4699 258.106 29.3736C258.106 29.1838 258.105 28.9939 258.105 28.804C258.103 27.0266 258.104 25.2491 258.106 23.4717C258.108 21.8488 258.106 20.2259 258.102 18.603C258.098 16.9329 258.097 15.2629 258.098 13.5928C258.098 13.4036 258.099 13.2143 258.099 13.0251C258.099 12.932 258.099 12.8389 258.099 12.743C258.099 12.0902 258.098 11.4373 258.096 10.7844C258.093 9.90382 258.094 9.0233 258.098 8.14273C258.098 7.82052 258.098 7.4983 258.096 7.17609C258.086 5.05901 258.095 3.22179 259.647 1.61413C261.988 -0.500098 265.211 -0.525417 267.579 1.56497ZM260.615 2.30722C259.55 3.40525 259.202 4.51681 259.212 6.02247C259.211 6.15875 259.211 6.29503 259.21 6.43543C259.208 6.89015 259.209 7.34481 259.21 7.79953C259.209 8.12633 259.208 8.45313 259.207 8.77993C259.205 9.57433 259.205 10.3687 259.205 11.1631C259.206 11.8091 259.206 12.4551 259.205 13.1012C259.205 13.1932 259.205 13.2853 259.205 13.3802C259.204 13.5674 259.204 13.7545 259.204 13.9416C259.202 15.6948 259.203 17.4479 259.204 19.2011C259.206 20.8031 259.204 22.405 259.201 24.007C259.198 25.654 259.196 27.301 259.197 28.948C259.198 29.8719 259.197 30.7957 259.195 31.7195C259.193 32.5884 259.193 33.4572 259.196 34.3261C259.196 34.6445 259.196 34.9629 259.195 35.2813C259.193 35.717 259.194 36.1525 259.197 36.5881C259.195 36.7132 259.194 36.8384 259.193 36.9673C259.209 38.4044 259.739 39.4317 260.71 40.4567C261.614 41.3062 262.712 41.6462 263.935 41.612C265.154 41.4528 266.299 40.8778 267.066 39.8988C267.894 38.6826 268.065 37.6012 268.063 36.1491C268.063 35.9516 268.063 35.9516 268.064 35.7501C268.065 35.3094 268.065 34.8687 268.064 34.4279C268.065 34.1117 268.065 33.7955 268.066 33.4793C268.067 32.6206 268.067 31.7619 268.067 30.9032C268.067 30.1863 268.068 29.4693 268.068 28.7523C268.07 27.1572 268.07 25.5622 268.07 23.9671C268.07 23.8714 268.07 23.7758 268.07 23.6772C268.07 23.5336 268.07 23.5336 268.07 23.387C268.07 21.8354 268.071 20.2837 268.073 18.7321C268.075 17.1375 268.076 15.5429 268.076 13.9483C268.076 13.0536 268.076 12.1589 268.077 11.2642C268.079 10.4226 268.079 9.58107 268.078 8.73949C268.078 8.43095 268.078 8.1224 268.079 7.81386C268.08 7.39198 268.079 6.97014 268.078 6.54826C268.079 6.42679 268.08 6.30532 268.08 6.18016C268.073 4.82488 267.822 3.65256 266.964 2.58083C265.002 0.811931 262.689 0.592296 260.615 2.30722Z" fill="white"/>
<path d="M84.3035 1.4681C85.4341 2.56683 86.0344 3.8832 86.1024 5.47754C86.1078 5.82104 86.109 6.16431 86.1086 6.50786C86.109 6.63916 86.1094 6.77047 86.1099 6.90575C86.111 7.34447 86.1112 7.78319 86.1114 8.22192C86.1121 8.53703 86.1127 8.85214 86.1135 9.16725C86.1152 10.0226 86.1161 10.8779 86.1167 11.7333C86.1171 12.2682 86.1177 12.803 86.1183 13.3379C86.1199 14.8212 86.1213 16.3045 86.1218 17.7877C86.1218 17.93 86.1218 17.93 86.1219 18.075C86.1219 18.2176 86.1219 18.2176 86.1219 18.363C86.122 18.5556 86.1221 18.7481 86.1221 18.9407C86.1222 19.0362 86.1222 19.1317 86.1222 19.2301C86.1227 20.776 86.1251 22.3218 86.1283 23.8677C86.1315 25.4578 86.1331 27.0479 86.1333 28.6381C86.1334 29.5296 86.1342 30.4212 86.1366 31.3128C86.1389 32.1521 86.1392 32.9915 86.138 33.8308C86.1379 34.1377 86.1385 34.4447 86.1398 34.7516C86.1578 39.1402 86.1578 39.1402 84.5531 40.9792C82.9758 42.3864 81.5623 42.7782 79.4707 42.6636C78.0566 42.45 76.9136 41.5815 76.0213 40.4801C75.2008 39.3233 74.9722 38.1647 74.9768 36.7665C74.9762 36.6293 74.9756 36.4921 74.975 36.3508C74.9733 35.8922 74.9735 35.4336 74.9737 34.975C74.9729 34.6458 74.972 34.3165 74.971 33.9872C74.9688 33.1863 74.968 32.3853 74.9678 31.5844C74.9677 30.933 74.9671 30.2815 74.9663 29.6301C74.9639 27.7811 74.9627 25.9321 74.9629 24.0831C74.9629 23.9835 74.9629 23.8839 74.9629 23.7813C74.9629 23.6816 74.9629 23.5819 74.9629 23.4792C74.963 21.864 74.9605 20.2489 74.9566 18.6338C74.9528 16.9733 74.9509 15.3128 74.9511 13.6524C74.9512 12.721 74.9505 11.7896 74.9476 10.8582C74.945 9.98189 74.9449 9.10564 74.9469 8.22935C74.9472 7.90834 74.9466 7.58733 74.9449 7.26633C74.9428 6.82685 74.9441 6.38751 74.9462 5.94803C74.9441 5.75917 74.9441 5.75917 74.942 5.5665C74.955 4.30847 75.338 3.17463 76.0936 2.17028C76.2023 2.00522 76.2023 2.00522 76.3131 1.83683C78.4582 -0.507059 81.9453 -0.583316 84.3035 1.4681ZM77.3695 2.37014C76.2934 3.53062 76.052 4.73277 76.0584 6.27516C76.0579 6.4092 76.0574 6.54324 76.0568 6.68135C76.0554 7.12849 76.056 7.57561 76.0565 8.02276C76.0559 8.34417 76.0552 8.66558 76.0544 8.98699C76.0526 9.85867 76.0525 10.7304 76.0529 11.602C76.053 12.4224 76.0522 13.2428 76.0515 14.0632C76.05 15.7874 76.0503 17.5116 76.0511 19.2358C76.0518 20.8112 76.0503 22.3867 76.0477 23.9621C76.0451 25.5819 76.044 27.2017 76.0445 28.8215C76.0448 29.73 76.0444 30.6386 76.0425 31.5471C76.0408 32.4016 76.0411 33.2561 76.0428 34.1106C76.0432 34.4237 76.0428 34.7368 76.0417 35.0499C76.0403 35.4784 76.0414 35.9067 76.0431 36.3351C76.0421 36.4581 76.0411 36.5811 76.04 36.7079C76.0514 38.0643 76.394 39.131 77.2671 40.1648C78.1508 41.0416 79.2274 41.5577 80.4669 41.6119C81.7563 41.5743 82.9022 40.985 83.7954 40.0542C84.6908 38.9625 84.9356 37.8828 84.9254 36.485C84.926 36.3503 84.9267 36.2156 84.9273 36.0768C84.9289 35.6282 84.9277 35.1796 84.9264 34.731C84.9269 34.4082 84.9276 34.0854 84.9285 33.7626C84.9304 32.8878 84.9297 32.0131 84.9284 31.1383C84.9278 30.5914 84.9278 30.0446 84.9282 29.4977C84.9283 29.3613 84.9283 29.3613 84.9284 29.2221C84.9285 29.0374 84.9286 28.8526 84.9287 28.6678C84.9299 26.9373 84.9286 25.2068 84.9264 23.4762C84.9246 21.9934 84.9249 20.5106 84.9268 19.0278C84.9289 17.3035 84.9298 15.5791 84.9285 13.8548C84.9284 13.6706 84.9283 13.4865 84.9282 13.3024C84.9281 13.2118 84.928 13.1213 84.928 13.0279C84.9276 12.3916 84.9282 11.7554 84.9292 11.1191C84.9303 10.2615 84.9295 9.40403 84.9272 8.54649C84.9267 8.23227 84.9268 7.91804 84.9277 7.60382C84.9288 7.17391 84.9274 6.74408 84.9254 6.31418C84.9263 6.19072 84.9272 6.06726 84.9281 5.94006C84.9151 4.5018 84.5319 3.33658 83.5231 2.30708C81.6392 0.757509 79.2158 0.70469 77.3695 2.37014Z" fill="white"/>
<path d="M90.0071 0.255143C90.393 0.252587 90.7788 0.25073 91.1648 0.249265C91.2729 0.248477 91.3811 0.247689 91.4926 0.246877C93.8633 0.240143 95.6144 0.902549 97.4366 2.44397C97.5254 2.51821 97.6142 2.59245 97.7057 2.66894C99.8675 4.66154 100.795 7.81015 100.976 10.6761C101.029 14.2336 99.9733 17.412 97.5548 20.0315C96.5471 21.0259 95.3019 21.8137 93.9244 22.1434C93.8194 22.1688 93.7144 22.1942 93.6063 22.2204C93.1971 22.2889 92.8108 22.2934 92.3963 22.2887C92.252 22.2875 92.1076 22.2863 91.9589 22.285C91.8497 22.2834 91.7405 22.2818 91.628 22.2802C91.6872 22.3985 91.7465 22.5169 91.8074 22.6388C92.3692 23.7668 92.9148 24.9018 93.4516 26.0422C94.092 27.4012 94.7512 28.7496 95.4188 30.095C96.0987 31.4654 96.767 32.8398 97.4148 34.2261C98.0155 35.5065 98.6441 36.7726 99.2752 38.0378C99.4782 38.4451 99.679 38.8534 99.8785 39.2625C99.965 39.4394 100.052 39.6159 100.14 39.7922C100.277 40.0687 100.412 40.3464 100.546 40.6244C100.588 40.7089 100.63 40.7934 100.674 40.8804C100.917 41.3926 100.992 41.7085 100.814 42.2532C100.501 42.3387 100.501 42.3387 100.138 42.39C99.7034 42.0965 99.6319 41.9712 99.4206 41.5072C99.3625 41.3817 99.3044 41.2561 99.2446 41.1268C99.1829 40.9906 99.1211 40.8545 99.0575 40.7142C98.9241 40.4255 98.7904 40.137 98.6565 39.8485C98.5884 39.7015 98.5204 39.5546 98.4502 39.4031C98.1448 38.752 97.8251 38.1085 97.5041 37.4652C97.0292 36.5096 96.5641 35.5502 96.1111 34.5838C95.2177 32.678 94.2975 30.7854 93.3797 28.8915C93.2554 28.6347 93.1311 28.3778 93.0068 28.121C92.9521 28.0083 92.8974 27.8956 92.841 27.7796C92.2883 26.6368 91.7561 25.4844 91.2228 24.3322C91.2224 24.4236 91.2219 24.515 91.2214 24.6092C91.2105 26.8309 91.198 29.0527 91.184 31.2744C91.1772 32.3488 91.1709 33.4232 91.1658 34.4976C91.1614 35.4338 91.156 36.37 91.1495 37.3061C91.1461 37.8021 91.1431 38.298 91.1413 38.7939C91.1392 39.3469 91.1351 39.8999 91.1308 40.4528C91.1305 40.6181 91.1302 40.7835 91.1299 40.9538C91.1284 41.1038 91.1269 41.2538 91.1253 41.4084C91.1246 41.5393 91.1238 41.6702 91.1231 41.805C91.0877 42.1164 91.0877 42.1164 90.8176 42.39C90.2022 42.314 90.2022 42.314 90.0071 42.1164C89.9939 41.8932 89.9903 41.6694 89.9904 41.4458C89.9902 41.2997 89.9899 41.1537 89.9896 41.0031C89.99 40.8407 89.9904 40.6782 89.9908 40.5108C89.9907 40.3397 89.9906 40.1686 89.9905 39.9924C89.9902 39.5154 89.9907 39.0385 89.9914 38.5615C89.992 38.0479 89.9918 37.5344 89.9917 37.0208C89.9916 36.1304 89.992 35.2399 89.9928 34.3494C89.9939 33.0619 89.9942 31.7745 89.9944 30.487C89.9947 28.3983 89.9956 26.3097 89.9969 24.221C89.9981 22.1916 89.9991 20.1621 89.9996 18.1327C89.9997 18.0077 89.9997 17.8827 89.9997 17.7539C89.9999 17.1268 90.0001 16.4997 90.0003 15.8727C90.0017 10.6668 90.004 5.46098 90.0071 0.255143ZM91.0877 1.34956C91.0877 7.89551 91.0877 14.4415 91.0877 21.1858C93.4747 21.1858 95.1187 20.7941 96.8709 19.0996C99.0848 16.7287 99.8535 13.7233 99.7709 10.527C99.6332 7.40544 98.3093 4.89052 96.1047 2.74696C94.674 1.5364 92.8724 1.34956 91.0877 1.34956Z" fill="white"/>
<path d="M208.499 2.40975C208.688 2.56211 208.688 2.56211 208.879 2.71755C208.954 2.77716 209.028 2.83676 209.105 2.89818C210.431 4.08029 211.089 6.00039 211.2 7.74521C211.544 15.5759 207.61 23.4432 203.881 30.0779C203.753 30.3069 203.753 30.3069 203.622 30.5406C201.608 34.1195 199.429 37.5634 196.798 40.7142C196.702 40.8293 196.702 40.8293 196.605 40.9467C195.592 42.1354 195.592 42.1354 194.915 42.3596C194.817 42.3668 194.72 42.374 194.62 42.3815C194.522 42.3912 194.424 42.4009 194.324 42.4109C193.258 42.3377 192.482 41.4464 191.816 40.6798C191.359 40.1262 190.933 39.5492 190.508 38.97C190.439 38.8774 190.371 38.7847 190.3 38.6893C185.29 31.9291 180.703 22.4994 180.74 13.884C180.74 13.7912 180.741 13.6983 180.741 13.6027C180.748 12.215 180.796 10.8976 181.188 9.55763C181.214 9.46814 181.24 9.37864 181.267 9.28644C181.916 7.14164 183.05 5.25272 185.063 4.16252C186.465 3.56816 188.029 3.64988 189.428 4.22237C189.869 4.45592 190.253 4.73061 190.643 5.04318C190.753 5.13047 190.863 5.21776 190.976 5.3077C193.01 7.03686 194.075 9.5005 194.831 12.0201C194.893 11.8994 194.893 11.8994 194.956 11.7764C196.205 9.36193 197.557 7.27772 199.424 5.31678C199.523 5.20727 199.623 5.09776 199.725 4.98493C201.92 2.6371 205.408 0.690852 208.499 2.40975ZM200.234 5.72719C200.081 5.87241 200.081 5.87241 199.924 6.02057C197.533 8.33739 196.047 11.4671 194.696 14.4825C194.651 14.4825 194.607 14.4825 194.561 14.4825C194.521 14.3203 194.482 14.158 194.441 13.9909C193.623 10.6854 192.513 7.37857 189.625 5.34938C188.46 4.65228 187.235 4.5611 185.915 4.76958C185.434 4.92479 185.09 5.13297 184.7 5.45359C184.619 5.50984 184.539 5.5661 184.456 5.62405C182.799 6.88109 182.054 9.07315 181.728 11.0625C181.655 11.8955 181.662 12.732 181.669 13.5676C181.669 13.6826 181.67 13.7975 181.671 13.9159C181.706 18.6315 183.081 23.0563 184.97 27.3418C185.026 27.4715 185.083 27.6012 185.141 27.7349C186.812 31.5697 188.698 35.2934 191.319 38.5596C191.413 38.6809 191.507 38.8022 191.604 38.9272C192.721 40.5639 192.721 40.5639 194.316 41.5094C195.579 41.3206 196.393 39.9341 197.127 38.97C197.19 38.8879 197.253 38.8058 197.317 38.7212C199.868 35.3685 202.012 31.7256 203.959 27.9852C204.14 27.6373 204.324 27.2906 204.508 26.9443C206.037 24.0557 207.336 21.1083 208.474 18.0393C208.546 17.8475 208.546 17.8475 208.62 17.6517C209.609 15.0088 210.254 12.3257 210.27 9.49117C210.272 9.29753 210.274 9.1039 210.278 8.9103C210.316 7.09118 210.079 5.38415 208.879 3.94877C208.235 3.27833 207.565 2.76993 206.624 2.65824C203.986 2.65562 202.089 3.89699 200.234 5.72719Z" fill="white"/>
<path d="M134.719 0.391816C134.719 6.44118 134.719 12.4905 134.719 18.7232C137.216 18.7232 139.712 18.7232 142.284 18.7232C142.282 18.1735 142.28 17.6238 142.277 17.0574C142.271 15.2451 142.266 13.4328 142.263 11.6206C142.261 10.5213 142.258 9.42208 142.253 8.32283C142.249 7.36499 142.247 6.40716 142.246 5.44931C142.245 4.9419 142.244 4.43452 142.241 3.92711C142.238 3.36136 142.238 2.79565 142.238 2.22989C142.236 2.06074 142.235 1.89159 142.233 1.71731C142.234 1.48711 142.234 1.48711 142.235 1.25226C142.235 1.11834 142.234 0.984415 142.234 0.846436C142.25 0.741556 142.267 0.636676 142.284 0.528618C142.689 0.255014 142.689 0.255014 143.044 0.289215C143.203 0.340002 143.203 0.340002 143.365 0.391816C143.533 0.732929 143.517 0.961349 143.517 1.34316C143.518 1.48736 143.518 1.63157 143.519 1.78014C143.519 1.93982 143.519 2.09949 143.519 2.264C143.519 2.43265 143.519 2.60131 143.52 2.77507C143.521 3.24471 143.521 3.71434 143.521 4.18397C143.521 4.68988 143.522 5.19578 143.523 5.70168C143.525 6.80851 143.526 7.91533 143.527 9.02216C143.527 9.7128 143.528 10.4034 143.528 11.0941C143.53 13.0049 143.531 14.9158 143.532 16.8267C143.532 17.0102 143.532 17.0102 143.532 17.1975C143.532 17.3814 143.532 17.3814 143.532 17.5691C143.532 17.8177 143.532 18.0662 143.532 18.3148C143.532 18.4381 143.532 18.5614 143.532 18.6884C143.533 20.6874 143.535 22.6864 143.538 24.6853C143.541 26.7359 143.543 28.7865 143.543 30.8372C143.543 31.9892 143.544 33.1412 143.547 34.2933C143.549 35.274 143.549 36.2547 143.548 37.2355C143.548 37.7362 143.548 38.2369 143.55 38.7376C143.552 39.2796 143.551 39.8215 143.549 40.3635C143.55 40.5229 143.551 40.6823 143.553 40.8465C143.551 41.0633 143.551 41.0633 143.55 41.2845C143.55 41.4097 143.55 41.5349 143.55 41.6639C143.5 41.9795 143.5 41.9795 143.316 42.2303C143.094 42.3899 143.094 42.3899 142.74 42.3557C142.419 42.2531 142.419 42.2531 142.284 42.1163C142.271 41.8289 142.267 41.541 142.268 41.2533C142.268 41.1621 142.267 41.071 142.267 40.977C142.267 40.6693 142.268 40.3616 142.269 40.0538C142.269 39.8341 142.269 39.6144 142.268 39.3947C142.268 38.7964 142.269 38.198 142.27 37.5997C142.271 36.9751 142.271 36.3505 142.271 35.7259C142.272 34.5423 142.273 33.3586 142.274 32.175C142.276 30.8279 142.276 29.4807 142.277 28.1336C142.278 25.3616 142.281 22.5896 142.284 19.8176C139.788 19.8176 137.291 19.8176 134.719 19.8176C134.721 20.4917 134.722 21.1658 134.724 21.8602C134.728 24.082 134.731 26.3038 134.733 28.5256C134.735 29.8733 134.737 31.221 134.74 32.5686C134.742 33.7429 134.744 34.9172 134.745 36.0915C134.745 36.7136 134.746 37.3357 134.748 37.9578C134.75 38.5428 134.75 39.1277 134.75 39.7127C134.75 39.9279 134.75 40.1431 134.751 40.3583C134.753 40.6512 134.753 40.944 134.752 41.2369C134.752 41.401 134.752 41.5652 134.753 41.7344C134.719 42.1163 134.719 42.1163 134.449 42.3899C134.103 42.3557 134.103 42.3557 133.774 42.2531C133.605 41.912 133.621 41.6836 133.621 41.3018C133.62 41.0855 133.62 41.0855 133.619 40.8648C133.619 40.7051 133.62 40.5454 133.62 40.3809C133.619 40.2123 133.619 40.0436 133.618 39.8699C133.617 39.4002 133.617 38.9306 133.617 38.4609C133.617 37.955 133.616 37.4491 133.615 36.9432C133.613 35.8364 133.612 34.7296 133.612 33.6228C133.611 32.9321 133.611 32.2415 133.61 31.5509C133.608 29.64 133.607 27.7291 133.607 25.8182C133.607 25.6959 133.606 25.5735 133.606 25.4475C133.606 25.3248 133.606 25.2022 133.606 25.0758C133.606 24.8272 133.606 24.5787 133.606 24.3301C133.606 24.2068 133.606 24.0835 133.606 23.9565C133.606 21.9575 133.603 19.9586 133.6 17.9596C133.597 15.909 133.595 13.8584 133.595 11.8078C133.595 10.6557 133.594 9.50369 133.592 8.35165C133.59 7.37091 133.589 6.39019 133.59 5.40945C133.591 4.90874 133.59 4.40806 133.589 3.90735C133.586 3.36535 133.588 2.82338 133.589 2.28137C133.588 2.122 133.587 1.96264 133.586 1.79844C133.587 1.65388 133.587 1.50931 133.588 1.36037C133.588 1.23517 133.588 1.10998 133.588 0.980983C133.639 0.665419 133.639 0.665419 133.802 0.408232C134.044 0.255014 134.044 0.255014 134.719 0.391816Z" fill="white"/>
<path d="M212.661 0.255127C212.999 0.263677 212.999 0.263677 213.337 0.391929C213.561 0.855885 213.668 1.31479 213.757 1.82123C213.784 1.96988 213.81 2.11854 213.837 2.27169C213.866 2.43407 213.894 2.59645 213.923 2.76375C213.954 2.93664 213.984 3.10953 214.016 3.28766C214.083 3.66626 214.15 4.04494 214.216 4.42368C214.324 5.03686 214.432 5.64985 214.541 6.26282C214.697 7.14702 214.853 8.0313 215.009 8.91564C215.253 10.3033 215.499 11.6908 215.744 13.0782C215.765 13.194 215.785 13.3097 215.807 13.429C215.911 14.0176 216.015 14.6063 216.119 15.1949C216.204 15.6711 216.288 16.1473 216.372 16.6236C217.233 21.4886 218.106 26.3514 218.984 31.2134C219.07 31.6877 219.156 32.1621 219.241 32.6365C219.614 34.7021 219.987 36.7677 220.361 38.8332C220.384 38.7013 220.408 38.5694 220.432 38.4336C221.009 35.1659 221.587 31.8982 222.165 28.6305C222.417 27.2041 222.67 25.7777 222.922 24.3513C222.976 24.0434 223.031 23.7355 223.085 23.4275C223.221 22.6617 223.356 21.8959 223.491 21.13C223.76 19.6135 224.028 18.097 224.297 16.5806C224.402 15.9847 224.508 15.3888 224.614 14.7928C224.639 14.6473 224.665 14.5017 224.692 14.3518C225.039 12.389 225.383 10.4256 225.723 8.46144C225.854 7.70426 225.986 6.94723 226.118 6.1902C226.24 5.49128 226.361 4.79214 226.48 4.09279C226.553 3.67056 226.626 3.24858 226.7 2.82666C226.734 2.63336 226.767 2.43997 226.8 2.24647C226.844 1.98501 226.89 1.72393 226.936 1.46288C226.961 1.31771 226.986 1.17254 227.012 1.02298C227.121 0.645648 227.204 0.480483 227.52 0.255127C227.883 0.297877 227.883 0.297877 228.196 0.391929C228.351 0.972072 228.303 1.41348 228.197 2.00182C228.181 2.09342 228.165 2.18502 228.148 2.2794C228.094 2.58645 228.038 2.89314 227.982 3.19987C227.943 3.42114 227.903 3.64243 227.864 3.86374C227.756 4.46911 227.647 5.07419 227.538 5.67923C227.421 6.32398 227.306 6.96899 227.191 7.61398C226.994 8.71736 226.796 9.82057 226.597 10.9237C226.314 12.4976 226.032 14.0717 225.75 15.6459C225.341 17.9298 224.932 20.2135 224.522 22.4971C224.013 25.3284 223.507 28.16 223.002 30.992C222.917 31.4699 222.831 31.9477 222.746 32.4256C222.713 32.6097 222.681 32.7939 222.648 32.9781C222.624 33.1126 222.624 33.1126 222.599 33.2498C222.552 33.5151 222.505 33.7803 222.457 34.0456C222.366 34.5556 222.276 35.0656 222.185 35.5756C222.155 35.7429 222.125 35.9101 222.094 36.0824C221.926 37.0258 221.758 37.9691 221.589 38.9123C221.539 39.1898 221.49 39.4674 221.44 39.7449C221.374 40.116 221.308 40.487 221.241 40.8581C221.222 40.9652 221.203 41.0723 221.184 41.1827C221.103 41.635 221.015 42.0818 220.901 42.5268C220.445 42.6123 220.445 42.6123 219.956 42.6636C219.591 42.2942 219.57 41.912 219.485 41.4157C219.457 41.2631 219.457 41.2631 219.429 41.1074C219.367 40.7641 219.307 40.4206 219.247 40.077C219.203 39.8307 219.159 39.5844 219.115 39.3381C218.994 38.6638 218.875 37.9892 218.756 37.3145C218.63 36.5992 218.502 35.8841 218.374 35.1689C218.129 33.7927 217.885 32.4163 217.641 31.0398C217.363 29.4662 217.083 27.8928 216.803 26.3194C216.445 24.3045 216.087 22.2895 215.729 20.2744C215.173 17.1385 214.616 14.0029 214.053 10.8683C213.879 9.89906 213.705 8.92974 213.532 7.96043C213.406 7.25749 213.28 6.5546 213.153 5.85181C213.039 5.21939 212.925 4.58685 212.813 3.95418C212.773 3.73357 212.734 3.51301 212.693 3.29251C212.641 3.00142 212.589 2.71016 212.537 2.41884C212.509 2.26005 212.48 2.10126 212.451 1.93766C212.388 1.45874 212.363 1.01122 212.391 0.52873C212.48 0.438441 212.57 0.348152 212.661 0.255127Z" fill="white"/>
<path d="M232.789 0.255127C240.488 0.255127 240.488 0.255127 240.894 0.52873C240.927 0.879284 240.927 0.879284 240.894 1.21274C240.849 1.25788 240.804 1.30303 240.759 1.34954C238.53 1.34954 236.301 1.34954 234.004 1.34954C234.004 7.0829 234.004 12.8163 234.004 18.7233C235.743 18.7233 237.481 18.7233 239.273 18.7233C239.406 18.8588 239.406 18.8588 239.543 18.9969C239.468 19.6202 239.468 19.6202 239.273 19.8178C237.534 19.8178 235.796 19.8178 234.004 19.8178C234.004 26.9054 234.004 33.9931 234.004 41.2956C236.233 41.2956 238.462 41.2956 240.759 41.2956C240.894 41.4324 240.894 41.4324 240.919 41.7659C240.894 42.1164 240.894 42.1164 240.623 42.39C238.038 42.39 235.453 42.39 232.789 42.39C232.789 28.4855 232.789 14.581 232.789 0.255127Z" fill="white"/>
<path d="M149.173 0.255127C151.714 0.255127 154.255 0.255127 156.873 0.255127C157.006 0.48085 157.14 0.706572 157.278 0.939135C157.189 1.07457 157.1 1.21 157.008 1.34954C154.779 1.34954 152.55 1.34954 150.254 1.34954C150.254 7.0829 150.254 12.8163 150.254 18.7233C152.037 18.7233 153.82 18.7233 155.657 18.7233C155.927 19.1337 155.927 19.1337 155.885 19.4245C155.792 19.681 155.792 19.681 155.657 19.8178C153.874 19.8178 152.091 19.8178 150.254 19.8178C150.254 26.9054 150.254 33.9931 150.254 41.2956C152.482 41.2956 154.711 41.2956 157.008 41.2956C157.097 41.5213 157.186 41.7471 157.278 41.9796C157.077 42.1828 157.077 42.1828 156.873 42.39C154.332 42.39 151.791 42.39 149.173 42.39C149.173 28.4855 149.173 14.581 149.173 0.255127Z" fill="white"/>
<path d="M119.491 0.186432C119.591 0.185693 119.69 0.184953 119.793 0.184192C120.122 0.18248 120.451 0.184742 120.78 0.1872C121.009 0.187179 121.237 0.186975 121.466 0.186597C121.945 0.186407 122.424 0.188128 122.904 0.191241C123.518 0.195124 124.133 0.19475 124.747 0.193007C125.22 0.192056 125.692 0.19312 126.164 0.194821C126.39 0.195439 126.617 0.195484 126.844 0.194949C127.16 0.194551 127.477 0.196805 127.793 0.199791C127.934 0.198868 127.934 0.198868 128.078 0.197925C128.464 0.203984 128.719 0.215662 129.042 0.441279C129.181 0.665471 129.181 0.665471 129.147 1.02458C129.046 1.34948 129.046 1.34948 128.91 1.48628C128.57 1.49838 128.233 1.50205 127.893 1.49964C127.74 1.49935 127.74 1.49935 127.584 1.49905C127.258 1.49829 126.932 1.49657 126.606 1.49483C126.385 1.49415 126.164 1.49352 125.944 1.49296C125.402 1.49145 124.86 1.48909 124.318 1.48628C124.318 1.57112 124.318 1.65597 124.318 1.74338C124.327 6.76979 124.334 11.7962 124.338 16.8226C124.339 17.4259 124.339 18.0291 124.34 18.6324C124.34 18.7525 124.34 18.8726 124.34 18.9964C124.342 20.9421 124.345 22.8878 124.349 24.8335C124.353 26.8294 124.355 28.8253 124.356 30.8212C124.356 32.0532 124.358 33.2851 124.361 34.5171C124.364 35.3614 124.364 36.2058 124.364 37.0501C124.363 37.5375 124.364 38.025 124.366 38.5124C124.368 39.0406 124.368 39.5687 124.366 40.0968C124.368 40.2513 124.369 40.4058 124.37 40.565C124.369 40.7065 124.368 40.8479 124.368 40.9937C124.368 41.1156 124.368 41.2375 124.368 41.3631C124.307 41.7802 124.144 42.044 123.912 42.39C123.254 42.2703 123.254 42.2703 123.102 42.1164C123.089 41.8996 123.085 41.6822 123.085 41.465C123.085 41.3232 123.085 41.1814 123.085 41.0353C123.085 40.8776 123.085 40.7199 123.086 40.5574C123.086 40.3914 123.085 40.2254 123.085 40.0543C123.085 39.5914 123.086 39.1284 123.086 38.6655C123.087 38.1671 123.087 37.6686 123.087 37.1702C123.087 36.3059 123.087 35.4416 123.088 34.5774C123.089 33.3278 123.089 32.0782 123.089 30.8286C123.09 28.8014 123.091 26.7742 123.092 24.747C123.093 22.7773 123.094 20.8075 123.095 18.8378C123.095 18.7165 123.095 18.5952 123.095 18.4702C123.095 17.8615 123.095 17.2529 123.095 16.6443C123.097 11.5916 123.099 6.53894 123.102 1.48628C122.895 1.48736 122.895 1.48736 122.685 1.48845C122.175 1.49092 121.665 1.4925 121.155 1.4938C120.934 1.49448 120.713 1.49542 120.492 1.4966C120.175 1.49826 119.857 1.49904 119.54 1.49964C119.392 1.5007 119.392 1.5007 119.24 1.50178C118.54 1.50186 118.54 1.50186 118.239 1.34948C118.129 1.10153 118.129 1.10153 118.104 0.802273C118.417 0.156107 118.846 0.177347 119.491 0.186432Z" fill="white"/>
<path d="M62.9908 0.254919C63.9877 0.245412 64.9846 0.238119 65.9816 0.233655C66.4445 0.231513 66.9074 0.228607 67.3703 0.223959C67.9024 0.218649 68.4345 0.216655 68.9666 0.214841C69.1329 0.212723 69.2993 0.210604 69.4706 0.208422C69.6248 0.208391 69.7789 0.20836 69.9377 0.208328C70.0736 0.207417 70.2094 0.206505 70.3494 0.205566C70.6905 0.254919 70.6905 0.254919 70.9423 0.444865C71.0957 0.665324 71.0957 0.665324 71.062 0.956028C70.9607 1.21253 70.9607 1.21253 70.8256 1.34933C68.5967 1.34933 66.3679 1.34933 64.0715 1.34933C64.0715 7.08269 64.0715 12.816 64.0715 18.7231C65.8546 18.7231 67.6376 18.7231 69.4748 18.7231C69.6085 18.8586 69.6085 18.8586 69.7449 18.9967C69.6699 19.6199 69.6699 19.6199 69.4748 19.8175C69.0753 19.8297 68.679 19.8333 68.2796 19.8309C68.1 19.8306 68.1 19.8306 67.9167 19.8303C67.5327 19.8296 67.1487 19.8278 66.7647 19.8261C66.505 19.8254 66.2453 19.8248 65.9856 19.8242C65.3475 19.8227 64.7095 19.8204 64.0715 19.8175C64.0717 19.9322 64.072 20.0469 64.0722 20.165C64.0782 22.9519 64.0827 25.7387 64.0855 28.5255C64.0869 29.8732 64.0888 31.2209 64.0919 32.5686C64.0945 33.7428 64.0963 34.9171 64.0969 36.0914C64.0973 36.7135 64.0981 37.3356 64.1 37.9577C64.1019 38.5427 64.1024 39.1277 64.102 39.7127C64.1021 39.9278 64.1027 40.143 64.1037 40.3582C64.105 40.6511 64.1047 40.9439 64.104 41.2368C64.1042 41.4009 64.1045 41.5651 64.1047 41.7343C64.0715 42.1162 64.0715 42.1162 63.8013 42.3898C63.1859 42.3138 63.1859 42.3138 62.9908 42.1162C62.9777 41.893 62.9741 41.6692 62.9742 41.4456C62.9739 41.2995 62.9737 41.1534 62.9734 41.0029C62.9738 40.8404 62.9742 40.6779 62.9746 40.5105C62.9745 40.3395 62.9744 40.1684 62.9742 39.9922C62.9739 39.5152 62.9745 39.0382 62.9751 38.5613C62.9757 38.0477 62.9755 37.5342 62.9754 37.0206C62.9754 36.1301 62.9758 35.2397 62.9765 34.3492C62.9776 33.0617 62.978 31.7742 62.9782 30.4867C62.9785 28.3981 62.9794 26.3095 62.9806 24.2208C62.9819 22.1914 62.9828 20.1619 62.9834 18.1325C62.9834 18.0075 62.9835 17.8825 62.9835 17.7537C62.9837 17.1266 62.9839 16.4995 62.984 15.8724C62.9854 10.6666 62.9878 5.46076 62.9908 0.254919Z" fill="white"/>
<path d="M273.178 0.255127C280.742 0.255127 280.742 0.255127 281.148 0.52873C281.181 0.879284 281.181 0.879284 281.148 1.21274C281.103 1.25788 281.058 1.30303 281.012 1.34954C278.784 1.34954 276.555 1.34954 274.258 1.34954C274.258 7.0829 274.258 12.8163 274.258 18.7233C275.997 18.7233 277.735 18.7233 279.527 18.7233C279.66 18.8588 279.66 18.8588 279.797 18.9969C279.722 19.6202 279.722 19.6202 279.527 19.8178C279.137 19.8299 278.751 19.8335 278.361 19.8311C278.186 19.8308 278.186 19.8308 278.007 19.8305C277.633 19.8298 277.258 19.828 276.884 19.8263C276.631 19.8256 276.378 19.825 276.124 19.8244C275.502 19.8229 274.88 19.8206 274.258 19.8178C274.259 19.9316 274.259 20.0454 274.259 20.1627C274.265 22.9302 274.27 25.6977 274.272 28.4651C274.274 29.8035 274.276 31.1418 274.279 32.4801C274.281 33.6463 274.283 34.8125 274.284 35.9787C274.284 36.5965 274.285 37.2142 274.287 37.8319C274.289 38.413 274.289 38.9941 274.289 39.5751C274.289 39.7887 274.29 40.0023 274.291 40.2159C274.292 40.5069 274.292 40.7979 274.291 41.0889C274.291 41.252 274.291 41.415 274.292 41.583C274.258 41.9796 274.258 41.9796 273.988 42.39C273.721 42.3449 273.453 42.2997 273.178 42.2532C273.178 28.3939 273.178 14.5345 273.178 0.255127Z" fill="white"/>
<path d="M175.126 0.289229C175.379 0.39183 175.379 0.39183 175.514 0.528632C175.527 0.746134 175.531 0.964229 175.531 1.18214C175.531 1.32442 175.531 1.4667 175.531 1.61329C175.531 1.85062 175.531 1.85062 175.53 2.09275C175.53 2.25934 175.53 2.42593 175.53 2.59757C175.531 3.06207 175.53 3.52656 175.53 3.99106C175.529 4.49118 175.529 4.9913 175.529 5.49141C175.529 6.35859 175.529 7.22577 175.528 8.09296C175.527 9.34677 175.527 10.6006 175.527 11.8544C175.526 13.8884 175.525 15.9224 175.524 17.9564C175.523 19.9328 175.522 21.9092 175.521 23.8855C175.521 24.0073 175.521 24.129 175.521 24.2544C175.521 24.8651 175.521 25.4758 175.521 26.0865C175.519 31.1561 175.517 36.2258 175.514 41.2955C175.612 41.2952 175.71 41.2949 175.81 41.2946C176.731 41.2918 177.651 41.2898 178.571 41.2884C179.045 41.2877 179.518 41.2867 179.991 41.2852C180.535 41.2834 181.078 41.2828 181.622 41.2821C181.792 41.2814 181.963 41.2807 182.139 41.28C182.296 41.28 182.452 41.28 182.614 41.28C182.822 41.2795 182.822 41.2795 183.035 41.2791C183.349 41.2955 183.349 41.2955 183.484 41.4323C183.489 41.7059 183.489 41.9796 183.484 42.2531C183.107 42.444 182.799 42.4063 182.377 42.4054C182.201 42.4054 182.025 42.4054 181.844 42.4054C181.652 42.4047 181.459 42.404 181.266 42.4033C181.07 42.403 180.874 42.4028 180.677 42.4027C180.16 42.4022 179.642 42.4008 179.125 42.3993C178.597 42.3979 178.069 42.3973 177.541 42.3966C176.505 42.3951 175.469 42.3928 174.433 42.3899C174.424 37.0815 174.417 31.773 174.413 26.4645C174.412 25.8383 174.412 25.2121 174.411 24.5858C174.411 24.4612 174.411 24.3365 174.411 24.208C174.409 22.1874 174.406 20.1667 174.402 18.1461C174.398 16.0738 174.396 14.0016 174.395 11.9293C174.395 10.6499 174.393 9.37042 174.389 8.09098C174.387 7.21449 174.387 6.33801 174.387 5.46152C174.387 4.95527 174.387 4.44905 174.385 3.94281C174.383 3.39479 174.383 2.84683 174.384 2.29881C174.383 2.13766 174.382 1.9765 174.381 1.81047C174.382 1.66431 174.383 1.51815 174.383 1.36756C174.383 1.24097 174.383 1.11437 174.383 0.983944C174.433 0.665433 174.433 0.665434 174.621 0.414211C174.838 0.255029 174.838 0.255029 175.126 0.289229Z" fill="white"/>
</svg>
