<?xml version="1.0" encoding="UTF-8"?>
<svg id="Layer_1" data-name="Layer 1" xmlns="http://www.w3.org/2000/svg" viewBox="0 0 598 298">
  <defs>
    <style>
      .cls-1 {
        fill: #fff;
      }

      .cls-1, .cls-2, .cls-3, .cls-4 {
        fill-rule: evenodd;
      }

      .cls-2 {
        fill: #f7e9e4;
      }

      .cls-3 {
        fill: #e3173e;
      }

      .cls-4 {
        fill: #00649d;
      }
    </style>
  </defs>
  <path class="cls-3" d="M81.25,127.24l.22-1.32,.22-.88,.22-1.1,.22-1.32,.22-.88,.22-1.1,.22-1.32,.22-.88,.22-1.1,.22-1.32,.22-.88,.22-1.1,.22-1.32,.22-.88,.22-1.1,.22-1.32,.22-.88,.22-1.1,.22-1.32,.22-.88,.22-1.32,.22-1.1,.22-.88,.22-1.32,.22-1.1,.22-.88,.22-1.32,.22-1.1,.22-.88,.13-.9,.09,.9,.22,1.32,.22,1.1,.22,.88,.22,1.32,.22,1.1,.22,.88,.22,1.32,.22,.88,.22,1.1,.22,1.32,.22,.88,.22,1.32,.22,1.1,.22,.88,.22,1.32,.22,1.1,.22,.88,.22,1.32,.22,1.1,.22,.88,.22,1.32,.22,1.1,.22,.88,.22,1.32,.22,1.1,.22,.88,.22,1.32,.22,1.1,.22,.88,.22,.88h-13.43s.25-.88,.25-.88h0Zm-21.74-61.04l-.22,.88-.22,.44-.22,.88-.22,.88-.22,.44-.22,.88-.22,.88-.22,.44-.22,.88-.22,.88-.22,.66-.22,.66-.22,.88-.22,.44-.22,.88-.22,.88-.22,.44-.22,.88-.22,.88-.22,.66-.22,.66-.22,.88-.22,.44-.22,.88-.22,.88-.22,.66-.22,.66-.22,.88-.22,.66-.22,.66-.22,.66-.22,.66-.22,.88-.22,.66-.22,.88-.22,.66-.22,.66-.22,.88-.22,.66-.22,.66-.22,.88-.22,.66-.22,.66-.22,.88-.22,.66-.22,.66-.22,.88-.22,.66-.22,.66-.22,.88-.22,.66-.22,.66-.22,.88-.22,.66-.22,.66-.22,.88-.22,.66-.22,.66-.22,.88-.22,.66-.22,.66-.22,.88-.22,.66-.22,.66-.22,.88-.22,.66-.22,.66-.22,.88-.22,.88-.22,.44-.22,.88-.22,.66-.22,.66-.22,.88-.22,.66-.22,.66-.22,.88-.22,.88-.22,.44-.22,.88-.22,.66-.22,.66-.22,.88-.22,.66-.22,.66-.22,.88-.22,.66-.22,.66-.22,.88-.22,.66-.22,.66-.22,.88-.22,.66-.22,.66-.22,.88-.22,.66-.22,.66-.22,.88-.22,.66-.22,.66-.22,.88-.22,.66-.22,.66-.22,.88-.22,.66-.22,.88-.22,.66-.22,.66-.22,.88-.22,.66-.22,.66-.22,.66-.22,.88-.22,.66-.22,.88-.22,.66-.22,.66-.22,.88-.22,.66-.22,.66-.22,.88-.22,.66-.22,.66-.22,.88-.22,.66-.22,.66-.22,.88-.22,.66-.22,.66-.22,.88-.22,.66-.22,.66-.22,.88-.22,.66-.22,.66-.22,.88-.22,.66-.22,.66-.22,.88-.22,.66-.22,.66v.66h45.46l.22-.88,.22-1.1,.22-.88,.22-1.32,.22-1.1,.22-.88,.22-1.32,.22-1.1,.22-.88,.22-1.32,.22-1.1,.22-.88,.22-1.32,.22-1.1,.22-.88v-1.32h20.65v.44l.22,.88,.22,1.32,.22,1.1,.22,.88,.22,1.32,.22,1.1,.22,.88,.22,1.32,.22,1.1,.22,.88,.22,1.32,.22,1.1,.22,.88,.22,1.32,.22,.88,.22,.66h62.81l.12-29.88,.1,.68,.22,.44,.22,.88,.22,.66,.22,.44,.22,.88,.22,.66,.22,.44,.22,.88,.22,.66,.22,.66,.22,.66,.22,.66,.22,.66,.22,.66,.22,.66,.22,.66,.22,.66,.22,.66,.22,.66,.22,.66,.22,.66,.22,.66,.22,.66,.22,.66,.22,.66,.22,.66,.22,.66,.22,.66,.22,.66,.22,.66,.22,.66,.22,.66,.22,.66,.22,.66,.22,.66,.22,.66,.22,.66,.22,.66,.22,.44,.22,.88,.22,.66,.22,.44,.22,.88,.22,.66,.22,.22h21.08l.22-.44,.22-.66,.22-.66,.22-.66,.22-.66,.22-.66,.22-.66,.22-.66,.22-.66,.22-.66,.22-.66,.22-.66,.22-.66,.22-.66,.22-.66,.22-.66,.22-.66,.22-.44,.22-.88,.22-.66,.22-.44,.22-.88,.22-.66,.22-.44,.22-.88,.22-.66,.22-.44,.22-.88,.22-.66,.22-.66,.22-.66,.22-.66,.22-.66,.22-.66,.22-.66,.22-.66,.22-.66,.22-.66,.22-.66,.22-.66,.22-.66,.22-.66,.22-.66,.22-.66,.22-.66,.22-.66v30.08h38.44l.22-30.08v-.22l-.25-1.1-20.58,13.66,10.08-23.98-17.08-17.19,.16-.16h19.99c1.04,0,1.93-5.35,2.2-6.37,.58-2.18,1.21-4.23,1.85-6.5,.86-3.03,3.43-10.42,3.65-13.04l-.22-19.54h-45.46l-.22,.66-.22,.66-.22,.66-.22,.66-.22,.44-.22,.66-.22,.66-.22,.44-.22,.66-.22,.66-.22,.44-.22,.66-.22,.66-.22,.66-.22,.66-.22,.44-.22,.66-.22,.66-.22,.44-.22,.66-.22,.66-.22,.44-.22,.66-.22,.66-.22,.66-.22,.66-.22,.66-.22,.44-.22,.66-.22,.66-.22,.44-.22,.66-.22,.66-.22,.66-.22,.66-.22,.66-.22,.44-.22,.66-.22,.66-.22,.44-.22,.66-.22,.66-.22,.44-.22,.66-.22,.66-.22,.66-.22,.66-.22,.66-.22,.44-.22,.66-.22,.66-.22,.44-.22,.66-.22,.66-.22,.44-.22,.66-.22,.66-.22,.66-.22,.66-.22,.66-.22,.44-.22,.66-.22-.44-.22-.66-.22-.66-.22-.66-.22-.44-.22-.66-.22-.66-.22-.44-.22-.66-.22-.66-.22-.66-.22-.66-.22-.66-.22-.44-.22-.66-.22-.66-.22-.44-.22-.66-.22-.66-.22-.44-.22-.66-.22-.66-.22-.66-.22-.66-.22-.66-.22-.44-.22-.66-.22-.66-.22-.44-.22-.66-.22-.66-.22-.44-.22-.66-.22-.66-.22-.66-.22-.66-.22-.66-.22-.44-.22-.66-.22-.66-.22-.44-.22-.66-.22-.66-.22-.66-.22-.66-.22-.44-.22-.66-.22-.66-.22-.66-.22-.44-.22-.66-.22-.66-.22-.44-.22-.66-.22-.66-.22-.66-.22-.66-.22-.44-.22-.66-.22-.66-.22-.44-.22-.66-.22-.22h-45.24l-.1,37.36-.12-.47-.22-.66-.22-.66-.22-.44-.22-.66-.22-.66-.22-.44-.22-.66-.22-.66-.22-.66-.22-.66-.22-.66-.22-.44-.22-.66-.22-.66-.22-.44-.22-.66-.22-.66-.22-.66-.22-.66-.22-.66-.22-.44-.22-.66-.22-.66-.22-.44-.22-.66-.22-.66-.22-.44-.22-.66-.22-.66-.22-.66-.22-.66-.22-.66-.22-.44-.22-.66-.22-.66-.22-.44-.22-.66-.22-.66-.22-.44-.22-.66-.22-.66-.22-.66-.22-.66-.22-.66-.22-.44-.22-.66-.22-.66-.22-.44-.22-.66-.22-.66-.22-.66-.22-.66-.22-.44-.22-.66-.22-.66-.22-.44-.22-.66-.22-.66-.22-.44-.22-.66-.22-.66H59.73l-.22,.66h0Z"/>
  <path class="cls-4" d="M305.06,138.87l-.22,.44-.22,.66-.22,.44-.22,.22-.22,.44-.22,.22-.22,.22-.22,.22-.22,.22-.22,.22-.44,.22-.22,.22-.44,.22-.44,.22-.44,.22-.44,.22-.66,.22-.66,.22-1.1,.22-1.32,.22-1.98,.22-8.35,.22v-16.92l9.01,.23,1.98,.22,1.1,.22,.88,.22,.66,.22,.66,.22,.44,.22,.44,.22,.44,.22,.22,.22,.44,.22,.22,.22,.44,.22,.22,.22,.22,.44,.22,.22,.22,.22,.22,.44,.22,.44,.22,.44,.22,.44,.22,1.1v3.07l-.22,1.1h0Zm-4.39-37.99l-.22,.44-.22,.44-.22,.44-.22,.22-.22,.44-.22,.22-.22,.22-.44,.22-.22,.22-.22,.22-.44,.22-.44,.22-.66,.22-.66,.22-.88,.22-1.32,.22-7.47,.22v-14.5l8.13,.23,1.1,.22,1.1,.22,.66,.22,.44,.22,.44,.22,.44,.22,.22,.22,.22,.22h.44v.44l.22,.22,.22,.22,.22,.44,.22,.44,.22,.44,.22,.88v3.95l-.22,.88h0Zm-53.59-17.78c.8,9.65,5.18,19.02,7.25,27.88h20.43c-1.61,2.4-16.91,16.56-16.91,17.35,0,1.77,9.15,19.85,10.1,23.93l-20.58-13.71-.29,.76v.22l.22,30.52h50.3l9.88-.22,2.64-.22,1.76-.22,1.32-.22,1.32-.22,1.1-.22,.88-.22,.88-.22,.88-.22,.66-.22,.88-.22,.66-.22,.66-.22,.66-.22,.66-.22,.44-.22,.66-.22,.44-.22,.44-.22,.66-.22,.22-.22,.66-.22,.44-.22,.22-.22,.44-.22,.44-.22,.44-.22,.44-.22,.22-.22,.44-.22,.22-.22,.44-.22,.22-.22,.44-.22,.22-.22,.22-.22,.44-.22,.22-.22,.22-.22,.44-.22,.22-.22,.22-.22,.22-.22,.22-.22,.22-.22,.22-.22,.22-.22,.22-.22,.22-.22,.22-.22,.22-.22,.22-.22,.22-.22v-.44h.44l.22-.44,.22-.22,.22-.22,.22-.44,.22-.22,.22-.44,.22-.22,.22-.44,.22-.22,.22-.44,.22-.44,.22-.22,.22-.66,.22-.44,.22-.44,.22-.44,.22-.66,.22-.44,.22-.66,.22-.88,.22-.44,.22-1.1,.22-.88,.22-1.32,.22-2.42v-4.39l-.22-2.2-.22-1.32-.22-.88-.22-.88-.22-.66-.22-.88-.22-.66-.22-.44-.22-.44-.22-.66-.22-.44-.22-.44-.22-.44-.22-.44-.22-.22-.22-.44-.22-.22-.22-.44-.22-.44-.22-.22-.22-.22-.22-.44-.22-.22-.22-.22-.22-.22-.22-.22-.22-.44-.22-.22-.22-.22-.22-.22-.22-.22-.22-.22-.22-.22-.22-.22-.22-.22-.22-.22-.22-.22-.22-.22-.44-.22-.22-.22-.22-.22-.22-.22-.44-.22-.22-.22-.44-.22-.22-.22-.22-.22-.44-.22-.44-.22-.22-.22-.44-.22-.44-.22-.22-.22-.44-.22-.66-.22-.22-.22-.44-.22-.66-.22-.22-.22-.66-.22-.66-.22-.44-.22-.66-.22-.22-.66h.44l.66-.22,.44-.22,.66-.22,.44-.22,.22-.22,.44-.22,.44-.22,.44-.22,.22-.22,.44-.22,.22-.22,.44-.22,.22-.22,.22-.22,.22-.22,.44-.22v-.44h.44l.22-.22,.22-.22,.22-.22,.22-.22v-.44h.44l.22-.44,.22-.22,.22-.22,.22-.44,.22-.22,.22-.22,.22-.44,.22-.44,.22-.22,.22-.44,.22-.44,.22-.22,.22-.44,.22-.66,.22-.22,.22-.66,.22-.66,.22-.44,.22-.88,.22-.66,.22-.66,.22-1.1,.22-1.54,.22-1.54v-5.27l-.22-1.76-.22-1.76-.22-1.1-.22-.88-.22-.88-.22-.66-.22-.66-.22-.66-.22-.66-.22-.44-.22-.44-.22-.44-.22-.44-.22-.44-.22-.44-.22-.22-.22-.44-.22-.44-.22-.22-.22-.44-.22-.22-.22-.22-.22-.44-.22-.22-.22-.22-.22-.44-.22-.22-.22-.22-.22-.22-.22-.22-.22-.22-.22-.22-.22-.22-.22-.22-.22-.22-.22-.22h-.44v-.44l-.44-.22-.22-.22-.22-.22-.44-.22-.22-.22-.22-.22-.44-.22-.22-.22-.44-.22-.22-.22-.44-.22-.44-.22-.44-.22-.22-.22-.44-.22-.44-.22-.44-.22-.44-.22-.66-.22-.44-.22-.44-.22-.66-.22-.44-.22-.66-.22-.66-.22-.66-.22-.66-.22-.88-.22-.66-.22-1.1-.22-1.1-.22-.66-.22-1.32-.22-1.54-.22-1.32-.22-1.98-.22-2.64-.22-3.51-.22h-52.05l-.22,17.57h0Z"/>
  <polygon class="cls-4" points="343.27 170.05 413.12 170.05 413.12 138.43 381.71 138.43 381.71 131.85 406.09 131.85 406.09 103.74 381.71 103.74 381.71 97.15 413.12 97.15 413.12 65.54 343.27 65.54 343.27 170.05 343.27 170.05"/>
  <polygon class="cls-4" points="451.99 64.22 450.89 64.44 449.36 64.66 448.26 64.88 447.38 65.1 446.28 65.32 445.4 65.54 444.74 65.76 443.87 65.98 442.99 66.2 442.55 66.42 441.89 66.63 441.23 66.85 440.57 67.07 439.91 67.29 439.47 67.51 438.81 67.73 438.37 67.95 437.94 68.17 437.5 68.39 436.84 68.61 436.4 68.83 435.96 69.05 435.52 69.27 435.08 69.49 434.64 69.71 434.2 69.93 433.98 70.15 433.54 70.37 433.1 70.59 432.66 70.81 432.44 71.03 432.01 71.25 431.57 71.47 431.35 71.68 430.91 71.9 430.69 72.12 430.47 72.34 430.03 72.56 429.81 72.78 429.59 73 429.15 73.22 428.93 73.44 428.49 73.66 428.27 73.88 428.05 74.1 427.83 74.32 427.39 74.54 427.17 74.76 426.95 74.98 426.73 75.2 426.51 75.42 426.3 75.64 426.08 75.86 425.86 76.08 425.64 76.3 425.2 76.52 424.98 76.95 424.54 77.17 424.32 77.61 423.88 77.83 423.66 78.27 423.44 78.49 423.22 78.71 423 78.93 422.78 79.15 422.56 79.59 422.34 79.81 422.12 80.03 421.9 80.25 421.68 80.47 421.46 80.91 421.24 81.13 421.02 81.57 420.8 81.78 420.58 82 420.37 82.44 420.15 82.66 419.93 83.1 419.71 83.54 419.49 83.76 419.27 84.2 419.05 84.64 418.83 84.86 418.61 85.3 418.39 85.96 418.17 86.18 417.95 86.62 417.73 87.27 417.51 87.71 417.29 88.15 417.07 88.81 416.85 89.25 416.63 89.91 416.41 90.57 416.19 91.23 415.97 92.1 415.75 92.98 415.53 93.64 415.31 94.96 415.09 96.28 414.87 97.59 414.87 105.72 415.09 107.04 415.31 108.13 415.53 109.23 415.75 109.89 415.97 110.55 416.19 111.21 416.41 111.65 416.63 112.3 416.85 112.96 417.07 113.4 417.29 113.84 417.51 114.28 417.73 114.5 417.95 114.94 418.17 115.38 418.39 115.6 418.61 116.04 418.83 116.48 419.05 116.7 419.27 117.13 419.49 117.35 419.71 117.57 419.93 118.01 420.15 118.23 420.37 118.45 420.58 118.67 420.8 118.89 421.02 119.11 421.24 119.33 421.46 119.55 421.68 119.77 421.9 119.99 422.12 120.21 422.34 120.43 422.56 120.65 422.78 120.87 423 121.09 423.22 121.31 423.44 121.53 423.66 121.75 423.88 121.97 424.32 122.19 424.54 122.4 424.76 122.62 425.2 122.84 425.42 123.06 425.64 123.28 426.08 123.5 426.3 123.72 426.73 123.94 427.17 124.16 427.39 124.38 427.83 124.6 428.27 124.82 428.49 125.04 428.93 125.26 429.37 125.48 429.81 125.7 430.25 125.92 430.69 126.14 431.13 126.36 431.79 126.58 432.23 126.8 432.88 127.02 433.54 127.24 433.98 127.45 434.64 127.67 435.3 127.89 435.96 128.11 436.84 128.33 437.5 128.55 438.37 128.77 439.25 128.99 440.57 129.21 441.45 129.43 442.77 129.65 444.09 129.87 444.96 130.09 446.28 130.31 447.6 130.53 448.7 130.75 450.02 130.97 451.11 131.19 451.99 131.41 452.87 131.63 453.75 131.85 454.19 132.07 454.63 132.28 455.07 132.5 455.51 132.72 455.73 132.94 455.95 133.16 456.17 133.38 456.38 133.6 456.6 133.82 456.82 134.26 457.04 134.92 457.26 136.02 457.26 136.46 457.04 137.55 456.82 138.21 456.6 138.65 456.38 138.87 456.17 139.09 455.95 139.53 455.51 139.75 455.51 140.19 455.07 140.19 454.63 140.41 454.41 140.63 453.97 140.85 453.31 141.07 452.87 141.29 452.21 141.51 451.33 141.73 450.45 141.95 444.74 141.95 443.43 141.73 442.33 141.51 441.23 141.29 440.57 141.07 439.69 140.85 439.03 140.63 438.37 140.41 437.72 140.19 437.06 139.97 436.62 139.75 435.96 139.53 435.52 139.31 435.08 139.09 434.64 138.87 434.2 138.65 433.76 138.43 433.32 138.21 432.88 137.99 432.44 137.77 432.01 137.55 431.57 137.34 431.35 137.12 430.91 136.9 430.47 136.68 430.25 136.46 429.81 136.24 429.37 136.02 429.15 135.8 428.71 135.58 428.49 135.36 428.05 135.14 427.83 134.92 427.39 134.7 427.17 134.48 426.73 134.26 426.51 134.04 426.3 133.82 425.86 133.6 425.64 133.38 425.42 133.16 425.2 132.94 424.76 132.72 424.54 132.5 424.32 132.28 424.1 132.07 423.66 131.85 423.44 131.63 423.22 131.41 423 131.19 422.56 130.97 422.34 130.75 422.12 130.53 421.9 130.31 421.68 130.09 421.24 129.87 421.02 129.65 420.8 129.43 420.58 129.21 420.15 128.99 419.93 128.77 419.71 128.55 419.49 128.33 419.27 128.11 418.83 128.11 418.83 162.8 419.27 163.02 419.71 163.24 420.15 163.46 420.58 163.68 421.02 163.9 421.46 164.12 421.9 164.34 422.34 164.56 423 164.78 423.44 165 423.88 165.22 424.54 165.44 424.98 165.66 425.42 165.88 426.08 166.1 426.51 166.32 427.17 166.54 427.61 166.76 428.27 166.98 428.93 167.2 429.59 167.42 430.25 167.63 431.13 167.85 431.79 168.07 432.66 168.29 433.54 168.51 434.42 168.73 435.52 168.95 436.84 169.17 437.94 169.39 439.91 169.61 442.33 169.83 445.18 170.05 454.63 170.05 456.82 169.83 459.02 169.61 460.56 169.39 461.66 169.17 462.97 168.95 464.07 168.73 464.73 168.51 465.61 168.29 466.49 168.07 467.37 167.85 468.03 167.63 468.9 167.42 469.34 167.2 470 166.98 470.66 166.76 471.32 166.54 471.76 166.32 472.42 166.1 472.86 165.88 473.3 165.66 473.74 165.44 474.39 165.22 474.83 165 475.27 164.78 475.71 164.56 476.15 164.34 476.59 164.12 477.03 163.9 477.47 163.68 477.69 163.46 478.13 163.24 478.57 163.02 478.79 162.8 479.23 162.58 479.67 162.37 479.89 162.15 480.32 161.93 480.54 161.71 480.76 161.49 481.2 161.27 481.64 161.05 481.86 160.83 482.08 160.61 482.3 160.39 482.52 160.17 482.96 159.95 483.18 159.73 483.4 159.51 483.84 159.29 484.06 159.07 484.28 158.85 484.5 158.63 484.72 158.41 484.94 158.19 485.16 157.97 485.38 157.75 485.6 157.54 485.82 157.32 486.03 157.1 486.25 156.88 486.47 156.66 486.69 156.44 486.91 156.22 487.13 156 487.35 155.78 487.57 155.56 487.79 155.34 488.01 154.9 488.23 154.68 488.45 154.46 488.67 154.24 488.89 154.02 489.11 153.58 489.33 153.36 489.55 152.92 489.77 152.7 489.99 152.48 490.21 152.05 490.43 151.61 490.65 151.39 490.87 150.95 491.09 150.73 491.31 150.29 491.53 149.85 491.75 149.41 491.96 148.97 492.18 148.75 492.4 148.09 492.62 147.65 492.84 147.22 493.06 146.56 493.28 146.12 493.5 145.46 493.72 144.8 493.94 144.36 494.16 143.48 494.38 142.6 494.6 141.95 494.82 141.07 495.04 139.75 495.26 138.43 495.48 136.24 495.48 130.53 495.26 128.11 495.04 127.02 494.82 125.92 494.6 124.82 494.38 124.16 494.16 123.5 493.94 122.62 493.72 122.19 493.5 121.53 493.28 121.09 493.06 120.65 492.84 120.21 492.62 119.55 492.4 119.33 492.18 118.89 491.96 118.45 491.75 118.23 491.53 117.79 491.31 117.35 491.09 117.13 490.87 116.7 490.65 116.48 490.43 116.26 490.21 115.82 489.99 115.6 489.77 115.38 489.55 114.94 489.33 114.72 489.11 114.5 488.89 114.28 488.67 114.06 488.45 113.84 488.23 113.62 488.01 113.4 487.79 113.18 487.57 112.96 487.35 112.74 487.13 112.52 486.91 112.3 486.69 112.08 486.47 111.87 486.03 111.65 485.82 111.43 485.6 111.21 485.38 110.99 485.16 110.77 484.72 110.55 484.5 110.33 484.06 110.11 483.84 109.89 483.4 109.67 483.18 109.45 482.74 109.23 482.3 109.01 482.08 108.79 481.64 108.57 481.2 108.35 480.98 108.13 480.54 107.91 479.89 107.69 479.67 107.47 479.23 107.25 478.57 107.04 478.35 106.82 477.69 106.6 477.03 106.38 476.59 106.16 475.93 105.94 475.27 105.72 474.83 105.5 474.17 105.28 473.52 105.06 472.86 104.84 471.98 104.62 471.32 104.4 470.66 104.18 469.56 103.96 468.9 103.74 467.81 103.52 466.71 103.3 465.83 103.08 464.95 102.86 463.85 102.64 462.97 102.42 462.1 102.2 461 101.98 460.12 101.77 459.02 101.55 457.92 101.33 457.26 101.11 456.38 100.89 455.73 100.67 455.29 100.45 454.63 100.23 454.19 100.01 453.97 99.79 453.75 99.57 453.31 99.57 453.31 99.13 453.09 98.91 452.87 98.69 452.65 98.03 452.65 95.62 452.87 94.96 453.09 94.74 453.31 94.3 453.53 94.08 453.75 93.86 453.97 93.64 454.41 93.42 454.63 93.2 454.85 92.98 455.29 92.76 455.73 92.54 456.38 92.32 457.26 92.1 458.36 91.88 462.75 91.88 464.07 92.1 465.39 92.32 466.49 92.54 467.37 92.76 468.24 92.98 469.12 93.2 469.78 93.42 470.66 93.64 471.32 93.86 471.98 94.08 472.64 94.3 473.3 94.52 473.74 94.74 474.39 94.96 475.05 95.18 475.49 95.4 476.15 95.62 476.59 95.84 477.03 96.06 477.69 96.28 478.13 96.5 478.57 96.72 479.01 96.93 479.45 97.15 480.1 97.37 480.54 97.59 480.76 97.81 481.2 98.03 481.86 98.25 482.08 98.47 482.52 98.69 482.96 98.91 483.18 99.13 483.62 99.35 484.06 99.57 484.5 99.79 484.72 100.01 485.16 100.23 485.38 100.45 485.82 100.67 486.03 100.89 486.47 101.11 486.69 101.33 487.13 101.55 487.35 101.77 487.79 101.98 488.01 102.2 488.23 102.42 488.67 102.64 488.89 102.86 489.11 103.08 489.33 103.3 489.77 103.3 489.77 103.74 490.21 103.96 490.43 104.18 490.65 104.4 490.87 104.62 491.09 104.84 491.31 104.84 491.31 73 491.09 72.78 490.65 72.56 490.21 72.34 489.77 72.12 489.55 71.9 489.11 71.68 488.67 71.47 488.23 71.25 487.79 71.03 487.57 70.81 487.13 70.59 486.69 70.37 486.25 70.15 485.82 69.93 485.38 69.71 484.94 69.49 484.5 69.27 483.84 69.05 483.4 68.83 482.96 68.61 482.3 68.39 481.86 68.17 481.42 67.95 480.76 67.73 480.32 67.51 479.67 67.29 479.01 67.07 478.57 66.85 477.69 66.63 477.03 66.42 476.37 66.2 475.71 65.98 474.83 65.76 474.17 65.54 473.08 65.32 472.2 65.1 471.32 64.88 470 64.66 468.46 64.44 467.15 64.22 464.95 64 454.19 64 451.99 64.22 451.99 64.22"/>
  <polygon class="cls-4" points="495.26 100.67 512.61 100.67 512.61 170.05 554.34 170.05 554.34 100.67 578.28 100.67 578.28 65.54 495.26 65.54 495.26 100.67 495.26 100.67"/>
  <path class="cls-3" d="M154.39,206.06l-.22,.88-.22,.66-.22,.66-.22,.44-.22,.44-.22,.44-.22,.44-.22,.44-.22,.44-.22,.22-.22,.44-.22,.44-.22,.44-.22,.44-.22,.44-.22,.22-.22,.44-.22,.44-.22,.22-.22,.44-.22,.22-.22,.22-.22,.22-.22,.44-.22,.22-.22,.22-.22,.22-.22,.22-.22,.22-.22,.22-.22,.22-.22,.22-.22,.22-.44,.22-.22,.22-.22,.22-.22,.22-.22,.22-.44,.22-.22,.22-.22,.22-.44,.22-.22,.22-.44,.22-.22,.22-.44,.22-.22,.22-.44,.22-.22,.22-.44,.22-.66,.22h-1.32l-.22-.22-.22-.22-.22-.66v-1.1l.22-.88,.22-.66,.22-.44,.22-.66,.22-.66,.22-.44,.22-.44,.22-.44,.22-.44,.22-.44,.22-.44,.22-.44,.22-.22,.22-.44,.22-.44,.22-.22,.22-.44,.22-.22,.22-.44,.22-.44,.22-.22,.22-.22,.22-.44,.22-.22,.22-.22v-.44h.44l.22-.44,.22-.22,.22-.22,.22-.44,.22-.22,.22-.22,.22-.22,.22-.44,.22-.22,.22-.22,.22-.22,.22-.22,.22-.22,.22-.22,.22-.22,.22-.44,.44-.22,.22-.44,.44-.22,.22-.22,.22-.22,.22-.22,.22-.22,.44-.22,.22-.22,.44-.22,.44-.22h1.32l.22,.22,.22,.22,.22,.22,.22,.22,.22,.44v1.54l-.22,1.32h0Zm-59.96-1.98l-.22,.66-.22,.44-.22,.66-.22,.22-.22,.44-.22,.44-.22,.22-.22,.22-.22,.44-.22,.22-.22,.44-.22,.22-.22,.22-.22,.22-.22,.22-.22,.22-.22,.22-.22,.22-.22,.22-.22,.22-.22,.22-.22,.22-.44,.22-.44,.22-.22,.22h-.22l-.22-.22v-.66l.22-.66,.22-.44,.22-.44,.22-.44,.22-.44,.22-.44,.22-.22,.22-.44,.22-.44,.22-.22,.22-.44,.22-.44,.22-.22,.22-.44,.22-.22,.22-.22,.22-.44,.22-.22,.22-.22,.22-.22,.22-.22,.22-.22,.22-.22,.44-.22,.22-.22,.44-.22h.22l.22,.44v.66l-.22,.88h0Zm57.54-6.81l-.66,.22-.66,.22-.44,.22-.44,.22-.44,.22-.44,.22-.22,.22-.44,.22-.22,.22-.44,.22-.44,.22-.22,.22-.22,.22-.44,.22-.22,.22-.22,.22-.22,.22-.22,.22-.22,.22-.44,.22-.22,.22-.22,.22-.22,.22-.22,.22-.22,.22-.22,.22-.22,.22-.22,.22-.22,.44-.22,.22-.22,.22-.22,.22-.22,.22-.22,.44-.22,.22-.22,.22-.22,.22-.22,.22-.22,.44-.22,.22-.22,.44-.22,.22-.22,.22-.22,.22-.22,.44-.22,.22-.22,.44-.22,.22-.22,.44-.22,.44-.22,.44-.22,.66-.22,.44-.22,.22-.22,.66-.22,.44-.22,.44-.22,.44-.22,.44-.22,.44-.22,.44-.22,.44-.22,.44-.22,.44-.22,.22-.22,.44-.22,.22-.22,.22-.22,.22v.44h-.44l-.22,.22v.44h-.44l-.22,.22-.22,.22-.22,.22-.22,.22-.44,.22-.22,.22-.44,.22-.22,.22-.44,.22-.44,.22-.22,.22-.44,.22-.66,.22-.44,.22-.66,.22h-2.2l-.44-.22-.22-.22-.22-.22-.22-.22-.22-.44-.22-.22v-3.73l.22-.66,.22-.66,.22-.66,.22-.44,.22-.66,.22-.44,.22-.44,.22-.66,.22-.44,.22-.22,.22-.66,.22-.22,.22-.44,.22-.44,.22-.22,.22-.22,.22-.44,.22-.22,.22-.44,.22-.22,.22-.22,.22-.44,.22-.22,.22-.44,.22-.22,.22-.22,.22-.44,.22-.22v-.44h.44l.22-.44,.22-.22,.44-.22,.22-.22,.44-.22h.66l.44,.22,.22,.22v1.1l-.22,.44-.22,.22-.22,.22-.22,.22-.22,.22v.44h-.44l-.22,.22v.44h-.44l-.22,.22-.22,.44-.22,.22-.22,.22-.22,.22-.22,.22-.22,.44-.22,.44-.22,.44-.22,.66v1.76l.22,.66,.22,.22,.22,.44,.22,.22,.22,.22,.44,.22h1.54l.44-.22,.44-.22,.22-.22,.22-.22,.22-.22,.22-.22,.22-.22,.22-.22,.22-.22,.22-.44,.22-.22,.22-.44,.22-.22,.22-.44,.22-.44,.22-.44,.22-.44,.22-.44,.22-.66,.22-.44,.22-.66,.22-.66,.22-.88,.22-1.1v-2.42l-.22-.44-.22-.44-.22-.44-.22-.22-.22-.22-.22-.22-.22-.22-.22-.22-.22-.22-.22-.22-.22-.22-.44-.22-.44-.22-.44-.22h-2.42l-.66,.22-.66,.22-.44,.22-.22,.22-.44,.22-.22,.22-.44,.22-.22,.22-.22,.22-.22,.22-.22,.22-.44,.22-.22,.22-.22,.22-.22,.22-.22,.22-.22,.22-.22,.22-.22,.44-.22,.22-.22,.22-.22,.22-.22,.44-.22,.22-.22,.22-.22,.44-.22,.22-.22,.44-.22,.22-.22,.44-.22,.44-.22,.44-.22,.22-.22,.44-.22,.44-.22,.44-.22,.44-.22,.44-.22,.44-.22,.44-.22,.44-.22,.44-.22,.66-.22,.44-.22,.44-.22,.66-.22,.44-.22,.66-.22,.66-.22,.44-.22,.66-.22,.66-.22,.22-.22,.44-.22,.22-.22,.22-.22,.22-.22,.44-.44,.22-.22,.22-.22,.22-.22,.22h-1.1l-.22-.22v-1.76l.22-1.1,.22-.88,.22-.44,.22-.66,.22-.44,.22-.44,.22-.44,.22-.44,.22-.44,.22-.44,.22-.22,.22-.44,.22-.44,.22-.44,.22-.22,.22-.44,.22-.22,.22-.44,.22-.44,.22-.22,.22-.44,.22-.22,.22-.44,.22-.22,.22-.44,.22-.22,.22-.44,.22-.22,.22-.44,.22-.22,.22-.22,.22-.44,.22-.44,.22-.22,.22-.22,.22-.44,.22-.22,.22-.44,.22-.22,.22-.22,.22-.44,.22-.22,.22-.44,.22-.22,.22-.44v-1.1l-.22-.22-.22-.22-.22-.22-.44-.22-.66-.22-.66-.22h-.88l-.66,.22-.66,.22-.44,.22-.44,.22-.22,.22-.22,.44-.22,.22-.22,.22-.22,.22-.22,.44-.22,.22-.22,.22-.22,.44-.22,.22-.22,.44-.22,.44-.22,.22-.22,.44-.22,.44-.22,.44-.22,.22-.22,.44-.22,.44-.22,.44-.22,.44-.22,.22-.22,.66-.22,.44-.22,.22-.22,.44-.22,.44-.22,.44-.22,.44-.22,.44-.22,.66-.22,.44-.22,.66-.22,.44-.22,.66-.22,.44-.22,.44-.22,.66-.22,.22-.22,.66-.22,.44-.22,.44-.22,.44-.22,.22-.22,.44-.22,.44-.22,.22-.22,.22-.22,.44-.22,.22-.22,.22-.22,.22-.44,.22-.22,.22h-.88l-.22-.22v-1.32l.22-.88,.22-.66,.22-.66,.22-.44,.22-.44,.22-.44,.22-.44,.22-.44,.22-.44,.22-.22,.22-.44,.22-.44,.22-.44,.22-.22,.22-.44,.22-.44,.22-.22,.22-.44,.22-.22,.22-.44,.22-.22,.22-.44,.22-.22,.22-.44,.22-.22,.22-.44,.22-.44,.22-.22,.22-.44,.22-.22,.22-.44,.22-.44v-1.32l-.22-.66-.22-.66-.22-.22-.22-.22-.66-.22h-3.95l-1.1,.22v-2.2l-.22-.66-.22-.44-.22-.22-.22-.44-.22-.22-.44-.22-.66-.22h-1.1l-.66,.22-.44,.22-.44,.22-.22,.22-.22,.22-.44,.22-.22,.22,.27,4.61c.13,2.61-7.04,14.46-7.96,14.06h-.22l-.22,.44-.22,.22-.22,.22-.22,.22-.22,.44-.44,.22-.22,.22-.22,.22-.22,.22-.22,.22-.44,.22-.44,.22-.22,.22-.66,.22h-2.2v-.44l-.22-.22-.22-.66-.22-1.1v-.22l.22-.66,.22-.22v-.66h1.1l.66-.22,.44-.22,.44-.22,.22-.22,.22-.22,.44-.22,.22-.22,.22-.22,.44-.22,.22-.22,.22-.22,.22-.22,.22-.22,.22-.22,.22-.22,.22-.22,.22-.22,.22-.22,.22-.22,.22-.22,.22-.22,.22-.22,.22-.22,.22-.22,.22-.22,.22-.22,.22-.22,.22-.22,.22-.22,.22-.44,.22-.22,.22-.22,.22-.22,.22-.22,.22-.44,.22-.22,.22-.22,.22-.44c.69-.99,1.76-3.63,1.76-5.27v-1.54c0-1.26-.93-3.05-.66-3.51v-.22h-.66l-.66-.22h-3.07l-.66,.22-.44,.22-.44,.22-.22,.22-.22,.22-.44,.22-.22,.22-.22,.22-.22,.22-.22,.22-.22,.22-.22,.22-.22,.22-.22,.22-.22,.22-.22,.22-.22,.22-.22,.22-.22,.44-.22,.22-.22,.22-.22,.44-.22,.22-.22,.44-.22,.22-.22,.44-.22,.44-.22,.22-.22,.44-.22,.22-.22,.44-.22,.44-.22,.44-.22,.44-.22,.22-.22,.44-.22,.66-.22,.22-.22,.44-.22,.66-.22,.22-.22,.44-.22,.66-.22,.22-.22,.66-.22,.44-.22,.44-.22,.66-.22,.44-.22,.44-.22,.66-.22,.44-.22,.66-.22,.44-.22,.66-.22,.44-.22,.44-.22,.44-.22,.22-.22,.22-.22,.44-.22,.22-.22,.22-.44,.22-.44,.22h-.66v-.66l.22-.44,.22-.44,.22-.44,.22-.22,.22-.44,.22-.22,.22-.44,.22-.44,.22-.22,.22-.44,.22-.44,.22-.44,.22-.44,.22-.22,.22-.44,.22-.66,.22-.44,.22-.44,.22-.88,.22-.66v-2.2l-.22-.44-.22-.44-.22-.22-.22-.22-.22-.22-.22-.22-.44-.22h-1.98l-.22,.22-.44,.22-.44,.22-.22,.22-.22,.22-.44,.22-.22,.22-.22,.22-.22,.22-.22,.22-.44,.22-.22,.22-.22,.22-.44,.22-.22,.22-.22,.22-.22-.22-.22-.88-.22-1.1-.22-.66-.22-.44-.22-.22-.44-.22h-2.42l-.66,.22-.22,.22-.22,.22-.22,.22-.22,.22-.22,.22-.22,.22-.22,.22-.44,.22-.69,.21,.25-.43,.22-.22,.22-.44,.22-.22,.22-.44,.22-.44,.22-.22,.22-.44,.22-.22,.22-.44,.22-.44,.22-.44v-2.2l-.22-.22-.22-.22-.88-.22h-3.29l-.44,.22-.44,.22-.22,.22-.22,.22-.22,.22-.22,.22-.22,.22-.22,.44-.22,.44-.22,.66-.22,.66-.22,1.1-.22,.88-.22,.66-.22,.66-.22,.66-.22,.66-.22,.44-.22,.66-.22,.44-.22,.44-.22,.44-.22,.44-.22,.44-.22,.22-.22,.44-.22,.44-.22,.44-.22,.44-.22,.44-.22,.44-.22,.22-.22,.44-.22,.44-.22,.44-.22,.44-.22,.44-.22,.22-.22,.44-.22,.44-.22,.44-.22,.44-.22,.44-.22,.22-.22,.44-.22,.44-.22,.44-.22,.44-.22,.66v1.32l.22,.44,.22,.44,.22,.22,.22,.22,.22,.22,.44,.22h1.98l.44-.22,.22-.22,.22-.22,.22-.22,.22-.44,.22-.22,.22-.44,.22-.66,.22-.22,.22-.44,.22-.44,.22-.22,.22-.22,.22-.22,.22-.22,.22-.44,.22-.22,.22-.22,.22-.22,.22-.44,.22-.22,.22-.22,.22-.22,.22-.22,.22-.44,.22-.22,.22-.22,.22-.22v-.44h.44l.22-.44,.22-.22,.22-.22,.22-.22,.22-.44,.22-.22,.22-.22,.22-.22,.22-.22,.22-.22,.22-.44,.22-.22,.22-.22h.69s-.25,.66-.25,.66l-.22,.44-.22,.44-.22,.44-.22,.44-.22,.44-.22,.44-.22,.44-.22,.44-.22,.44-.22,.44-.22,.66-.22,.22-.22,.66-.22,.44-.22,.44-.22,.44-.22,.88v.88l.22,.88,.22,.44,.44,.22,.22,.22h1.98l.88-.22,.22-.22,.44-.22,.22-.22,.22-.44,.22-.22,.22-.22,.22-.44,.22-.44,.22-.22,.22-.44,.22-.44,.22-.22,.22-.44,.22-.44,.22-.44,.22-.22,.22-.44,.22-.44,.22-.22,.22-.44,.22-.22,.22-.44,.22-.22,.22-.22,.22-.44,.22-.22,.22-.22,.22-.22,.22-.22,.44-.22,.44-.22,.47-.21-.25,.65-.22,.44-.22,.44-.22,.44-.22,.44-.22,.66-.22,.44-.22,.44-.22,.66-.22,.44-.22,.66v2.42l.22,.22,.22,.44,.22,.22,.22,.22,.22,.22,.44,.22,.22,.22,.66,.22h2.2l.88-.22,.22-.22,.44-.22,.44-.22,.22-.22,.22-.22,.22-.22,.44-.22,.22-.22,.22-.22h.66l.22,.22,.44,.22,.22,.22,.22,.22,.22,.22,.22,.22,.22,.22,.22,.22,.22,.22,.22,.22,.44,.22,.22,.22,.44,.22,.88,.22h1.98l1.54-.22,1.1-.22,.44-.22,.66-.22,.44-.22,.22-.22,.44-.22,.44-.22,.22-.22,.44-.22,.22-.22,.22-.22,.44-.22,.22-.22v-.44h.44l.22-.22,.22-.22,.22-.22,.22-.22,.22-.44,.22-.22,.22-.22,.22-.22,.22-.22,.22-.44,.22-.22,.22-.22,.22-.44,.22-.22,.22-.22,.22-.44,.22-.44,.22-.22,.22-.44,.22-.22,.22-.44,.22-.44,.22-.44,.22-.22,.22-.44,.22-.44,.22-.44,.22-.44,.22-.44,.22-.44,.22-.44,.22-.44,.22-.44,.22-.44,.22-.44,.22-.44,.22-.44,.22-.66,.22-.22,.22-.44v-.46s2.42,.24,2.42,.24v.44l-.22,.44-.22,.44-.22,.44-.22,.22-.22,.44-.22,.44-.22,.44-.22,.44-.22,.44-.22,.44-.22,.44-.22,.66-.22,.44-.22,.44-.22,.44-.22,.44-.22,.66-.22,.66-.22,.22-.22,.66-.22,.66-.22,.66-.22,.88v3.29l.22,.66,.22,.22,.22,.22,.22,.22,.22,.22,.44,.22,.44,.22h2.2l.66-.22,.44-.22,.44-.22,.22-.22,.22-.22,.44-.22,.22-.22,.22-.22,.22-.22,.44-.22,.22-.22,.44-.22h.44l.44,.22,.44,.22,.22,.22,.22,.22,.22,.22,.22,.22,.22,.22,.22,.22,.22,.22,.66,.22h2.64l.66-.22,.44-.22,.22-.22,.44-.22,.22-.22,.22-.22,.44-.22,.22-.22,.22-.22,.66-.22h.22l.44,.22,.22,.22,.22,.22,.22,.22,.22,.22,.44,.22,.22,.22,.44,.22,.22,.22,.44,.22,.44,.22,.66,.22h4.39l1.1-.22,.44-.22,.66-.22,.44-.22,.44-.22,.44-.22,.44-.22,.44-.22,.22-.22,.44-.22,.22-.22,.44-.22,.44-.22h.66l.44,.22,.22,.44,.22,.22,.22,.44,.22,.22,.22,.44,.22,.22,.22,.22,.22,.22,.44,.22,.44,.22,.88,.22h1.54l1.32-.22,.88-.22,.88-.22,.44-.22,.44-.22,.66-.22,.44-.22,.44-.22,.44-.22,.22-.22,.44-.22,.44-.22,.22-.22,.44-.22,.44-.22h.44l.44,.22,.22,.44,.22,.44,.22,.22,.22,.44,.22,.44,.22,.22,.22,.22,.22,.22,.22,.22,.22,.22,.44,.22h1.54l.66-.22,.22-.22,.44-.22,.44-.22,.22-.22,.22-.22,.44-.22,.22-.22,.22-.22,.22-.22,.22-.22,.22-.22,.44-.22,.22-.44,.44-.22,.22-.44,.22-.22,.22-.22,.22-.22,.22-.22,.22-.22,.22-.22,.22-.22,.22-.22,.22-.44,.22-.22,.22-.22,.22-.22,.22-.44,.22-.22,.22-.22,.22-.44,.22-.22,.22-.44,.22-.22,.22-.44,.22-.44,.22-.22,.22-.44,.22-.88v-1.98l-.22-.66-.22-.22-.22-.22-.44-.22h-.88l-.66,.22-.22,.22-.44,.22-.22,.44-.22,.44-.22,.22-.22,.44-.22,.22-.22,.44-.22,.22-.22,.44-.22,.44-.22,.22-.22,.22-.22,.44-.22,.22-.22,.44-.22,.22-.22,.22-.22,.44-.22,.22-.22,.44-.22,.22-.22,.22-.22,.22-.22,.44-.22,.22-.22,.22-.22,.22-.22,.22h-.69s.25-1.54,.25-1.54l.22-.66,.22-.66,.22-.66,.22-.44,.22-.66,.22-.22,.22-.44,.22-.44,.22-.44,.22-.22,.22-.44,.22-.44,.22-.22,.22-.44,.22-.22,.22-.44,.22-.22,.22-.44,.22-.22,.22-.22,.22-.44,.22-.22,.22-.22,.22-.44,.22-.22,.22-.22,.22-.44,.22-.22,.22-.44,.22-.22,.22-.22,.22-.44,.22-.44,.22-.22,.22-.66v-.44l-.22-.88-.22-.22-.22-.22-.22-.22-.66-.22-.44-.22-.22-.44-.22-2.85-.22-.66-.22-.22-.22-.22-.22-.22-.22-.22-.22-.22-.22-.22-.22-.22-.22-.22-.22-.22-.44-.22-.44-.22-.44-.22h-1.54l-1.54,.22h0Z"/>
  <path class="cls-3" d="M520.74,210.01l-.22,.66-.22,.44-.22,.44-.22,.44-.22,.44-.22,.44-.22,.44-.22,.44-.22,.22-.22,.44-.22,.44-.22,.44-.22,.44-.22,.22-.22,.22-.22,.44-.22,.22-.22,.22-.22,.22-.22,.22-.22,.22-.22,.22-.22,.22-.22,.22-.22,.22-.22,.22-.22,.22-.22,.22-.44,.22-.22,.22-.22,.22-.22,.22-.44,.22-.22,.22-.22,.22-.44,.22-.22,.22-.22,.22-.44,.22-.22,.22-.44,.22h-2.2l-.44-.22-.22-.22-.22-.22-.22-.22-.22-.88v-.22l.22-1.32,.22-.66,.22-.88,.22-.44,.22-.66,.22-.44,.22-.44,.22-.44,.22-.66,.22-.44,.22-.44,.22-.44,.22-.44,.22-.44,.22-.44,.22-.22,.22-.44,.22-.44,.22-.22,.22-.44,.22-.22,.22-.44,.22-.22,.22-.22,.22-.44,.22-.22,.22-.22,.22-.22,.22-.44,.44-.22,.22-.44,.44-.22v-.44h.44l.22-.22,.22-.22,.44-.22,.22-.22,.44-.22,.44-.22h1.98l.44,.22,.22,.22h.44v.44l.22,.22,.22,.22,.22,.66,.22,.66v1.98l-.22,.88h0Zm24.82-2.42l-.22,.66-.22,.66-.22,.44-.22,.44-.22,.66-.22,.22-.22,.66-.22,.44-.22,.22-.22,.44-.22,.22-.22,.22-.22,.44-.22,.22-.22,.22-.22,.22-.22,.44-.22,.22-.22,.22-.22,.22-.22,.22-.22,.44-.22,.22-.22,.22-.22,.22-.22,.22-.22,.22-.22,.22-.22,.22-.22,.22-.22,.22-.22,.22-.22,.22-.44,.22-.22,.22-.22,.22-.44,.22-.22,.22-.44,.22-.44,.22-.22,.22-.66,.22-.66,.22h-1.76l-.66-.22-.22-.22-.22-.44v-.88l.22-.88,.22-.44,.22-.44,.22-.44,.22-.44,.22-.44,.22-.22,.22-.44,.22-.44,.22-.44,.22-.22,.22-.44,.22-.44,.22-.22,.22-.44,.22-.44,.22-.22,.22-.44,.22-.44,.22-.22,.22-.22,.22-.44,.22-.22,.22-.22v-.44h.44l.22-.44,.22-.22,.22-.22,.22-.22,.22-.22,.22-.22,.22-.22,.44-.22,.22-.22,.22-.22,.22-.22,.22-.22,.44-.22,.44-.22,.44-.22,.44-.22,.66-.22,.44-.22,1.1-.22h1.1l.44,.22,.22,.22v1.98l-.22,.66h0Zm-59.96-24.37l-1.1,.22-.88,.22-.44,.22-.88,.22-.66,.22-.44,.22-.66,.22-.22,.22-.44,.22-.22,.22-.22,.22-.44,.22-.22,.22-.22,.22-.44,.22-.22,.22-.22,.22-.22,.22-.22,.22-.22,.22-.22,.22-.22,.22-.22,.22-.22,.22-.44,.22-.22,.44-.44,.22-.22,.44-.44,.22-.22,.44-.44,.22-.22,.44-.22,.22-.22,.22-.22,.22-.22,.22-.22,.22-.22,.44-.22,.22-.22,.22-.22,.44-.22,.44-.22,.22-.22,.44-.22,.44-.22,.44-.22,.66-.22,.66v3.51l.22,.66,.22,.66,.22,.66,.22,.44,.22,.44,.22,.44,.22,.22,.22,.44,.22,.44,.22,.22,.22,.44,.22,.22,.22,.44,.22,.22,.22,.44,.22,.22,.22,.44,.22,.22,.22,.44,.22,.22,.22,.22,.22,.44,.22,.22,.22,.22,.22,.44,.22,.22,.22,.22,.22,.44,.22,.22,.22,.44,.22,.22,.22,.44,.22,.22,.22,.44,.22,.22,.22,.44,.22,.22,.22,.44,.22,.44,.22,.44,.22,.44,.22,.66,.22,.66v2.2l-.22,.88-.22,.44-.22,.22-.22,.44-.22,.22-.22,.22-.22,.22-.44,.22-.22,.22-.44,.22-.22,.22-.44,.22-.66,.22-.66,.22-.44,.22-.66,.22-.66,.22-.88,.22h-2.2l-.88-.22-.66-.22-.44-.22-.44-.22-.66-.22-.44-.22-.22-.22-.44-.22-.22-.22h-.44v-.44l-.22-.22v-.88l.22-.88,.22-.44,.22-.44,.22-.44,.22-.22,.22-.22,.22-.22,.22-.22,.22-.22,.22-.22,.22-.22,.22-.22,.22-.22,.22-.22,.22-.22,.22-.22,.22-.22,.22-.44,.22-.44,.22-.44v-1.98l-.22-.44-.22-.22-.22-.22-.66-.22-.44-.22h-1.98l-.44,.22-.44,.22-.44,.22-.22,.22-.22,.22-.22,.22-.22,.22-.22,.22-.22,.22-.22,.22-.22,.22-.22,.44-.22,.22-.22,.44-.22,.44-.22,.44-.22,.44-.22,.66-.22,.66v3.51l.22,.88,.22,.66,.22,.66,.22,.44,.22,.44,.22,.44,.22,.22,.22,.44,.22,.22,.22,.22,.22,.22,.22,.22,.22,.22,.22,.22,.44,.22,.22,.22,.66,.22,.44,.22,.88,.22,2.2,.22h5.05l1.32-.22,.88-.22,.66-.22,.88-.22,.44-.22,.66-.22,.66-.22,.44-.22,.44-.22,.44-.22,.22-.22,.44-.22,.22-.22,.22-.22,.22-.22,.44-.22,.22-.44,.22-.22,.22-.22,.22-.22,.22-.44,.22-.22,.22-.44,.22-.44,.22-.66,.22-.88,.22-.88v-2.63l-.22-.88-.22-.66-.22-.44-.22-.44-.22-.44-.22-.44-.22-.22-.22-.44-.22-.22-.22-.44-.22-.44-.22-.22-.22-.44-.22-.22-.22-.22-.22-.44-.22-.22-.22-.44-.22-.22-.22-.44-.22-.22-.22-.22-.22-.44-.22-.22-.22-.22-.22-.44-.22-.22-.22-.22-.22-.44-.22-.22-.22-.44-.22-.22-.22-.44-.22-.22-.22-.44-.22-.22-.22-.44-.22-.44-.22-.22-.22-.44-.22-.44-.22-.44-.22-.66-.22-.88v-.88l.22-1.1,.22-.44,.22-.44,.22-.44,.22-.44,.22-.22,.22-.44,.22-.22,.22-.44,.22-.22,.22-.22,.22-.22,.22-.22v-.44h.44l.22-.22v-.44h.44l.22-.22v-.44h.44l.22-.22,.22-.22,.22-.22,.44-.22,.22-.22,.22-.22,.44-.22,.22-.22,.44-.22,.22-.22,.44-.22,.44-.22,.44-.22,.22-.22,.44-.22,.66-.22,.44-.22,.88-.22h4.39l.44,.22,.22,.22,.22,.22h.44v.44l.22,.22v2.42l-.22,.66-.22,.22-.22,.44-.22,.44-.22,.44-.22,.44-.22,.44-.22,.22-.22,.44-.22,.22-.22,.22v.44h-6.81l-3.29,.22-.44,.22-.22,.22-.22,.22-.22,.22-.22,.66v1.32l.22,.66,.22,.22,.22,.22,.22,.22h7.25l-.22,.22-.22,.44-.22,.44-.22,.22-.22,.44-.22,.22-.22,.44-.22,.22-.22,.22-.22,.44v1.98l.22,.44,.22,.22,.22,.22,.22,.22,.44,.22h2.2l.44-.22,.44-.22,.22-.22,.22-.22,.22-.22,.22-.44,.22-.22,.22-.44,.22-.22,.22-.44,.22-.44,.22-.44,.22-.22,.22-.44,.22-.44,.22-.22,.22-.22,.22-.44,.22-.22,.22-.22,.44-.22,.22-.22,3.29-.22,2.89-.21-.25,.43-.22,.44-.22,.22-.22,.44-.22,.22-.22,.44-.22,.22-.22,.44-.22,.44-.22,.22-.22,.44-.22,.22-.22,.44-.22,.44-.22,.22-.22,.44-.22,.44-.22,.22-.22,.44-.22,.44-.22,.22-.22,.44-.22,.44-.22,.22-.22,.44-.22,.44-.22,.22-.22,.44-.22,.22-.22,.44-.22,.44-.22,.44-.22,.22-.22,.44-.22,.22-.22,.44-.22,.44-.22,.44-.22,.44-.22,.22-.22,.44-.22,.44-.22,.44-.22,.22-.22,.44-.22,.44-.22,.22-.22,.44-.22,.66-.22,.22-.22,.44-.22,.66v3.51l.22,.88,.22,.66,.22,.44,.22,.22,.22,.44,.22,.22,.22,.22,.22,.22h4.17l.44-.22,.66-.22,.66-.22,.22-.22,.44-.22,.44-.22,.44-.22,.44-.22,.22-.22,.44-.22,.22-.22,.44-.22,.22-.22,.44-.22,.22-.22,.22-.22,.44-.22,.44-.22,.22-.22,.44-.22h.66v.44l.22,.22,.22,.44,.22,.44,.22,.44,.22,.66,.22,.22,.22,.22,.22,.22,.22,.22,.22,.22,.22,.22,.66,.22,.44,.22,2.64,.22h.66l2.2-.22,.66-.22,.66-.22,.44-.22,.44-.22,.44-.22,.44-.22,.22-.22,.44-.22,.22-.22,.22-.22,.44-.22,.22-.22,.22-.22,.22-.22,.22-.22,.22-.22,.22-.22,.22-.22,.22-.22,.22-.22,.22-.22,.22-.22,.22-.22,.22-.22,.22-.22,.22-.22,.22-.22,.22-.22,.22-.44,.22-.22,.22-.22,.22-.22,.22-.22,.22-.22,.22-.22,.22-.22,.22-.22,.22-.22,.22-.22,.22-.22,.22-.22,.44-.22,.22-.22,.22-.22,.44-.22,.44-.22,.66-.22h.66l.22,.22,.22,.22v.22l-.22,.66-.22,.44-.22,.22-.22,.66-.22,.44-.22,.22-.22,.44-.22,.44-.22,.22-.22,.44-.22,.44-.22,.22-.22,.44-.22,.44-.22,.22-.22,.44-.22,.44-.22,.22-.22,.44-.22,.44-.22,.44-.22,.44-.22,.44-.22,.44-.22,.44-.22,.44-.22,.22-.22,.44-.22,.44-.22,.44-.22,.22-.22,.44-.22,.22-.22,.44-.22,.44-.22,.22-.22,.44-.22,.22-.22,.44-.22,.22-.22,.44-.22,.44-.22,.44-.22,.44v1.76l.22,.22,.22,.22,.44,.22,.44,.22h2.42l.22-.22,.44-.22,.22-.22,.22-.22,.22-.22,.22-.44,.22-.22,.22-.44,.22-.22,.22-.44,.22-.44,.22-.44,.22-.44,.22-.44,.22-.44,.22-.66,.22-.44,.22-.44,.22-.66,.22-.44,.22-.44,.22-.66,.22-.44,.22-.44,.22-.44,.22-.44,.22-.44,.22-.22,.22-.44,.22-.22,.22-.22,.44-.22h.88l.44,.22,.22,.22,.44,.22,.22,.22,.22,.22,.44,.22,.66,.22,.44,.22h1.32l1.1-.22,.66-.22,.66-.22,.44-.22,.44-.22,.44-.22,.22-.22,.44-.22,.44-.22,.22-.22,.44-.22,.22-.22,.44-.22,.22-.22,.44-.22,.22-.22,.22-.22,.22-.22,.22-.22,.44-.22,.22-.22,.22-.22,.22-.22,.22-.22,.22-.22,.44-.22,.22-.22,.22-.22,.22-.22,.22-.22,.22-.22,.22-.22,.22-.22,.22-.22,.22-.22,.22-.22,.22-.22,.22-.22,.22-.22,.22-.22,.22-.44,.22-.22,.22-.22,.22-.22,.22-.22,.22-.44,.22-.22,.22-.22,.22-.44,.22-.22,.22-.44,.22-.44,.22-.44,.22-.44,.22-.44,.22-.44,.22-.66,.22-.66,.22-.66,.22-.66,.22-.66,.22-.88,.22-.66v-2.63l-.22-.66-.22-.66-.22-.44-.22-.44-.22-.22-.22-.44-.22-.22-.22-.22-.22-.22-.22-.22-.22-.22-.22-.22-.44-.22-.66-.22h-1.98l-1.32,.22-.88,.22-.44,.22-.44,.22-.66,.22-.44,.22-.44,.22-.44,.22-.22-.88-.22-.66-.22-.66-.22-.22-.22-.22-.22-.22-.66-.22h-1.32l-1.1,.22-.44,.22-.22,.22-.44,.22-.22,.22-.22,.44-.22,.22-.22,.66-.22,.44-.22,.66-.22,.88-.22,.88-.22,.44-.22,.66-.22,.66-.22,.44-.22,.44-.22,.44-.22,.22-.22,.44-.22,.44-.22,.22-.22,.22-.22,.44-.22,.22-.22,.22-.22,.22-.22,.22-.22,.22-.44,.22-.22,.22-.44,.22-.22,.22-.44,.22h-1.32l-.22-.22v-1.32l.22-.66,.22-.66v-2.85l-.22-.66-.22-.66-.22-.66-.22-.22-.22-.44-.22-.22-.22-.22-.22-.22-.22-.22-.22-.22-.44-.22-.22-.22-.44-.22-.44-.22-.44-.22-.44-.22-.88-.22h-3.51l-.66,.22-.44,.22-.44,.22-.66,.22-.22,.22-.44,.22-.44,.22-.22,.22-.44,.22-.22,.22-.22,.22-.22,.22-.22,.22-.22,.22-.22,.22-.22,.22-.22,.22-.22,.22-.22,.22-.22,.22-.22,.22-.22,.22-.22,.22-.22,.22-.22,.22v.44h-.44l-.22,.44-.22,.22-.22,.22-.22,.22-.22,.44-.22,.22-.22,.22v.44h-.44l-.22,.44-.22,.22-.22,.22-.22,.44-.22,.22-.22,.22-.22,.44-.22,.22-.22,.22-.22,.44-.22,.22-.22,.44-.22,.44-.22,.44-.22,.22-.22,.44-.22,.44-.22,.44-.22,.44-.22,.22-.22,.44-.22,.44-.22,.22-.22,.44-.22,.22-.22,.44-.22,.22-.22,.44-.22,.22-.22,.22-.22,.44-.22,.22-.22,.22-.22,.22-.22,.22-.22,.22-.22,.44-.22,.22-.22,.22-.22,.22-.44,.22-.22,.22-.22,.22-.22,.22-.44,.22-.22,.22-.44,.22-.66,.22-.44,.22h-1.32l-.22-.22-.22-.22v-2.42l.22-.66,.22-.44,.22-.44,.22-.44,.22-.44,.22-.44,.22-.44,.22-.44,.22-.44,.22-.22,.22-.44,.22-.44,.22-.44,.22-.22,.22-.44,.22-.44,.22-.22,.22-.44,.22-.44,.22-.44,.22-.44,.22-.22,.22-.44,.22-.44,.22-.22,.22-.44,.22-.44,.22-.22,.22-.44,.22-.22,.22-.44,.22-.22,.22-.44,.22-.22,.22-.22,.22-.44,.22-.22,.22-.44,.22-.22,.22-.22,.22-.44,.22-.22,.22-.22,.22-.44,.22-.22,.22-.22,.22-.44,.22-.22,.22-.22,.22-.22,.22-.44,.22-.22,.22-.22,.22-.22,.22-.22,.22-.22v-.44h.44l.22-.22v-.44h.44l17.79-.22,.66-.22,.44-.22,.66-.22,.22-.22,.22-.22,.44-.22,.22-.22,.22-.22,.22-.44,.22-.44v-1.1l-.22-.22-.22-.22-.88-.22h-6.59l-3.95,.22-6.84,.21,.25-.65,.22-.22,.22-.44,.22-.44,.22-.22,.22-.44,.22-.44,.22-.22,.22-.44,.22-.22,.22-.22,.22-.44,.22-.22,.22-.22,.22-.44,.22-.44,.22-.66v-.66l-.22-.44-.22-.22-.22-.22-.22-.22-.22-.22h-2.64l-.44,.22-.44,.22-.22,.22-.22,.22-.22,.22-.22,.22-.22,.44-.22,.22-.22,.22-.22,.44-.22,.22-.22,.44-.22,.22-.22,.44-.22,.44-.22,.22-.22,.44-.22,.22-.22,.44-.22,.44-.22,.22-.22,.44-.22,.22-.22,.44-.22,.22-.22,.22-.22,.22-.22,.22-.22,.22-.44,.22-7.06,.21,.25-.43,.22-.44,.22-.22,.22-.44,.22-.22,.22-.44,.22-.66,.22-.44,.22-.44,.22-.88,.22-.88v-1.32l-.22-.88-.22-.66-.22-.44-.22-.44-.22-.22-.22-.44-.22-.22-.22-.22-.22-.22-.22-.22-.22-.22-.44-.22-.22-.22-.44-.22-.44-.22-.44-.22-.44-.22-.66-.22-.66-.22h-4.61l-1.32,.22h0Z"/>
  <path class="cls-3" d="M433.1,199.91l-.04,.26-.18-.26h.22Zm4.61-18.66l-.22,.22-.22,.44-.22,.22-.22,.44-.22,.44-.22,.44-.22,.22-.22,.44-.22,.22-.22,.44-.22,.44-.22,.44-.22,.22-.22,.44-.22,.44-.22,.22-.22,.44-.22,.44-.22,.22-.22,.44-.22,.44-.22,.44-.22,.44-.22,.22-.22,.44-.22,.44-.22,.44-.22,.44-.22,.22-.22,.44-.22,.44-.22,.44-.22,.22-.22,.44-.22,.44-.22,.44-.22,.44-.22,.44-.22,.22-.22,.44-.22,.44-.22,.44-.22,.44-.22,.44-.22,.22-.22,.44-.22,.44-.22,.44-.22,.44-.22,.44-.22,.44-.22,.44-.22,.44-.22,.22-.22,.66-.22,.44-.22,.22-.22,.44-.22,.44-.22,.44-.22,.44-.22,.44-.22,.44-.22,.44-.22,.44-.22,.22-.22,.44-.22,.44-.22,.22-.22,.44-.22,.44-.22,.22-.22,.44-.22,.22-.22,.44-.22,.22-.22,.22-.22,.44-.22,.22-.22,.22-.22,.44-.22,.22-.22,.44-.22,.22-.22,.22-.22,.22-.22,.44-.22,.22-.22,.22-.22,.22-.22,.22-.22,.22-.22,.44-.22,.22-.22,.22-.22,.22-.22,.22-.22,.22-.22,.22-.44,.22-.22,.44-.44,.22-.22,.22-.22,.22-.22,.22-.22,.22-.44,.22-.22,.22-.44,.22-.22,.22-.44,.22-.22,.22-.44,.22-.44,.22-.22,.22-.66,.22-.44,.22-.44,.22-.88,.22h-.66l-.66-.22-.22-.22-.22-.22-.22-.22-.22-.22-.22-.22-.22-.44-.22-.22-.22-.66v-1.76l.22-1.76,.22-1.54,.22-1.1,.22-.66,.22-.66,.22-.44,.22-.66,.22-.44,.22-.44,.22-.44,.22-.44,.22-.44,.22-.44,.22-.22,.22-.44,.22-.44,.22-.22,.22-.22,.22-.44,.22-.22,.22-.44,.22-.22,.22-.22,.22-.22,.22-.44,.22-.22,.22-.22,.22-.22,.22-.22,.22-.44,.22-.22,.22-.22,.22-.22,.22-.44,.22-.22,.22-.22,.22-.22,.22-.22,.22-.44,.22-.22,.22-.22,.22-.22,.22-.22,.22-.22v-.44h.44l.22-.22v-.44h.44l.22-.22,.22-.22,.22-.22,.44-.22,.44-.22,.44-.22,.88-.22h1.1l.44,.22,.22,.22,.22,.22,.22,.22v1.1l-.22,.44-.22,.44-.22,.22-.22,.22-.22,.22-.22,.22-.22,.22-.22,.22-.22,.22-.22,.22-.44,.22-.22,.22-.22,.22-.22,.22-.22,.22-.22,.22-.22,.22-.22,.22-.22,.22-.22,.22-.22,.44-.22,.22-.22,.22-.22,.44-.22,.44-.22,.44-.22,.66-.22,1.32v1.98l.22,.22,.22,.44,.44,.22,.44,.22h2.2l.44-.22,.44-.22,.22-.22,.22-.22,.22-.22,.22-.22,.22-.22,.22-.44,.22-.22,.22-.22,.22-.44,.22-.22,.22-.22,.22-.44,.22-.22,.22-.44,.22-.44,.22-.22,.22-.44,.22-.44,.22-.44,.22-.44,.22-.66,.22-.66,.22-.66,.22-.88,.22-1.54v-2.63l-.22-.88-.22-.44-.22-.44-.22-.22-.22-.44-.22-.22-.22-.22-.22-.22-.22-.22-.22-.22-.22-.22-.22-.22-.44-.22-.44-.22h-2.42l-.88,.22-.66,.22-.22,.22-.44,.22-.66,.22-.22,.22-.44,.22-.22,.22-.22,.22-.44,.22-.22,.22-.22,.22-.44,.22-.22,.22-.22,.22-.22,.22-.22,.22-.22,.22-.22,.22-.22,.22-.22,.22-.22,.22-.22,.22-.22,.22-.22,.22-.22,.22-.22,.22-.22,.22-.22,.44-.22,.22-.22,.22-.22,.22-.22,.22-.22,.44-.22,.22-.22,.22-.22,.44-.22,.22-.22,.22-.22,.44-.22,.44-.22,.22-.22,.44-.22,.22-.22,.44-.22,.44-.22,.44-.22,.44-.22,.44-.22,.66-.22,.44-.22,.44-.22,.66-.22,.44-.22,.66-.22,.44-.22,.44-.22,.66-.22,.44-.22,.44-.22,.66-.22,.44-.22,.44-.22,.44-.22,.66-.22,.44-.22,.44-.22,.44-.22,.22-.22,.44-.22,.44-.22,.22-.22,.44-.22,.44-.22,.22-.22,.22-.22,.44-.22,.22-.22,.22-.22,.22-.22,.22-.22,.22-.22,.22-.22,.22-.44,.22-.44,.22h-1.1l-.22-.22-.22-.44v-.22l.22-1.32,.22-.88,.22-.44,.22-.66,.22-.66,.22-.44,.22-.44,.22-.44,.22-.44,.22-.44,.22-.44,.22-.44,.22-.44,.22-.44,.22-.44,.22-.44,.22-.44,.22-.22,.22-.44,.22-.44,.22-.22,.22-.66,.22-.22,.22-.44,.22-.44,.22-.44,.22-.66v-1.54l-.22-.44-.22-.22-.22-.22-.44-.22-.22-.22h-2.2l-.22,.22-.44,.22-.22,.22-.22,.22-.22,.22-.22,.44-.22,.22-.22,.66-.22,.44-.22,.66-.22,.66-.22,.66-.22,.44-.22,.44-.22,.66-.22,.22-.22,.44-.22,.66-.22,.22-.22,.44-.22,.44-.22,.44-.22,.22-.22,.44-.22,.44-.22,.22-.22,.44-.22,.22-.22,.44-.22,.44-.22,.22-.22,.44-.22,.22-.22,.22-.22,.44-.22,.22-.22,.22-.22,.44-.22,.22-.22,.44-.22,.22-.22,.22-.22,.22-.22,.22v.44h-.44l-.22,.22-.22,.22-.22,.22-.22,.22-.44,.22-.22,.22h-1.32l-.22-.44v-1.76l.22-1.1,.22-.66,.22-.44,.22-.66,.22-.44,.22-.44,.22-.44,.22-.44,.22-.22,.22-.44,.22-.44,.22-.22,.22-.44,.22-.22,.22-.44,.22-.22,.22-.44,.22-.22,.22-.44,.22-.22,.22-.22,.22-.44,.22-.22,.22-.22,.22-.44,.22-.22,.22-.22,.22-.44,.22-.22,.22-.22,.22-.44,.22-.22,.22-.22,.22-.44,.22-.22,.22-.44,.22-.22,.22-.44v-.88l-.22-.22-.22-.22-.22-.22-.44-.22-.44-.22-.44-.22h-2.86l-.44,.22-.22,.22-.22,.22-.22,.44-.22,.22-.22,.44-.22,.44-.22,.44-.22,.22-.22,.66-.22,.44-.22,.22-.22,.66-.22,.44-.22,.44-.22,.44-.22,.44-.22,.44-.22,.44-.22,.44-.22,.22-.22,.66-.22,.22-.22,.44-.22,.44-.22,.44-.22,.44-.22,.22-.22,.44-.22,.44-.22,.44-.22,.44-.22,.22-.22,.44-.22,.44-.22,.22-.22,.22-.22,.44-.22,.22-.22,.44-.22,.22-.22,.22-.22,.22-.22,.44-.22,.22-.22,.22-.22,.22-.22,.22-.22,.22-.22,.22-.22,.22-.22,.22-.44,.22-.22,.22-.44,.22-.88,.22h-1.98v-1.32l.22-1.1,.22-.66,.22-.66,.22-.88,.22-.66,.22-.66,.22-.66,.22-.44,.22-.44,.22-.66,.22-.44,.22-.66,.22-.44,.22-.44,.22-.44,.22-.44,.22-.44,.22-.44,.22-.22,.22-.44,.22-.44,.22-.22,.22-.44,.22-.22,.22-.22,.22-.44,.22-.22,.22-.22,.22-.22,.22-.22,.22-.22,.22-.22,.22-.22,.22-.22,.22-.22,.22-.22,.22-.22,.22-.22,.22-.44,.22-.22,.22-.66v-2.42l-.22-.22-.22-.22-.22-.22-.44-.22-.44-.22-.44-.22-.66-.22h-1.98l-1.1,.22-1.32,.22v-.44l-.22-.22-.22-.66-.22-.88-.22-.44-.22-.22-.22-.22h-2.42l-.44,.22-.22,.22-.44,.22-.22,.22-.22,.22-.22,.22-.22,.44-.22,.22-.22,.44-.22,.44-.22,.44-.22,.66-.22,3.73-.22,1.1-.22,.22-.22,.66-.22,.44-.22,.22-.22,.44-.22,.44-.22,.22-.22,.44-.22,.44-.22,.22-.22,.44-.22,.44-.22,.22-.22,.44-.22,.44-.22,.22-.22,.44-.22,.44-.22,.22-.22,.44-.22,.44-.22,.22-.22,.44-.22,.22-.22,.44-.22,.44-.22,.22-.22,.44-.22,.22-.22,.44-.22,.22-.22,.44-.22,.22-.22,.44-.22,.44-.22,.22-.22,.44-.22,.44-.22,.22-.22,.44-.22,.44-.22,.22-.22,.44-.22,.66-.22,.44-.22,.44-.22,.66-.22,.44v2.2l.22,.22,.22,.44,.22,.22,.44,.22,.22,.22h1.98l.22-.44,.22-.44,.22-.22,.22-.44,.22-.44,.22-.44,.22-.44,.22-.44,.22-.44,.22-.22,.22-.66,.22-.22,.22-.44,.22-.44,.22-.44,.22-.44,.22-.44,.22-.44,.22-.44,.22-.44,.22-.44,.22-.22,.22-.44,.22-.44,.22-.44,.22-.44,.22-.44,.22-.44,.22-.22,.22-.44,.22-.44,.22-.44,.22-.44,.22-.44,.22-.22,.22-.44,.22-.44,.22-.22,.22-.44,.22-.44,.22-.44,.22-.22,.22-.44,.22-.44,.22-.22,.22-.44,.22-.22,.22-.44,.22-.44,.22-.22,.22-.22,.22-.44,.22-.22,.22-.22c.3-.74,2.08-.56,1.98-.22l-.22,.44-.22,.44-.22,.44-.22,.22-.22,.44-.22,.44-.22,.22-.22,.66-.22,.22-.22,.44-.22,.44-.22,.44-.22,.44-.22,.44-.22,.44-.22,.44-.22,.44-.22,.44-.22,.44-.22,.44-.22,.44-.22,.44-.22,.44-.22,.66-.22,.22-.22,.66-.22,.66-.22,.44-.22,.66-.22,.88v3.73l.22,.44,.22,.22,.22,.22,.22,.22,.22,.22,.22,.22,.22,.22,.22,.22,.22,.22,.44,.22h3.51l.66-.22,.66-.22,.44-.22,.44-.22,.22-.22,.44-.22,.44-.22,.44-.22,.22-.22,.66-.22h.88l.44,.22,.22,.22,.22,.22,.22,.22,.22,.22,.22,.22,.22,.22,.22,.22,.44,.22,.44,.22h3.07l.88-.22,.44-.22,.44-.22,.44-.22,.22-.22,.44-.22,.22-.22,.22-.22,.22-.22,.22-.22,.22-.22,.22-.22,.22-.22,.22-.22,.22-.22,.22-.22,.22-.44,.22-.22,.22,.22,.22,.44,.22,.66,.22,.44,.22,.22,.22,.44,.22,.22,.44,.22,.88,.22h1.32l.88-.22,.66-.22,.44-.22,.66-.22,.22-.22,.44-.22,.44-.22,.44-.22,.22-.22,.44-.22,.22-.22,.22-.22,.44-.22,.44-.22,.22,.22,.22,.44,.22,.66,.22,.44,.22,.44,.22,.44,.22,.22,.22,.22,.22,.22,.22,.22,.44,.22,.44,.22,.88,.22h2.86l.88-.22,.66-.22,.44-.22,.66-.22,.44-.22,.44-.22,.44-.22,.44-.22,.44-.22,.44-.22,.44-.22,.44-.22,.44-.22,.22-.22,.44-.22,.22-.22,.44-.22,.44-.22,.22-.22,.44-.22v3.07l.22,.44,.22,.22,.44,.22,.22,.22h3.29l.22-.44,.22-.44,.22-.44,.22-.44,.22-.66,.22-.44,.22-.44,.22-.44,.22-.66,.22-.22,.22-.66,.22-.66,.22-.44,.22-.66,.22-.66,.22-.44,.22-.44,.22-.44,.22-.66,.22-.44,.22-.44,.22-.44,.22-.44,.22-.44,.22-.44,.22-.44,.22-.22,.22-.44,.22-.44,.22-.22,.22-.44,.22-.22,.22-.44,.22-.22,.22-.22,.22-.44,.22-.22,.22-.22,.22-.22,.22-.22v-.44h.44l.22-.22v-.44h.44l.22-.44,.44-.22,.22-.22,.22-.22,.44-.22,.22-.22,.22-.22,.44-.22,.22-.22,.44-.22,.44-.22,.44-.22,.22-.22,.44-.22,.44-.22,.44-.22,.44-.22,.44-.22,.44-.22,.44-.22,.44-.22,.44-.22,.66-.22,.44-.22,.44-.22,.66-.22,.44-.22,.66-.22,.88-.22h1.1l.66,.22,.44,.22,.22,.22,.22,.22v1.98l-.22,.88-.22,.66-.22,.22-.22,.44-.22,.44-.22,.22-.22,.44-.22,.22-.22,.22-.22,.44-.22,.22-.22,.22-.22,.22-.22,.22-.22,.22-.22,.22-.22,.22-.22,.22-.22,.22-.22,.22-.22,.22-.44,.22-.22,.22-.22,.22-.44,.22-.22,.22-.44,.22-.22,.22-.44,.22-.44,.22-.44,.22-.44,.22-.66,.22-.88,.22-1.32,.22h-1.1l-.66-.22-.66-.22-.44-.22-.44-.22-.22-.22-.66-.22h-1.54l-.44,.22-.22,.22-.22,.22-.22,.22-.22,.22-.22,.22-.22,.22-.22,.44-.22,.44-.22,.44-.22,.44-.22,.66v5.49l.22,.88,.22,.44,.22,.22,.22,.44,.22,.22h.44v.44l.44,.22,.22,.22,.22,.22,.66,.22,.44,.22,.44,.22,1.1,.22h6.15l1.1-.22,.44-.22,.66-.22,.44-.22,.44-.22,.44-.22,.44-.22,.22-.22,.44-.22,.22-.22,.22-.22,.44-.22,.22-.22,.22-.22,.22-.22,.22-.22,.44-.22,.22-.22,.22-.22,.22-.22,.22-.22,.22-.22,.22-.44,.22-.22,.22-.22,.22-.22,.22-.22,.22-.44,.22-.22,.22-.44,.22-.44,.22-.66v-.88l-.22-.44-.22-.44-.22-.22-.22-.22-.22-.22h-1.98l-.22,.22-.44,.22-.22,.22-.22,.22-.22,.44-.22,.22-.22,.22-.22,.22-.22,.44-.22,.22-.22,.22-.22,.22-.22,.44-.22,.22-.22,.22-.22,.44-.22,.22-.22,.22-.22,.22-.22,.22-.22,.22-.22,.22-.22,.22-.22,.22-.22,.22-.44,.22-.22,.22-.44,.22-.22,.22-.44,.22-.66,.22-.88,.22h-2.42l-.44-.22-.66-.22-.22-.22-.22-.22-.22-.22-.22-.22-.22-.22-.22-.44-.22-.44v-1.98l.22-.22,.22-.22,1.76-.22,2.2-.22,.88-.22,.88-.22,.88-.22,.44-.22,.66-.22,.66-.22,.44-.22,.66-.22,.44-.22,.44-.22,.44-.22,.44-.22,.44-.22,.66-.22,.22-.22,.44-.22,.44-.22,.44-.22,.44-.22,.44-.22,.22-.22,.22-.22,.22-.22,.22-.22,.44-.22,.22-.44,.22-.22,.22-.22,.22-.22,.22-.22,.22-.22,.22-.44,.22-.44,.22-.22,.22-.44,.22-.22,.22-.44,.22-.44,.22-.44,.22-.44,.22-.66,.22-.44,.22-.88,.22-.66v-4.83l-.22-.66-.22-.44-.22-.44-.22-.44-.22-.22-.22-.22-.22-.22-.22-.22-.22-.22-.22-.22-.22-.22-.44-.22-.44-.22-.88-.22h-2.64l-1.32,.22-1.1,.22-.88,.22-.66,.22-.44,.22-.44,.22-.44,.22-.44,.22-.44,.22-.44,.22-.22,.22-.44,.22-.44,.22-.22,.22-.44,.22-.44,.22-.22,.22-.44,.22-.44,.22-.44,.22,.22-.44,.22-.44,.22-.22,.22-.44,.22-.44,.22-.44,.22-.22,.22-.44,.22-.44,.22-.44,.22-.44,.22-.22,.22-.44,.22-.44,.22-.22,.22-.44,.22-.44,.22-.22,.22-.44,.22-.44,.22-.22,.22-.44,.22-.44,.22-.44,.22-.44,.22-.22,.22-.44,.22-.44,.22-.22,.22-.44,.22-.44,.22-.44,.22-.44,.22-.22,.22-.44,.22-.44,.22-.44,.22-.22,.22-.44,.22-.44,.22-.44,.22-.44v-1.32l-.22-.44-.22-.22-.22-.22-.22-.22-.44-.22h-2.86l-.44,.22h0Z"/>
  <path class="cls-1" d="M245.54,80.03l-.22,.66-.22,.88-.22,.66-.22,.66-.22,.88-.22,.66v.66c-.22,2.62-2.79,10.01-3.65,13.04-.64,2.27-1.27,4.32-1.85,6.5-.27,1.01-1.16,6.37-2.2,6.37h-19.99l-.16,.16,17.08,17.19-10.08,23.98,20.58-13.66,.25,1.1h.22l.44-.22,.22-.22,.44-.22,.22-.22h.44l.22,.22,.22,.22h.44l.29-.76,20.58,13.71c-.95-4.09-10.1-22.16-10.1-23.93,0-.79,15.3-14.94,16.91-17.35h-20.43c-2.07-8.87-6.44-18.24-7.25-27.88v-.66l-.22-.88-.22-.66-.22-.66-.22-.88h-.44l-.22,.66h0Z"/>
  <path class="cls-4" d="M217.43,215.5l-.22,.22v.44h-.44l-.22,.22-.44,.22-.66,.22-1.1,.22-3.95,.22v-6.6s3.73,.24,3.73,.24l1.32,.22,.66,.22,.44,.22,.22,.22,.22,.22,.22,.22,.22,.22,.22,.66v1.76l-.22,.66h0Zm-1.54-15.59l-.22,.44-.22,.22-.22,.22-.22,.22-.44,.22-.88,.22-3.29,.22v-5.73s2.64,.24,2.64,.24l1.32,.22,.66,.22,.44,.22,.22,.44,.22,.22,.22,1.1v.22l-.22,1.1h0Zm-21.08,27.45h25.26l1.32-.22,1.1-.22,.88-.22,.66-.22,.66-.22,.44-.22,.66-.22,.44-.22,.44-.22,.22-.22,.44-.22,.44-.22,.22-.22,.44-.22,.22-.22,.22-.22,.22-.22,.22-.22,.22-.22,.22-.22,.22-.22,.22-.22,.22-.44,.22-.22,.22-.44,.22-.44,.22-.44,.22-.44,.22-.66,.22-.66,.22-1.32v-3.07l-.22-1.32-.22-.66-.22-.66-.22-.66-.22-.22-.22-.44-.22-.44-.22-.22-.22-.22-.22-.44-.22-.22-.22-.22-.22-.22-.22-.22-.22-.22-.44-.22-.22-.22-.22-.22-.44-.22-.44-.22-.22-.22-.44-.22-.44-.22-.44-.22-.44-.22,.66-.22,.22-.22,.44-.22,.44-.22,.22-.22,.22-.22,.22-.22,.22-.22,.22-.22,.22-.22,.22-.22,.22-.22,.22-.44,.22-.44,.22-.22,.22-.44,.22-.66,.22-.66,.22-1.1v-4.17l-.22-1.1-.22-.66-.22-.66-.22-.44-.22-.44-.22-.44-.22-.44-.22-.22-.22-.22-.22-.44-.22-.22-.22-.22-.22-.22-.44-.22-.22-.22-.22-.22-.22-.22-.44-.22-.22-.22-.44-.22-.44-.22-.44-.22-.66-.22-.66-.22-.44-.22-.88-.22-1.1-.22-.88-.22-1.98-.22h-22.84v41.5h0Z"/>
  <polygon class="cls-4" points="233.68 227.36 261.57 227.36 261.57 214.84 249.05 214.84 249.05 212.21 258.72 212.21 258.72 201.01 249.05 201.01 249.05 198.59 261.57 198.59 261.57 185.86 233.68 185.86 233.68 227.36 233.68 227.36"/>
  <polygon class="cls-4" points="275.41 185.42 274.53 185.64 273.65 185.86 272.99 186.08 272.33 186.3 271.89 186.52 271.24 186.74 270.8 186.96 270.36 187.18 269.92 187.4 269.48 187.62 269.04 187.84 268.82 188.05 268.38 188.27 268.16 188.49 267.72 188.71 267.5 188.93 267.28 189.15 267.06 189.37 266.84 189.59 266.4 189.81 266.18 190.03 265.96 190.25 265.74 190.47 265.52 190.69 265.31 190.91 265.09 191.35 264.87 191.57 264.65 191.79 264.43 192.01 264.21 192.45 263.99 192.67 263.77 193.1 263.55 193.54 263.33 193.98 263.11 194.42 262.89 194.86 262.67 195.52 262.45 196.18 262.23 197.06 262.01 198.37 262.01 202.11 262.23 203.2 262.45 203.86 262.67 204.52 262.89 204.96 263.11 205.4 263.33 205.84 263.55 206.28 263.77 206.5 263.99 206.72 264.21 206.94 264.43 207.38 264.65 207.6 264.87 207.82 265.09 208.04 265.52 208.25 265.74 208.47 265.96 208.69 266.4 208.91 266.62 209.13 267.06 209.35 267.28 209.57 267.72 209.79 268.16 210.01 268.6 210.23 269.26 210.45 269.7 210.67 270.58 210.89 271.24 211.11 272.11 211.33 273.43 211.55 274.75 211.77 275.85 211.99 276.95 212.21 277.6 212.43 278.04 212.65 278.26 212.87 278.48 213.09 278.7 213.3 278.7 214.4 278.48 214.84 278.26 215.06 278.26 215.5 277.82 215.5 277.38 215.72 276.73 215.94 273.21 215.94 272.33 215.72 271.67 215.5 271.02 215.28 270.58 215.06 269.92 214.84 269.48 214.62 269.26 214.4 268.82 214.18 268.38 213.96 268.16 213.74 267.72 213.52 267.28 213.3 267.06 213.09 266.84 212.87 266.4 212.65 266.18 212.43 265.96 212.21 265.74 211.99 265.31 211.77 265.09 211.55 264.87 211.33 264.65 211.11 264.21 210.89 263.99 210.67 263.55 210.67 263.55 224.5 263.77 224.72 264.21 224.94 264.65 225.16 265.09 225.38 265.52 225.6 266.18 225.82 266.62 226.04 267.28 226.26 267.94 226.48 268.6 226.7 269.48 226.92 270.58 227.14 271.89 227.36 279.8 227.36 280.9 227.14 282 226.92 282.88 226.7 283.53 226.48 284.19 226.26 284.85 226.04 285.29 225.82 285.95 225.6 286.17 225.38 286.83 225.16 287.05 224.94 287.49 224.72 287.93 224.5 288.15 224.28 288.37 224.06 288.81 223.84 289.03 223.62 289.46 223.4 289.68 223.19 289.9 222.97 290.12 222.75 290.34 222.53 290.56 222.31 290.78 222.09 291 221.87 291.22 221.65 291.44 221.43 291.66 220.99 291.88 220.77 292.1 220.55 292.32 220.11 292.54 219.67 292.76 219.45 292.98 219.01 293.2 218.57 293.42 217.92 293.64 217.26 293.86 216.6 294.08 215.72 294.3 213.74 294.3 211.99 294.08 210.01 293.86 208.91 293.64 208.47 293.42 207.82 293.2 207.38 292.98 206.94 292.76 206.5 292.54 206.28 292.32 206.06 292.1 205.62 291.88 205.4 291.66 205.18 291.44 204.96 291.22 204.74 291 204.52 290.78 204.3 290.56 204.08 290.34 203.86 289.9 203.64 289.68 203.42 289.46 203.2 289.03 202.99 288.59 202.77 288.15 202.55 287.93 202.33 287.27 202.11 286.83 201.89 286.39 201.67 285.51 201.45 284.85 201.23 284.19 201.01 283.1 200.79 282 200.57 281.34 200.35 280.24 200.13 279.14 199.91 278.48 199.69 278.04 199.47 277.6 199.25 277.38 199.03 277.38 197.72 277.6 197.28 277.82 197.06 278.26 196.84 278.92 196.62 281.78 196.62 282.88 196.84 283.75 197.06 284.41 197.28 285.07 197.5 285.73 197.72 286.17 197.94 286.83 198.15 287.27 198.37 287.71 198.59 288.15 198.81 288.59 199.03 289.03 199.25 289.46 199.47 289.68 199.69 290.12 199.91 290.56 200.13 290.78 200.35 291 200.57 291.44 200.79 291.66 201.01 291.88 201.23 292.1 201.45 292.32 201.67 292.54 201.67 292.54 188.71 292.32 188.49 291.88 188.27 291.44 188.05 291 187.84 290.56 187.62 290.34 187.4 289.68 187.18 289.24 186.96 288.81 186.74 288.15 186.52 287.49 186.3 287.05 186.08 286.17 185.86 285.29 185.64 284.41 185.42 282.88 185.2 276.95 185.2 275.41 185.42 275.41 185.42"/>
  <polygon class="cls-4" points="294.52 199.91 301.54 199.91 301.54 227.36 318.46 227.36 318.46 199.91 327.9 199.91 327.9 185.86 294.52 185.86 294.52 199.91 294.52 199.91"/>
  <polygon class="cls-3" points="54.9 173.56 54.24 173.78 53.36 174 52.92 174.22 52.26 174.44 51.82 174.66 51.38 174.88 50.94 175.1 50.73 175.32 50.29 175.54 49.85 175.76 49.63 175.98 49.19 176.2 48.75 176.42 48.53 176.64 48.09 176.86 47.87 177.08 47.43 177.3 47.21 177.52 46.77 177.74 46.55 177.95 46.33 178.17 45.89 178.39 45.67 178.61 45.45 178.83 45.01 179.05 44.8 179.27 44.58 179.49 44.14 179.71 43.92 179.93 43.7 180.15 43.48 180.37 43.26 180.59 42.82 180.81 42.6 181.03 42.38 181.25 42.16 181.47 41.72 181.69 41.5 181.91 41.28 182.13 41.06 182.35 40.84 182.57 40.62 182.79 40.18 183 39.96 183.44 39.52 183.66 39.3 183.88 39.08 184.1 38.86 184.32 38.65 184.54 38.43 184.76 38.21 184.98 37.99 185.2 37.77 185.42 37.55 185.64 37.33 185.86 37.11 186.08 36.89 186.3 36.67 186.52 36.45 186.74 36.23 186.96 36.01 187.18 35.79 187.4 35.57 187.62 35.35 187.84 35.13 188.05 34.91 188.27 34.91 188.71 34.47 188.71 34.25 189.15 34.03 189.37 33.81 189.59 33.59 189.81 33.37 190.03 33.15 190.25 32.93 190.47 32.72 190.69 32.5 191.13 32.28 191.35 32.06 191.57 31.84 191.79 31.62 192.01 31.4 192.23 31.18 192.45 30.96 192.67 30.74 192.89 30.52 193.1 30.3 193.32 30.08 193.76 29.86 193.98 29.64 194.2 29.42 194.42 29.2 194.86 28.98 195.08 28.76 195.3 28.54 195.74 28.32 195.96 28.1 196.18 27.88 196.62 27.66 196.84 27.44 197.28 27.22 197.5 27.01 197.94 26.79 198.15 26.57 198.37 26.35 198.81 26.13 199.25 25.91 199.47 25.69 199.91 25.47 200.13 25.25 200.57 25.03 201.01 24.81 201.23 24.59 201.67 24.37 202.11 24.15 202.55 23.93 202.77 23.71 203.42 23.49 203.64 23.27 204.08 23.05 204.52 22.83 204.96 22.61 205.4 22.39 205.84 22.17 206.06 21.95 206.72 21.73 207.16 21.51 207.6 21.29 208.04 21.08 208.47 20.86 208.91 20.64 209.35 20.42 210.01 20.2 210.45 19.98 210.89 19.76 211.33 19.54 211.99 19.32 212.43 19.1 213.09 18.88 213.52 18.66 214.18 18.44 214.62 18.22 215.28 18 215.94 18 223.84 18.22 224.28 18.44 224.72 18.66 225.16 18.88 225.38 19.1 225.6 19.32 225.82 19.54 226.26 19.98 226.48 20.2 226.7 20.42 226.92 20.64 227.14 21.08 227.36 21.51 227.58 22.17 227.8 25.69 227.8 26.79 227.58 27.44 227.36 27.88 227.14 28.54 226.92 28.98 226.7 29.42 226.48 29.86 226.26 30.3 226.04 30.74 225.82 31.18 225.6 31.4 225.38 31.84 225.16 32.28 224.94 32.72 224.72 33.15 224.5 33.37 224.28 33.81 224.06 34.03 223.84 34.47 223.62 34.69 223.4 35.13 223.19 35.57 222.97 35.79 222.75 36.23 222.53 36.67 222.31 36.89 222.09 37.33 221.87 37.55 221.65 37.77 221.43 38.21 221.21 38.65 220.99 38.86 220.77 39.08 220.55 39.52 220.33 39.74 220.11 40.18 219.89 40.4 219.67 40.62 219.45 41.06 219.23 41.28 219.01 41.5 218.79 41.72 218.57 42.16 218.35 42.38 218.14 42.6 217.92 42.82 217.7 43.04 217.48 43.48 217.26 43.7 217.04 43.92 216.82 44.14 216.6 44.36 216.38 44.58 216.16 44.8 215.94 45.01 215.72 45.23 215.5 45.67 215.28 45.92 214.85 45.67 215.5 45.45 216.16 45.23 217.48 45.01 218.57 44.8 219.67 44.58 220.77 44.36 222.53 44.36 226.48 44.58 227.14 44.8 227.58 45.01 228.02 45.23 228.45 45.45 228.67 45.67 228.89 45.89 229.33 46.11 229.55 46.33 229.77 46.55 229.99 46.77 230.21 46.99 230.43 47.21 230.65 47.65 230.87 47.87 231.09 48.09 231.31 48.53 231.53 48.97 231.75 49.41 231.97 49.85 232.19 50.51 232.41 50.94 232.63 52.04 232.85 53.14 233.07 54.9 233.07 55.56 232.85 56 232.63 56.44 232.41 56.66 232.19 56.87 231.97 57.09 231.75 57.31 231.53 57.53 231.31 57.75 231.09 57.75 228.89 57.53 228.45 57.31 228.24 57.09 228.02 56.66 227.8 53.36 227.8 52.92 227.8 52.04 227.58 51.6 227.36 51.16 227.14 50.73 226.92 50.51 226.7 50.29 226.48 50.07 226.26 49.85 226.04 49.63 225.82 49.41 225.38 49.19 225.16 48.97 224.72 48.75 223.19 48.53 221.65 48.53 220.33 48.75 219.23 48.97 218.35 49.19 217.7 49.41 217.04 49.63 216.38 49.85 215.94 50.07 215.5 50.29 214.84 50.51 214.4 50.73 213.96 50.94 213.52 51.16 213.09 51.38 212.87 51.6 212.21 51.82 211.99 52.04 211.55 52.26 211.11 52.48 210.67 52.7 210.45 52.92 210.01 53.14 209.57 53.36 209.35 53.58 208.91 53.8 208.47 54.02 208.25 54.24 207.82 54.46 207.6 54.68 207.16 54.9 206.94 55.12 206.5 55.34 206.28 55.56 205.84 55.78 205.62 56 205.18 56.22 204.96 56.44 204.52 56.66 204.3 56.87 203.86 57.09 203.64 57.31 203.2 57.53 202.99 57.75 202.55 57.97 202.33 58.19 201.89 58.41 201.45 58.41 197.94 58.19 197.72 57.97 197.28 57.75 197.06 57.31 196.84 54.24 196.84 53.58 197.06 53.36 197.28 53.14 197.5 52.92 197.72 52.7 197.94 52.48 198.15 52.26 198.59 52.04 198.81 51.82 199.03 51.6 199.47 51.38 199.91 51.16 200.13 50.94 200.57 50.73 201.01 50.51 201.45 50.29 201.89 50.07 202.11 49.85 202.77 49.63 203.2 49.41 203.42 49.19 203.86 48.97 204.3 48.75 204.74 48.53 204.96 48.31 205.18 48.09 205.4 47.87 205.84 47.65 206.06 47.43 206.5 47.21 206.72 46.99 206.94 46.77 207.16 46.55 207.6 46.33 207.82 46.11 208.04 45.89 208.25 45.67 208.69 45.45 208.91 45.23 209.13 45.01 209.35 44.8 209.57 44.58 209.79 44.36 210.23 44.14 210.45 43.92 210.67 43.7 210.89 43.48 211.11 43.26 211.33 43.04 211.55 42.82 211.77 42.6 211.99 42.38 212.21 42.16 212.43 41.94 212.65 41.72 212.87 41.5 213.09 41.28 213.3 41.06 213.52 40.84 213.74 40.4 213.96 40.18 214.18 39.96 214.4 39.74 214.62 39.52 214.84 39.3 215.06 39.08 215.28 38.86 215.5 38.43 215.72 38.21 215.94 37.99 216.16 37.77 216.38 37.55 216.6 37.11 216.82 36.89 217.04 36.67 217.26 36.45 217.48 36.01 217.7 35.79 217.92 35.57 218.14 35.13 218.35 34.91 218.57 34.69 218.79 34.25 219.01 34.03 219.23 33.59 219.45 33.37 219.67 33.15 219.89 32.72 220.11 32.28 220.33 32.06 220.55 31.62 220.77 31.18 220.99 30.96 221.21 30.52 221.43 30.08 221.65 29.64 221.87 29.2 222.09 28.54 222.31 28.1 222.53 27.66 222.75 26.79 222.97 25.03 222.97 24.59 222.75 24.15 222.53 23.93 222.31 23.49 222.09 23.27 221.87 23.05 221.65 22.83 221.43 22.61 220.77 22.61 218.35 22.83 217.26 23.05 216.16 23.27 215.28 23.49 214.62 23.71 213.74 23.93 213.09 24.15 212.65 24.37 212.21 24.59 211.55 24.81 211.11 25.03 210.67 25.25 210.23 25.47 210.01 25.69 209.57 25.91 209.13 26.13 208.69 26.35 208.47 26.57 208.04 26.79 207.6 27.01 207.38 27.22 206.94 27.44 206.5 27.66 206.28 27.88 205.84 28.1 205.62 28.32 205.18 28.54 204.96 28.76 204.52 28.98 204.3 29.2 203.86 29.42 203.64 29.64 203.2 29.86 202.77 30.08 202.55 30.3 202.33 30.52 201.89 30.74 201.67 30.96 201.23 31.18 201.01 31.4 200.57 31.62 200.35 31.84 199.91 32.06 199.69 32.28 199.47 32.5 199.25 32.72 198.81 32.93 198.59 33.15 198.37 33.37 198.15 33.59 197.72 33.81 197.5 34.03 197.28 34.25 197.06 34.47 196.84 34.69 196.62 34.91 196.18 35.13 195.96 35.35 195.74 35.57 195.52 35.79 195.3 36.01 195.08 36.23 194.64 36.45 194.42 36.67 194.2 36.89 193.98 37.11 193.76 37.33 193.32 37.55 193.1 37.77 192.89 37.99 192.67 37.99 192.23 38.43 192.23 38.65 191.79 38.86 191.57 39.08 191.35 39.3 191.13 39.52 190.91 39.74 190.69 39.96 190.25 40.18 190.03 40.4 189.81 40.62 189.59 40.84 189.37 41.06 189.15 41.28 188.93 41.5 188.71 41.72 188.49 41.94 188.27 42.16 187.84 42.38 187.62 42.6 187.4 42.82 187.18 43.04 186.96 43.26 186.74 43.48 186.52 43.7 186.3 43.92 186.08 44.14 185.86 44.36 185.64 44.58 185.42 44.8 185.2 45.01 184.98 45.23 184.76 45.45 184.54 45.89 184.32 46.11 184.1 46.33 183.88 46.55 183.66 46.77 183.44 46.99 183.22 47.21 183 47.43 182.79 47.65 182.57 48.09 182.35 48.31 182.13 48.53 181.91 48.75 181.69 48.97 181.47 49.41 181.25 49.63 181.03 50.07 180.81 50.29 180.59 50.73 180.37 50.94 180.15 51.16 179.93 51.6 179.71 51.82 179.49 52.26 179.27 52.7 179.05 53.14 178.83 53.58 178.61 54.24 178.39 54.68 178.17 58.19 178.17 58.63 178.39 59.07 178.61 59.51 178.83 59.95 179.05 60.17 179.27 60.39 179.71 60.61 180.15 60.83 181.91 60.83 184.54 60.61 185.42 60.39 186.08 60.17 186.74 59.95 187.4 59.73 187.84 59.51 188.27 59.29 188.71 59.07 189.15 58.85 189.59 58.63 190.03 58.41 190.25 58.19 190.69 57.97 191.13 57.75 191.57 57.53 192.01 57.31 192.45 57.09 192.89 56.87 193.32 56.66 194.2 56.66 194.86 56.87 195.3 57.09 195.74 57.31 196.18 57.53 196.4 57.75 196.62 57.97 196.84 58.19 197.06 58.41 197.28 59.73 197.28 60.39 197.06 60.61 196.84 61.05 196.62 61.27 196.4 61.49 196.18 61.71 195.96 61.93 195.52 62.15 195.3 62.37 195.08 62.59 194.64 62.8 194.42 63.02 193.98 63.24 193.54 63.46 193.1 63.68 192.89 63.9 192.23 64.12 191.79 64.34 191.35 64.56 190.91 64.78 190.25 65 189.59 65.22 188.93 65.44 188.27 65.66 187.62 65.66 181.69 65.44 180.59 65.22 179.71 65 179.05 64.78 178.83 64.56 178.39 64.34 177.95 64.12 177.52 63.9 177.3 63.68 176.86 63.46 176.64 63.24 176.42 63.02 176.2 62.8 175.98 62.59 175.76 62.37 175.54 62.15 175.32 61.93 175.1 61.49 174.88 61.27 174.66 61.05 174.44 60.61 174.22 60.17 174 59.73 173.78 59.07 173.56 58.41 173.34 55.34 173.34 54.9 173.56 54.9 173.56"/>
  <polygon class="cls-3" points="387.42 179.93 384.78 180.15 381.93 180.37 379.95 180.59 377.1 180.81 374.24 181.03 372.27 181.25 369.41 181.47 366.56 181.69 364.36 181.91 361.5 182.13 358.43 182.35 356.01 182.57 352.94 182.79 349.64 183 347.01 183.22 346.57 183.44 346.13 183.66 345.91 183.88 345.47 184.1 345.25 184.32 345.03 184.54 344.81 184.76 344.59 184.98 344.37 185.2 344.15 185.64 343.93 186.08 343.71 186.52 343.71 187.84 343.93 188.27 344.15 188.71 344.37 188.93 344.81 189.15 345.03 189.37 346.57 189.37 348.11 189.15 350.3 188.93 352.5 188.71 354.04 188.49 356.23 188.27 358.43 188.05 359.97 187.84 362.38 187.84 362.38 188.49 362.16 189.15 361.94 189.59 361.72 190.25 361.5 190.69 361.28 191.13 361.06 191.57 360.85 192.01 360.63 192.45 360.41 192.89 360.19 193.32 359.97 193.54 359.75 194.2 359.53 194.42 359.31 194.86 359.09 195.3 358.87 195.74 358.65 195.96 358.43 196.4 358.21 196.84 357.99 197.06 357.77 197.5 357.55 197.94 357.33 198.37 357.11 198.81 356.89 199.03 356.67 199.47 356.45 199.69 356.23 200.13 356.01 200.57 355.79 201.01 355.57 201.45 355.35 201.67 355.13 202.11 354.91 202.55 354.7 202.77 354.48 203.2 354.26 203.64 354.04 203.86 353.82 204.3 353.6 204.74 353.38 205.18 353.16 205.62 352.94 206.06 352.72 206.5 352.5 206.94 352.28 207.38 352.06 207.82 351.84 208.25 351.62 208.69 351.4 209.13 351.18 209.57 350.96 210.01 350.74 210.45 350.52 210.89 350.3 211.33 350.08 211.77 349.86 212.21 349.64 212.43 349.42 212.87 349.2 213.3 348.98 213.74 348.77 214.18 348.55 214.84 348.33 215.06 348.11 215.5 347.89 215.94 347.67 216.38 347.45 216.82 347.23 217.26 347.01 217.7 346.79 218.14 346.57 218.57 346.35 218.79 346.13 219.45 345.91 219.67 345.69 220.11 345.47 220.55 345.25 220.99 345.03 221.43 344.81 221.87 344.59 222.31 344.37 222.53 344.15 222.97 343.93 223.4 343.71 223.84 343.71 226.26 343.93 226.48 344.15 226.92 344.37 227.14 344.59 227.36 344.81 227.58 345.03 227.8 345.25 228.02 345.69 228.24 346.13 228.45 347.67 228.45 347.89 228.24 348.11 228.02 348.33 227.8 348.55 227.36 348.77 226.92 348.98 226.26 349.2 225.6 349.42 225.16 349.64 224.5 349.86 224.06 350.08 223.4 350.3 222.97 350.52 222.53 350.74 222.09 350.96 221.65 351.18 221.21 351.4 220.77 351.62 220.33 351.84 219.89 352.06 219.45 352.28 219.23 352.5 218.79 352.72 218.35 352.94 217.92 353.16 217.7 353.38 217.26 353.6 216.82 353.82 216.6 354.04 216.16 354.26 215.72 354.48 215.28 354.7 214.84 354.91 214.62 355.13 213.96 355.35 213.74 355.57 213.3 355.79 212.87 356.01 212.43 356.23 211.99 356.45 211.55 356.67 211.33 356.89 210.89 357.11 210.23 357.33 210.01 357.55 209.57 357.77 209.13 357.99 208.69 358.21 208.25 358.43 207.82 358.65 207.6 358.87 206.94 359.09 206.5 359.31 206.28 359.53 205.84 359.75 205.4 359.97 204.96 360.19 204.52 360.41 204.08 360.63 203.86 360.85 203.42 361.06 202.99 361.28 202.55 361.5 202.11 361.72 201.67 361.94 201.45 362.16 201.01 362.38 200.57 362.6 200.13 362.82 199.69 363.04 199.25 363.26 199.03 363.48 198.59 363.7 197.94 363.92 197.72 364.14 197.28 364.36 196.84 364.58 196.4 364.8 195.96 365.02 195.74 365.24 195.3 365.46 195.08 365.68 194.86 365.9 194.42 366.12 193.98 366.34 193.76 366.56 193.32 366.78 192.89 366.99 192.67 367.21 192.23 367.43 191.79 367.65 191.57 367.87 191.13 368.09 190.69 368.31 190.25 368.53 189.81 368.75 189.37 368.97 189.15 369.19 188.71 369.41 188.27 369.63 187.84 369.85 187.62 370.07 187.18 370.29 186.96 370.73 186.74 371.39 186.52 373.14 186.3 374.46 186.08 375.78 185.86 377.54 185.64 378.85 185.42 380.83 185.2 383.25 184.98 385.22 184.76 388.08 184.54 391.37 184.32 391.59 184.1 392.25 183.88 392.69 183.66 392.91 183.44 393.13 183.22 393.35 183 393.35 180.59 393.13 180.15 392.91 179.93 392.69 179.71 389.4 179.71 387.42 179.93 387.42 179.93"/>
  <polygon class="cls-3" points="176.35 199.25 175.48 199.47 174.82 199.69 174.6 199.91 173.94 200.13 173.5 200.35 173.28 200.57 172.84 200.79 172.4 201.01 171.96 201.23 171.52 201.45 171.3 201.67 170.86 201.89 170.64 202.11 170.2 202.33 169.98 202.55 169.77 202.77 169.55 202.99 169.11 203.2 168.89 203.42 168.67 203.64 168.45 203.86 168.23 204.08 168.01 204.3 167.79 204.52 167.57 204.74 167.35 205.18 167.13 205.4 166.91 205.62 166.69 206.06 166.47 206.28 166.25 206.72 166.03 207.16 165.81 207.6 165.59 208.47 165.37 209.57 165.37 212.87 165.59 213.52 165.81 213.96 166.03 214.18 166.25 214.62 166.47 215.06 166.69 215.28 166.91 215.5 167.13 215.72 167.35 215.94 167.57 216.16 167.79 216.6 168.23 216.82 168.45 217.26 168.89 217.48 169.11 217.92 169.55 218.14 169.77 218.35 169.98 218.57 170.2 218.79 170.42 219.01 170.64 219.23 170.86 219.45 171.08 219.67 171.3 219.89 171.52 220.11 171.74 220.33 171.96 220.55 172.18 220.77 172.4 220.99 172.62 221.43 172.62 222.09 172.62 222.53 172.18 222.53 171.96 222.75 171.3 222.97 168.67 222.97 168.01 222.75 167.35 222.53 167.13 222.31 166.69 222.09 166.47 221.65 166.47 220.55 166.69 219.89 166.91 219.23 166.91 218.79 166.69 218.14 166.25 217.92 166.03 217.7 165.81 217.48 162.96 217.48 162.52 217.7 162.3 217.92 162.3 218.35 161.86 218.35 161.64 218.79 161.42 219.23 161.2 219.67 161.2 222.97 161.42 223.19 161.64 223.62 161.86 223.84 162.08 224.06 162.3 224.28 162.52 224.5 162.96 224.72 163.18 224.94 163.62 225.16 163.84 225.38 164.27 225.6 164.71 225.82 165.37 226.04 165.81 226.26 166.47 226.48 167.13 226.7 167.79 226.92 171.52 226.92 172.84 226.7 173.28 226.48 173.94 226.26 174.38 226.04 174.82 225.82 175.26 225.6 175.48 225.38 175.91 225.16 176.13 224.94 176.35 224.72 176.57 224.5 176.79 224.28 177.01 224.06 177.23 223.84 177.45 223.4 177.67 222.75 177.67 220.99 177.45 220.11 177.23 219.67 177.01 219.45 176.79 219.01 176.57 218.79 176.35 218.57 176.13 218.35 175.91 218.14 175.48 217.92 175.26 217.7 175.04 217.48 174.82 217.26 174.38 217.04 174.16 216.82 173.72 216.6 173.5 216.38 173.28 216.16 172.84 215.94 172.62 215.72 172.4 215.5 171.96 215.28 171.74 215.06 171.3 214.84 171.08 214.62 170.86 214.4 170.64 214.18 170.42 213.74 169.98 213.74 169.98 213.3 169.77 212.43 169.77 210.67 169.98 210.01 170.2 209.57 170.42 209.13 170.64 208.69 170.86 208.47 171.08 208.25 171.3 207.82 171.52 207.6 171.74 207.38 171.96 206.94 172.18 206.72 172.4 206.5 172.62 206.28 172.84 206.06 173.06 205.84 173.28 205.62 173.5 205.4 173.72 205.18 173.94 204.96 174.16 204.74 174.38 204.52 174.82 204.3 175.04 204.08 175.48 203.86 175.7 203.64 176.13 203.42 176.35 203.2 177.01 202.99 178.77 202.99 179.21 203.2 179.43 203.64 179.65 203.86 179.65 206.28 179.43 206.72 179.21 207.16 178.99 207.6 178.77 208.04 178.55 208.25 178.33 208.47 178.11 208.69 177.89 209.13 177.67 209.35 177.45 209.57 177.23 209.79 177.01 210.23 176.79 210.45 176.57 210.89 176.57 213.52 176.79 213.96 177.23 214.18 177.67 214.4 179.21 214.4 179.87 214.18 180.09 213.96 180.31 213.74 180.53 213.3 180.75 213.09 180.97 212.87 181.19 212.43 181.41 212.21 181.63 211.99 181.85 211.55 182.06 211.33 182.28 210.89 182.5 210.45 182.72 210.23 182.94 209.79 183.16 209.35 183.38 208.91 183.6 208.47 183.82 208.04 184.04 207.6 184.26 206.94 184.26 204.52 184.04 203.42 183.82 203.2 183.6 202.77 183.38 202.33 183.16 202.11 182.94 201.89 182.72 201.67 182.5 201.45 182.28 201.23 182.06 201.01 181.85 200.79 181.63 200.57 181.41 200.35 181.19 200.13 180.75 199.91 180.53 199.69 180.09 199.47 179.65 199.25 178.77 199.03 177.01 199.03 176.35 199.25 176.35 199.25"/>
  <polygon class="cls-3" points="562.25 198.81 561.59 199.03 560.93 199.25 560.49 199.47 559.83 199.69 559.61 199.91 559.17 200.13 558.73 200.35 558.51 200.57 558.07 200.79 557.85 201.01 557.63 201.23 557.2 201.45 556.98 201.67 556.76 201.89 556.54 202.11 556.1 202.33 555.88 202.55 555.66 202.77 555.44 202.99 555.22 203.2 555 203.42 554.78 203.64 554.56 203.86 554.34 204.08 554.12 204.3 553.9 204.52 553.68 204.74 553.46 204.96 553.24 205.4 553.02 205.62 552.8 205.84 552.58 206.06 552.36 206.5 552.14 206.72 551.92 207.16 551.7 207.38 551.49 207.82 551.27 208.25 551.05 208.91 550.83 209.79 550.61 211.11 550.61 212.43 550.83 213.09 551.05 213.52 551.27 213.74 551.49 214.18 551.7 214.4 551.92 214.62 552.14 214.84 552.36 215.06 552.58 215.28 552.8 215.5 553.24 215.5 553.24 215.94 553.68 216.16 553.9 216.38 554.12 216.6 554.56 216.82 554.78 217.04 555 217.26 555.22 217.48 555.66 217.7 555.88 217.92 556.1 218.14 556.32 218.35 556.54 218.57 556.76 218.79 556.98 219.01 557.2 219.23 557.42 219.67 557.42 220.33 557.2 220.55 556.98 220.77 556.54 220.99 556.32 221.21 555.66 221.43 554.78 221.43 553.68 221.21 553.46 220.99 553.02 220.77 552.58 220.55 552.36 220.33 552.14 220.11 551.92 219.67 551.92 218.57 552.14 217.92 552.36 217.48 552.36 216.16 552.14 215.94 551.92 215.72 551.7 215.5 551.27 215.28 550.17 215.28 549.51 215.5 548.85 215.72 548.41 215.94 548.19 216.16 547.75 216.38 547.53 216.6 547.31 217.04 547.09 217.26 546.87 217.7 546.87 219.23 547.09 219.89 547.31 220.33 547.53 220.77 547.75 220.99 547.97 221.21 548.19 221.65 548.41 221.87 548.63 222.09 548.85 222.31 549.29 222.53 549.51 222.75 549.73 222.97 550.17 223.19 550.61 223.4 551.05 223.62 551.49 223.84 552.14 224.06 552.58 224.28 553.68 224.5 558.29 224.5 559.17 224.28 559.61 224.06 560.05 223.84 560.49 223.62 560.71 223.4 561.15 223.19 561.37 222.97 561.59 222.75 561.81 222.53 562.03 222.31 562.25 222.09 562.47 221.87 562.69 221.65 562.91 220.99 563.13 220.33 563.13 219.67 562.91 219.23 562.69 218.79 562.47 218.35 562.25 218.14 562.03 217.92 561.81 217.7 561.59 217.48 561.37 217.04 561.15 216.82 560.71 216.6 560.49 216.38 560.27 216.16 560.05 215.94 559.83 215.72 559.61 215.5 559.39 215.28 559.17 215.06 558.95 214.84 558.73 214.62 558.51 214.4 558.07 214.18 557.85 213.74 557.42 213.52 557.2 213.3 556.98 213.09 556.76 212.87 556.54 212.65 556.32 212.43 556.1 211.99 555.88 211.77 555.66 211.11 555.66 210.89 555.88 209.57 556.1 208.91 556.32 208.25 556.54 208.04 556.76 207.6 556.98 207.38 557.2 206.94 557.42 206.72 557.63 206.5 557.85 206.28 558.07 205.84 558.51 205.62 558.73 205.4 558.95 205.18 559.17 204.96 559.39 204.74 559.83 204.52 560.27 204.3 560.71 204.08 561.37 203.86 563.13 203.64 563.56 203.64 564.22 203.86 564.44 204.08 564.66 204.3 564.88 204.52 565.1 205.18 565.1 206.28 564.88 206.72 564.66 207.16 564.44 207.38 564.22 207.82 564 208.04 563.78 208.25 563.56 208.47 563.35 208.69 563.13 208.91 562.91 209.13 562.69 209.35 562.47 209.57 562.25 209.79 562.03 210.23 561.81 210.45 561.59 211.11 561.59 212.43 561.81 213.09 562.03 213.3 562.25 213.74 562.47 213.96 562.69 214.18 562.91 214.4 563.35 214.62 564.66 214.62 564.88 214.4 565.1 214.18 565.32 213.96 565.54 213.74 565.76 213.52 565.98 213.09 566.2 212.65 566.42 212.21 566.64 211.77 566.86 211.33 567.08 210.89 567.3 210.23 567.52 209.79 567.74 209.35 567.96 208.69 568.18 208.04 568.4 207.38 568.62 206.72 568.84 206.06 569.06 205.4 569.06 201.45 568.84 200.79 568.62 200.57 568.4 200.13 568.18 199.91 567.96 199.69 567.74 199.47 567.3 199.25 567.08 199.03 566.64 198.81 565.54 198.59 562.91 198.59 562.25 198.81 562.25 198.81"/>
  <path class="cls-4" d="M560.27,161.05l.22-.88,.22-.44,.22-.66,.22-.22,.22-.44,.22-.22,.22-.22,.22-.22v-.44h.44l.22-.22,.22-.22,.44-.22,.44-.22,.44-.22,.66-.22,.88-.22h1.98l.88,.22,.66,.22,.44,.22,.44,.22,.44,.22,.22,.22,.22,.22,.44,.22,.22,.44,.22,.22,.22,.22,.22,.22,.22,.44,.22,.44,.22,.66,.22,.88v2.63l-.22,.88-.22,.44-.22,.44-.22,.44-.22,.22-.22,.44-.22,.22-.22,.22-.22,.22-.44,.22-.22,.22-.44,.22-.22,.22-.44,.22-.66,.22-.88,.22h-2.42l-.88-.22-.66-.22-.22-.22-.44-.22-.44-.22-.22-.22-.22-.22-.44-.22-.22-.44-.22-.22-.22-.22-.22-.44-.22-.22-.22-.44-.22-.66-.22-.66v-2.63h0Zm3.95-7.03l-.66,.22-.66,.22-.22,.22-.44,.22-.44,.22-.22,.22-.44,.22-.22,.22-.22,.22-.22,.22-.22,.22-.22,.44-.22,.22-.22,.22-.22,.44-.22,.22-.22,.44-.22,.66-.22,.44-.22,.88v3.73l.22,.88,.22,.66,.22,.44,.22,.44,.22,.44,.22,.22,.22,.44,.22,.22,.22,.22,.22,.22,.22,.22,.22,.22,.22,.22,.44,.22,.22,.22,.22,.22,.44,.22,.44,.22,.44,.22,.66,.22,.66,.22h4.17l.66-.22,.66-.22,.44-.22,.44-.22,.44-.22,.22-.22,.44-.22,.22-.22,.22-.22,.22-.22,.22-.22,.22-.22,.22-.22,.22-.22,.22-.44,.22-.22,.22-.44,.22-.44,.22-.44,.22-.66,.22-.88v-3.73l-.22-.88-.22-.66-.22-.44-.22-.44-.22-.44-.22-.22-.22-.22-.22-.44-.22-.22-.22-.22-.22-.22-.22-.22-.22-.22-.44-.22-.22-.22-.44-.22-.44-.22-.22-.22-.66-.22-.44-.22-.88-.22h-3.73l-.66,.22h0Z"/>
  <polygon class="cls-3" points="168.89 186.74 168.45 186.96 168.01 187.18 167.79 187.4 167.35 187.62 166.91 187.84 166.69 188.05 166.25 188.27 166.03 188.49 165.59 188.71 165.37 188.93 164.93 189.15 164.71 189.37 164.49 189.59 164.06 189.81 163.84 190.03 163.62 190.25 163.18 190.47 163.18 191.57 163.4 191.79 163.62 192.01 163.84 192.45 164.06 192.67 164.27 192.89 164.49 193.1 164.71 193.32 164.71 195.52 164.49 196.18 164.27 197.06 164.06 197.94 163.84 198.37 163.62 199.03 163.4 199.47 163.18 199.91 162.96 200.35 162.96 201.23 163.18 201.67 163.62 201.67 163.84 201.45 164.06 201.23 164.27 201.01 164.49 200.79 164.93 200.57 165.15 200.35 165.37 200.13 165.59 199.91 165.81 199.69 166.03 199.47 166.25 199.25 166.47 199.03 166.69 198.81 166.91 198.59 167.13 198.37 167.35 198.15 167.57 197.94 167.79 197.72 168.01 197.5 168.23 197.28 168.45 197.06 168.67 196.84 168.89 196.62 169.11 196.4 169.33 196.18 169.55 195.96 169.77 195.74 169.98 195.52 170.2 195.08 170.42 194.86 170.64 194.64 170.86 194.2 171.08 193.98 171.3 193.54 171.52 192.89 171.74 192.67 171.96 192.01 172.18 191.35 172.18 189.15 171.96 188.49 171.74 188.05 171.52 187.84 171.3 187.62 171.08 187.4 170.86 187.18 170.64 186.96 170.42 186.74 170.2 186.52 169.33 186.52 168.89 186.74 168.89 186.74"/>
  <path class="cls-4" d="M568.62,160.83l-3.51,.22v-1.77s3.51,.24,3.51,.24l.22,.22v.88l-.22,.22h0Zm-5.27,6.37h1.76v-4.17h1.54v.44l.22,.44,.22,.22,.22,.44,.22,.44,.22,.44,.22,.44,.22,.44,.22,.22,.22,.44,.22,.22h1.98v-.44l-.22-.44-.22-.44-.22-.44-.22-.22-.22-.44-.22-.44-.22-.44-.22-.44-.22-.44,.66-.22,.44-.22,.22-.22,.22-.22,.22-.22,.22-.44v-2.63l-.22-.44-.22-.22-.22-.22-.44-.22-.66-.22h-5.71v9.66h0Z"/>
  <polygon class="cls-3" points="125.62 186.74 125.4 186.96 125.18 187.18 124.96 187.4 124.74 187.62 124.52 187.84 124.3 188.05 124.08 188.27 123.86 188.71 123.64 188.93 123.42 189.15 123.2 189.37 122.98 189.81 122.76 190.03 122.54 190.47 122.33 190.91 122.11 191.35 121.89 192.01 121.89 193.54 122.11 193.98 122.33 194.2 122.54 194.64 122.76 194.86 123.2 195.08 123.42 195.3 124.08 195.52 124.74 195.52 125.62 195.3 125.84 195.08 126.28 194.86 126.5 194.64 126.72 194.42 126.94 194.2 127.16 193.98 127.38 193.76 127.6 193.54 127.82 193.32 128.04 192.89 128.25 192.67 128.47 192.45 128.69 192.01 128.91 191.79 129.13 191.35 129.35 190.91 129.57 190.69 129.79 190.25 129.79 187.62 129.57 187.18 129.35 186.96 129.13 186.74 128.91 186.52 125.84 186.52 125.62 186.74 125.62 186.74"/>
  <path class="cls-2" d="M96.41,208.25l-.22,.44-.22,.44-.22,.66-.22,.44-.22,.44-.22,.66-.22,.44-.22,.44-.22,.66-.22,.44-.22,.44-.22,.66-.22,.44-.22,.44-.22,.66-.22,.44-.22,.44-.22,.66v.44c.92,.41,8.08-11.45,7.96-14.06l-.27-4.61v-.22l-.22-.22-.44-.22-.44-.22-.44-.22-.66-.22h-.44c-.27,.46,.66,2.26,.66,3.51v1.54c0,1.64-1.07,4.28-1.76,5.27h0Z"/>
</svg>