<?xml version="1.0" encoding="utf-8"?>
<!-- Generator: Adobe Illustrator 26.3.1, SVG Export Plug-In . SVG Version: 6.00 Build 0)  -->
<svg version="1.1" id="Layer_1" xmlns="http://www.w3.org/2000/svg" xmlns:xlink="http://www.w3.org/1999/xlink" x="0px" y="0px"
	 viewBox="0 0 612 472" style="enable-background:new 0 0 612 472;" xml:space="preserve">
<style type="text/css">
	.st0{fill:#FFFFFF;}
	.st1{fill:#FFFFFF;stroke:#FFFFFF;stroke-width:2.361;stroke-miterlimit:3.8637;}
	.st2{fill:#eb0f29;}
</style>
<g>
	<g>
		<g>
			<g>
				<path class="st0" d="M516.2,8.9c29.4,0,53.2,23.8,53.2,53.2v347.4c0,29.4-23.8,53.2-53.2,53.2H62.7c-29.4,0-53.2-23.8-53.2-53.2
					V62.1c0-29.4,19.2-53.2,53.2-53.2L516.2,8.9z"/>
			</g>
			<g>
				<path class="st0" d="M516.2,471.1H62.7c-34,0-61.6-27.6-61.6-61.6V62.2c0-36.3,25.4-61.6,61.6-61.6h453.5
					c34,0,61.6,27.6,61.6,61.6v347.4C577.8,443.5,550.2,471.1,516.2,471.1z M62.7,17.3c-27.2,0-44.9,17.6-44.9,44.9v347.4
					c0,24.8,20.1,44.9,44.9,44.9h453.5c24.8,0,44.9-20.1,44.9-44.9V62.2c0-24.8-20.1-44.9-44.9-44.9L62.7,17.3L62.7,17.3z"/>
			</g>
		</g>
	</g>
	<g>
		<g>
			<path class="st1" d="M301.4,142.3"/>
		</g>
	</g>
</g>
<g>
	<g>
		<g>
			<g>
				<path class="st2" d="M516.2,8.9c29.4,0,53.2,23.8,53.2,53.2v347.4c0,29.4-23.8,53.2-53.2,53.2H62.7c-29.4,0-53.2-23.8-53.2-53.2
					V62.1c0-29.4,19.2-53.2,53.2-53.2L516.2,8.9z"/>
			</g>
		</g>
	</g>
</g>
<g>
	<g>
		<g>
			<path class="st0" d="M511.3,81.9H127.6l7.8-5.9l81.6,0.1l11-5.9l110.6-0.1C393.1,55,463,47.2,511.3,81.9z"/>
		</g>
	</g>
	<g>
		<g>
			<path class="st0" d="M521.2,91c6.3,7.5,12.9,14.5,15.8,23.4H90.6c0.8-2.5,2-4.2,4.2-5.9H171l5.7-5.9h105.5
				c2.6-5.7,14.4-11.6,14.4-11.6H521.2z"/>
		</g>
	</g>
	<g>
		<g>
			<path class="st0" d="M540.9,123.2c2.6,7.7,5,14.9,5.2,23.6H426.5c-7.2-9-17-13-28.5-10.2c-6.5,1.6-11.6,4.9-16.2,10.2H73.6
				l1.8-5.9h78l2.4-5.9h101.4c0,0,1.4-5.4,7-11.8L540.9,123.2L540.9,123.2z"/>
		</g>
	</g>
	<g>
		<g>
			<path class="st0" d="M377.3,155.6c-1.9,8.5-3.2,17.1,3.3,23.6H71.2c-0.9-1.8-1.1-3.7-0.9-5.9h80.8c-0.4-1.7-0.5-2.2,0.2-5.9h98.1
				c0.7-4.8,0.9-7.9,2.9-11.8L377.3,155.6L377.3,155.6z"/>
		</g>
	</g>
	<g>
		<g>
			<path class="st0" d="M546.3,155.6c0.1,8.1-0.9,14.9-2.6,23.6H432c1.3-7.9,0.3-16.2-0.9-23.6H546.3z"/>
		</g>
	</g>
	<g>
		<g>
			<path class="st0" d="M395,188c20.3,9.1,38.8,14.7,59.3,23.6H81.4l-2.4-5.9h81.2c0,0-1-2.4-1.7-5.9h95.9
				c-1.8-3.7-3.3-11.8-3.3-11.8L395,188L395,188z"/>
		</g>
	</g>
	<g>
		<g>
			<path class="st0" d="M471.7,220.4c9.4,6,20.7,13.8,27.4,23.6h-393l-4.4-5.9h85.6c-1.5-1.6-3.2-3.8-5-5.9H275
				c-3.1-3.4-7.4-7.7-9.6-11.8L471.7,220.4L471.7,220.4z"/>
		</g>
	</g>
	<g>
		<g>
			<path class="st0" d="M505.4,252.8c5.6,7.4,9.3,14.9,11.8,23.6H358.4c-20.2-5.3-36-13.1-54.1-23.6H505.4z"/>
		</g>
	</g>
	<g>
		<g>
			<path class="st0" d="M334.5,285.2c-1.2,7.8-1.4,16.6,1.2,23.6H30.6c0,0-0.2-1.8,0.7-5.9h77.9l1.7-5.9H210
				c0.3-5.4,1.1-7.9,2.6-11.8L334.5,285.2L334.5,285.2z"/>
		</g>
	</g>
	<g>
		<g>
			<path class="st0" d="M518.8,285.1c1.8,7.4,0.7,15.7,0.4,23.6H390.1c2.4-9.7-2.8-17.8-10.2-23.6H518.8z"/>
		</g>
	</g>
	<g>
		<g>
			<path class="st0" d="M340.5,317.8c6.5,7.9,15.8,11.7,25.8,11c8.1-0.9,14.6-5.3,20.5-11.3l131.8,0.1c-2.2,8.7-3.6,16.6-9.8,23.6
				H35.3c-0.6-1.9-1.5-3.8-1.5-5.9h76.7c-1-2.4-0.2-3.8-0.4-5.9h103.6c-1.8-3.7-1.9-7.7-2.3-11.6L340.5,317.8z"/>
		</g>
	</g>
	<g>
		<g>
			<path class="st0" d="M504,350c-5.6,8.8-15.4,17.4-24.2,23.6H53.4l-6.4-5.9h78.8c-1.1-2.1-2.7-4-3.3-5.9h109.7
				c-2.8-3.9-5.9-7.5-7-11.8L504,350L504,350z"/>
		</g>
	</g>
	<g>
		<g>
			<path class="st0" d="M468.4,382.4c-36.7,23.7-80.5,23.1-125.5,23.6h-243l-11.6-5.9h82.5l-7.2-5.9h114.1l-20.6-11.8L468.4,382.4
				L468.4,382.4z"/>
		</g>
	</g>
</g>
<g>
	<g>
		<path class="st2" d="M593.1,456.3h1.7l3.9,7.1h4.2l-4.3-7.3c2.2-0.2,4-1.3,4-4.4c0-3.8-2.6-5.1-6.9-5.1h-6.3v16.8h3.6L593.1,456.3
			L593.1,456.3z M593.1,453.5v-4h2.5c1.4,0,3.2,0.1,3.2,1.9c0,1.9-0.9,2.2-2.6,2.2h-3.1L593.1,453.5L593.1,453.5z M611.4,455
			c0-9.9-7.4-15.6-15.6-15.6c-8.3,0-15.7,5.7-15.7,15.6c0,9.9,7.4,15.6,15.7,15.6C604,470.6,611.4,464.9,611.4,455z M606.9,455
			c0,7.2-5.1,12-11.1,12l0,0c-6.2,0-11.2-4.8-11.2-12s5-12,11.2-12C601.7,443,606.9,447.8,606.9,455z"/>
	</g>
</g>
</svg>
