<?xml version="1.0" encoding="UTF-8"?>
<svg xmlns="http://www.w3.org/2000/svg" xmlns:xlink="http://www.w3.org/1999/xlink" width="43px" height="43px" viewBox="0 0 43 43" version="1.1">
<g id="surface1">
<path style=" stroke:none;fill-rule:nonzero;fill:rgb(100%,100%,100%);fill-opacity:1;" d="M 32.035156 21.5 C 32.035156 15.683594 27.316406 10.964844 21.5 10.964844 C 15.683594 10.964844 10.964844 15.683594 10.964844 21.5 C 10.964844 27.316406 15.683594 32.035156 21.5 32.035156 C 27.316406 32.035156 32.035156 27.316406 32.035156 21.5 Z M 32.035156 21.5 "/>
<path style=" stroke:none;fill-rule:nonzero;fill:rgb(6.666667%,32.549021%,83.529413%);fill-opacity:1;" d="M 28.125 7.125 C 32.410156 9.921875 35.347656 13.046875 37 18 C 37.398438 23.257812 36.894531 26.5625 34 31 C 30.042969 35.238281 27.050781 36.804688 21.238281 37.128906 C 16.949219 36.882812 13.617188 35.535156 10.492188 32.566406 C 6.355469 27.824219 5.582031 24.191406 6 18 C 7.894531 12.742188 10.597656 10.210938 15 7 C 19.664062 5.445312 23.488281 5.457031 28.125 7.125 Z M 20 12 C 19.136719 14.289062 18.285156 16.582031 17.4375 18.875 C 17.191406 19.527344 16.945312 20.175781 16.6875 20.847656 C 16.066406 22.546875 15.527344 24.273438 15 26 C 15.328125 26.660156 15.660156 27.320312 16 28 C 17.980469 27.011719 19.960938 26.019531 22 25 C 22.988281 25.988281 23.980469 26.980469 25 28 C 25.660156 27.671875 26.320312 27.339844 27 27 C 25.351562 22.050781 23.699219 17.101562 22 12 C 21.339844 12 20.679688 12 20 12 Z M 20 12 "/>
</g>
</svg>
