<svg width="72" height="67" viewBox="0 0 72 67" fill="none" xmlns="http://www.w3.org/2000/svg">
<path fill-rule="evenodd" clip-rule="evenodd" d="M35.9992 66.6582C33.4243 66.6582 32.1007 64.9791 32.1007 64.9791C29.9842 64.8872 13.4441 64.9332 13.4441 64.9332L11.8342 51.341C11.8342 51.341 1.64672 44.1613 0.819076 43.3325C-4.07094 21.1478 13.6041 0 35.9997 0C58.3959 0 76.0709 21.1484 71.1809 43.3325C70.3527 44.1607 60.1658 51.341 60.1658 51.341L58.5548 64.9332C58.5548 64.9332 42.0158 64.8872 39.8993 64.9791C39.8993 64.9791 38.5757 66.6582 35.9992 66.6582Z" fill="#ED1C24"/>
<path fill-rule="evenodd" clip-rule="evenodd" d="M36.0233 45.9876L34.4605 6.75341C32.576 6.36865 27.7674 6.83036 25.1909 8.75359L32.6906 46.1415L22.4599 10.2915C20.0069 10.2616 15.0577 14.4087 14.6895 15.6383L29.6142 47.4485L12.8432 18.3692C11.1896 18.9848 7.57399 25.6392 8.15085 26.4126L26.8445 49.2954L7.61219 29.7552C7.61219 29.7552 5.1121 33.5635 6.74248 40.0136L17.6059 47.8582L18.9661 58.576H32.2848C32.2848 58.576 34.4638 60.6421 36.01 60.6421C37.5557 60.6421 39.7347 58.5766 39.7347 58.5766H53.054L54.4142 47.8588L65.2771 40.0136C66.908 33.5635 64.4079 29.7552 64.4079 29.7552L45.1756 49.2954L63.8692 26.4131C64.4461 25.6397 60.8299 18.9854 59.1763 18.3698L42.4059 47.4496L57.33 15.6394C56.9624 14.4104 52.0126 10.2627 49.5601 10.2926L39.3284 46.1415L46.8297 8.75359C44.2527 6.83036 39.4446 6.36865 37.5596 6.75341L36.0233 45.9876Z" fill="#FFD500"/>
</svg>
