<?xml version="1.0" encoding="UTF-8"?>
<svg id="Layer_1" data-name="Layer 1" xmlns="http://www.w3.org/2000/svg" viewBox="0 0 386 302">
  <defs>
    <style>
      .cls-1 {
        fill: #fff;
      }

      .cls-1, .cls-2, .cls-3, .cls-4 {
        fill-rule: evenodd;
      }

      .cls-2 {
        fill: #231f20;
      }

      .cls-3 {
        fill: #ffda00;
      }

      .cls-4 {
        fill: #d0181f;
      }
    </style>
  </defs>
  <path class="cls-4" d="M379.86,151.38c0,70.97-83.94,128.51-187.48,128.51S4.9,222.35,4.9,151.38,88.84,22.87,192.38,22.87s187.48,57.54,187.48,128.51h0Z"/>
  <path class="cls-3" d="M362.12,186.47c5.21-11.08,8.02-22.87,8.02-35.09,0-65.06-79.58-117.8-177.76-117.8S14.62,86.32,14.62,151.38c0,12.22,2.81,24,8.02,35.09H362.12Z"/>
  <polygon class="cls-2" points="106.96 171.6 92.35 171.6 87.09 141.9 86.95 141.9 81.83 171.6 67.15 171.6 53.9 122.85 68.65 122.85 74.59 152.96 74.73 152.96 80.6 122.85 93.85 122.85 99.58 153.37 99.72 153.37 105.8 122.85 120.62 122.85 106.96 171.6 106.96 171.6"/>
  <polygon class="cls-2" points="129.76 122.85 144.79 122.85 144.79 139.78 158.85 139.78 158.85 122.85 173.88 122.85 173.88 171.6 158.85 171.6 158.85 152.28 144.79 152.28 144.79 171.6 129.76 171.6 129.76 122.85 129.76 122.85"/>
  <polygon class="cls-2" points="189.79 122.85 230.14 122.85 230.14 135.34 204.81 135.34 204.81 141.42 227.82 141.42 227.82 153.03 204.81 153.03 204.81 159.11 230.89 159.11 230.89 171.6 189.79 171.6 189.79 122.85 189.79 122.85"/>
  <polygon class="cls-2" points="243.52 122.85 283.88 122.85 283.88 135.34 258.55 135.34 258.55 141.42 281.56 141.42 281.56 153.03 258.55 153.03 258.55 159.11 284.63 159.11 284.63 171.6 243.52 171.6 243.52 122.85 243.52 122.85"/>
  <polygon class="cls-2" points="298.08 122.85 313.1 122.85 313.1 159.11 334.68 159.11 334.68 171.6 298.08 171.6 298.08 122.85 298.08 122.85"/>
  <polygon class="cls-2" points="104.88 66.29 135.62 66.29 135.62 76.49 117.13 76.49 117.13 81.44 133.01 81.44 133.01 90.91 117.13 90.91 117.13 106.06 104.88 106.06 104.88 66.29 104.88 66.29"/>
  <polygon class="cls-2" points="143.87 66.29 156.12 66.29 156.12 106.06 143.87 106.06 143.87 66.29 143.87 66.29"/>
  <polygon class="cls-2" points="166.31 66.29 197.06 66.29 197.06 76.49 178.57 76.49 178.57 81.44 194.44 81.44 194.44 90.91 178.57 90.91 178.57 106.06 166.31 106.06 166.31 66.29 166.31 66.29"/>
  <polygon class="cls-2" points="214.61 76.49 203.46 76.49 203.46 66.29 238 66.29 238 76.49 226.86 76.49 226.86 106.06 214.61 106.06 214.61 76.49 214.61 76.49"/>
  <polygon class="cls-2" points="246.41 66.29 258.66 66.29 258.66 80.11 270.14 80.11 270.14 66.29 282.4 66.29 282.4 106.06 270.14 106.06 270.14 90.3 258.66 90.3 258.66 106.06 246.41 106.06 246.41 66.29 246.41 66.29"/>
  <polygon class="cls-1" points="73.25 206.36 66.63 206.36 66.63 200.3 87.16 200.3 87.16 206.36 80.54 206.36 80.54 223.94 73.25 223.94 73.25 206.36 73.25 206.36"/>
  <path class="cls-1" d="M89.84,200.3h13.87c4.14,0,7.72,2.28,7.72,6.75,0,2.45-1.13,5.03-3.54,5.93,1.99,.76,3.21,2.95,3.48,5.89,.1,1.16,.13,3.97,.79,5.07h-7.28c-.36-1.19-.5-2.42-.59-3.64-.2-2.25-.4-4.6-3.28-4.6h-3.87v8.24h-7.28v-23.64h0Zm7.28,10.33h3.81c1.36,0,3.21-.23,3.21-2.35,0-1.49-.83-2.35-3.61-2.35h-3.41v4.7h0Z"/>
  <path class="cls-1" d="M136.03,214.8c0,6.56-3.54,9.7-10.76,9.7s-10.8-3.15-10.8-9.7v-14.5h7.29v12.88c0,2.42,0,5.43,3.54,5.43s3.44-3.01,3.44-5.43v-12.88h7.28v14.5h0Z"/>
  <path class="cls-1" d="M155.07,209.11c-.13-.86-.8-3.48-3.81-3.48-3.41,0-4.5,3.31-4.5,6.49s1.09,6.49,4.5,6.49c2.45,0,3.41-1.72,3.84-3.94h7.15c0,4.77-3.87,9.84-10.8,9.84-7.65,0-11.98-5.4-11.98-12.39,0-7.45,4.7-12.38,11.98-12.38,6.49,.03,10.07,3.44,10.7,9.37h-7.08Z"/>
  <polygon class="cls-1" points="165.87 200.3 173.15 200.3 173.15 208.45 173.22 208.45 179.71 200.3 188.68 200.3 180.1 209.54 190.07 223.94 181 223.94 175.17 214.74 173.15 216.95 173.15 223.94 165.87 223.94 165.87 200.3 165.87 200.3"/>
  <path class="cls-1" d="M208.94,215.99c0,.6,.1,1.13,.27,1.56,.53,1.42,2.12,1.72,3.48,1.72,1.19,0,3.01-.4,3.01-2.15,0-1.22-1.02-1.55-5.1-2.71-3.74-1.06-8.01-2.09-8.01-6.86,0-5.46,4.67-7.81,9.53-7.81,5.13,0,9.67,1.95,9.87,7.72h-6.89c.13-.9-.26-1.49-.86-1.89-.6-.43-1.42-.6-2.15-.6-.99,0-2.62,.26-2.62,1.59,.13,1.69,3.51,2.05,6.86,2.98,3.34,.93,6.65,2.48,6.65,6.82,0,6.16-5.66,8.15-10.93,8.15-2.68,0-10.33-.96-10.4-8.51h7.28Z"/>
  <polygon class="cls-1" points="231.06 206.36 224.44 206.36 224.44 200.3 244.97 200.3 244.97 206.36 238.34 206.36 238.34 223.94 231.06 223.94 231.06 206.36 231.06 206.36"/>
  <path class="cls-1" d="M259.2,199.74c7.18,0,11.98,5.17,11.98,12.38s-4.8,12.39-11.98,12.39-11.99-5.17-11.99-12.39,4.8-12.38,11.99-12.38h0Zm0,18.87c1.85,0,4.7-1.22,4.7-6.49s-2.85-6.49-4.7-6.49-4.7,1.22-4.7,6.49,2.85,6.49,4.7,6.49h0Z"/>
  <path class="cls-1" d="M274.6,200.3h12.19c6.42,0,8.67,4.7,8.67,8.08,0,5.73-3.84,8.41-9.27,8.41h-4.3v7.15h-7.28v-23.64h0Zm7.28,10.86h2.81c1.89,0,3.88-.13,3.88-2.52,0-2.15-1.66-2.28-3.44-2.28h-3.25v4.8h0Z"/>
  <path class="cls-1" d="M304.2,215.99c0,.6,.1,1.13,.26,1.56,.53,1.42,2.12,1.72,3.48,1.72,1.19,0,3.01-.4,3.01-2.15,0-1.22-1.03-1.55-5.1-2.71-3.74-1.06-8.01-2.09-8.01-6.86,0-5.46,4.67-7.81,9.54-7.81,5.13,0,9.67,1.95,9.87,7.72h-6.89c.13-.9-.26-1.49-.86-1.89-.6-.43-1.42-.6-2.15-.6-.99,0-2.62,.26-2.62,1.59,.13,1.69,3.51,2.05,6.86,2.98,3.34,.93,6.66,2.48,6.66,6.82,0,6.16-5.66,8.15-10.93,8.15-2.68,0-10.33-.96-10.4-8.51h7.28Z"/>
</svg>