<svg width="21" height="20" viewBox="0 0 21 20" fill="none" xmlns="http://www.w3.org/2000/svg">
<g clip-path="url(#clip0_2848_301)">
<path d="M11.3151 20H10.0599C9.04469 20 8.21871 19.1741 8.21871 18.1589V17.7342C7.78711 17.5963 7.36777 17.4223 6.96492 17.2138L6.66398 17.5147C5.93512 18.2445 4.76758 18.2231 4.05988 17.5145L3.17273 16.6273C2.46379 15.9192 2.4434 14.752 3.17297 14.0232L3.47367 13.7225C3.2652 13.3197 3.09117 12.9004 2.95324 12.4688H2.52863C1.51348 12.4688 0.6875 11.6428 0.6875 10.6276V9.37238C0.6875 8.35719 1.51348 7.53125 2.52867 7.53125H2.95328C3.09121 7.09961 3.26523 6.68031 3.47371 6.27746L3.17277 5.97656C2.44363 5.2482 2.46375 4.08094 3.17301 3.37246L4.06023 2.48527C4.76957 1.77496 5.93684 1.75723 6.6643 2.48551L6.96496 2.78617C7.36781 2.57773 7.78715 2.40367 8.21875 2.26574V1.84113C8.21875 0.825937 9.04469 0 10.0599 0H11.3151C12.3303 0 13.1562 0.825937 13.1562 1.84113V2.26578C13.5879 2.40367 14.0072 2.57773 14.41 2.78621L14.711 2.48527C15.4398 1.75551 16.6074 1.77691 17.3151 2.48555L18.2022 3.37266C18.9112 4.08082 18.9316 5.24797 18.202 5.97676L17.9013 6.27746C18.1098 6.68031 18.2838 7.09957 18.4217 7.53125H18.8463C19.8615 7.53125 20.6875 8.35719 20.6875 9.37238V10.6276C20.6875 11.6428 19.8615 12.4688 18.8463 12.4688H18.4217C18.2838 12.9004 18.1098 13.3197 17.9013 13.7225L18.2022 14.0235C18.9314 14.7518 18.9112 15.9191 18.202 16.6276L17.3148 17.5148C16.6054 18.2251 15.4382 18.2428 14.7107 17.5145L14.41 17.2139C14.0072 17.4223 13.5879 17.5964 13.1562 17.7343V18.1589C13.1562 19.1741 12.3303 20 11.3151 20ZM7.16082 15.9832C7.72047 16.3142 8.32281 16.5642 8.95109 16.7264C9.20984 16.7931 9.39062 17.0265 9.39062 17.2937V18.1589C9.39062 18.5279 9.6909 18.8281 10.0599 18.8281H11.3151C11.6841 18.8281 11.9844 18.5279 11.9844 18.1589V17.2937C11.9844 17.0265 12.1652 16.7931 12.4239 16.7264C13.0522 16.5642 13.6546 16.3142 14.2142 15.9832C14.4445 15.847 14.7377 15.8841 14.9268 16.0732L15.5396 16.6861C15.8039 16.9506 16.2282 16.9445 16.4859 16.6864L17.3737 15.7986C17.6308 15.5418 17.6394 15.1175 17.3739 14.8523L16.7608 14.2393C16.5717 14.0501 16.5346 13.7569 16.6708 13.5267C17.0018 12.9671 17.2518 12.3647 17.4139 11.7364C17.4807 11.4777 17.7141 11.2969 17.9813 11.2969H18.8464C19.2154 11.2969 19.5157 10.9967 19.5157 10.6277V9.37242C19.5157 9.0034 19.2154 8.70316 18.8464 8.70316H17.9813C17.714 8.70316 17.4807 8.52238 17.4139 8.26367C17.2518 7.63535 17.0017 7.03301 16.6708 6.4734C16.5346 6.24316 16.5717 5.94996 16.7608 5.76082L17.3737 5.14797C17.6386 4.88336 17.6317 4.45914 17.3739 4.20168L16.4862 3.31398C16.2289 3.05633 15.8045 3.04879 15.5399 3.31375L14.9269 3.92684C14.7377 4.11602 14.4445 4.15305 14.2143 4.01688C13.6546 3.6859 13.0523 3.43586 12.424 3.27371C12.1652 3.20695 11.9845 2.97359 11.9845 2.70637V1.84113C11.9845 1.47211 11.6842 1.17188 11.3152 1.17188H10.06C9.69094 1.17188 9.39066 1.47211 9.39066 1.84113V2.70629C9.39066 2.97352 9.20988 3.20688 8.95113 3.27363C8.32285 3.43578 7.72051 3.68582 7.16086 4.0168C6.93055 4.15293 6.63738 4.1159 6.44824 3.92676L5.83543 3.31391C5.57121 3.04938 5.14688 3.05551 4.88918 3.31363L4.00141 4.20137C3.7443 4.45816 3.7357 4.8825 4.00117 5.14766L4.61426 5.76074C4.8034 5.94988 4.84043 6.24309 4.7043 6.47332C4.37332 7.03293 4.12332 7.63527 3.96117 8.26359C3.89438 8.52234 3.66102 8.70309 3.39383 8.70309H2.52867C2.15965 8.70312 1.85938 9.00336 1.85938 9.37238V10.6276C1.85938 10.9966 2.15965 11.2969 2.52867 11.2969H3.39379C3.66102 11.2969 3.89434 11.4777 3.96113 11.7364C4.12328 12.3647 4.37332 12.967 4.70426 13.5266C4.84039 13.7569 4.80336 14.0501 4.61422 14.2392L4.00137 14.8521C3.73645 15.1167 3.74336 15.5409 4.00113 15.7984L4.88883 16.6861C5.14613 16.9437 5.57051 16.9513 5.83512 16.6863L6.44816 16.0732C6.58754 15.9339 6.8775 15.8156 7.16082 15.9832Z" fill="black"/>
<path d="M10.6875 14.3516C8.28801 14.3516 6.33594 12.3995 6.33594 10C6.33594 7.60055 8.28801 5.64844 10.6875 5.64844C13.087 5.64844 15.0391 7.60055 15.0391 10C15.0391 12.3995 13.087 14.3516 10.6875 14.3516ZM10.6875 6.82031C8.93418 6.82031 7.50781 8.24672 7.50781 10C7.50781 11.7533 8.93422 13.1797 10.6875 13.1797C12.4408 13.1797 13.8672 11.7533 13.8672 10C13.8672 8.24672 12.4408 6.82031 10.6875 6.82031Z" fill="black"/>
</g>
<defs>
<clipPath id="clip0_2848_301">
<rect width="20" height="20" fill="white" transform="translate(0.6875)"/>
</clipPath>
</defs>
</svg>
