<svg width="21" height="20" viewBox="0 0 21 20" fill="none" xmlns="http://www.w3.org/2000/svg">
<g clip-path="url(#clip0_2848_289)">
<path d="M7.61255 3.853H4.11554C3.7919 3.853 3.5296 4.1153 3.5296 4.43893C3.5296 4.76257 3.7919 5.02487 4.11554 5.02487H7.61255C7.93604 5.02487 8.19849 4.76257 8.19849 4.43893C8.19849 4.1153 7.93604 3.853 7.61255 3.853Z" fill="black"/>
<path d="M7.61255 6.1969H4.11554C3.7919 6.1969 3.5296 6.4592 3.5296 6.78284C3.5296 7.10648 3.7919 7.36877 4.11554 7.36877H7.61255C7.93604 7.36877 8.19849 7.10648 8.19849 6.78284C8.19849 6.4592 7.93604 6.1969 7.61255 6.1969Z" fill="black"/>
<path d="M7.61255 8.5408H4.11554C3.7919 8.5408 3.5296 8.8031 3.5296 9.12674C3.5296 9.45038 3.7919 9.71268 4.11554 9.71268H7.61255C7.93604 9.71268 8.19849 9.45038 8.19849 9.12674C8.19849 8.8031 7.93604 8.5408 7.61255 8.5408Z" fill="black"/>
<path d="M7.61255 10.8847H4.11554C3.7919 10.8847 3.5296 11.147 3.5296 11.4706C3.5296 11.7943 3.7919 12.0566 4.11554 12.0566H7.61255C7.93604 12.0566 8.19849 11.7943 8.19849 11.4706C8.19849 11.147 7.93604 10.8847 7.61255 10.8847Z" fill="black"/>
<path d="M7.61255 13.2678H4.11554C3.7919 13.2678 3.5296 13.5303 3.5296 13.8538C3.5296 14.1774 3.7919 14.4397 4.11554 14.4397H7.61255C7.93604 14.4397 8.19849 14.1774 8.19849 13.8538C8.19849 13.5303 7.93604 13.2678 7.61255 13.2678Z" fill="black"/>
<path d="M9.58032 5.02487H13.0773C13.401 5.02487 13.6633 4.76257 13.6633 4.43893C13.6633 4.1153 13.401 3.853 13.0773 3.853H9.58032C9.25684 3.853 8.99438 4.1153 8.99438 4.43893C8.99438 4.76257 9.25684 5.02487 9.58032 5.02487Z" fill="black"/>
<path d="M9.58032 7.36877H13.0773C13.401 7.36877 13.6633 7.10648 13.6633 6.78284C13.6633 6.4592 13.401 6.1969 13.0773 6.1969H9.58032C9.25684 6.1969 8.99438 6.4592 8.99438 6.78284C8.99438 7.10648 9.25684 7.36877 9.58032 7.36877Z" fill="black"/>
<path d="M11.8505 9.12674C11.8505 8.8031 11.5882 8.5408 11.2646 8.5408H9.58032C9.25684 8.5408 8.99438 8.8031 8.99438 9.12674C8.99438 9.45038 9.25684 9.71268 9.58032 9.71268H11.2646C11.5882 9.71268 11.8505 9.45038 11.8505 9.12674Z" fill="black"/>
<path d="M17.4012 13.5152C17.1488 13.3127 16.7802 13.3531 16.5775 13.6055L15.0685 15.4869L14.1342 14.81C13.8722 14.62 13.5056 14.6786 13.3158 14.9406C13.126 15.2028 13.1846 15.5691 13.4466 15.759L14.8326 16.7631C14.9363 16.8382 15.0565 16.8747 15.176 16.8747C15.348 16.8747 15.518 16.7991 15.6333 16.6553L17.4917 14.3388C17.6942 14.0864 17.6537 13.7176 17.4012 13.5152Z" fill="black"/>
<path d="M18.8822 11.7165C18.119 10.9398 17.1383 10.4503 16.0757 10.3061V2.35977C16.0757 1.05865 15.017 0 13.7159 0H3.47711C2.17584 0 1.11719 1.05865 1.11719 2.35977V15.9329C1.11719 17.2342 2.17584 18.2928 3.47696 18.2928H11.712C12.6386 19.3814 13.971 20 15.4125 20C18.0958 20 20.2787 17.8156 20.2787 15.1305C20.2787 13.8451 19.7828 12.6326 18.8822 11.7165ZM2.28906 15.9329V2.35977C2.28906 1.70486 2.82205 1.17188 3.47711 1.17188H13.7159C14.371 1.17188 14.9038 1.70486 14.9038 2.35977V10.2875C12.4587 10.5428 10.5464 12.6172 10.5464 15.1305C10.5464 15.827 10.6916 16.5005 10.9702 17.1208H3.47711C2.82205 17.1208 2.28906 16.588 2.28906 15.9329ZM15.4125 18.8281C14.2423 18.8281 13.1666 18.2909 12.4609 17.3543C11.975 16.7093 11.7181 15.9404 11.7181 15.1305C11.7181 13.0916 13.3755 11.4328 15.4125 11.4328C15.4318 11.4328 15.4511 11.4331 15.4704 11.4334L15.4794 11.4336C16.4518 11.4508 17.3635 11.843 18.0465 12.5378C18.7303 13.2335 19.1068 14.1544 19.1068 15.1305C19.1068 17.1693 17.4496 18.8281 15.4125 18.8281Z" fill="black"/>
</g>
<defs>
<clipPath id="clip0_2848_289">
<rect width="20" height="20" fill="white" transform="translate(0.6875)"/>
</clipPath>
</defs>
</svg>
