<?xml version="1.0" standalone="no"?>
<!DOCTYPE svg PUBLIC "-//W3C//DTD SVG 20010904//EN"
 "http://www.w3.org/TR/2001/REC-SVG-20010904/DTD/svg10.dtd">
<svg version="1.0" xmlns="http://www.w3.org/2000/svg"
 width="721.000000pt" height="721.000000pt" viewBox="0 0 721.000000 721.000000"
 preserveAspectRatio="xMidYMid meet">

<g transform="translate(0.000000,721.000000) scale(0.100000,-0.100000)"
fill="#000000" stroke="none">
<path d="M4983 6410 c-23 -5 -50 -13 -60 -18 -24 -12 -146 -40 -204 -47 -36
-5 -51 -12 -68 -35 -12 -17 -27 -30 -34 -30 -38 0 -94 -26 -137 -65 -26 -24
-62 -46 -79 -50 -18 -4 -40 -19 -52 -37 -12 -17 -37 -37 -55 -44 -19 -8 -40
-28 -49 -44 -8 -16 -26 -37 -40 -46 -13 -9 -30 -31 -36 -49 -8 -21 -24 -38
-45 -48 -26 -13 -33 -23 -39 -59 -10 -57 -28 -91 -65 -120 -27 -21 -30 -30
-36 -98 -4 -57 -14 -93 -42 -150 l-36 -75 -1 -200 0 -200 34 -69 c23 -48 36
-91 42 -144 7 -67 12 -80 43 -111 19 -20 45 -62 57 -94 13 -35 33 -66 49 -77
18 -13 31 -35 39 -64 8 -34 16 -45 36 -50 17 -4 32 -22 51 -60 14 -29 40 -69
58 -89 18 -21 38 -54 44 -75 7 -23 22 -43 41 -53 18 -11 31 -28 35 -47 4 -17
23 -42 45 -60 21 -17 48 -51 60 -76 11 -25 32 -53 46 -62 16 -10 29 -32 36
-60 8 -32 20 -49 43 -63 17 -11 42 -39 56 -63 13 -24 38 -59 56 -79 17 -20 35
-51 39 -68 4 -17 19 -40 35 -51 15 -11 40 -40 54 -65 15 -25 33 -45 40 -45 8
0 27 -16 43 -35 23 -30 36 -36 79 -42 29 -3 82 -2 118 2 59 6 68 10 81 35 8
15 36 52 63 81 27 30 53 68 59 84 5 17 27 42 50 57 28 19 43 39 51 66 9 28 20
43 40 51 21 9 31 23 40 57 8 30 20 48 36 55 14 7 37 38 57 76 21 40 43 70 60
79 20 10 30 25 35 49 4 23 17 43 35 56 15 11 40 46 55 79 18 41 37 66 59 79
20 12 36 30 40 48 3 16 20 37 37 48 20 13 35 34 42 57 11 38 22 53 70 96 14
13 30 40 35 59 6 20 26 50 46 68 23 21 35 42 35 59 0 34 29 107 52 129 51 50
59 120 58 482 -1 287 -6 325 -52 395 -20 30 -44 82 -53 115 -12 41 -26 67 -45
82 -19 16 -32 40 -40 74 -10 42 -17 53 -41 61 -17 6 -38 27 -54 55 -17 28 -38
48 -56 55 -16 6 -36 23 -44 39 -9 17 -26 31 -43 35 -56 12 -80 26 -116 70 -32
38 -42 44 -76 44 -32 0 -48 7 -79 36 -37 33 -47 36 -128 44 -48 5 -119 18
-158 30 -38 12 -86 25 -105 30 -42 11 -189 11 -247 0z m340 -721 c20 -5 43
-19 50 -30 6 -11 40 -36 75 -56 64 -36 104 -78 117 -123 4 -14 20 -38 35 -55
46 -48 51 -76 52 -265 0 -191 -5 -217 -52 -256 -16 -14 -34 -43 -40 -63 -8
-31 -19 -43 -55 -62 -28 -15 -48 -33 -52 -47 -6 -26 -31 -42 -65 -42 -13 0
-36 -7 -51 -15 -16 -8 -57 -23 -91 -34 -69 -21 -109 -17 -253 27 -37 12 -85
24 -105 27 -29 4 -42 13 -53 35 -9 17 -31 36 -51 45 -23 10 -38 24 -46 45 -6
18 -26 41 -48 55 -34 22 -40 31 -49 82 -6 32 -18 87 -27 123 -27 105 -27 116
-5 175 12 30 21 68 21 84 0 59 28 125 64 148 21 13 39 36 46 57 10 30 18 37
53 47 23 6 58 26 77 44 19 18 46 38 59 45 55 28 301 34 394 9z"/>
<path d="M2552 3480 c-19 -4 -48 -21 -65 -38 -38 -35 -71 -53 -112 -61 -20 -5
-35 -17 -46 -37 -8 -18 -36 -56 -62 -85 -27 -31 -47 -64 -47 -77 0 -33 -26
-91 -44 -98 -27 -10 -36 -74 -36 -259 0 -197 7 -237 44 -266 17 -13 26 -33 31
-67 6 -44 14 -55 88 -129 79 -77 130 -113 160 -113 8 0 31 -13 51 -29 20 -16
59 -34 87 -40 32 -7 223 -11 519 -11 257 0 476 -3 485 -6 8 -4 22 -19 30 -35
8 -15 23 -30 33 -33 31 -10 42 -51 42 -152 0 -87 -2 -97 -25 -119 -13 -14 -31
-25 -40 -25 -9 0 -23 -16 -31 -35 -23 -56 -40 -57 -718 -60 -455 -3 -560 -6
-567 -17 -10 -15 0 -239 11 -251 11 -12 1328 -9 1351 4 10 5 25 23 34 38 10
20 28 34 57 43 29 10 47 24 56 41 7 15 26 34 41 42 22 11 30 24 35 54 5 31 13
44 35 55 19 10 30 26 35 47 8 39 8 356 0 385 -3 12 -16 26 -29 32 -16 7 -28
25 -35 52 -13 48 -80 120 -142 151 -23 12 -49 30 -57 40 -36 44 -97 49 -593
49 -268 0 -477 4 -492 9 -45 18 -120 83 -166 144 l-45 61 1 121 c1 90 5 129
18 155 39 82 76 134 126 178 l54 47 904 2 c627 1 907 4 915 12 14 14 -6 57
-38 83 -14 10 -29 36 -35 57 -6 25 -23 48 -45 65 -19 15 -35 35 -35 45 0 42
12 41 -864 40 -463 -1 -856 -5 -874 -9z"/>
<path d="M1307 1895 c-16 -8 -41 -25 -57 -38 -15 -13 -43 -29 -61 -36 -55 -20
-63 -26 -84 -59 -11 -18 -30 -35 -42 -38 -12 -3 -26 -11 -32 -17 -18 -23 -33
-257 -22 -360 l10 -98 72 -77 c40 -42 89 -86 108 -96 66 -36 355 -32 459 5 12
5 27 20 32 34 5 13 24 31 43 39 30 12 35 19 39 58 3 29 18 63 42 98 l38 55 -4
112 c-3 107 -4 113 -31 141 -15 16 -32 45 -38 64 -5 20 -19 48 -31 63 -26 33
-105 85 -130 85 -10 0 -25 11 -34 26 -9 14 -30 32 -45 40 -38 19 -194 19 -232
-1z"/>
</g>
</svg>
