<svg width="25" height="24" viewBox="0 0 25 24" fill="none" xmlns="http://www.w3.org/2000/svg">
<path d="M22.4382 10.9295V14.9981H20.8936C20.4201 14.5355 19.7749 14.2481 19.064 14.2481C18.353 14.2481 17.7063 14.5355 17.2322 14.9981H14.189V14.2481H14.5625C14.7685 14.2473 14.9352 14.0805 14.936 13.8745V6.53055L16.3284 5.14113C16.5685 4.90481 16.3994 4.49625 16.0625 4.49878L13.8125 4.49882C13.7127 4.49885 13.617 4.53865 13.5466 4.60937L11.783 6.37523H4.21777L3.20191 5.35934C3.13225 5.28933 3.03776 5.24954 2.93897 5.24883H1.81177C1.60467 5.24958 1.43744 5.41818 1.43823 5.62526V12.3738C1.43786 12.4733 1.47666 12.5689 1.54663 12.6397L3.04663 14.1404C3.11749 14.2101 3.21311 14.2489 3.3125 14.2481H3.68603V14.9981H2.5625C2.35511 14.9989 2.18777 15.1679 2.18897 15.3753V16.8753C2.18972 17.0813 2.35654 17.248 2.5625 17.2489H3.71606C3.89918 18.5179 4.99505 19.4996 6.31323 19.4996C7.63141 19.4996 8.72475 18.5179 8.90747 17.2489H15.3125C15.8126 17.2489 15.8126 16.4989 15.3125 16.4989H8.90674C8.72274 15.2309 7.63038 14.2481 6.31323 14.2481C5.60227 14.2481 4.9519 14.5355 4.47778 14.9981H4.43603V14.2481H6.31323H13.439V14.9981H9.6875C9.18738 14.9981 9.18738 15.7489 9.6875 15.7489H16.6953C16.5313 16.0911 16.4368 16.4721 16.4368 16.8753C16.4368 18.3206 17.6187 19.4996 19.064 19.4996C20.3822 19.4996 21.4755 18.5179 21.6582 17.2489H23.5618C23.7689 17.2496 23.9374 17.0824 23.9382 16.8753V15.3753C23.9394 15.1668 23.7703 14.9973 23.5618 14.9981H23.1882V10.8739C23.188 10.8373 23.1821 10.8011 23.1714 10.7661L22.0504 7.03151C21.8625 6.40554 21.5159 5.9988 20.9375 5.9988H16.8132C16.1965 5.9988 15.6861 6.50926 15.6861 7.12602V13.8746C15.6861 14.3747 16.4368 14.3747 16.4368 13.8746V7.12602C16.4368 6.91178 16.599 6.74881 16.8132 6.74881H20.9375C21.1784 6.74881 21.2609 7.00855 21.3239 7.21828L22.4382 10.9295ZM13.967 5.24883H15.158L14.2966 6.1094C14.2269 6.18026 14.1882 6.27589 14.189 6.37528V13.501H3.46777L2.18897 12.2193V5.9988H2.78076L3.79663 7.01469C3.86689 7.0857 3.96258 7.12578 4.0625 7.12607H11.9382C12.0382 7.12585 12.1338 7.08584 12.2041 7.01469L13.967 5.24883ZM17.1868 7.87305V10.1238C17.186 10.3321 17.355 10.5011 17.5632 10.5003H18.5322L19.1716 11.1397C19.242 11.2104 19.3377 11.2502 19.4375 11.2502H21.2451C21.4973 11.2506 21.6781 11.0073 21.6047 10.7661L20.7053 7.76535C20.6571 7.60686 20.5106 7.49882 20.345 7.49951H17.5438C17.3326 7.51879 17.1866 7.68026 17.1868 7.87305ZM3.68603 8.24953V12.3738C3.68491 12.5823 3.85397 12.7518 4.0625 12.751H5.56323C5.77062 12.7503 5.93797 12.5812 5.93677 12.3738V8.24953C5.93602 8.04357 5.76919 7.87681 5.56323 7.87599H4.04309C3.83185 7.89527 3.68585 8.05674 3.68603 8.24953ZM7.06323 8.24953V12.3738C7.06211 12.5812 7.22938 12.7502 7.43677 12.751H8.9375C9.14489 12.7503 9.31223 12.5812 9.31103 12.3738V8.24953C9.31028 8.04357 9.14345 7.87683 8.9375 7.87599H7.41882C7.20905 7.89527 7.06304 8.05674 7.06323 8.24953ZM10.4382 8.24953V12.3738C10.4371 12.5812 10.6044 12.7502 10.8118 12.751H12.3118C12.5203 12.7518 12.6894 12.5823 12.6882 12.3738V8.24953C12.6875 8.04243 12.5189 7.87521 12.3118 7.87599H10.7938C10.5841 7.89527 10.438 8.05674 10.4382 8.24953ZM17.9368 8.24671H20.0659L20.7412 10.5003H19.592L18.9526 9.86097C18.8824 9.78996 18.7867 9.74982 18.6868 9.74968H17.9368V8.24671ZM4.43603 8.62315H5.18677V12.0004H4.43603V8.62315ZM7.81397 8.62315H8.56397V12.0004H7.81397V8.62315ZM11.1882 8.62315H11.9382V12.0004H11.1882V8.62315ZM17.5632 12.7511H18.3132C18.8137 12.7511 18.8137 12.0004 18.3132 12.0004H17.5438C17.0239 12.0263 17.0628 12.777 17.5632 12.7511ZM6.31323 14.9982C7.35321 14.9982 8.1875 15.8354 8.1875 16.8754C8.1875 17.9153 7.35321 18.7496 6.31323 18.7496C5.27325 18.7496 4.43604 17.9153 4.43603 16.8754C4.43604 15.8354 5.27325 14.9982 6.31323 14.9982ZM19.064 14.9982C20.1039 14.9982 20.9375 15.8354 20.9375 16.8754C20.9375 17.9153 20.1039 18.7496 19.064 18.7496C18.024 18.7496 17.1868 17.9153 17.1868 16.8754C17.1868 15.8354 18.024 14.9982 19.064 14.9982ZM2.93897 15.7489H3.94458C3.83275 15.9823 3.75529 16.2342 3.71679 16.4989H2.93897V15.7489ZM6.31323 15.7489C5.69636 15.7489 5.18678 16.2585 5.18677 16.8754C5.18676 17.4922 5.69635 17.9989 6.31323 17.9989C6.93011 17.9989 7.43677 17.4922 7.43677 16.8754C7.43676 16.2585 6.9301 15.7489 6.31323 15.7489ZM19.064 15.7489C18.4471 15.7489 17.9368 16.2585 17.9368 16.8754C17.9368 17.4922 18.4471 17.9989 19.064 17.9989C19.6808 17.9989 20.1875 17.4922 20.1875 16.8754C20.1875 16.2585 19.6808 15.7489 19.064 15.7489ZM21.4297 15.7489H23.1882V16.4989H21.6575C21.6191 16.2341 21.5413 15.9824 21.4297 15.7489ZM6.31323 16.4989C6.52478 16.4989 6.68677 16.6638 6.68677 16.8754C6.68677 17.0869 6.52478 17.2489 6.31323 17.2489C6.10169 17.2489 5.93676 17.0869 5.93677 16.8754C5.93677 16.6638 6.10169 16.4989 6.31323 16.4989ZM19.064 16.4989C19.2755 16.4989 19.4375 16.6638 19.4375 16.8754C19.4375 17.0869 19.2755 17.2489 19.064 17.2489C18.8524 17.2489 18.6868 17.0869 18.6868 16.8754C18.6868 16.6638 18.8524 16.4989 19.064 16.4989Z" fill="black"/>
</svg>
