<?xml version="1.0" standalone="no"?>
<!DOCTYPE svg PUBLIC "-//W3C//DTD SVG 20010904//EN"
 "http://www.w3.org/TR/2001/REC-SVG-20010904/DTD/svg10.dtd">
<svg version="1.0" xmlns="http://www.w3.org/2000/svg"
 width="724.000000pt" height="724.000000pt" viewBox="0 0 724.000000 724.000000"
 preserveAspectRatio="xMidYMid meet">

<g transform="translate(0.000000,724.000000) scale(0.100000,-0.100000)"
fill="#000000" stroke="none">
<path d="M4945 5233 c-56 -8 -235 -63 -269 -84 -18 -11 -77 -30 -129 -44 -53
-13 -124 -38 -157 -56 -34 -17 -93 -40 -132 -50 -39 -10 -89 -30 -112 -43 -23
-13 -77 -34 -121 -46 -44 -12 -125 -40 -180 -61 -55 -22 -134 -46 -175 -53
-42 -8 -110 -29 -152 -45 -41 -17 -111 -39 -154 -50 -44 -10 -110 -34 -149
-53 -38 -19 -97 -41 -130 -48 -33 -6 -85 -24 -115 -39 -30 -16 -84 -38 -120
-51 -36 -12 -112 -39 -170 -60 -58 -22 -138 -48 -179 -60 -41 -12 -108 -37
-150 -55 -42 -18 -105 -39 -140 -45 -36 -6 -91 -25 -124 -41 -32 -17 -89 -39
-125 -50 -37 -11 -97 -36 -134 -55 -36 -18 -91 -43 -121 -54 -45 -17 -57 -27
-66 -52 -32 -92 15 -158 144 -198 22 -7 67 -27 100 -45 33 -17 83 -38 110 -45
28 -7 133 -53 235 -103 102 -49 210 -98 240 -109 30 -12 71 -32 90 -44 20 -13
67 -34 105 -47 39 -13 91 -38 116 -55 25 -17 72 -41 105 -53 60 -22 179 -93
223 -133 13 -11 41 -56 62 -100 21 -43 43 -84 48 -90 5 -6 20 -40 34 -76 13
-36 38 -93 56 -127 17 -35 38 -84 47 -110 9 -27 36 -90 61 -141 24 -52 51
-113 59 -135 8 -23 27 -64 43 -92 15 -27 36 -72 46 -100 10 -27 35 -81 55
-120 21 -38 41 -81 45 -95 13 -45 112 -245 129 -259 8 -7 34 -15 56 -18 39 -5
44 -3 89 44 41 43 51 60 66 124 10 41 30 106 45 146 15 39 42 120 60 180 18
59 44 135 58 168 13 33 36 98 49 145 14 46 34 102 45 125 19 36 44 104 122
340 15 44 43 123 63 175 19 52 52 149 73 215 20 66 47 145 60 175 12 30 30 88
40 127 11 40 32 103 49 140 16 38 37 95 46 128 10 33 34 96 55 140 21 44 44
105 51 135 7 30 25 86 41 125 16 38 44 122 63 185 50 166 119 365 154 442 22
48 31 83 31 121 0 64 -18 93 -68 107 -38 10 -44 10 -97 3z m-636 -503 c7 0 31
-44 31 -56 0 -20 -533 -564 -981 -1002 l-177 -172 -46 0 c-33 0 -66 10 -114
34 -37 18 -100 45 -140 60 -41 14 -93 37 -115 50 -23 14 -69 35 -102 47 -33
12 -76 31 -95 42 -58 34 -108 57 -122 57 -28 0 -145 64 -195 106 -84 72 -68
111 67 160 41 14 80 30 85 34 18 13 122 49 203 69 44 11 107 33 139 49 32 16
91 37 132 46 41 10 102 32 135 50 34 19 92 42 131 51 38 9 95 30 125 45 30 15
82 35 115 44 33 10 106 35 162 57 55 21 155 54 221 73 66 19 130 40 142 46 12
7 65 20 117 31 55 11 113 30 139 45 48 28 100 44 122 38 8 -2 17 -4 21 -4z
m271 -325 c16 -42 -36 -266 -72 -311 -5 -7 -24 -56 -42 -110 -18 -55 -45 -122
-59 -150 -14 -29 -34 -83 -43 -120 -10 -38 -30 -100 -46 -138 -16 -37 -38
-102 -49 -145 -10 -42 -35 -119 -54 -171 -19 -52 -44 -130 -55 -173 -12 -43
-34 -108 -49 -145 -15 -37 -35 -96 -45 -132 -10 -35 -33 -96 -51 -135 -18 -38
-42 -100 -54 -137 -33 -101 -139 -210 -186 -192 -19 8 -37 42 -66 125 -12 35
-34 89 -50 119 -15 30 -37 79 -48 107 -12 29 -35 81 -52 115 -17 34 -38 84
-46 110 -8 27 -32 77 -54 110 -42 65 -67 135 -75 208 -11 96 16 128 618 732
207 208 381 378 387 378 5 0 31 18 56 40 37 32 54 40 86 40 33 0 41 -4 49 -25z"/>
</g>
</svg>
