<?xml version="1.0" encoding="UTF-8"?>
<svg id="Layer_1" data-name="Layer 1" xmlns="http://www.w3.org/2000/svg" viewBox="0 0 218 200">
  <defs>
    <style>
      .cls-1 {
        fill: #ffd200;
        stroke: #ee3224;
        stroke-width: 0px;
      }

      .cls-1, .cls-2 {
        stroke-miterlimit: 40;
      }

      .cls-2 {
        fill: none;
        stroke: #fff;
        stroke-width: 6.17px;
      }

      .cls-3 {
        fill: #ee3224;
      }
    </style>
  </defs>
  <path class="cls-2" d="M98.52,177.11H53.8l-4.14-33.15-27.12-19.73c-1.18-5.8-1.78-11.71-1.78-17.63,0-48.65,39.48-88.13,88.12-88.13s88.13,39.48,88.13,88.13c0,5.92-.6,11.82-1.78,17.63l-27.12,19.73-4.14,33.15h-44.72l-2.58,1.88c-2.26,1.64-4.98,2.53-7.78,2.53s-5.52-.89-7.78-2.53l-2.58-1.88Z"/>
  <path class="cls-3" d="M98.52,177.11H53.8l-4.14-33.15-27.12-19.73c-1.18-5.8-1.78-11.71-1.78-17.63,0-48.65,39.48-88.13,88.12-88.13s88.13,39.48,88.13,88.13c0,5.92-.6,11.82-1.78,17.63l-27.12,19.73-4.14,33.15h-44.72l-2.58,1.88c-2.26,1.64-4.98,2.53-7.78,2.53s-5.52-.89-7.78-2.53l-2.58-1.88Z"/>
  <path class="cls-1" d="M99.92,161.69h-32.51l-3.28-26.27-26.77-19.48c-.79-3.05-1.18-6.19-1.18-9.34,0-5.26,1.11-10.46,3.25-15.27l47.4,47.93-46.08-56.89c1.81-7.38,5.83-14.03,11.51-19.08l41.31,71.3L56.96,56.54c4.74-6.3,11.34-10.95,18.87-13.28l25.26,88.5-18.46-92.15c5.61-3.17,11.95-4.83,18.4-4.83,1.36,0,2.73,.07,4.08,.22l3.76,95.83,3.76-95.83c1.36-.15,2.72-.22,4.08-.22,6.45,0,12.78,1.66,18.4,4.83l-18.46,92.15,25.26-88.5c7.53,2.33,14.13,6.97,18.87,13.28l-36.6,78.06,41.31-71.3c5.68,5.04,9.7,11.7,11.51,19.08l-46.08,56.89,47.4-47.93c2.15,4.8,3.25,10.01,3.25,15.27,0,3.15-.4,6.29-1.18,9.34l-26.77,19.48-3.28,26.27h-32.51l-4.81,3.5c-1.21,.88-2.66,1.35-4.15,1.35s-2.94-.47-4.15-1.35l-4.81-3.5Z"/>
</svg>