<?xml version="1.0" encoding="UTF-8"?>
<svg id="Layer_1" data-name="Layer 1" xmlns="http://www.w3.org/2000/svg" viewBox="0 0 346 324">
  <defs>
    <style>
      .cls-1 {
        fill: #fff;
      }

      .cls-1, .cls-2, .cls-3 {
        fill-rule: evenodd;
      }

      .cls-2 {
        fill: #ed2129;
      }

      .cls-3 {
        fill: #231f20;
      }
    </style>
  </defs>
  <polygon class="cls-1" points="33.74 23.74 311 23.74 311 301 33.74 301 33.74 23.74 33.74 23.74"/>
  <path class="cls-3" d="M295.57,250.77l-1.04-8.08c-.31-2.07-.52-4.35-.72-6.42h-.1c-.21,2.07-.52,4.35-.83,6.42l-1.35,8.08h2.28v7.35h-3.42l-.83,4.45h-9.63l8.29-34.59h11.39l7.35,34.59h-9.63l-.73-4.45h-2.8v-7.46l1.76,.1h0Z"/>
  <path class="cls-3" d="M47.31,235.44h.72c2.28,0,3.42,1.97,3.42,4.14,0,2.59-1.55,3.94-4.14,3.83v7.77c8.08,.31,13.57-2.49,13.57-11.5s-6.21-11.7-14.4-11.7h-8.49v34.59h9.32v-27.14h0Z"/>
  <polygon class="cls-3" points="86.05 236.17 86.05 262.58 95.37 262.58 95.37 236.17 100.75 236.17 100.75 227.98 63.26 227.98 63.26 262.58 80.56 262.58 80.56 254.39 72.58 254.39 72.58 249.11 79.73 249.11 79.73 240.93 72.58 240.93 72.58 236.17 86.05 236.17 86.05 236.17"/>
  <path class="cls-3" d="M112.35,235.44c2.59-.21,4.35,1.14,4.35,4.14,0,2.28-1.35,4.35-3.73,4.35h-.62l-.1,4.35v-.1l5.18,14.4h10.15l-6.94-14.4c3.73-1.45,5.39-4.87,5.39-8.7,0-9.11-5.9-11.5-13.98-11.5h-9.01v34.59h9.32v-27.14h0Z"/>
  <path class="cls-3" d="M140.32,236.06c3.52,0,3.62,7.04,3.62,9.22s-.1,9.11-3.62,9.11-3.73-6.94-3.73-9.11,.21-9.22,3.73-9.22v-8.7c-9.53,0-13.26,9.42-13.26,17.92s3.73,17.81,13.26,17.81,13.15-9.42,13.15-17.81-3.73-17.92-13.15-17.92v8.7h0Z"/>
  <polygon class="cls-3" points="154.92 249.01 154.92 240.72 158.23 240.72 158.23 249.01 154.92 249.01 154.92 249.01"/>
  <polygon class="cls-3" points="218.82 246 218.82 227.98 227.83 227.98 227.83 262.58 218.82 262.58 212.4 244.14 212.4 262.58 203.39 262.58 203.39 227.98 212.3 227.98 218.82 246 218.82 246"/>
  <path class="cls-3" d="M244.72,250.77l-1.04-8.08c-.21-2.07-.41-4.35-.62-6.42h-.1c-.31,2.07-.52,4.35-.83,6.42l-1.35,8.08h2.17v7.35h-3.42l-.73,4.45h-9.63l8.29-34.59h11.39l7.35,34.59h-9.74l-.62-4.45h-2.9v-7.46l1.76,.1h0Z"/>
  <path class="cls-3" d="M257.97,262.58h8.18c5.7,0,15.74-1.55,15.74-17.5,0-10.36-5.8-17.09-16.36-17.09h-7.56l9.42,8.6c4.25,0,4.97,5.28,4.97,9.01,0,3.21-.72,8.6-4.97,8.6v-17.61l-9.42-8.6v34.59h0Z"/>
  <path class="cls-2" d="M306.75,217.42l-21.23-6.94c-5.49-1.97-5.7-5.49-3.73-12.95l8.7-29.83c1.04-3.21-1.24-4.04-4.25-3l-30.04,5.18c-3.52,.52-5.8-1.66-6.21-3.73l-3.52-13.88c-.72-2.49-3-2.8-4.76-.31l-22.58,28.17c-4.04,4.97-12.01,4.97-9.53-6.52l12.74-60.69c.21-2.28-1.55-3-3.21-1.97l-13.46,7.97c-4.56,2.49-9.01,2.9-11.5-1.55l-18.95-38.32c-1.97-3.52-3.94-3.52-5.9,0l-18.95,38.32c-2.49,4.45-6.94,4.04-11.39,1.55l-13.46-7.97c-1.76-1.04-3.52-.31-3.31,1.97l12.74,60.69c2.49,11.5-5.49,11.5-9.42,6.52l-22.68-28.17c-1.76-2.49-3.94-2.17-4.76,.31l-3.42,13.88c-.52,2.07-2.8,4.25-6.21,3.73l-30.14-5.18c-3-1.04-5.28-.21-4.25,3l8.7,29.83c1.97,7.46,1.76,10.98-3.73,12.95l-21.13,6.94V61.65H306.75V217.42h0Z"/>
  <path class="cls-3" d="M192.52,258.12l.62,4.45h9.74l-7.35-34.59h-11.39l-6.11,25.37c-.83,.41-1.66,.52-2.8,.52-4.66,0-5.9-4.56-5.9-8.6,0-3.73,.93-8.6,5.7-9.22,1.14-.21,3.21-.52,4.66,.1v-8.29c-.93-.21-3.11-.41-4.76-.41-4.56,0-15.12,2.59-15.12,18.12,0,11.81,6.63,16.99,14.19,16.99h11.5l.72-4.45h3.11v-7.46l-1.86,.1,1.35-8.08c.31-2.07,.52-4.35,.83-6.42h.1c.21,2.07,.41,4.35,.62,6.42l1.04,8.08-2.07-.1v7.46h3.21Z"/>
</svg>