<svg viewBox="0 0 32 32" xmlns="http://www.w3.org/2000/svg"><path d="m5 6c-1.644531 0-3 1.355469-3 3v14c0 1.644531 1.355469 3 3 3h22c1.644531 0 3-1.355469 3-3v-14c0-1.644531-1.355469-3-3-3zm0 2h22c.566406 0 1 .433594 1 1v14c0 .566406-.433594 1-1 1h-22c-.566406 0-1-.433594-1-1v-14c0-.566406.433594-1 1-1zm10 2c-3.300781 0-6 2.699219-6 6s2.699219 6 6 6h2c3.3125 0 6-2.6875 6-6s-2.6875-6-6-6zm0 2c2.222656 0 4 1.777344 4 4s-1.777344 4-4 4-4-1.777344-4-4 1.777344-4 4-4zm-.8125 1.65625c-.972656.34375-1.6875 1.253906-1.6875 2.34375s.714844 2 1.6875 2.34375zm1.625 0v4.6875c.972656-.34375 1.6875-1.253906 1.6875-2.34375s-.714844-2-1.6875-2.34375z"/></svg>