<svg width="25" height="24" viewBox="0 0 25 24" fill="none" xmlns="http://www.w3.org/2000/svg">
<path d="M14.5625 19.3125H4.8125C3.2616 19.3125 2 18.0509 2 16.5V4.125C2 2.5741 3.2616 1.3125 4.8125 1.3125H18.3125C19.8634 1.3125 21.125 2.5741 21.125 4.125V10.125C21.125 10.4357 20.8732 10.6875 20.5625 10.6875C20.2518 10.6875 20 10.4357 20 10.125V4.125C20 3.19446 19.243 2.4375 18.3125 2.4375H4.8125C3.88196 2.4375 3.125 3.19446 3.125 4.125V16.5C3.125 17.4305 3.88196 18.1875 4.8125 18.1875H14.5625C14.8732 18.1875 15.125 18.4393 15.125 18.75C15.125 19.0607 14.8732 19.3125 14.5625 19.3125Z" fill="black"/>
<path d="M11.5625 11.4375C9.28796 11.4375 7.4375 9.58704 7.4375 7.3125C7.4375 5.03796 9.28796 3.1875 11.5625 3.1875C13.837 3.1875 15.6875 5.03796 15.6875 7.3125C15.6875 9.58704 13.837 11.4375 11.5625 11.4375ZM11.5625 4.3125C9.90833 4.3125 8.5625 5.65833 8.5625 7.3125C8.5625 8.96667 9.90833 10.3125 11.5625 10.3125C13.2167 10.3125 14.5625 8.96667 14.5625 7.3125C14.5625 5.65833 13.2167 4.3125 11.5625 4.3125Z" fill="black"/>
<path d="M11.5625 8.8125C10.5287 8.8125 9.6875 7.97131 9.6875 6.9375C9.6875 5.90368 10.5287 5.0625 11.5625 5.0625C12.5963 5.0625 13.4375 5.90368 13.4375 6.9375C13.4375 7.97131 12.5963 8.8125 11.5625 8.8125ZM11.5625 6.1875C11.1489 6.1875 10.8125 6.52386 10.8125 6.9375C10.8125 7.35114 11.1489 7.6875 11.5625 7.6875C11.9761 7.6875 12.3125 7.35114 12.3125 6.9375C12.3125 6.52386 11.9761 6.1875 11.5625 6.1875Z" fill="black"/>
<path d="M14.3228 10.125C14.1593 10.125 13.9971 10.0541 13.8859 9.91736C13.3152 9.21515 12.4683 8.8125 11.5625 8.8125C10.6567 8.8125 9.80981 9.21515 9.23908 9.91736C9.04334 10.1585 8.68939 10.1951 8.4477 9.99902C8.20673 9.8031 8.17011 9.44879 8.36603 9.20764C9.15137 8.24158 10.3165 7.6875 11.5625 7.6875C12.8085 7.6875 13.9736 8.24158 14.759 9.20764C14.9549 9.44879 14.9183 9.8031 14.6773 9.99902C14.5729 10.0838 14.4475 10.125 14.3228 10.125Z" fill="black"/>
<path d="M14.5625 17.0625H4.8125C4.50177 17.0625 4.25 16.8107 4.25 16.5V12.75C4.25 12.4393 4.50177 12.1875 4.8125 12.1875H14.5625C14.8732 12.1875 15.125 12.4393 15.125 12.75C15.125 13.0607 14.8732 13.3125 14.5625 13.3125H5.375V15.9375H14.5625C14.8732 15.9375 15.125 16.1893 15.125 16.5C15.125 16.8107 14.8732 17.0625 14.5625 17.0625Z" fill="black"/>
<path d="M11.4954 15.2017C11.8139 15.2017 12.0721 14.9435 12.0721 14.625C12.0721 14.3065 11.8139 14.0482 11.4954 14.0482C11.1768 14.0482 10.9186 14.3065 10.9186 14.625C10.9186 14.9435 11.1768 15.2017 11.4954 15.2017Z" fill="black"/>
<path d="M9.37963 15.2017C9.69816 15.2017 9.95637 14.9435 9.95637 14.625C9.95637 14.3065 9.69816 14.0482 9.37963 14.0482C9.0611 14.0482 8.80288 14.3065 8.80288 14.625C8.80288 14.9435 9.0611 15.2017 9.37963 15.2017Z" fill="black"/>
<path d="M7.26425 15.2017C7.58278 15.2017 7.841 14.9435 7.841 14.625C7.841 14.3065 7.58278 14.0482 7.26425 14.0482C6.94572 14.0482 6.6875 14.3065 6.6875 14.625C6.6875 14.9435 6.94572 15.2017 7.26425 15.2017Z" fill="black"/>
<path d="M13.6108 15.2017C13.9293 15.2017 14.1875 14.9435 14.1875 14.625C14.1875 14.3065 13.9293 14.0482 13.6108 14.0482C13.2922 14.0482 13.034 14.3065 13.034 14.625C13.034 14.9435 13.2922 15.2017 13.6108 15.2017Z" fill="black"/>
<path d="M21.6875 22.6875H15.6875C14.757 22.6875 14 21.9305 14 21V16.5C14 15.5695 14.757 14.8125 15.6875 14.8125H21.6875C22.618 14.8125 23.375 15.5695 23.375 16.5V21C23.375 21.9305 22.618 22.6875 21.6875 22.6875ZM15.6875 15.9375C15.3773 15.9375 15.125 16.1898 15.125 16.5V21C15.125 21.3102 15.3773 21.5625 15.6875 21.5625H21.6875C21.9977 21.5625 22.25 21.3102 22.25 21V16.5C22.25 16.1898 21.9977 15.9375 21.6875 15.9375H15.6875Z" fill="black"/>
<path d="M21.125 15.9375C20.8143 15.9375 20.5625 15.6857 20.5625 15.375V14.0625C20.5625 13.0287 19.7213 12.1875 18.6875 12.1875C18.1878 12.1875 17.7159 12.3827 17.3585 12.737C17.0077 13.0909 16.8125 13.5628 16.8125 14.0625V15.375C16.8125 15.6857 16.5607 15.9375 16.25 15.9375C15.9393 15.9375 15.6875 15.6857 15.6875 15.375V14.0625C15.6875 13.2642 15.9984 12.511 16.5629 11.9414C17.136 11.3734 17.8892 11.0625 18.6875 11.0625C20.3417 11.0625 21.6875 12.4083 21.6875 14.0625V15.375C21.6875 15.6857 21.4357 15.9375 21.125 15.9375Z" fill="black"/>
<path d="M18.6875 19.2817C19.3521 19.2817 19.8909 18.743 19.8909 18.0784C19.8909 17.4138 19.3521 16.875 18.6875 16.875C18.0229 16.875 17.4841 17.4138 17.4841 18.0784C17.4841 18.743 18.0229 19.2817 18.6875 19.2817Z" fill="black"/>
<path d="M18.6875 20.7506C18.3768 20.7506 18.125 20.4988 18.125 20.1881V18.75C18.125 18.4393 18.3768 18.1875 18.6875 18.1875C18.9982 18.1875 19.25 18.4393 19.25 18.75V20.1881C19.25 20.4988 18.9982 20.7506 18.6875 20.7506Z" fill="black"/>
</svg>
