<?xml version="1.0" encoding="UTF-8"?>
<svg id="LAND_LEGEND_TITLE" data-name="LAND LEGEND &amp;amp; TITLE" xmlns="http://www.w3.org/2000/svg" viewBox="0 0 729.25 430.06">
  <defs>
    <style>
      .cls-1 {
        fill: #71c0ec;
      }

      .cls-1, .cls-2, .cls-3 {
        fill-rule: evenodd;
      }

      .cls-2 {
        fill: #0061af;
      }

      .cls-3 {
        fill: #0087ca;
      }
    </style>
  </defs>
  <g>
    <path class="cls-2" d="M248.93,272.53v130.97s.06,2.68,.06,2.68l23.32-.03c.59-7.61,.02-36.74,.24-47.35,15.03,9.48,85.38,7.78,67.82-67.31-4.48-10.44-5.95-11.81-12.22-18.07-6.67-7.42-18.75-11.55-33.59-12.12-14.31-.55-31.25,2.18-45.63,11.24h0Zm23.61,14.5c33.82-10.01,46.4,5.92,46.76,24.21,.39,19.83-16.31,39.17-46.83,26.89l.07-51.09Z"/>
    <path class="cls-2" d="M88.92,268.43c-.63,.72-.18,82.9-.22,90.98l21.82-.02c.37-24.44,.59-49.17,.62-73.63,8.6-5.83,36.46-5.25,36.4,9.68l.55,5.7,.59,58.31,.31,.13,18.8,.23,2.3-.52c2.66-3.16-1.03-59.72,.06-73.18,24.94-6.18,38.12-5.53,37.36,16.2l.23,57.19,22.99,.25,.07-67.3c-.78-39.35-39.19-33.97-66.82-23.81-2.47,.91-3.3-.35-4.75-1.37-12.54-9.48-64.24-5.81-70.32,1.15Z"/>
    <polygon class="cls-2" points="45.37 359.66 68.99 359.41 68.95 217.72 45.52 217.49 45.37 359.66"/>
    <polygon class="cls-2" points="668.71 217.58 668.5 359.33 692.07 359.76 691.96 217.48 668.71 217.58"/>
    <path class="cls-2" d="M462.47,268.11c-.01,30.44-.33,61.21-.24,91.67l21.97-.11c.16-13.15-.63-73.11,.25-74.83,5.83-3.73,28.04-3.19,34.76-1.2-.06-6.44-.07-13.58-.13-20.02-13.66-3.44-38-3.67-56.6,4.48Z"/>
    <polygon class="cls-2" points="530.69 359.69 553.02 359.76 553.14 264.6 530.71 264.5 530.69 359.69"/>
    <path class="cls-2" d="M378.22,303.28l45.91,.03c1.24-33.5-46.67-28.96-45.91-.03h0Zm62.33,32.23l.47,19.5c-31,15.27-77.31,11.72-85.93-29-.83-3.92-.74-8.45-.79-12.66-.36-32.9,19.58-48.78,41.02-51.83,29.83-4.24,57.27,13.95,51.95,56.82l-14.97-.11-53.82,.17c-.43,.3-.45,2.34-.45,2.81,4.83,34.37,59.04,20.02,62.53,14.29Z"/>
    <path class="cls-2" d="M626.88,342.53l.53-24.17c-13.66-1.26-24.38-2.18-30.92,3.69-9.84,8.82-6.99,27.65,30.39,20.48h0Zm-50.03-74.05c27.93-12.44,74.03-10.99,73.91,25.98l-.2,61.63c-39.2,11.78-79.26,9.67-81.4-20.12-1.46-20.26,10.77-38.9,57.76-33.47,.6-1.79,.52-6.84,.2-8.81-3.91-24.45-45.86-6.14-50.5-7.35l.23-17.85Z"/>
  </g>
  <path class="cls-2" d="M627.39,122.95c-13.9-11.49-29.18-22.74-45.25-32.26,12.12,14.66,23.08,29.69,32.95,44.66-8.09,8.05-15.73,15.41-23.08,22.27,14.44,2.42,28.79,5.76,42.54,9.54,7.58,13.38,14.26,26.47,20.02,38.93,.71-10.81,.64-21.83-.19-33.08,14.33,4.51,27.65,9.26,39.24,13.63-1.6-1.65-3.39-3.5-5.39-5.58-8.87-9.24-20.62-24.43-37.75-37.53-2.14-11.51-5.04-23.49-8.69-35.44-4.98,5.19-9.77,10.14-14.4,14.87Z"/>
  <path class="cls-1" d="M501.65,56.84c11.66-4.04,23.32-7.11,34.96-9.21-2.06,5.89-4.11,12.21-6.12,18.86,17.48,6.51,34.41,14.17,50.5,23.56,.36,.21,.72,.42,1.09,.54-20.29-3.12-38.98-5.19-56.67-6.33-2.74,10.14-5.36,20.86-7.79,31.95-9.46-11.69-19.32-22.63-29.52-32.95-16.04,.21-31.55,1.28-47.07,3.18,10.68-6.73,21.35-12.66,32-17.78-10.5-9.74-21.28-18.93-32.29-27.66,20.54,4.8,40.97,9.81,60.91,15.83Z"/>
  <path class="cls-3" d="M510.52,153.3c2.08-12.65,4.48-25.08,7.1-37.07,9.34,11.51,18.28,23.76,26.76,36.83,13.36,.41,26.73,1.47,40.1,3.39,2.51,.36,5.03,.76,7.53,1.17-10.23,9.5-19.93,18.01-29.58,25.95,7.79,14.47,15.05,29.86,21.71,46.29-14.96-11.18-29.12-21.01-42.83-29.74-12.07,9.01-24.6,17.63-38.49,26.66,.58-15.43,1.93-31.21,3.87-46.92-16.31-8.67-32.39-15.98-48.9-22.39,17.57-1.9,35.14-3.45,52.72-4.18Z"/>
</svg>