<svg width="25" height="24" viewBox="0 0 25 24" fill="none" xmlns="http://www.w3.org/2000/svg">
<path d="M21.809 15.9322C21.4617 15.4065 20.903 15.0615 20.2775 14.9842L17.7605 14.676V12.2002C17.7605 11.1487 16.9047 10.293 15.854 10.293C14.8032 10.293 13.9475 11.1487 13.9475 12.2002V15.8385L13.2515 15.408C12.4332 14.9002 11.3727 15.0938 10.7832 15.8558C10.2365 16.5645 10.268 17.5665 10.8597 18.2385L13.991 21.7942C14.3442 22.1947 14.8535 22.425 15.3875 22.425H19.3235C20.1485 22.425 20.8835 21.8715 21.1122 21.0787L22.0812 17.712C22.2552 17.106 22.1562 16.4572 21.809 15.9322ZM20.7837 17.3377L19.8147 20.7045C19.7517 20.9227 19.55 21.075 19.3235 21.075H15.3875C15.2405 21.075 15.101 21.012 15.0035 20.9017L11.8722 17.3467C11.7065 17.1592 11.6982 16.8787 11.8512 16.6815C11.954 16.5487 12.1077 16.4775 12.2645 16.4775C12.3582 16.4775 12.4542 16.503 12.5397 16.5562L14.2655 17.625C14.474 17.754 14.7357 17.7607 14.9495 17.6407C15.1632 17.5215 15.296 17.2965 15.296 17.0512V12.201C15.296 11.8935 15.5457 11.6437 15.8532 11.6437C16.1607 11.6437 16.4105 11.8935 16.4105 12.201V15.2737C16.4105 15.615 16.6647 15.9022 17.0037 15.9443L20.1132 16.3252C20.3487 16.3537 20.5512 16.479 20.6825 16.6777C20.8137 16.875 20.8497 17.1097 20.7837 17.3377Z" fill="black"/>
<path d="M10.3962 12.84C10.3962 13.2128 10.6985 13.515 11.0712 13.515C11.444 13.515 11.7462 13.2128 11.7462 12.84V12.489C13.1577 12.087 13.3647 11.1495 13.3767 10.6973C13.4007 9.756 12.6747 9.11025 11.219 8.77875C10.2087 8.54925 10.115 8.3025 10.1217 8.20725C10.1585 7.66275 11.2535 7.56375 11.7612 7.578C11.7612 7.95075 12.0635 8.253 12.4362 8.253C12.809 8.253 13.1112 7.95075 13.1112 7.578C13.1112 7.20525 12.9575 6.843 12.689 6.58425C12.4325 6.33675 12.1085 6.1995 11.7462 6.2025V6.03225C11.7462 5.6595 11.444 5.35725 11.0712 5.35725C10.6985 5.35725 10.3962 5.6595 10.3962 6.03225V6.3855C9.09575 6.75525 8.81075 7.581 8.77475 8.115C8.708 9.09 9.43025 9.756 10.9197 10.0943C12.0042 10.341 12.0282 10.629 12.0275 10.6613C12.0125 11.2388 10.6835 11.316 10.388 11.316H10.3872C10.3782 11.3078 10.3782 11.3003 10.3782 11.2958C10.3782 10.923 10.076 10.6215 9.70325 10.6215C9.3305 10.6215 9.02825 10.9238 9.02825 11.2965C9.02825 11.673 9.1775 12.0255 9.449 12.2873C9.7025 12.5325 10.0452 12.6698 10.397 12.6743V12.84H10.3962Z" fill="black"/>
<path d="M8.45225 15.3945C6.0875 14.3587 4.559 12.0195 4.559 9.435C4.559 5.8455 7.4825 2.925 11.0765 2.925C14.4305 2.925 17.2145 5.4375 17.5527 8.76825C17.5903 9.13875 17.9202 9.4065 18.2922 9.372C18.6635 9.3345 18.9335 9.003 18.896 8.6325C18.4873 4.60875 15.1257 1.575 11.0765 1.575C6.7385 1.575 3.209 5.10075 3.209 9.435C3.209 12.5557 5.054 15.3802 7.91075 16.6305C7.9985 16.6695 8.09075 16.6875 8.18075 16.6875C8.441 16.6875 8.6885 16.536 8.7995 16.2825C8.9495 15.942 8.79425 15.5437 8.45225 15.3945Z" fill="black"/>
</svg>
