<svg width="360" height="800" viewBox="0 0 360 800" fill="none" xmlns="http://www.w3.org/2000/svg">
<g clip-path="url(#clip0_94_917)">
<rect width="360" height="800" fill="url(#paint0_linear_94_917)"/>
<path opacity="0.05" d="M176.333 152.541V436L460 -20H-243V152.541H176.333Z" fill="white"/>
<path opacity="0.05" d="M266.982 659.514L266.982 432L38.9999 798L604 798L604 659.514L266.982 659.514Z" fill="white"/>
<path d="M115.804 354.082V363.744L125.466 348.201H101.521V354.082H115.804Z" fill="white"/>
<path d="M108.662 373.826L108.662 364.164L99 379.707L122.945 379.707L122.945 373.826L108.662 373.826Z" fill="white"/>
<path d="M136.414 380.394C134.392 380.394 132.646 379.974 131.176 379.134C129.715 378.285 128.59 377.086 127.802 375.537C127.015 373.979 126.621 372.145 126.621 370.036C126.621 367.962 127.015 366.141 127.802 364.575C128.599 363 129.71 361.774 131.137 360.899C132.563 360.015 134.239 359.573 136.165 359.573C137.407 359.573 138.58 359.774 139.683 360.177C140.794 360.571 141.775 361.184 142.624 362.015C143.481 362.846 144.155 363.905 144.645 365.192C145.135 366.47 145.38 367.992 145.38 369.76V371.218H128.853V368.014H140.825C140.816 367.104 140.619 366.295 140.234 365.586C139.849 364.868 139.311 364.304 138.62 363.892C137.937 363.481 137.141 363.275 136.23 363.275C135.259 363.275 134.406 363.512 133.67 363.984C132.935 364.448 132.362 365.061 131.951 365.822C131.548 366.575 131.342 367.402 131.334 368.303V371.099C131.334 372.272 131.548 373.279 131.977 374.119C132.406 374.95 133.005 375.589 133.775 376.035C134.546 376.473 135.447 376.692 136.48 376.692C137.171 376.692 137.797 376.596 138.357 376.403C138.917 376.202 139.403 375.909 139.814 375.523C140.226 375.138 140.536 374.661 140.746 374.093L145.184 374.591C144.903 375.764 144.37 376.788 143.582 377.663C142.803 378.53 141.805 379.204 140.589 379.685C139.372 380.158 137.981 380.394 136.414 380.394ZM149.401 380V359.836H154.009V363.196H154.219C154.586 362.032 155.216 361.135 156.109 360.505C157.011 359.866 158.039 359.547 159.194 359.547C159.457 359.547 159.75 359.56 160.074 359.586C160.406 359.604 160.682 359.634 160.901 359.678V364.05C160.699 363.98 160.38 363.918 159.942 363.866C159.514 363.805 159.098 363.774 158.695 363.774C157.829 363.774 157.05 363.962 156.359 364.339C155.676 364.706 155.138 365.218 154.744 365.875C154.35 366.531 154.153 367.288 154.153 368.146V380H149.401ZM172.023 380.394C170.054 380.394 168.347 379.961 166.903 379.094C165.459 378.228 164.339 377.016 163.543 375.458C162.755 373.9 162.361 372.08 162.361 369.997C162.361 367.914 162.755 366.089 163.543 364.522C164.339 362.956 165.459 361.739 166.903 360.873C168.347 360.006 170.054 359.573 172.023 359.573C173.992 359.573 175.699 360.006 177.143 360.873C178.587 361.739 179.703 362.956 180.491 364.522C181.287 366.089 181.685 367.914 181.685 369.997C181.685 372.08 181.287 373.9 180.491 375.458C179.703 377.016 178.587 378.228 177.143 379.094C175.699 379.961 173.992 380.394 172.023 380.394ZM172.049 376.587C173.117 376.587 174.01 376.294 174.728 375.707C175.445 375.112 175.979 374.316 176.329 373.318C176.688 372.32 176.867 371.209 176.867 369.984C176.867 368.749 176.688 367.634 176.329 366.636C175.979 365.629 175.445 364.829 174.728 364.234C174.01 363.638 173.117 363.341 172.049 363.341C170.956 363.341 170.045 363.638 169.319 364.234C168.601 364.829 168.063 365.629 167.704 366.636C167.354 367.634 167.179 368.749 167.179 369.984C167.179 371.209 167.354 372.32 167.704 373.318C168.063 374.316 168.601 375.112 169.319 375.707C170.045 376.294 170.956 376.587 172.049 376.587Z" fill="white"/>
<path d="M241.243 380.128H236.044L245.509 353.242H251.522L261 380.128H255.801L248.621 358.756H248.41L241.243 380.128ZM241.413 369.586H255.591V373.498H241.413V369.586Z" fill="white"/>
<path d="M215.453 357.325V353.242H236.904V357.325H228.594V380.128H223.763V357.325H215.453Z" fill="white"/>
<path d="M194.974 380.128V353.242H213.878V357.325H199.844V364.624H216.897V368.706H199.844V380.128H194.974Z" fill="white"/>
<path d="M189.7 353.242V380.128H184.829V353.242H189.7Z" fill="white"/>
</g>
<defs>
<linearGradient id="paint0_linear_94_917" x1="180" y1="0" x2="180" y2="800" gradientUnits="userSpaceOnUse">
<stop stop-color="#134AB4"/>
<stop offset="1" stop-color="#092E75"/>
</linearGradient>
<clipPath id="clip0_94_917">
<rect width="360" height="800" fill="white"/>
</clipPath>
</defs>
</svg>
