<svg width="71" height="71" viewBox="0 0 71 71" fill="none" xmlns="http://www.w3.org/2000/svg">
<rect width="71" height="71" rx="10" fill="white"/>
<path fill-rule="evenodd" clip-rule="evenodd" d="M35.2464 58.8797C33.4509 58.8797 32.5279 57.7088 32.5279 57.7088C31.052 57.6447 19.5181 57.6768 19.5181 57.6768L18.3954 48.1985C18.3954 48.1985 11.2914 43.1919 10.7142 42.6139C7.30427 27.1438 19.6296 12.3968 35.2468 12.3968C50.8644 12.3968 63.1898 27.1442 59.7798 42.6139C59.2023 43.1915 52.0986 48.1985 52.0986 48.1985L50.9752 57.6768C50.9752 57.6768 39.442 57.6447 37.9662 57.7088C37.9662 57.7088 37.0431 58.8797 35.2464 58.8797Z" fill="#ED1C24"/>
<path fill-rule="evenodd" clip-rule="evenodd" d="M35.2632 44.4654L34.1733 17.1062C32.8592 16.8379 29.506 17.1598 27.7093 18.501L32.9391 44.5727L25.805 19.5734C24.0944 19.5526 20.6431 22.4444 20.3864 23.3019L30.7939 45.4842L19.0989 25.2062C17.9458 25.6355 15.4245 30.2758 15.8268 30.8151L28.8625 46.772L15.4512 33.1461C15.4512 33.1461 13.7078 35.8017 14.8447 40.2996L22.4201 45.7699L23.3686 53.2438H32.6562C32.6562 53.2438 34.1757 54.6845 35.2539 54.6845C36.3317 54.6845 37.8512 53.2441 37.8512 53.2441H47.1392L48.0877 45.7702L55.6627 40.2996C56.8 35.8017 55.0566 33.1461 55.0566 33.1461L41.6453 46.772L54.681 30.8155C55.0833 30.2762 52.5616 25.6359 51.4085 25.2066L39.7139 45.485L50.121 23.3026C49.8647 22.4456 46.413 19.5533 44.7028 19.5742L37.5679 44.5727L42.7988 18.501C41.0018 17.1598 37.6489 16.8379 36.3344 17.1062L35.2632 44.4654Z" fill="#FFD500"/>
</svg>
