<?xml version="1.0" encoding="utf-8"?>
<!-- Generator: Adobe Illustrator 27.0.1, SVG Export Plug-In . SVG Version: 6.00 Build 0)  -->
<svg version="1.1" id="layer" xmlns="http://www.w3.org/2000/svg" xmlns:xlink="http://www.w3.org/1999/xlink" x="0px" y="0px"
	 viewBox="0 0 667 184" style="enable-background:new 0 0 667 184;" xml:space="preserve">
<style type="text/css">
	.st0{fill-rule:evenodd;clip-rule:evenodd;fill:#DE1A32;}
	.st1{fill:#DE1A32;}
</style>
<g>
	<polygon class="st0" points="115,132.1 125.8,102.3 117.6,102.3 106.8,132.1 79.4,132.1 105.1,61.3 132.5,61.3 123.3,86.6 
		131.5,86.6 140.7,61.3 168.1,61.3 142.4,132.1 	"/>
	<polygon class="st0" points="326.9,132.1 324.4,99.8 312.7,132.1 289.8,132.1 315.5,61.3 338.4,61.3 342.2,93.2 362.6,35.1 
		385.6,35.1 350.9,132.1 	"/>
	<polygon class="st0" points="371.6,132.1 392.2,75.4 376,75.4 381.1,61.3 441,61.3 435.8,75.4 419.6,75.4 399,132.1 	"/>
	<polygon class="st0" points="522.5,132.1 519.9,99.8 508.2,132.1 485.3,132.1 511,61.3 534,61.3 537.7,93.2 549.3,61.3 572.2,61.3 
		546.5,132.1 	"/>
	<polygon class="st0" points="73.8,148.4 76.7,140.8 245,140.8 242.1,148.4 	"/>
	<polygon class="st0" points="284,148.4 286.9,140.8 599.2,140.8 596.3,148.4 	"/>
	<polygon class="st0" points="33.5,147.3 64.3,61.3 33.6,61.3 39.9,43.2 111.6,43.2 105,61.3 92.8,61.3 62.3,147.3 	"/>
	<g>
		<path class="st0" d="M250.3,147.8l14.5-41.3c2-5.4,0.8-6.5-6.1-6.4L247.2,132h-27.5l25.7-70.7h26.1c24.8-0.2,33.7,2.2,28.3,18.6
			c-5,15-12.5,14.2-20.6,15.2c0,0,14,1,11.1,10.2l-14.7,42.4L250.3,147.8L250.3,147.8z M268.5,73.3l-5.8,15.8
			c8-0.1,8.2-0.5,11.1-7.4C275.9,76.8,277.7,73.2,268.5,73.3"/>
		<path class="st0" d="M437.1,76.1c9.2-15.4,31.3-17.2,43.5-16.1c13.7,1.2,20.9,8.3,18.8,16.1c-1.6,5.8-13.8,38.5-13.8,38.5
			c-8.2,21.1-42.3,21.4-55.2,16.3c-11.8-4.7-8.9-14.3-4.9-24.6C433.9,83.6,437.1,76.1,437.1,76.1 M463.5,77.4L450,114.6
			c-1.5,4.2-2.5,7.4,1.9,7c1.3-0.1,4,0.9,6.8-7.2l13.4-36.9c1.7-5.3,0.6-5.7-2.2-5.8C467.1,71.8,465.4,72.9,463.5,77.4"/>
		<path class="st0" d="M170.2,76.1c9.2-15.4,31.3-17.2,43.5-16.1c13.7,1.2,20.9,8.3,18.8,16.1c-1.6,5.8-13.8,38.5-13.8,38.5
			c-8.2,21.1-42.3,21.4-55.2,16.3c-11.8-4.7-8.9-14.3-4.9-24.6C167,83.6,170.2,76.1,170.2,76.1 M196.6,77.4l-13.5,37.1
			c-1.5,4.2-2.5,7.4,1.9,7c1.3-0.1,4,0.9,6.8-7.2l13.4-36.9c1.7-5.3,0.6-5.7-2.2-5.8C200.2,71.8,198.5,72.9,196.6,77.4"/>
		<path class="st0" d="M587.6,106.7h-25.5c0,0-4.3,11-3.9,14.8c0.4,4.1,1.3,11,23.4,12.1c12.9,0.6,32.1-3.6,36.6-12.9
			c2.4-4.9,9.2-17.3,2-23.8c-4.1-3.6-12-7.7-19.7-11.3c-6.3-2.9-2.6-8.3-1.8-10.4c0.8-2.2,4.7-4.1,8.3-2.9c2.5,0.9-1.9,10-2.1,10.4
			h25.4c3.6-10.4,7.2-17.2-6.5-21.1c-6.6-1.9-29.6-4.6-44.3,5.4c-6,4-11.8,17.3-9.2,23.4c2.8,6.7,8.4,6.7,24.4,17
			c1.7,1.1,1,4.6,0.8,5.5s-1.4,7.6-6.7,8.7c-2.1,0.4-6.5,0.4-5.1-3.6C585,113.8,587.6,106.7,587.6,106.7"/>
		<path class="st1" d="M608,144.7c0,2.4-1.9,4.3-4.4,4.3s-4.4-1.9-4.4-4.3s2-4.3,4.4-4.3C606,140.3,608,142.3,608,144.7
			 M600.2,144.7c0,1.9,1.4,3.4,3.4,3.4c1.9,0,3.3-1.5,3.3-3.4s-1.4-3.5-3.3-3.5S600.2,142.8,600.2,144.7 M602.9,146.9h-1v-4.3
			c0.4-0.1,0.9-0.1,1.6-0.1c0.8,0,1.2,0.1,1.5,0.3c0.2,0.2,0.4,0.5,0.4,0.9c0,0.5-0.4,0.8-0.9,1l0,0c0.4,0.2,0.7,0.5,0.8,1.1
			c0.1,0.7,0.2,0.9,0.3,1.1h-1.1c-0.1-0.2-0.2-0.6-0.3-1.1s-0.3-0.7-0.9-0.7h-0.5v1.8H602.9z M602.9,144.4h0.5c0.6,0,1-0.2,1-0.6
			s-0.3-0.7-0.9-0.7c-0.3,0-0.4,0-0.6,0.1V144.4z"/>
	</g>
</g>
</svg>
