<?xml version="1.0" encoding="UTF-8"?>
<!-- Generator: Adobe Illustrator 28.0.0, SVG Export Plug-In . SVG Version: 6.00 Build 0)  -->
<svg xmlns="http://www.w3.org/2000/svg" xmlns:xlink="http://www.w3.org/1999/xlink" version="1.1" x="0px" y="0px" viewBox="0 0 136.96 28.98" style="enable-background:new 0 0 136.96 28.98;" xml:space="preserve">
<style type="text/css">
	.st0{fill:#F47F28;}
	.st1{fill:#0072BB;}
	.st2{fill:none;}
</style>
<g id="Layer_1">
	<g>
		<g>
			<path class="st0" d="M2.85,9.77c0-3.13,4.32-6.78,10.67-8.8c0.4-0.13,0.35-0.29,0.1-0.3c-0.26-0.01-1.07,0.22-1.07,0.22     C5.15,2.96,0.26,7.04,0.26,11.41c0,5.18,8.58,11.03,20.41,11.83c-0.45-1.49-0.77-3.19-0.93-5.01     C11.33,17.37,2.85,13.75,2.85,9.77z"></path>
		</g>
		<g>
			<path class="st1" d="M42.82,14.57c0-7.33,0-14.31-9.59-14.31c-9.59,0-9.59,6.98-9.59,14.31c0,1.44,0.03,2.76,0.09,3.97h5.88     c-0.07-1.15-0.09-2.47-0.09-3.97c0-7.1,0.42-10.16,3.7-10.16c3.27,0,3.7,3.07,3.7,10.16c0,6.05-0.42,8.77-3.7,8.77     c-1.17,0-8.78-0.02-8.78-0.02c1.08,3.63,3.51,5.37,8.85,5.37c1.04,0,2.35-0.27,3.35-0.27h8.2v-5l-3.93,0.02     C42.39,22.54,42.82,19.03,42.82,14.57z"></path>
			<path class="st1" d="M85.8,11.6h-0.08V9.11h-5.14v19.31h5.41V17.9c0-1.91,0.08-4.66,4.84-4.36V8.73     C88.64,8.73,86.79,9.38,85.8,11.6z"></path>
			<path class="st1" d="M55.88,26.47v1.95h5.41V9.11h-5.41v13c0,1.72-0.31,2.98-2.03,2.98s-2.03-1.26-2.03-2.98v-13H46.4v15.48     c0,2.68,2.26,4.2,4.84,4.2c2.03,0,3.49-0.61,4.57-2.33H55.88z"></path>
			<path class="st1" d="M73.44,28.42h5.01v-3.59v-9.63c0-3.52-0.88-6.46-7.75-6.46c-2.07,0-3.84,0.34-5.07,1.26     c-1.27,0.88-2,2.37-2,4.7h5.3c0-1.53,0.15-2.94,2.03-2.94c1.96,0,2.19,1.18,2.19,2.83v1.49c-5.03-0.08-9.98,0.19-9.98,6.58     c0,3.36,1.38,6.15,5.14,6.15c2.34,0,3.91-0.57,5.07-2.56h0.06V28.42z M70.46,25.12c-1.77,0-2-1.59-2-2.89     c0-3.25,2-3.03,4.68-3.14C73.15,21.07,73.65,25.12,70.46,25.12z"></path>
			<path class="st1" d="M122.72,13.81c0-1.3,0.65-2.06,1.84-2.06c0.58,0,1.04,0.08,1.38,0.42c0.38,0.34,0.54,1.15,0.54,2.49h5.3     c0.31-4.17-3.03-5.93-6.72-5.93c-3.49,0-7.64,1.26-7.64,5.43c0,6.15,9.52,5.24,9.52,9.33c0,1.3-0.92,1.99-2,1.99     c-1.07,0-1.65-0.31-1.96-0.92c-0.27-0.61-0.31-1.45-0.27-2.33h-5.3c-0.31,5.39,2.84,6.58,7.56,6.58c4.49,0,7.25-2.52,7.25-5.89     C132.24,16.72,122.72,16.87,122.72,13.81z"></path>
			<rect x="92.56" y="0.81" class="st1" width="5.41" height="27.6"></rect>
			<path class="st1" d="M115.44,22.22h-5.47c-0.05,1.52-0.5,3.13-2.3,3.13c-2.38,0-2.46-3.44-2.46-5.73h10.36     c0.19-6.19-0.61-10.9-7.91-10.9c-7.14,0-7.91,4.51-7.91,9.79c0,6.04,0.92,10.28,7.91,10.28c2.53,0,4.45-0.69,5.72-1.87     C114.63,25.8,115.31,24.18,115.44,22.22z M107.67,12.05c2.57,0,2.49,2.68,2.49,4.55h-4.95     C105.22,14.96,105.18,12.05,107.67,12.05z"></path>
		</g>
	</g>
	<g>
		<g>
			<path class="st2" d="M118.2,8.96c0-1.72,0.86-2.73,2.44-2.73c0.76,0,1.37,0.1,1.83,0.56c0.51,0.46,0.71,1.52,0.71,3.29h7.01     c0.41-5.52-4.01-7.85-8.89-7.85c-4.62,0-10.11,1.67-10.11,7.19c0,8.15,12.6,6.93,12.6,12.35c0,1.72-1.22,2.63-2.64,2.63     c-1.42,0-2.18-0.4-2.59-1.21c-0.36-0.81-0.41-1.92-0.36-3.09h-7.01c-0.41,7.14,3.76,8.71,10.01,8.71c5.95,0,9.6-3.34,9.6-7.79     C130.8,12.8,118.2,13.01,118.2,8.96z"></path>
			<path class="st1" d="M134.65,24.33c-1.14,0-2.06,0.91-2.06,2.04c0,1.14,0.92,2.05,2.06,2.05c1.14,0,2.05-0.92,2.05-2.05     C136.7,25.24,135.79,24.33,134.65,24.33z M134.65,28.05c-0.93,0-1.67-0.75-1.67-1.67c0-0.92,0.74-1.66,1.67-1.66     c0.91,0,1.66,0.74,1.66,1.66C136.31,27.29,135.56,28.05,134.65,28.05z M134.98,26.4v-0.01c0.35-0.05,0.48-0.28,0.48-0.58     c0-0.41-0.24-0.63-0.61-0.63h-1v2.38h0.54v-0.98h0.14c0.42,0,0.38,0.24,0.38,0.52c0,0.16,0,0.32,0.07,0.46h0.53     c-0.05-0.1-0.06-0.54-0.06-0.7C135.45,26.43,135.09,26.4,134.98,26.4z M134.64,26.24h-0.24v-0.67h0.24     c0.17,0,0.28,0.09,0.28,0.31C134.92,26.04,134.85,26.24,134.64,26.24z"></path>
		</g>
	</g>
</g>
<g id="Isolation_Mode">
</g>
</svg>
