<svg width="35" height="44" viewBox="0 0 35 44" fill="none" xmlns="http://www.w3.org/2000/svg">
<path d="M21.5 2H5.5C4.43913 2 3.42172 2.42143 2.67157 3.17157C1.92143 3.92172 1.5 4.93913 1.5 6V38C1.5 39.0609 1.92143 40.0783 2.67157 40.8284C3.42172 41.5786 4.43913 42 5.5 42H29.5C30.5609 42 31.5783 41.5786 32.3284 40.8284C33.0786 40.0783 33.5 39.0609 33.5 38V14M21.5 2L33.5 14M21.5 2V14H33.5M25.5 24H9.5M25.5 32H9.5M13.5 16H9.5" stroke="#6F8EA5" stroke-width="3" stroke-linecap="round" stroke-linejoin="round"/>
</svg>
