<?xml version="1.0" standalone="no"?>
<!DOCTYPE svg PUBLIC "-//W3C//DTD SVG 20010904//EN"
 "http://www.w3.org/TR/2001/REC-SVG-20010904/DTD/svg10.dtd">
<svg version="1.0" xmlns="http://www.w3.org/2000/svg"
 width="101.000000pt" height="101.000000pt" viewBox="0 0 101.000000 101.000000"
 preserveAspectRatio="xMidYMid meet">

<g transform="translate(0.000000,101.000000) scale(0.100000,-0.100000)"
fill="#000000" stroke="none">
<path d="M363 965 c-157 -43 -279 -169 -328 -339 -25 -87 -17 -220 19 -308 32
-78 115 -175 191 -223 257 -163 607 -45 717 241 30 79 32 242 4 324 -51 148
-176 267 -321 304 -73 20 -212 20 -282 1z m207 -258 c0 -4 6 -7 13 -5 18 4 93
-68 113 -110 30 -62 29 -119 -3 -182 -80 -157 -290 -160 -376 -6 -45 81 -24
192 48 255 19 16 32 31 30 33 -2 2 4 4 13 5 9 1 32 5 50 10 42 10 112 10 112
0z"/>
</g>
</svg>
