<svg width="25" height="24" viewBox="0 0 25 24" fill="none" xmlns="http://www.w3.org/2000/svg">
<g clip-path="url(#clip0_2848_305)">
<path d="M24.261 4.53885C23.95 4.17126 23.5145 3.94673 23.0347 3.90665L6.13365 2.49543C5.65375 2.45536 5.18715 2.60456 4.81951 2.91548C4.45338 3.22518 4.22917 3.65845 4.18783 4.13596L3.8478 7.32607H2.49007C1.49614 7.32607 0.6875 8.13471 0.6875 9.12864V19.7084C0.6875 20.7023 1.49614 21.511 2.49007 21.511H19.45C20.444 21.511 21.2526 20.7023 21.2526 19.7084V17.9922L21.8544 18.0424C21.9052 18.0466 21.9557 18.0487 22.0057 18.0487C22.9324 18.0487 23.7223 17.3358 23.8008 16.3961L24.6811 5.85303C24.7212 5.37317 24.572 4.90649 24.261 4.53885ZM2.49007 8.26357H19.45C19.927 8.26357 20.3151 8.65164 20.3151 9.12864V10.0927H1.625V9.12864C1.625 8.65164 2.01307 8.26357 2.49007 8.26357ZM1.625 11.0302H20.3151V12.975H1.625V11.0302ZM19.45 20.5735H2.49007C2.01307 20.5735 1.625 20.1854 1.625 19.7084V13.9125H20.3151V19.7084C20.3151 20.1854 19.927 20.5735 19.45 20.5735ZM23.7469 5.77498L22.8665 16.318C22.8268 16.7934 22.4077 17.148 21.9324 17.1081L21.2526 17.0514V9.12864C21.2526 8.13471 20.444 7.32607 19.45 7.32607H4.79064L5.12059 4.23046C5.12097 4.2269 5.12129 4.22338 5.12158 4.21977C5.16128 3.74441 5.58015 3.38985 6.05565 3.4297L22.9567 4.84091C23.187 4.86013 23.3961 4.96789 23.5453 5.14433C23.6945 5.32077 23.7661 5.54469 23.7469 5.77498Z" fill="black"/>
<path d="M18.3534 15.3061H13.842C13.5831 15.3061 13.3733 15.516 13.3733 15.7749V18.7181C13.3733 18.977 13.5831 19.1869 13.842 19.1869H18.3534C18.6123 19.1869 18.8221 18.977 18.8221 18.7181V15.7749C18.8221 15.516 18.6123 15.3061 18.3534 15.3061ZM17.8846 18.2494H14.3108V16.2436H17.8846V18.2494Z" fill="black"/>
</g>
<defs>
<clipPath id="clip0_2848_305">
<rect width="24" height="24" fill="white" transform="translate(0.6875)"/>
</clipPath>
</defs>
</svg>
