<svg width="21" height="20" viewBox="0 0 21 20" fill="none" xmlns="http://www.w3.org/2000/svg">
<path d="M14.8542 6.45834C15.1993 6.45834 15.4792 6.17852 15.4792 5.83334C15.4792 5.48817 15.1993 5.20834 14.8542 5.20834V6.45834ZM6.52083 5.20834C6.17566 5.20834 5.89583 5.48817 5.89583 5.83334C5.89583 6.17852 6.17566 6.45834 6.52083 6.45834V5.20834ZM14.8542 5.20834H6.52083V6.45834H14.8542V5.20834Z" fill="black"/>
<path d="M14.8542 9.79167C15.1993 9.79167 15.4792 9.51184 15.4792 9.16667C15.4792 8.82151 15.1993 8.54167 14.8542 8.54167V9.79167ZM6.52083 8.54167C6.17566 8.54167 5.89583 8.82151 5.89583 9.16667C5.89583 9.51184 6.17566 9.79167 6.52083 9.79167V8.54167ZM14.8542 8.54167H6.52083V9.79167H14.8542V8.54167Z" fill="black"/>
<path d="M10.6875 13.125C11.0327 13.125 11.3125 12.8452 11.3125 12.5C11.3125 12.1548 11.0327 11.875 10.6875 11.875V13.125ZM6.52083 11.875C6.17566 11.875 5.89583 12.1548 5.89583 12.5C5.89583 12.8452 6.17566 13.125 6.52083 13.125V11.875ZM10.6875 11.875H6.52083V13.125H10.6875V11.875Z" fill="black"/>
<path d="M4.85417 2.29167H16.5208V1.04167H4.85417V2.29167ZM17.5625 3.33334V15.9619H18.8125V3.33334H17.5625ZM16.168 16.9421L14.8665 16.4735L14.4432 17.6497L15.7446 18.1182L16.168 16.9421ZM13.1499 16.5399L11.115 17.4556L11.6279 18.5955L13.6628 17.6798L13.1499 16.5399ZM10.26 17.4556L8.22512 16.5399L7.71217 17.6798L9.74708 18.5955L10.26 17.4556ZM6.50847 16.4735L5.207 16.9421L5.6304 18.1182L6.93187 17.6497L6.50847 16.4735ZM3.8125 15.9619V3.33334H2.5625V15.9619H3.8125ZM5.207 16.9421C4.52818 17.1864 3.8125 16.6834 3.8125 15.9619H2.5625C2.5625 17.5492 4.13701 18.6558 5.6304 18.1182L5.207 16.9421ZM8.22512 16.5399C7.68316 16.296 7.06765 16.2723 6.50847 16.4735L6.93187 17.6497C7.18604 17.5581 7.46582 17.5689 7.71217 17.6798L8.22512 16.5399ZM11.115 17.4556C10.8431 17.5779 10.5319 17.5779 10.26 17.4556L9.74708 18.5955C10.3452 18.8647 11.0298 18.8647 11.6279 18.5955L11.115 17.4556ZM14.8665 16.4735C14.3073 16.2723 13.6918 16.296 13.1499 16.5399L13.6628 17.6798C13.9092 17.5689 14.1889 17.5581 14.4432 17.6497L14.8665 16.4735ZM17.5625 15.9619C17.5625 16.6834 16.8468 17.1864 16.168 16.9421L15.7446 18.1182C17.238 18.6558 18.8125 17.5492 18.8125 15.9619H17.5625ZM16.5208 2.29167C17.0962 2.29167 17.5625 2.75804 17.5625 3.33334H18.8125C18.8125 2.06769 17.7865 1.04167 16.5208 1.04167V2.29167ZM4.85417 1.04167C3.58852 1.04167 2.5625 2.06769 2.5625 3.33334H3.8125C3.8125 2.75804 4.27887 2.29167 4.85417 2.29167V1.04167Z" fill="black"/>
</svg>
