<svg width="59px" height="73px" viewBox="0 0 59 73" fill="none" xmlns="http://www.w3.org/2000/svg" transform="rotate(0) scale(1, 1)">
<g filter="url(#filter0_d_21_177)">
<path fill-rule="evenodd" clip-rule="evenodd" d="M29.4275 60.3333C31.7031 60.3333 42.5396 46.7246 45.2116 42.3897C49.319 35.726 51.8549 31.7838 51.8549 24.4275C51.8549 12.0411 41.8138 2 29.4275 2C17.0411 2 7 12.0411 7 24.4275C7 31.8221 9.34978 35.7381 13.4435 42.3897C16.2968 47.0258 27.1519 60.3333 29.4275 60.3333Z" fill="#976565"/>
<path d="M29.4277 1C42.3663 1.00014 52.8545 11.4892 52.8545 24.4277C52.8544 32.1004 50.161 36.265 46.0625 42.9141C44.6877 45.1444 41.2739 49.675 37.9355 53.6318C36.2628 55.6145 34.5869 57.4793 33.1758 58.8555C32.4726 59.5412 31.8139 60.1265 31.2402 60.5469C30.9539 60.7567 30.6678 60.9414 30.3916 61.0771C30.1323 61.2046 29.794 61.3329 29.4277 61.333C29.0664 61.333 28.7312 61.2087 28.4717 61.084C28.1958 60.9514 27.909 60.7711 27.6221 60.5654C27.0472 60.1533 26.3866 59.5785 25.6807 58.9043C24.2644 57.5518 22.5805 55.7162 20.8936 53.752C17.5272 49.8322 14.0598 45.2992 12.5918 42.9141C8.49265 36.2536 6.00006 32.1267 6 24.4277C6 11.4891 16.4891 1 29.4277 1Z" stroke="#ffffff" stroke-width="2"/>
</g>
<defs>
<filter id="filter0_d_21_177" x="0" y="0" width="58.8549" height="72.3333" filterUnits="userSpaceOnUse" color-interpolation-filters="sRGB">
<feFlood flood-opacity="0" result="BackgroundImageFix"/>
<feColorMatrix in="SourceAlpha" type="matrix" values="0 0 0 0 0 0 0 0 0 0 0 0 0 0 0 0 0 0 127 0" result="hardAlpha"/>
<feOffset dy="5"/>
<feGaussianBlur stdDeviation="2.5"/>
<feColorMatrix type="matrix" values="0 0 0 0 0 0 0 0 0 0 0 0 0 0 0 0 0 0 0.2 0"/>
<feBlend mode="normal" in2="BackgroundImageFix" result="effect1_dropShadow_21_177"/>
<feBlend mode="normal" in="SourceGraphic" in2="effect1_dropShadow_21_177" result="shape"/>
</filter>
</defs>
</svg>