<svg width="30" height="31" viewBox="0 0 30 31" fill="none" xmlns="http://www.w3.org/2000/svg">
<path d="M26.5125 20.3625C25.7173 22.2431 24.4735 23.9003 22.8899 25.1891C21.3062 26.478 19.431 27.3593 17.4281 27.756C15.4251 28.1527 13.3555 28.0527 11.4002 27.4647C9.44485 26.8768 7.6633 25.8188 6.21129 24.3833C4.75928 22.9478 3.68103 21.1784 3.07081 19.2299C2.46059 17.2814 2.33697 15.2131 2.71076 13.2058C3.08456 11.1985 3.94439 9.31328 5.21507 7.71504C6.48576 6.11679 8.12862 4.85415 10 4.0375M27.5 15.5C27.5 13.8585 27.1767 12.233 26.5485 10.7165C25.9203 9.19989 24.9996 7.8219 23.8389 6.66117C22.6781 5.50043 21.3001 4.57969 19.7836 3.95151C18.267 3.32332 16.6415 3 15 3V15.5H27.5Z" stroke="#5BA4A0" stroke-width="2" stroke-linecap="round" stroke-linejoin="round"/>
</svg>
