<?xml version="1.0" encoding="UTF-8"?>
<svg id="Layer_1" data-name="Layer 1" xmlns="http://www.w3.org/2000/svg" viewBox="0 0 376 246">
  <defs>
    <style>
      .cls-1 {
        fill: #e32e3d;
      }

      .cls-2 {
        fill: #155289;
      }

      .cls-3 {
        fill: #ffe600;
      }
    </style>
  </defs>
  <path class="cls-3" d="M95.56,163.14H41.2c-4.59,0-8.75-2.14-11.12-5.73-1.34-2.02-2.04-4.43-2.04-6.98,0-2.15,.48-4.38,1.44-6.63,0,0,1.96-4.56,3.28-7.65-4.45-2.02-19.09-8.68-19.09-8.68l28.01-11.97,5.89-13.62c2.25-5.21,8.08-7.94,12.67-7.94l30.88,.03,94.3-40.38,88.68,36.84-.1,3.5,58.9,.02c5.16,0,9.67,2.21,12.06,5.91,1.14,1.77,1.74,3.82,1.74,5.95,0,1.81-.41,3.62-1.22,5.41l-3.82,8.46c4.36,1.83,18.78,7.88,18.78,7.88l-27.45,11.68-7.25,16.04c-2.33,5.17-8.13,7.87-12.65,7.87l-35.97-.02-92.06,39.22-89.49-39.21Z"/>
  <path class="cls-2" d="M313.87,166.78c5.68,0,12.98-3.44,15.95-10.01l6.68-14.76,34-14.5s-22.71-9.54-23.21-9.75c.21-.46,2.29-5.07,2.29-5.07,1.03-2.28,1.54-4.62,1.54-6.9,0-2.81-.78-5.52-2.32-7.91-3.06-4.74-8.71-7.57-15.12-7.57h-50.68l-96.81-40.68-49.1,20.96c-3.48-2.59-25.93-19.33-26.14-19.49,.01-.28,.32-6.45,.32-6.45L64.49,10.01s-2.5,27.02-2.53,27.34c-.3,.12-25.47,10.23-25.47,10.23l46.52,34.49s5.49-1.39,5.75-1.46c.17,.14,7.21,5.4,9.09,6.81l-6.69,2.92-30.13-.02c-5.6,0-13,3.16-16.01,10.12l-5.32,12.3L5.5,127.4s22.82,10.38,23.3,10.59c-.18,.43-1.89,4.39-1.89,4.39-1.16,2.75-1.75,5.47-1.75,8.08,0,3.23,.89,6.28,2.66,8.96,3.05,4.61,8.35,7.36,14.16,7.36h53.1l90.73,39.52,45.98-19.55c4.08,3.02,33.71,24.98,34.11,25.27-.31,.42-7.76,10.48-7.76,10.48l71.8,13.49-33.87-64.66s-7.88,10.63-8.19,11.05c-.38-.28-14.1-10.42-16.79-12.41l7.54-3.22,35.23,.02m-271.88-6.68c-3.57,0-6.78-1.63-8.59-4.37-1.02-1.55-1.54-3.35-1.54-5.3,0-1.72,.4-3.56,1.2-5.44,0,0,4.26-9.91,4.46-10.37-.47-.22-15.53-7.06-15.53-7.06l22.79-9.74,6.37-14.73c1.71-3.96,6.36-6.1,9.88-6.1l31.5,.02,93.69-40.12,81.02,34.02-.09,.52s-66.52,5.1-66.86,5.12c-.04,.11-.09,.21-.16,.41,.79,0,133.56,.02,133.56,.02,4.13,0,7.68,1.69,9.51,4.52,.83,1.29,1.25,2.76,1.25,4.29,0,1.34-.31,2.74-.95,4.14,0,0-4.9,10.83-5.11,11.31,.5,.21,15.02,6.31,15.02,6.31l-21.92,9.33-7.74,17.12c-1.78,3.95-6.42,6.09-9.87,6.09l-36.59-.02-91.42,38.95-76.18-33.17s64.24-5.33,64.57-5.35c.05-.11,.09-.21,.17-.41-.8,0-132.42,0-132.42,0Z"/>
  <path class="cls-2" d="M171.13,103.63l-.06,.53s9.35,2.21,9.92,2.35c-.23,.54-7.64,18.41-8.29,19.97-.29-1.7-3.88-22.85-3.88-22.85h-15.91l-20.97,50.23h16.25s8.73-20.91,9.38-22.46c.31,1.65,4.22,22.46,4.22,22.46h15.21l20.89-50.23h-26.77m-25.13,0h-16.04s-16.28,38.99-16.41,39.32h-7.59c.3-.73,16.42-39.32,16.42-39.32h-16.06l-18.03,43.18c-.8,1.91-.75,3.76,.13,5.09,.84,1.26,2.39,1.96,4.36,1.96h25.3c3.87,0,7.99-2.28,9-4.98,.73-1.95,18.58-44.45,18.76-44.88l.16-.38Zm-62.37,23.9s-15.33-4.84-15.88-5.01c.22-.5,3.03-7.15,3.16-7.45h7.7c-.27,.64-2.12,5.07-2.12,5.07h16l3.99-9.5c.8-2.05,.74-3.89-.14-5.17-.83-1.2-2.33-1.86-4.24-1.86h-24.43c-5.28,0-8.69,1.84-10.41,5.62l-6.2,14.88c-.32,.83-.48,1.64-.48,2.42s.15,1.47,.46,2.12c.53,1.11,1.48,1.92,2.75,2.32,0,0,15.33,4.96,15.86,5.14-.2,.49-2.63,6.58-2.76,6.89h-7.65c.27-.65,2.36-5.67,2.36-5.67h-16.06l-3.93,9.5c-1,2.62-.48,4.23,.13,5.11,.85,1.23,2.44,1.93,4.37,1.93h25.22c3.79,0,7.91-2.17,8.99-4.75l6.16-14.69c.32-.76,.48-1.55,.48-2.31,0-.71-.14-1.4-.43-2.03-.55-1.2-1.58-2.11-2.91-2.55Zm157.88-21.93c-.85-1.29-2.41-1.99-4.39-1.99h-24.18c-3.01,0-8.37,.73-10.41,5.63l-15.65,37.58c-.81,1.93-.76,3.74,.13,5.08,.85,1.27,2.4,1.97,4.37,1.97h25.56c3.28,0,7.45-1.86,8.75-4.97l15.93-38.26c.81-1.91,.77-3.7-.11-5.04Zm-29.36,37.38h-7.65c.31-.73,11.51-27.58,11.66-27.9h7.63c-.31,.72-11.51,27.57-11.64,27.9Zm122.56-37.37c-.85-1.29-2.41-2-4.39-2h-24.18c-3.01,0-8.36,.73-10.41,5.63l-15.63,37.58c-.82,1.94-.77,3.74,.12,5.08,.85,1.27,2.39,1.97,4.37,1.97h25.55c3.28,0,7.45-1.86,8.74-4.97l15.94-38.26c.81-1.91,.77-3.7-.11-5.04Zm-29.35,37.37h-7.65c.3-.73,11.51-27.58,11.65-27.9h7.63c-.3,.72-11.5,27.57-11.64,27.9Zm-46.63,0h-7.65c.3-.73,11.51-27.58,11.64-27.9h7.63c-.27,.64-2.11,5.07-2.11,5.07h15.99l3.95-9.51c.82-1.91,.78-3.7-.1-5.04-.86-1.29-2.41-1.99-4.38-1.99h-24.18c-3.01,0-8.37,.73-10.41,5.63l-15.64,37.58c-.81,1.93-.76,3.74,.12,5.08,.85,1.27,2.4,1.97,4.36,1.97h25.56c3.27,0,7.45-1.86,8.74-4.97l5.59-13.42h-15.99s-3,7.18-3.12,7.5Z"/>
  <path class="cls-2" d="M286.49,168.23c2.13,0,3.83,1.73,3.83,3.89s-1.7,3.91-3.84,3.91-3.86-1.72-3.86-3.91,1.73-3.89,3.86-3.89h.01m-.02,.6c-1.72,0-3.12,1.47-3.12,3.28s1.41,3.32,3.14,3.32c1.73,0,3.11-1.46,3.11-3.3s-1.38-3.3-3.11-3.3h-.01Zm-.73,5.56h-.69v-4.35c.36-.05,.71-.1,1.23-.1,.66,0,1.09,.14,1.34,.33,.27,.19,.41,.48,.41,.9,0,.58-.38,.92-.85,1.05v.03c.38,.07,.64,.42,.73,1.06,.1,.68,.21,.94,.28,1.08h-.72c-.1-.14-.21-.54-.3-1.11-.1-.55-.38-.76-.93-.76h-.49v1.87h0Zm0-2.41h.5c.58,0,1.05-.21,1.05-.74,0-.38-.27-.76-1.05-.76-.22,0-.38,.02-.5,.03v1.47"/>
  <path class="cls-1" d="M89.95,74.19c-.24,.06-5.74,1.46-5.74,1.46l-35.79-26.54s18.75-7.53,19.05-7.65c.03-.32,1.9-20.52,1.9-20.52l35.85,26.57s-.31,6.18-.31,6.45c.2,.16,22.44,16.71,25.92,19.31l-26.38,11.26-.43,.19c-2.43-1.82-13.9-10.39-14.08-10.53Z"/>
  <path class="cls-1" d="M289.1,190.6c.31-.41,6.12-8.25,6.12-8.25l23.9,45.63-50.66-9.53s5.37-7.24,5.67-7.65c-.4-.3-31.89-23.62-36.08-26.72l26.82-11.45c3.34,2.47,23.85,17.67,24.24,17.96Z"/>
</svg>