<svg width="25" height="24" viewBox="0 0 25 24" fill="none" xmlns="http://www.w3.org/2000/svg">
<path d="M21.7124 2.81104C21.2483 2.352 20.6952 1.99285 20.087 1.75572C19.4789 1.5186 18.8286 1.40851 18.1763 1.43226C16.9217 1.47811 15.7322 2.00181 14.8512 2.89613C13.9703 3.79045 13.4645 4.98773 13.4375 6.2428C13.4199 7.30683 13.757 8.34645 14.3955 9.19776C14.4856 9.33216 16.6711 12.3717 17.342 13.3019C17.4504 13.4487 17.5915 13.5681 17.7542 13.6506C17.9168 13.7332 18.0966 13.7766 18.279 13.7774C18.4614 13.7782 18.6415 13.7363 18.8049 13.6552C18.9682 13.574 19.1104 13.4558 19.22 13.3099C19.22 13.3099 22.1116 9.35889 22.1987 9.24756C22.8365 8.39877 23.1833 7.36677 23.1875 6.30506C23.1897 5.65332 23.0602 5.00785 22.8067 4.40742C22.5533 3.80699 22.181 3.26399 21.7124 2.81104ZM18.3125 8.25C17.9417 8.25 17.5791 8.14004 17.2708 7.93401C16.9625 7.72798 16.7221 7.43515 16.5802 7.09254C16.4383 6.74992 16.4012 6.37292 16.4735 6.00921C16.5459 5.6455 16.7245 5.3114 16.9867 5.04918C17.2489 4.78696 17.583 4.60838 17.9467 4.53603C18.3104 4.46368 18.6874 4.50082 19.03 4.64273C19.3726 4.78464 19.6655 5.02497 19.8715 5.33331C20.0775 5.64165 20.1875 6.00416 20.1875 6.375C20.187 6.87213 19.9893 7.34874 19.6378 7.70025C19.2862 8.05177 18.8096 8.24948 18.3125 8.25ZM5.9375 20.625C5.9375 20.9958 5.82753 21.3584 5.62151 21.6667C5.41548 21.975 5.12264 22.2154 4.78003 22.3573C4.43742 22.4992 4.06042 22.5363 3.69671 22.464C3.33299 22.3916 2.9989 22.2131 2.73668 21.9508C2.47445 21.6886 2.29588 21.3545 2.22353 20.9908C2.15118 20.6271 2.18831 20.2501 2.33023 19.9075C2.47214 19.5649 2.71246 19.272 3.02081 19.066C3.32915 18.86 3.69166 18.75 4.0625 18.75C4.5596 18.7506 5.03618 18.9483 5.38768 19.2998C5.73919 19.6513 5.93692 20.1279 5.9375 20.625ZM14.1875 18.75C14.1869 19.3465 13.9496 19.9185 13.5278 20.3403C13.106 20.7621 12.534 20.9994 11.9375 21H7.3996C7.4738 20.4938 7.41543 19.9769 7.23018 19.5H11.9375C12.1364 19.5 12.3272 19.421 12.4678 19.2803C12.6085 19.1397 12.6875 18.9489 12.6875 18.75C12.6875 18.5511 12.6085 18.3603 12.4678 18.2197C12.3272 18.079 12.1364 18 11.9375 18H8.9375C8.34096 17.9994 7.76905 17.7621 7.34723 17.3403C6.92541 16.9185 6.68815 16.3465 6.6875 15.75V15C6.68815 14.4035 6.92541 13.8315 7.34723 13.4097C7.76905 12.9879 8.34096 12.7507 8.9375 12.75H15.0965C15.5753 13.4009 15.9092 13.91 16.1906 14.25H8.9375C8.73867 14.2503 8.54805 14.3294 8.40746 14.47C8.26686 14.6106 8.18776 14.8012 8.1875 15V15.75C8.18776 15.9488 8.26686 16.1395 8.40746 16.28C8.54805 16.4206 8.73867 16.4997 8.9375 16.5H11.9375C12.534 16.5007 13.106 16.7379 13.5278 17.1597C13.9496 17.5815 14.1869 18.1535 14.1875 18.75Z" fill="black"/>
</svg>
