<?xml version="1.0" encoding="utf-8"?>
<!-- Generator: Adobe Illustrator 27.0.1, SVG Export Plug-In . SVG Version: 6.00 Build 0)  -->
<svg version="1.1" id="layer" xmlns="http://www.w3.org/2000/svg" xmlns:xlink="http://www.w3.org/1999/xlink" x="0px" y="0px"
	 viewBox="0 0 652 260" style="enable-background:new 0 0 652 260;" xml:space="preserve">
<style type="text/css">
	.st0{fill:#0070C0;}
	.st1{fill:#E31B23;}
</style>
<g id="Layer_1">
	<path class="st0" d="M538.9,107c-6.1-6.6-14.7-10.2-23.7-10c-18.3,0-33.2,14.9-33.2,33.2c0,18.3,14.8,33.1,33.2,33.2
		c15.2,0,27-8.3,30.9-21.7c0.1-0.2,0-0.5-0.1-0.7s-0.4-0.3-0.6-0.3h-17.1c-0.3,0-0.5,0.2-0.7,0.4c-2.6,4.4-7.4,7-12.5,6.8
		c-6.7,0.1-12.6-4.3-14.5-10.7h45.9c0.4,0,0.7-0.3,0.8-0.7c0.2-1.7,0.2-3.3,0.2-4.9C547.6,121.7,544.6,113.3,538.9,107z
		 M500.9,122.7c2.1-6.1,7.8-10.2,14.2-10.2c6.6-0.2,12.4,4,14.4,10.2H500.9z"/>
	<path class="st0" d="M553.2,117.6c0,15.3,17.4,17.9,26.8,19.3c11.3,1.7,12.5,3.2,12.5,5.9s-4.2,4.8-10.5,4.8
		c-4.9,0-10.7-2.1-12.7-6.8c-0.1-0.3-0.4-0.5-0.7-0.5h-16.3c-0.2,0-0.4,0.1-0.6,0.3c-0.1,0.2-0.2,0.4-0.2,0.6
		c2,13.6,13.9,22.3,30.4,22.3s28.2-8.9,28.2-21.7c0-14.5-12.4-17.7-27.4-20.2c-7.8-1.2-11.8-2.3-11.8-4.8c0-1.7,2.6-4.2,9.7-4.2
		c5,0,8.8,1.8,9.7,4.6c0.1,0.3,0.4,0.5,0.7,0.5h16.6c0.4,0,0.8-0.4,0.7-0.8v-0.1c-2.1-12.2-13.1-20-27.8-20
		C561.8,97,553.2,107.7,553.2,117.6z"/>
	<path class="st0" d="M249.9,117.4c0,15.1,16.1,17.5,26.7,19.1c11.1,1.7,11.9,3.6,11.9,6.5c0,1.8-1,4.1-9.9,4.1
		c-3.9,0-10.7-0.8-12.9-6.1c-0.1-0.3-0.4-0.5-0.7-0.5h-16c-0.2,0-0.4,0.1-0.6,0.3c-0.1,0.2-0.2,0.4-0.2,0.6
		c2,13.6,13.3,21.7,30.4,21.7c16.8,0,27.6-8.3,27.6-21.1c0-14.9-12.1-18.1-26.8-20.5c-8.1-1.3-11.9-3.1-11.9-5.5
		c0-1.7,2.6-4.3,9.8-4.3c5.5,0,9,2.8,9.9,5.5c0.1,0.3,0.4,0.5,0.7,0.5h15.9c0.2,0,0.4-0.1,0.6-0.3c0.1-0.2,0.2-0.4,0.2-0.6
		c-2.2-12.4-12.4-19.9-27.2-19.9C258.4,97,249.9,107.3,249.9,117.4z"/>
	<path class="st0" d="M312.1,82.8c-0.4,0-0.8,0.3-0.8,0.8v51.1c0,9.4,2.8,16.9,8.1,21.7c5.3,4.8,12.1,6.4,20.9,5.5
		c0.4,0,0.7-0.4,0.7-0.8V147c0-0.4-0.3-0.8-0.7-0.8h-0.1c-4.2,0.2-7.4-0.6-9.3-2.4c-2-1.9-2.8-4.6-2.8-8.4v-22h11.5
		c0.4,0,0.8-0.3,0.8-0.8V99.3c0-0.4-0.3-0.8-0.8-0.8h-11.3V83.4c0-0.4-0.3-0.8-0.8-0.8L312.1,82.8z"/>
	<path class="st0" d="M389.9,98.6c-0.4,0-0.8,0.3-0.8,0.8v61.9c0,0.4,0.3,0.8,0.8,0.8h15.5c0.4,0,0.8-0.3,0.8-0.8V99.4
		c0-0.4-0.3-0.8-0.8-0.8H389.9z"/>
	<path class="st0" d="M389.9,76.5c-0.4,0-0.8,0.3-0.8,0.8v14.2c0,0.4,0.3,0.8,0.8,0.8h15.5c0.4,0,0.8-0.3,0.8-0.8V77.3
		c0-0.4-0.3-0.8-0.8-0.8H389.9z"/>
	<path class="st0" d="M363.5,103.4v-4.1c0-0.4-0.3-0.8-0.8-0.8h-15c-0.4,0-0.8,0.3-0.8,0.8v62c0,0.4,0.3,0.8,0.7,0.8l0,0H363
		c0.4,0,0.8-0.4,0.8-0.8v-31c0-5.8,1.5-10.2,4.4-13.2c3.2-3.4,7.4-4.5,14.4-3.7c0.2,0,0.4-0.1,0.6-0.2s0.3-0.3,0.3-0.6V97.7
		c0-0.4-0.3-0.7-0.6-0.7C375.6,95.6,368.4,98.1,363.5,103.4z"/>
	<path class="st0" d="M445.1,96.5c-18.8,0-33,14.5-33,33.6v55.1c0,0.4,0.3,0.8,0.8,0.8h15.9c0.4,0,0.8-0.3,0.8-0.8v-27.7
		c4.9,4.3,11.2,6.6,17.8,6.5c17.2,0,31.1-15.2,31.1-33.8C478.5,111,464.1,96.5,445.1,96.5z M445.1,147.5c-8.6,0-15.5-7.8-15.5-17.3
		s7-17,15.5-17s15.5,7.5,15.5,17S453.8,147.5,445.1,147.5L445.1,147.5z"/>
	<path class="st0" d="M623.6,161.3c-3.1,3.1-8.1,3-11.1,0c-1.5-1.5-2.3-3.5-2.3-5.6c-0.1-2.2,0.8-4.3,2.5-5.7
		c1.5-1.4,3.4-2.2,5.4-2.1c4.4,0,7.9,3.5,7.9,7.9C626,157.8,625.1,159.8,623.6,161.3L623.6,161.3z M613.5,151.1
		c-2.5,2.5-2.5,6.6,0,9.2c2.5,2.5,6.6,2.6,9.1,0l0,0c2.5-2.5,2.5-6.6,0-9.2c-2.5-2.5-6.5-2.6-9-0.1L613.5,151.1z M614.7,160.1v-8.7
		h4.2c0.6,0,1.2,0.2,1.7,0.4c0.8,0.4,1.2,1.2,1.2,2.1c0,0.6-0.2,1.1-0.6,1.5c-0.4,0.3-1,0.6-1.5,0.6c0.4,0.1,0.9,0.2,1.2,0.5
		c0.5,0.5,0.8,1.2,0.8,2v0.8c0,0.1,0,0.2,0,0.3c0,0.1,0,0.2,0,0.3l0.1,0.2h-2.2c-0.1-0.4-0.1-0.8-0.1-1.2c0-0.4,0-0.7-0.1-1.1
		c-0.1-0.3-0.3-0.5-0.6-0.6s-0.5-0.1-0.8-0.1h-0.5H617v3.1L614.7,160.1z M618.8,153c-0.4-0.1-0.9-0.2-1.3-0.2H617v2.5h0.9
		c0.4,0,0.9-0.1,1.3-0.3c0.3-0.3,0.5-0.6,0.4-1C619.6,153.6,619.3,153.2,618.8,153L618.8,153z"/>
	<path class="st1" d="M138.5,48.5L138.5,48.5L138.5,48.5c0.5-0.5,0.5-1.4,0-1.9c-0.1-0.1-0.2-0.2-0.4-0.3L124.8,33
		c-0.5-0.5-1.4-0.5-1.9,0l0,0l-96.4,96.4c-0.5,0.5-0.5,1.4,0,2l13.4,13.3c0.3,0.7,1.1,1,1.8,0.6c0.1-0.1,0.3-0.2,0.4-0.3l0,0l0,0
		L138.5,48.5z M166,76L166,76L166,76c0.5-0.5,0.5-1.4,0-1.9l0,0l-13.7-13.7c-0.5-0.5-1.4-0.5-1.9,0l0,0l0,0l0,0l-96.5,96.5
		c-0.5,0.5-0.5,1.4,0,2l13.7,13.7c0.5,0.5,1.4,0.5,2,0l0,0l0,0L166,76z M221.2,129.2l-13.7-13.7c-0.3-0.3-0.6-0.4-1-0.4
		c-0.2,0-0.5,0.1-0.7,0.2l0,0c-0.1,0-0.2,0.1-0.2,0.2L109,212.1c-0.5,0.5-0.5,1.4,0,2l13.7,13.7c0.5,0.5,1.4,0.5,2,0l96.6-96.6
		C221.8,130.6,221.8,129.7,221.2,129.2C221.3,129.2,221.3,129.2,221.2,129.2L221.2,129.2z M193.6,103.6L193.6,103.6L193.6,103.6
		c0.5-0.5,0.5-1.4,0-1.9l0,0L179.9,88c-0.5-0.5-1.4-0.5-2,0l0,0l-96.5,96.5c-0.5,0.5-0.5,1.4,0,2l13.7,13.7c0.5,0.5,1.4,0.5,1.9,0
		l0,0l0,0l0,0L193.6,103.6z"/>
</g>
</svg>
