<?xml version="1.0" encoding="UTF-8"?>
<svg id="Layer_1" data-name="Layer 1" xmlns="http://www.w3.org/2000/svg" viewBox="0 0 360 300">
  <defs>
    <style>
      .cls-1 {
        fill: #334f9a;
      }

      .cls-2 {
        fill: #ef3e42;
      }
    </style>
  </defs>
  <path class="cls-1" d="M25.58,126.47c.01-2.59,.19-6,3.35-8.77,1.39-1.19,3.52-2.11,5.83-2.11,4.9,.02,9.43,3.92,9.41,11.22l-.11,45.65c0,1.75-.28,4.06-1.68,6.25-1.67,2.58-4.45,4.05-7.59,4.04-2.88,0-5.65-1.31-7.39-3.71-1.66-2.32-1.93-4.63-1.92-6.65l.1-45.92Z"/>
  <path class="cls-1" d="M83.77,131.01c2.78,.1,6.19,.31,8.04,3.36,.54,1.01,.81,2.31,.83,3.51-.02,2.4-1.05,4.06-2.16,4.89-1.85,1.56-4.63,1.64-6.84,1.62l-9.62-.02,.03-13.4,9.72,.03Zm-28.52,41.02c0,2.3,.27,5.35,2.77,7.95,1.75,1.85,4.06,2.98,6.65,2.98,2.68,0,5.46-1.19,7.14-3.31,1.94-2.39,2.14-5.07,2.15-7.37l.02-13.68,7.03,.02c2.96,.11,7.41,.22,9.52,4.57,.74,1.57,1.01,3.23,1.29,4.99,.72,5.19,1.28,9.06,4.96,12.4,.84,.74,2.86,2.49,6.38,2.51,5.09,.02,9.71-3.21,9.73-7.63,0-1.57-.91-3.06-1.47-4.45-.73-1.85-1.18-5.27-1.46-7.3-1.82-11.82-7-12.76-11.99-13.42,2.31-.46,5.73-1.01,8.89-4.6,1.38-1.56,3.89-5.06,3.91-10.89,0-4.98-1.46-9.42-5.24-12.85-5.08-4.54-11.36-5.13-18.95-5.15l-21.56-.06c-2.22-.02-6.29,.33-8.43,4.21-1.12,1.84-1.13,3.6-1.22,5.26l-.11,45.83Z"/>
  <path class="cls-1" d="M138.35,143.68c2.29,8.59,2.74,10.71,4.12,18.56,.93-4.69,1.31-6.27,2.61-11.34l7.85-27.24c.92-2.77,2.6-7.46,8.62-7.44,5.64,.01,8.96,4.45,8.94,8.8,0,2.3-.84,4.61-1.58,6.82l-15,41.52c-2.43,6.93-3.63,9.51-12.05,9.48-7.31-.04-8.68-3.17-10.8-9l-15.8-45.5c-.35-1.21-.64-2.23-.64-3.61,.01-5.17,4.09-8.76,9.08-8.75,6.45,.05,8.12,4.93,9.14,7.99l5.51,19.7Z"/>
  <path class="cls-1" d="M175.74,126.52c0-2.58,.19-6,3.35-8.76,1.39-1.18,3.52-2.11,5.84-2.1,4.9,.02,9.42,3.91,9.4,11.2l-.02,45.68c.03,1.78-.22,4.09-1.58,6.29-1.65,2.57-4.43,4.02-7.6,3.98-2.89-.03-5.69-1.35-7.45-3.78-1.69-2.33-1.96-4.65-1.94-6.69l.02-45.82Z"/>
  <path class="cls-1" d="M206.35,125.27c.02-1.93,.3-4.89,2.72-7.18,2.22-2.02,5-2.21,7.5-2.19,5.27,.01,7.11,1.7,9.14,5.02,3.34,5.48,6.6,10.98,9.89,16.52,3.87,6.68,7.56,13.43,11.34,20.09l-.68-31.98c-.02-1.87,.15-3.74,1.34-5.69,2.14-3.59,5.78-3.74,7.08-3.72,2.25,.02,4.38,.79,6.23,2.64,2.5,2.69,2.48,5.82,2.56,8.13l-.11,46.28c0,2.21-.19,10.07-9.54,10.02-3.05,0-6.86-1.12-11.56-7.7-3.31-4.63-12.89-21.56-19.43-33.03l.77,30.74c-.1,2.03-.1,4.07-1.42,6.19-1.56,2.48-4.34,3.87-7.12,3.84-1.29,0-2.77-.36-4.07-1.11-4.34-2.32-4.6-6.66-4.6-10.08l-.04-46.8Z"/>
  <path class="cls-1" d="M316.32,181.67c-5.87,1.86-9.73,2.07-14.56,2.01-5.92-.07-13.26-1.56-20.19-7.86-8.12-7.23-10.5-17.22-10.48-26.55,.05-20.51,12.85-34.6,33.29-34.53,16,.06,23.24,7.03,26.14,11.39,.84,1.5,1.49,3.4,.8,6.15-.91,3.07-4.55,6.32-9.68,5.31-3.04-.72-5.47-3.3-6.91-4.6-1.3-1.18-3.61-3.46-9.46-3.55-10.92-.02-15.75,8.71-15.77,19.16-.02,12.65,5.98,19.6,14.38,19.64,2.32,0,5.46-.53,7.95-2.01,3.35-1.84,5.2-4.59,5.76-8.29l-6.2-.02c-1.94,0-4.16-.03-5.91-1.03-2.31-1.22-3.6-3.54-3.59-6.12,0-2.48,1.21-4.34,2.97-5.53,1.66-1.1,3.13-1.19,4.8-1.27l17.03,.06c1.66,0,3.52,.1,5.18,1.14,2.5,1.67,2.57,4.53,2.65,7.67-.6,24.71-18.21,28.85-18.21,28.85Z"/>
  <polygon class="cls-2" points="112.19 97.49 145.15 97.53 180.08 76.13 214.83 97.54 247.64 97.54 180.08 56.89 112.19 97.49"/>
  <polygon class="cls-2" points="247.77 202.55 214.83 202.48 179.92 223.86 145.04 202.32 112.23 202.32 179.92 243.11 247.77 202.55"/>
</svg>