<?xml version="1.0" encoding="UTF-8"?>
<!DOCTYPE svg PUBLIC "-//W3C//DTD SVG 1.1//EN" "http://www.w3.org/Graphics/SVG/1.1/DTD/svg11.dtd">
<!-- Creator: CorelDRAW 2019 (64-Bit) -->
<svg xmlns="http://www.w3.org/2000/svg" xml:space="preserve" width="195.525mm" height="100.278mm" version="1.1" style="shape-rendering:geometricPrecision; text-rendering:geometricPrecision; image-rendering:optimizeQuality; fill-rule:evenodd; clip-rule:evenodd"
viewBox="0 0 195.342 100.1839"
 xmlns:xlink="http://www.w3.org/1999/xlink"
 xmlns:xodm="http://www.corel.com/coreldraw/odm/2003">
 <defs>
  <style type="text/css">
   <![CDATA[
    .fil2 {fill:#C62135}
    .fil0 {fill:black}
    .fil1 {fill:white}
   ]]>
  </style>
 </defs>
 <g id="Layer_x0020_1">
  <metadata id="CorelCorpID_0Corel-Layer"/>
  <g id="_730090464">
   <path class="fil0" d="M195.342 50.0915c0,27.6647 -43.7444,50.0924 -97.6484,50.0924 -53.954,0 -97.6936,-22.4278 -97.6936,-50.0924 0,-27.6643 43.7445,-50.0915 97.6936,-50.0915 53.9532,0 97.6484,22.4278 97.6484,50.0915z"/>
   <path class="fil1" d="M31.9907 17.1133c-8.5688,4.2316 -15.3393,9.1504 -20.1006,14.6518 -4.972,5.7659 -7.511,11.9548 -7.511,18.3018 0,6.4004 2.5389,12.5364 7.511,18.3022 4.7078,5.5008 11.4784,10.4206 20.1006,14.6518 17.5617,8.6221 40.8885,13.3822 65.6966,13.3822 24.808,0 48.1341,-4.7607 65.6966,-13.3822 8.5687,-4.2316 15.3391,-9.1509 20.1005,-14.6518 4.9723,-5.7658 7.5104,-11.9548 7.5104,-18.3022 0,-6.4 -2.4861,-12.5359 -7.5104,-18.3018 -4.7614,-5.5009 -11.4785,-10.4206 -20.1005,-14.6518 -17.5611,-8.6221 -40.8885,-13.3826 -65.6966,-13.3826 -24.808,0 -48.1349,4.7611 -65.6966,13.3826z"/>
   <path class="fil2" d="M61.9789 90.9518c-10.8959,-2.2744 -20.682,-5.5008 -29.092,-9.6268 -8.3577,-4.126 -14.8638,-8.8865 -19.4653,-14.1764 -4.6547,-5.3951 -6.9821,-11.1081 -6.9821,-16.9791 0,-5.8712 2.3804,-11.5841 6.9821,-16.9793 4.549,-5.2894 11.1082,-10.0505 19.4653,-14.1764 8.41,-4.1254 18.1961,-7.3524 29.092,-9.6268 11.3198,-2.3274 23.3268,-3.5443 35.7047,-3.5443 12.3778,0 24.3848,1.2169 35.7045,3.5443 10.8962,2.2744 20.6819,5.5013 29.0919,9.6268 8.3581,4.1259 14.9164,8.8865 19.466,14.1764 4.655,5.3951 6.981,11.1086 6.981,16.9793 0,5.8714 -2.3794,11.5839 -6.981,16.9791 -4.5496,5.2899 -11.108,10.0504 -19.466,14.1764 -8.41,4.1254 -18.1957,7.3524 -29.0919,9.6268 -11.3197,2.3275 -23.3267,3.5443 -35.7045,3.5443 -12.3779,0 -24.3849,-1.1639 -35.7047,-3.5443z"/>
   <path class="fil0" d="M52.0204 32.6999l-12.1636 12.0599 6.2407 16.6582c0.423,0.6346 0.954,1.0587 1.5358,1.376l-6.1896 -16.5031 13.7507 -13.5916 -3.174 0 0 0.0006zm102.3025 0l0 0c-0.2639,1.6399 -0.6345,3.3845 -0.8999,4.2835l-9.3631 0.1079c-3.3311,1.2164 -6.1357,3.3856 -7.2462,7.088 -0.7944,2.6982 -1.7462,6.6092 0,9.1482 0.3692,0.3707 0.7397,0.6917 1.217,0.9038 -1.1637,-2.4861 -0.3719,-5.9784 0.3693,-8.4644 1.0584,-3.7028 3.8645,-5.8717 7.1958,-7.0885l9.3644 -0.1074c0.3708,-1.2169 0.8452,-3.9138 1.1092,-5.8711l-1.7464 0zm-118.5381 0.0513l0 0c-0.6353,3.65 -1.8541,9.1482 -1.8541,9.1482 0.7403,-0.6875 1.5367,-1.4257 2.383,-2.2189 0.4758,-2.3274 1.0558,-5.1835 1.3203,-6.9293l-1.8492 0zm83.6268 6.7701l0 0c0.1063,0.2121 0.2124,0.3702 0.3184,0.5288l0 0.0048c0.846,1.5871 0.5832,4.0721 -0.2106,5.5528 -0.8996,1.8515 -2.5389,2.6964 -3.9137,3.5955 0.5288,0.6875 0.6885,1.8 1.3765,2.0644l0.2617 -0.4257c0,0 0.0032,-0.0519 -0.0513,-0.0519 0.0544,0 0.1031,-0.056 0.1031,-0.1073l0.7398 -1.2173 1.0065 0c0.7938,-0.5817 1.5325,-1.2693 2.0084,-2.3269 0.7403,-1.4812 1.0575,-3.9657 0.2104,-5.5528 -0.5293,-0.901 -1.1622,-1.5891 -1.8503,-2.0661l0.0011 0.0016zm-4.9722 1.9053l0 0c0.4766,0 1.1097,0.1561 1.3207,0.7913 0.0543,0.2644 0.056,0.5314 0.056,0.7959 -0.6353,0.1057 -1.218,0.5812 -1.3767,1.2686 -0.0538,0.2121 -0.0538,0.4247 0,0.6367 -0.2643,0.211 -0.5826,0.4188 -0.8472,0.4729 -0.3706,-0.7933 -0.8465,-1.6401 -0.688,-2.6447 0.2117,-0.7409 0.9007,-1.266 1.5352,-1.3206zm56.3864 1.1144l0 0c0.7412,0.5294 1.5357,1.3205 2.0649,2.3786 1.6396,3.8081 0.5826,8.5687 -0.8984,11.9008 -2.5929,5.0778 -6.8798,6.6632 -11.4282,6.0815 -1.6929,-0.2644 -3.4391,-1.1084 -4.6028,-2.7482 0.9516,0.6345 1.9568,1.0027 3.0152,1.1612 4.6017,0.6347 8.8354,-1.0037 11.48,-6.0816 1.4277,-3.3327 2.5394,-8.0412 0.8465,-11.8494 -0.1039,-0.3172 -0.3186,-0.5786 -0.4773,-0.8429zm-74.7907 0.1545l0 0c0.2122,0.3707 0.4232,0.7932 0.5291,1.2685 0.5815,1.9574 0.0516,3.9685 -0.2673,5.8199l-2.2188 11.1096 -4.864 0 -0.3186 1.5869 6.7184 0 2.2188 -11.1097c0.3708,-1.8513 0.9013,-3.8625 0.267,-5.8192 -0.2649,-1.2697 -1.1126,-2.2744 -2.0651,-2.856l0.0005 0zm-29.5128 0.0513l0 0 0 0.0048 -3.7548 18.1932c-1.4284,0.1587 -2.9653,0.1068 -4.4992,0.1592 -0.1066,0.5294 -0.2111,1.0571 -0.2111,1.6388 2.1158,-0.1057 4.34,-0.0005 6.2973,-0.1592l4.0682 -19.7807 -1.9004 -0.056zm-11.583 0.0565l0 0c0.5822,0 1.2142,-0.0033 1.8492,0.0514l-2.434 12.009c-0.0546,0.2646 -0.0546,0.4761 0,0.6881 -0.2645,-0.0523 -0.4755,-0.1606 -0.7399,-0.267 -0.4766,-0.423 -0.9498,-1.1095 -0.7911,-2.0085l0 -0.0047 2.1158 -10.4682zm108.2765 2.6966l0 0c-1.7449,0.1587 -2.8607,2.5939 -3.3899,4.5505 -0.3173,1.3754 -0.7384,3.4907 0.108,4.8128 0.3173,0.5818 0.7397,0.7398 1.217,0.7398 -0.3172,-1.2697 -0.0026,-2.8546 0.2627,-3.9657 0.4745,-2.0094 1.6396,-4.4448 3.3844,-4.5505 0.1588,0 0.3187,0.0023 0.4773,0.0561 -0.0546,-0.3167 -0.212,-0.6892 -0.3173,-1.0064 -0.4239,-0.5818 -1.1076,-0.5834 -1.7421,-0.6367zm-10.9508 0.1592l0 0 1.9596 0 -3.863 15.9225c-1.4811,5.3951 -3.282,9.3101 -10.5284,9.5745l-91.1378 0c-3.438,-0.476 -5.2344,-1.4823 -6.6622,-3.3332 1.1639,0.899 2.7478,1.4289 5.0751,1.7462l91.14 0c7.193,-0.3173 9.0431,-4.2317 10.5241,-9.5744l3.4925 -14.3356zm-64.6061 0.8391l0 0 -0.0004 0c0.5358,-0.0661 1.0753,0.0386 1.4984,0.4354 0.3172,0.2645 0.4229,0.6864 0.4774,1.1095 -0.6345,0 -1.3765,0.2661 -1.9053,0.6367l-0.7399 1.0583 -2.6965 12.7483 -6.6621 0.0514 0.3133 -1.587 4.813 -0.0513 2.7014 -12.7485 0.7399 -1.0582c0.3968,-0.2911 0.925,-0.5282 1.4608,-0.5945zm-11.3019 0.0652l0 0c0.6874,0 1.3246,-0.0513 1.8542,0.4776 0.1585,0.3707 0.2589,0.7392 0.3135,1.11l-0.632 0c-0.7937,0.2115 -1.5341,0.8482 -1.9573,1.6944 -1.1106,4.1787 -1.8006,8.5141 -2.7526,12.6924l-6.7183 0.056 0.3185 -1.587 4.813 -0.056c1.0047,-4.2316 1.6947,-8.5666 2.7525,-12.6925 0.4759,-0.899 1.2147,-1.5362 2.0085,-1.6948zm65.5863 3.3338l0 0 0.8999 0c-0.0014,0.0059 -0.1068,0.4738 -0.2121,0.6831 -0.0532,0.3184 -0.1599,0.6347 -0.2665,0.8991l-0.688 0 0.2667 -1.5821zm-107.8037 0.791l0 0 -2.9075 2.6453 -1.3247 7.4581 -5.4454 0.0513 -0.3184 1.5869 7.3508 -0.0513 1.3248 -7.4581 2.1676 -1.9572c-0.2644,-0.6876 -0.5303,-1.429 -0.8472,-2.2751zm88.3372 0.4257l0 0 0 0.0006 2.0645 0c-0.476,2.4855 -2.0634,4.5981 -3.7035,6.3438 0.6882,1.6394 1.6955,3.0682 2.3836,4.761l-6.0869 0.056c-0.5818,-2.5394 -1.6389,-0.0005 -2.8556,0.211 -2.8033,0.5818 -6.1356,0.7394 -8.3573,-1.7467 -0.158,-0.1582 -0.2637,-0.3168 -0.3696,-0.5288 2.1159,1.3754 4.8122,1.165 7.1398,0.688 1.2167,-0.1566 2.2739,-2.7494 2.8556,-0.2104l6.0865 -0.0561c-0.6877,-1.6927 -1.6951,-3.1745 -2.383,-4.7616 1.3226,-1.3749 2.5383,-2.9581 3.2259,-4.7568zm-11.4752 0.3141l0 0c-0.6351,0.054 -1.167,0.5299 -1.6431,0.8472 -0.5818,0.4231 -1.055,1.164 -1.0022,2.1164 0.1588,0.5818 0.4226,1.2148 0.899,1.4791 0.2646,0.1064 0.4762,0.2154 0.6881,0.2154l0 -0.1075c-0.1057,-0.8991 0.3676,-1.6932 1.0021,-2.1163 0.2645,-0.2121 0.5809,-0.422 0.8991,-0.5807l-0.8429 -1.8537zm64.6924 4.5506l0 0c-1.4277,0 -2.5928,1.1656 -2.5928,2.5934 0,1.4285 1.1651,2.5892 2.5928,2.5892 1.4277,0 2.5888,-1.1607 2.5888,-2.5892 0,-1.4278 -1.1596,-2.5934 -2.5888,-2.5934zm0 0.6881l0 0c-1.1103,0 -1.9048,0.7415 -1.9048,1.9053 0,1.164 0.7946,1.9055 1.9048,1.9055 1.1104,0 1.9008,-0.7415 1.9008,-1.9055 0,-1.1634 -0.7905,-1.9053 -1.9008,-1.9053zm-1.1144 0.4776l0 0 1.377 0c0.7397,0 1.0584,0.2121 1.0584,0.8471 0,0.5294 -0.2653,0.7399 -0.7399,0.7399l0.688 1.2127 0 0.0048 -0.688 0 -0.6371 -1.1657 -0.4213 0 0 1.1657 -0.6371 0 0 -2.8045zm0.6878 0.4728l0 0 0.5812 0c0.2107,0 0.5854,0.0016 0.5854,0.3183 0,0.3163 -0.1613,0.3703 -0.4266,0.3703l0 -0.0519 -0.7399 0 0 -0.6367zm-118.4799 1.2179l0 0c-0.0524,0.7933 -0.3729,1.5331 -0.3184,2.3269 0.4236,-0.0545 0.7954,-0.0545 1.1656,0 -2.0626,1.8515 -4.8679,2.6436 -7.5656,1.6388 -0.7933,-0.3178 -1.5869,-0.9508 -2.1158,-1.8493 0.1582,0.1057 0.3703,0.2122 0.5289,0.2665 3.0148,1.1106 6.2422,0.0502 8.3053,-2.383zm83.9919 1.0581l0 0c-2.0102,1.1108 -4.5504,1.9029 -6.8778,1.1097 -0.7403,-0.1587 -1.4258,-0.5305 -2.0603,-1.0066 1.0054,1.3222 2.2718,2.2779 3.6472,2.5422 1.4812,0.5288 3.1223,0.3687 4.5511,-0.1079 0.3708,-0.6351 0.528,-1.5352 0.7398,-2.4343l0 -0.1031z"/>
   <path class="fil1" d="M27.7977 30.3218l-6.2406 29.6209 7.355 -0.0561 1.3206 -7.4068 2.9117 -2.6404c2.1159,5.7658 2.7478,7.7753 4.705,12.959 1.9043,3.6494 3.4364,5.2359 8.2499,5.871l91.1399 0c7.2462,-0.2644 9.043,-4.1804 10.524,-9.5232l3.8619 -15.9226 -11.4801 0 -1.0009 5.8193 2.7472 0c0,0 -0.1039,0.5299 -0.1587,0.6885 -0.3172,1.9037 -1.6397,3.5453 -3.2259,3.862 -0.9517,0.2115 -1.85,-0.3178 -2.5374,-1.0581 -1.7451,-2.4855 -0.7939,-6.4548 0,-9.1525 1.0578,-3.7028 3.8584,-5.8721 7.191,-7.0885l9.3645 -0.1031c0.3692,-1.2163 0.8478,-3.9139 1.165,-5.8705l-11.5306 0c-3.3339,0.3703 -6.2444,1.9011 -8.7839,4.5457 -4.2311,5.2893 -7.5121,12.5381 -5.4492,20.1553 0.8463,2.4861 2.8595,4.7072 5.0283,5.1826 2.3803,0.7933 4.915,0.0011 6.8733,-1.1095l0 0.1029c-0.3186,1.7453 -0.6345,3.2794 -2.1688,3.5438l-86.9029 0.108c-2.0629,0 -4.2349,-0.4226 -5.5575,-2.3269l-6.1846 -16.6624 13.591 -13.5396 -8.3567 0c-3.1212,3.1735 -7.9356,7.51 -11.3208,10.6835 0,0 1.5871,-7.4043 2.1159,-10.6835l-7.247 0 0.0014 0.001zm86.0935 5.9689l0 0 0 -0.0011c1.9584,0.0123 3.8382,0.8056 4.9958,2.9199 0.8439,1.5869 0.5816,4.0725 -0.2106,5.5527 -0.8996,1.8514 -2.5389,2.6965 -3.9138,3.5954 0.5289,0.6881 0.6886,1.7954 1.376,2.0602l1.1079 -1.7402 4.8658 0.0525c-0.4755,2.4858 -2.0106,4.6028 -3.7035,6.3483 0.6882,1.5871 1.6954,3.0689 2.3835,4.7617l-6.082 0.0514c-0.5812,-2.5391 -1.639,0.0042 -2.8557,0.2152 -2.8034,0.5818 -6.1399,0.7928 -8.3621,-1.7463 -1.3748,-1.6399 -1.8503,-4.339 -1.2685,-6.5077 0.7403,-3.0149 3.3327,-4.761 5.5014,-5.6601 -0.6351,-1.2164 -1.0556,-2.8562 -0.7916,-4.4432 0.3172,-2.1153 1.8482,-4.0208 3.488,-4.7611 1.0908,-0.4364 2.2948,-0.7056 3.4693,-0.6975zm48.6586 2.5607l0 0c1.7572,-0.1292 3.5608,0.1476 5.2662,0.7821 0.9011,0.5818 1.9581,1.5337 2.646,2.8557l-0.0055 0c1.693,3.8086 0.6399,8.5173 -0.8423,11.85 -2.6448,5.0778 -6.8785,6.7161 -11.4282,6.0816 -2.1153,-0.3708 -4.2843,-1.4802 -5.3412,-4.1248 -1.6411,-4.5491 -0.4761,-9.6835 1.9567,-13.1742 2.0172,-2.711 4.8205,-4.0539 7.7483,-4.2703zm-71.5653 0.6748l0 0c0.358,0.0241 0.7179,0.0753 1.0818,0.155 1.5337,0.2115 3.2285,1.5368 3.6515,3.4406 0.5818,1.9571 0.0567,3.9683 -0.2624,5.8198l-2.2236 11.1048 -6.7184 0 2.2239 -11.6903c0.1064,-0.7404 0.2084,-1.7467 -0.4258,-2.2755 -0.8461,-0.7939 -2.1655,-0.4226 -2.9594,0.1592l-0.688 1.0582 -2.6966 12.7484 -6.6668 0.056 2.3787 -12.1678c0.1057,-0.5818 -0.0514,-1.1613 -0.3141,-1.6901 -0.5288,-0.5294 -1.1645,-0.4776 -1.9055,-0.4776 -0.7936,0.212 -1.5325,0.796 -2.0084,1.6949 -1.1106,4.1252 -1.7477,8.5135 -2.7526,12.6919l-6.7182 0.0565 3.97 -19.837c2.1158,-0.2644 4.3352,-0.1592 6.4511,-0.1592 0.0545,0.7403 -0.2618,1.5882 -0.2618,2.4348 2.0096,-2.539 4.9188,-3.4919 7.8277,-2.6452 0.7939,0.2645 1.7431,0.7949 2.219,1.9054 0.0544,0.3151 0.1613,0.6325 0.267,0.8424 1.7127,-2.2216 4.0288,-3.3932 6.5309,-3.2254zm-25.0468 0.7392l0 0 -0.0004 0 -4.0732 19.837c-2.0102,0.212 -4.2295,0.1068 -6.2926,0.1593 0,-0.7939 0.2661,-1.5369 0.3183,-2.383 -2.0623,2.4331 -5.2375,3.4934 -8.3052,2.383 -0.9518,-0.3702 -1.9584,-1.2708 -2.4343,-2.4343 -0.5816,-1.2697 -0.4242,-3.1196 -0.1591,-4.4945l2.7014 -12.8564c2.2216,-0.2643 4.386,-0.2082 6.5548,-0.1031l-2.3268 12.0606c-0.1587,0.8985 0.3188,1.5848 0.7959,2.0084 0.8461,0.4231 1.7953,0.3163 2.5886,-0.1598 1.1111,-0.6875 1.4312,-2.2216 1.8542,-3.5437l2.1677 -10.4168 6.6109 -0.0566zm47.6085 0.2671l0 0c0.476,0 1.108,0.156 1.32,0.7912 0.211,0.7408 0.0005,1.3787 -0.3697,1.8541 -0.5293,0.6347 -1.163,1.1085 -1.798,1.3205 -0.3707,-0.7938 -0.8467,-1.6405 -0.6881,-2.6451 0.1588,-0.7409 0.8479,-1.266 1.5352,-1.3206l0.0006 0zm48.816 4.1248l0 0c-1.7449,0.1583 -2.9086,2.5935 -3.3844,4.5507 -0.3172,1.3747 -0.7385,3.4901 0.0561,4.8127 0.4758,0.7934 1.2142,0.687 1.8487,0.7393 0.9532,-0.1581 1.7491,-0.8996 2.3836,-1.9566 1.0052,-2.1159 1.9022,-5.1313 0.7919,-7.6173 -0.3706,-0.4755 -1.0557,-0.4755 -1.6903,-0.5289l-0.0055 0zm-52.201 5.9784l0 0 1.5309 3.385c-0.8461,1.0033 -2.1131,1.6929 -3.2771,1.0576 -0.5283,-0.3172 -0.7926,-0.955 -0.8991,-1.4838 -0.0528,-0.9519 0.4253,-1.6933 1.007,-2.1164 0.4761,-0.3168 1.0034,-0.7879 1.6384,-0.8424z"/>
  </g>
 </g>
</svg>
