<?xml version="1.0" standalone="no"?>
<!DOCTYPE svg PUBLIC "-//W3C//DTD SVG 20010904//EN"
 "http://www.w3.org/TR/2001/REC-SVG-20010904/DTD/svg10.dtd">
<svg version="1.0" xmlns="http://www.w3.org/2000/svg"
 width="512.000000pt" height="512.000000pt" viewBox="0 0 512.000000 512.000000"
 preserveAspectRatio="xMidYMid meet">
<metadata>
Created by potrace 1.16, written by Peter Selinger 2001-2019
</metadata>
<g transform="translate(0.000000,512.000000) scale(0.100000,-0.100000)"
fill="#000000" stroke="none">
<path d="M3353 4105 c-210 -57 -366 -247 -375 -458 l-3 -65 -506 -252 -505
-253 -70 42 c-91 55 -149 71 -259 71 -154 0 -260 -43 -366 -149 -199 -200
-197 -521 3 -722 170 -169 428 -195 636 -63 l52 34 508 -254 507 -254 3 -62
c8 -165 103 -321 244 -404 279 -163 645 -32 748 269 77 223 -11 481 -206 604
-84 54 -166 76 -279 75 -114 -1 -185 -21 -272 -79 l-52 -34 -509 252 c-504
249 -509 252 -508 281 2 29 15 36 513 282 486 240 512 251 528 234 22 -24 130
-77 185 -89 64 -15 186 -13 249 4 252 67 412 313 373 573 -31 204 -177 365
-377 417 -73 19 -192 18 -262 0z"/>
</g>
</svg>
