<svg width="32" height="32" viewBox="0 0 32 32" fill="none" xmlns="http://www.w3.org/2000/svg">
<path d="M20.5504 28.8H7.2C4.9936 28.8 3.2 27.0064 3.2 24.8C3.2 22.5936 4.9936 20.8 7.2 20.8H18.4C21.488 20.8 24 18.288 24 15.2C24 12.112 21.488 9.6 18.4 9.6H10.6224C10.0348 10.7518 9.30716 11.8266 8.456 12.8H18.4C19.7232 12.8 20.8 13.8768 20.8 15.2C20.8 16.5232 19.7232 17.6 18.4 17.6H7.2C3.2304 17.6 0 20.8304 0 24.8C0 28.7696 3.2304 32 7.2 32H22.5488C21.7637 31.0124 21.0932 29.9389 20.5504 28.8ZM4.8 0C2.1536 0 0 2.1536 0 4.8C0 9.9008 4.8 12.8 4.8 12.8C4.8 12.8 9.6 9.8992 9.6 4.8C9.6 2.1536 7.4464 0 4.8 0ZM4.8 7.2C4.48472 7.19989 4.17255 7.13769 3.88131 7.01694C3.59008 6.8962 3.32547 6.71927 3.10261 6.49626C2.87975 6.27325 2.703 6.00853 2.58244 5.71721C2.46189 5.42589 2.39989 5.11368 2.4 4.7984C2.4001 4.48312 2.46231 4.17095 2.58306 3.87971C2.7038 3.58848 2.88073 3.32387 3.10374 3.10101C3.32675 2.87815 3.59147 2.7014 3.88279 2.58084C4.17411 2.46029 4.48632 2.3983 4.8016 2.3984C5.43833 2.39861 6.0489 2.65176 6.49899 3.10214C6.94908 3.55253 7.20181 4.16327 7.2016 4.8C7.20139 5.43673 6.94824 6.0473 6.49786 6.49739C6.04747 6.94747 5.43673 7.20021 4.8 7.2Z" fill="#6F8EA5"/>
<path d="M27.2 19.2002C24.5536 19.2002 22.4 21.3538 22.4 24.0002C22.4 29.101 27.2 32.0002 27.2 32.0002C27.2 32.0002 32 29.0994 32 24.0002C32 21.3538 29.8464 19.2002 27.2 19.2002ZM27.2 26.4002C26.8847 26.4001 26.5725 26.3379 26.2813 26.2171C25.9901 26.0964 25.7255 25.9195 25.5026 25.6965C25.2797 25.4734 25.103 25.2087 24.9824 24.9174C24.8619 24.6261 24.7999 24.3139 24.8 23.9986C24.8001 23.6833 24.8623 23.3711 24.9831 23.0799C25.1038 22.7887 25.2807 22.5241 25.5037 22.3012C25.7267 22.0783 25.9915 21.9016 26.2828 21.781C26.5741 21.6605 26.8863 21.5985 27.2016 21.5986C27.8383 21.5988 28.4489 21.852 28.899 22.3023C29.3491 22.7527 29.6018 23.3635 29.6016 24.0002C29.6014 24.6369 29.3482 25.2475 28.8979 25.6976C28.4475 26.1477 27.8367 26.4004 27.2 26.4002Z" fill="#6F8EA5"/>
</svg>
