<?xml version="1.0" encoding="UTF-8"?>
<svg id="Layer_1" data-name="Layer 1" xmlns="http://www.w3.org/2000/svg" viewBox="0 0 563.72 355.89">
  <defs>
    <style>
      .cls-1 {
        fill: #fff;
      }

      .cls-1, .cls-2, .cls-3, .cls-4, .cls-5, .cls-6, .cls-7, .cls-8 {
        fill-rule: evenodd;
      }

      .cls-2 {
        fill: #b3b2b5;
      }

      .cls-3 {
        fill: #40454c;
      }

      .cls-4 {
        fill: #3f1017;
      }

      .cls-5 {
        fill: #e41713;
      }

      .cls-6 {
        fill: #151f52;
      }

      .cls-7 {
        fill: #000003;
      }

      .cls-8 {
        fill: #8a878a;
      }
    </style>
  </defs>
  <path class="cls-5" d="M186.03,128.22c0-10.4,5.21-17.02,15.71-17.02h45.83c11.3,0,15.67,6.53,15.67,17.76v23c0,11.86-4.5,17.31-16.42,17.31h-44.04c-10.75,0-16.76-5.75-16.76-16.57v-24.49h0Zm190.66,15.97l.02-33.06c2.67-.16,22.42-.31,23.61,.18,.35,2.05,.03,34.03,.09,40.41,0,.74,.13,1.64-.27,2.21,.33,2.4-.81,6.72-1.73,8.58-4.17,8.44-14.49,6.98-23.42,6.98-5.85,0-25.73,.3-30.66-.05-3.96-.29-4.86-1.44-6.94-3.19-1.2,.62-1.52,1.92-5.2,2.78-2.26,.53-4.7,.47-7.17,.47-5.2,0-10.39,0-15.59,0-8.36,0-22.1,1.08-28.29-2.61-2.86-1.71-5.25-5.18-6.02-9.53-.79-4.44-.44-10.54-.44-15.28,0-5.21-.27-27.68,.06-30.87h22.52c.32,3.88,.05,21.33,.05,26.67,0,14.02-.39,11.67,15.09,11.67,10.52,0,14.09,1.35,14.79-5.24,.85-7.96-.4-25.81,.29-33.09h19.79c.68,7.18-.91,30.76,.74,35.84,.91,2.8,3.44,2.5,6.7,2.5,3.05,0,6.1,0,9.15,0,10.2,0,12.88,1.48,12.83-5.34h0Zm31.9,25.06c-.04-6.23-.29-12.22-.22-18.52,.07-6.15,.16-12.12,.16-18.3,0-5.86,.33-11.72,3.19-15.48,2.64-3.47,6.84-5.53,13.01-5.53h45.28c14.74,0,15.8,10.08,15.79,21.01,0,12.26,.06,24.53,0,36.8l-24.23,.03v-34.62c-.02-2.26,.33-3.05-1.95-3.05h-24.25c-1.22,0-2.36-.03-2.93,.67-.68,.96-.28,32.81-.31,36.97l-23.54,.02h0ZM100.6,91.34l22.87,.13,.07,20.16,52.44,.08-.07,19.88h-52.41c-.12,3.88-.33,10.24,.07,13.95,.28,2.64,1,3.2,3.75,3.32,5.34,.23,14.64-.16,20.79-.03,2.28,.05,4.92,.65,5.65-1.37,.67-1.87,.35-4.16,.5-6.26l21.66,.04c.56,3.73-.27,12.85-1.19,16.3-1.29,4.83-3.82,8.14-7.95,9.86-4.69,1.95-10.42,1.88-15.94,1.87-5.86,0-11.74,.11-17.57,.11-10,0-22.86,2.23-29.05-5.94-2.99-3.95-3.63-8.18-3.63-14.21,0-5.84,.09-11.75-.01-17.64l-13.77-.08,.06-19.88,13.72-.08,.03-20.23h0Zm184.92-52.2c-20.5,3.49-41.28,6.54-61.83,9.83-20.54,3.28-41.16,6.69-61.63,9.82-20.58,3.14-41.23,6.46-61.72,9.85-7.68,1.27-14.27,1.79-20.95,5.76-6.42,3.81-9.66,8.42-9.65,16.97v53.67c0,10.67-1.65,20.76,7.94,27.84,3.93,2.9,7.61,4.08,13.75,4.08H466.78c5.77,0,12.13,.25,17.82-.02,5.36-.26,9.92-2.87,12.63-5.41,7.82-7.33,6.33-16.22,6.33-29.21v-35.87c0-7.71,1.17-18.61-1.97-24.67-5.46-10.55-20.87-11.88-31.18-13.55-20.48-3.32-41.11-6.46-61.7-9.84-20.7-3.4-41.02-6.64-61.68-9.84-10.35-1.6-20.5-3.32-30.75-4.89-4.48-.69-28.41-4.92-30.77-4.52Z"/>
  <path class="cls-6" d="M99.79,208.61c0-9.34,5.63-16.08,15.16-16.08h47.01c9.77,0,14.68,6.49,14.68,16.32v25.48c0,5.83-1.56,10.13-4.65,13-3.27,3.03-8.8,3.19-14.24,3.19-4.28,0-33.22-.42-34.77,.24l.21,12.01c.02,2.62,.28,4.42-2.8,4.42h-17.81c-1.85,0-2.79-.57-2.79-2.44v-56.15h0Zm308.88-.74c0-9.29,5.74-15.78,15.07-15.78h47.26c9.83,0,14.75,6.53,14.75,16.27v26.22c0,1.94-.67,5.57-1.31,7.25-2.9,7.62-9.45,8.26-17.65,8.26-11.46,0-23.27-.28-34.69,.02-.07,3.22-.02,6.48-.02,9.71s.89,6.95-2.64,6.95h-18.08c-1.88,0-2.7-.67-2.7-2.49v-56.4h0Zm-220.83-4.2c0-2.21,.2-4.66,.21-6.93,0-2.25-.04-4.2,2.62-4.2h18.31c3.21,0,2.41,4.61,2.41,7.42,0,4.38-.27,28.6,.24,29.45,.28,.46,.51,.51,1.09,.62,1.84,.37,25.74,.32,27.88,.02,.92-1.56,.47-7.16,.47-9.56v-20.28c0-3.21-.92-7.67,2.55-7.67h18.8c1.82,0,2.64,.99,2.64,2.72v38.59c0,10.05-4.71,16.46-15.26,16.46h-46.27c-9.28,0-14.86-5.77-15.31-14.73-.24-4.83-.03-9.9-.21-14.85l-.18-17.07h0Zm142.62,46.64c-2.66,0-2.75-1.37-2.74-3.85,.03-5.96,.52-28.05-.78-31.61-.67-1.84-1.52-2.4-3.7-2.69-3.04-.41-15.68-.23-19.25-.24-3.83,0-6.34-.88-6.46,6.34-.14,8.61,0,17.35,0,25.97,0,6.9-.01,6.08-6.9,6.08-4.27,0-8.62,.08-12.88,.01-3.82-.06-2.82-3.88-2.82-10.29,0-4.29,0-8.58,0-12.86,0-6.29-.67-20.14,.98-25.1,2.42-7.31,8.56-9.96,15.96-9.96h37.61c5.07,0,7.12,2.75,8.16,3.25,1.29-1.51,3.9-3.25,6.99-3.25h41.01c9.95,0,14.85,5.87,14.85,15.78v40.07c0,1.7-1.04,2.37-2.76,2.37h-18.28c-2.01,0-2.38-1.29-2.37-3.1,.04-5.66,.24-24.68-.05-28.46-.32-4.13,.14-6.84-4.5-6.84h-19.79c-4.49,0-4.91,2.24-5.12,6.34-.29,5.61-.06,17.02-.06,23.26,0,4.56,.87,8.8-2.49,8.8h-14.6ZM84.38,183.1c-9.06,1.53-16.49,8.82-16.95,18.82-.26,5.74-.03,12.02-.03,17.82v35.62c0,4.85-.46,13.14,.31,17.5,1.63,9.21,10.16,14.28,19.41,16.5,2.23,.54,5.35,.95,7.55,1.26l185.09,29.5c3.54,.56,3.97,.87,7.62,.24l184.97-29.49c8.56-1.35,19.67-3.12,25.27-10.39,3.39-4.4,3.66-7.56,3.66-14.25v-53.43c0-10.63,1.22-19.81-9.2-26.77-4.57-3.05-8.3-3.24-14.65-3.24H102.09c-5,0-13.18-.46-17.71,.3Z"/>
  <path class="cls-1" d="M84.38,183.1c4.53-.76,12.71-.3,17.71-.3H477.42c6.35,0,10.09,.19,14.65,3.24,10.42,6.96,9.2,16.14,9.2,26.77v53.43c0,6.69-.27,9.85-3.66,14.25-5.61,7.27-16.71,9.04-25.27,10.39l-184.97,29.49c-3.65,.63-4.08,.31-7.62-.24l-185.09-29.5c-2.2-.31-5.32-.72-7.55-1.26-9.25-2.22-17.78-7.3-19.41-16.5-.77-4.36-.31-12.65-.31-17.5v-35.62c0-5.8-.23-12.08,.03-17.82,.46-10,7.89-17.29,16.95-18.82h0ZM285.53,39.14c2.36-.4,26.29,3.83,30.77,4.52,10.25,1.57,20.41,3.29,30.75,4.89,20.67,3.2,40.98,6.44,61.68,9.84,20.59,3.38,41.22,6.52,61.7,9.84,10.31,1.67,25.72,3.01,31.18,13.55,3.13,6.06,1.97,16.96,1.97,24.67v35.87c0,12.98,1.49,21.88-6.33,29.21-2.71,2.54-7.27,5.15-12.63,5.41-5.7,.28-12.06,.02-17.82,.02H91.45c-6.14,0-9.82-1.18-13.75-4.08-9.6-7.08-7.94-17.16-7.94-27.84v-53.67c-.01-8.55,3.24-13.16,9.65-16.97,6.68-3.97,13.27-4.49,20.95-5.76,20.49-3.39,41.14-6.71,61.72-9.85,20.47-3.12,41.09-6.53,61.63-9.82,20.55-3.29,41.33-6.34,61.83-9.83h0ZM57.79,292.7c1.07,.42,12.34,2.09,14.41,2.43,4.82,.78,9.41,1.52,14.25,2.3,47.69,7.67,95.46,15.66,143.14,23.14l57.07,9.16c1.7-.02,5.4-.81,7.22-1.12l214.68-34.69c1.54-.25,5.75-.75,7.06-1.22l-.1-225.58c-1.39-.54-56.09-9.16-57.22-9.34-19.15-3.02-38.14-6.16-57.3-9.27-19.06-3.09-38.12-6.24-57.29-9.26l-50.08-8.09c-1.77-.29-5.44-1.08-7-1.08-1.69,0-5.38,.82-7.22,1.11l-50.03,8.08c-19.28,3.09-38.2,6.3-57.3,9.26-.88,.14-112.61,17.88-114.4,18.58l.1,225.58Z"/>
  <path class="cls-7" d="M57.79,292.7l-.1-225.58c1.8-.7,113.52-18.44,114.4-18.58,19.09-2.96,38.02-6.17,57.3-9.26l50.03-8.08c1.84-.3,5.53-1.11,7.22-1.11,1.56,0,5.23,.79,7,1.08l50.08,8.09c19.17,3.01,38.23,6.16,57.29,9.26,19.16,3.11,38.15,6.25,57.3,9.27,1.13,.18,55.83,8.79,57.22,9.34l.1,225.58c-1.31,.47-5.52,.97-7.06,1.22l-214.68,34.69c-1.82,.31-5.52,1.1-7.22,1.12l-57.07-9.16c-47.68-7.48-95.45-15.47-143.14-23.14-4.84-.78-9.44-1.51-14.25-2.3-2.07-.34-13.34-2.01-14.41-2.43h0ZM47.65,58.22v243.39c2.5,0,4.96,.95,7.45,1.21l3.74,.46c1.31,.27,2.42,.46,3.75,.7l7.53,1.12c2.44,.41,4.77,.88,7.34,1.32,1.38,.23,2.42,.17,3.76,.44l22.33,3.65c1.2,.06,2.58,.36,3.86,.59,2.45,.44,4.83,1.1,7.31,1.35l11.1,1.76c1.25,.21,2.72,.28,3.96,.49l14.86,2.45c2.32,.47,5.05,1.13,7.4,1.25,1.59,.08,2.23,.29,3.68,.53,2.52,.41,4.86,1.07,7.45,1.21,3.67,.2,7.66,1.45,11.2,1.91l15.06,2.26c2.43,.5,4.8,.89,7.33,1.33,.3,.05,1.17,.26,1.64,.34,1.8,.31,2.56,.15,5.86,.82,1.17,.24,2.32,.46,3.54,.66l11.31,1.8c1.36,.22,2.15,.38,3.61,.6l15.02,2.3c1.47,.25,2.34,.44,3.75,.71,1.27,.24,2.47,.41,3.6,.6,1.28,.22,2.79,.26,3.95,.5,2.45,.51,4.84,.83,7.34,1.32l7.52,1.14c2.37,.39,5.03,1.14,7.39,1.26,2.43,.12,5.34,.75,7.48,1.18,8.71,1.72,10.7,.81,19.05-.61l7.54-1.12c1.1-.19,2.52-.47,3.78-.68,4.89-.79,10.05-1.45,14.86-2.45,1.18-.25,2.59-.29,3.73-.48,1.39-.24,2.32-.38,3.82-.63,3.35-.56,4.03-.81,7.5-1.16,3.01-.31,6.04-1.25,8.99-1.65l5.88-.8c2.33-.38,4.95-1.13,7.42-1.24,2.45-.11,4.97-.72,7.44-1.21,1.21-.24,2.22-.46,3.54-.67l3.96-.49c2.53-.46,4.97-.83,7.34-1.32l7.55-1.11c4.89-.88,9.98-1.49,14.84-2.47l7.53-1.13c2.35-.38,5.01-1.13,7.42-1.24,1.94-.09,19.4-3.19,22.3-3.68,1.2-.2,2.71-.27,3.75-.45,1.44-.25,2.32-.41,3.78-.67l5.43-1c.83-.16,1.23-.08,2.06-.17,2.35-.24,4.92-.85,7.35-1.31l59.98-9.54V58.22c-2.5,0-4.96-.95-7.45-1.21l-3.74-.46c-1.31-.27-2.42-.46-3.75-.7-1.34-.24-2.37-.39-3.61-.6l-26.3-4.13c-3.9-.59-7.21-1.61-11.06-1.81-2.35-.12-5.08-.78-7.41-1.25l-14.86-2.46c-1.25-.21-2.72-.28-3.96-.49l-14.86-2.45c-1.19-.24-2.3-.44-3.54-.66l-7.54-1.12c-2.52-.41-4.86-1.07-7.45-1.21-3.67-.19-7.66-1.45-11.2-1.91l-26.1-4.08c-1.13-.15-2.66-.43-3.79-.66l-14.86-2.46c-1.36-.22-2.15-.38-3.61-.6l-18.77-3c-1.27-.24-2.47-.41-3.6-.6l-11.28-1.83c-1.27-.25-2.15-.3-3.75-.46-3.73-.38-7.45-1.76-11.17-1.95-3.99-.2-7.5-1.21-11.27-1.85-2.72-.46-5.2-.45-7.93-.04-3.78,.57-7.48,1.71-11.23,1.88-2.5,.11-4.88,.83-7.42,1.24-1.22,.2-2.24,.44-3.56,.65l-35.34,5.73c-.73,.1-1.37,.02-2.11,.12-1.14,.15-2.54,.49-3.77,.68-2.35,.38-5.01,1.13-7.42,1.24-2.51,.11-4.97,.71-7.44,1.22l-7.5,1.16c-2.6,.47-4.94,.82-7.34,1.32l-15.04,2.28c-3.55,.36-7.4,1.56-10.95,1.92l-22.37,3.6c-1.4,.23-2.58,.25-3.96,.49-2.58,.44-4.9,.94-7.31,1.35l-7.57,1.08c-1.05,.16-2.34,.49-3.53,.68l-14.88,2.44c-3.9,.4-7.47,1.14-11.32,1.8l-12.93,2.17c-4.33,.44-12.37,1.78-16.98,2.57l-11.26,1.85c-1.49,.22-2.41,.56-3.89,.56Z"/>
  <path class="cls-1" d="M398.02,113.68l-18.87-.02c0,3.25,.47,31.34-.3,31.76,.17,7.88-6.64,6.37-13.27,6.37-21.14,0-20.53,2.38-20.53-18.62v-19.65l-15.4,.04v20.11c0,5.61,1,14.27-3.07,16.93-2.86,1.87-14.56,1.2-18.91,1.2-2.41,0-7.84,.39-9.61-.6-1.87-1.04-3.06-4.16-2.91-7.04-.62-.6-.31-13.2-.31-15.19,0-5.1,0-10.2,0-15.3h-17.94c-.38,9.77-.02,20.29-.02,30.14s-.89,19.22,7.99,22.28c5.48,1.89,22.1,1.11,28.99,1.11,4.87,0,10.26,.22,15.07-.03,3.4-.17,5.87-.89,7.33-3.69,.24-.46,.38-.86,.57-1.43l.54-1.21c1.19,2.15,.87,3.42,2.81,4.91,1.59,1.22,3.47,1.45,5.85,1.45,5.03,0,10.06,0,15.1,0,5.83,0,24.87,.52,29.29-.79,8.83-2.64,7.63-12.98,7.63-22.59,0-7.95,.32-23.08-.03-30.12Z"/>
  <path class="cls-1" d="M277.23,247.78l17.85,.07c0-3.06-.43-29.82,.3-30.21-.11-2.99,.93-6.17,2.74-7.22,1.96-1.14,6.72-.72,9.33-.72,4.57,0,15.89-.62,19.06,1.12,4.42,2.43,3.42,11.21,3.42,16.83v20.35l15.35,.02v-20.13c0-20.6-.72-18.21,21.79-18.21,5.76,0,12.66-1.37,12.05,7.8,.03,.05,.08,.12,.09,.16l.19,1.58c.27,8.16,.03,20.35,.03,28.62l18.79-.08c.34-4.04,.04-24.24,.04-30.01,0-8.72,1.54-20.05-7.54-22.67-4.34-1.25-23.56-.74-29.35-.74-5.03,0-10.06,0-15.1,0-6.48,0-6.75,1.92-8.69,6.56-1.45-2.83-1.02-6.22-8.37-6.54-4.87-.21-10.18-.02-15.1-.02-7.23,0-23.08-.81-29.02,1.08-8.84,2.81-7.92,12.3-7.92,22.33,0,5.21-.27,26.75,.05,30.02Z"/>
  <path class="cls-1" d="M433.06,209.86c1.64-.36,25.73-.42,27.9-.09,4.14,.63,3.06,6.06,3.06,11.2s1.02,10.68-2.69,11.34l-28.42,.03c-2.39-.29-3.03-1.68-3.05-4.2-.02-2.39,0-4.79,0-7.18,0-6.47-1.1-10.17,3.2-11.12h0Zm-22.2,54.59l18.98,.03,.02-16.63c6.88-.37,23.28-.04,31.23-.04,10.71,0,19.88,1.49,21.94-9.39,.75-3.98,.62-25.52,.42-30.57-.18-4.62-1.48-8.9-4.34-11.09-3.28-2.51-8.42-2.42-13.32-2.42h-31.18c-10.91,0-19.97-1.45-22.88,8.45-1.49,5.07-.9,23.85-.9,30.3,0,10.2-.41,21.26,.03,31.36Z"/>
  <path class="cls-1" d="M125.34,210.84h25.67c2.96,0,3.91,1.4,3.91,4.2v14.35c0,2.8-.95,4.17-3.85,4.17h-25.73c-5.98,0-4.64-4.81-4.64-11.34,0-5.25-1.42-11.37,4.64-11.37h0Zm-23.35,54l18.88,.08-.12-16.67c10.5-.06,20.92,0,31.32,0s19.84,1.59,21.87-9.37c.71-3.85,.66-26.04,.39-30.75-.3-5.21-1.45-8.89-4.51-11.08-3.65-2.62-8.22-2.27-13.29-2.27h-31.18c-10.78,0-19.74-1.21-22.52,8.63-1.43,5.07-.87,23.74-.87,30.17s-.31,26.85,.04,31.26Z"/>
  <path class="cls-1" d="M102.78,113.83l-1.42,.24c-.58,0-1.16,0-1.74,0h-10.33l.06,15.15,13.54,.14v16.68c0,5.72-.39,9.98,2.09,14.42,2.09,3.73,5.84,5.86,10.13,6.5,3.76,.56,26.85,.08,32.76,.07,9.77-.02,20.89,1.14,24.21-8.65,1.42-4.17,1.71-10.12,1.59-14.92l-17.11,.07c-.21,7.46-1.73,7.61-8.69,7.61-5.44,0-10.89,0-16.33,0-5.82,0-9.87,.68-10.3-5.88l.04-15.94c7.07-.37,50.59,.44,52.42-.22l-.03-15.15-52.45-.09v-20.04s-18.11,0-18.11,0c0,.96,.17,18.83-.1,19.74l-.22,.28Z"/>
  <path class="cls-1" d="M207.29,133.16c0-3.05,1.59-4.31,4.65-4.31h24.99c3.69,0,4.37,1.57,4.37,5.06v12.86c0,3.18-.52,4.8-3.88,4.8h-25.98c-2.92,0-4.15-1.23-4.15-4.06v-14.35h0Zm-18.81,22.01c1.5,12.43,10.9,11.79,19.74,11.79h31.42c10.96,0,19.34,1.07,20.99-10.35,.5-3.45,.52-27.21,.15-31.03-1.16-12.21-8.02-12.07-19.66-12.07h-31.42c-9.27,0-18.81-1.46-21.01,10.54-.58,3.16-.64,27.61-.22,31.13Z"/>
  <path class="cls-1" d="M262.77,194.88l-19.37-.1c-.64,6.77,.36,25.44-.08,33.87-.12,2.31-.91,3.55-3.16,3.76-2.44,.22-25.25,.19-27.41-.1-4.73-.64-3.64-4.55-3.64-10.09,0-6.71,.3-21.66-.03-27.33l-18.66-.09c-.75,6.17-.3,15.52-.18,21.98,.25,14.5-3.33,31.03,13.53,31.26,14.53,.2,30.09-.03,44.78,0,7.93,.02,12.1-2.2,13.61-8.98,1.21-5.42,.63-15.7,.63-21.79,0-7.11,.4-15.42-.03-22.38Z"/>
  <path class="cls-1" d="M411.02,126.93c.27,1.36-.13,17.37-.2,20.09-.15,6.58-.19,13.22,.29,19.81h18.56s0-26.24,0-26.24c0-1.11-.31-7.94,.37-8.35,.24-2.76,3.14-2.91,6.06-2.96h18.56c10.99,0,9.14-1.36,9.14,18.72,0,6.26,.09,12.58-.01,18.83h19.55s-.03-40.11-.03-40.11c.29-3.34-1.26-7.25-2.86-9.19-4.21-5.12-13.82-3.81-20.84-3.81-6.37,0-33-.27-37.09,.08-3.51,.3-6.81,1.89-8.41,3.82-1.64,1.98-3.39,5.74-3.09,9.32Z"/>
  <path class="cls-7" d="M276.92,113.66l18.06-.19c.27,1.08,.36,28.1,.19,30.68-.15,2.88,1.04,6,2.91,7.04,1.77,.98,7.2,.6,9.61,.6,4.34,0,16.05,.67,18.91-1.2,4.07-2.66,3.07-11.32,3.07-16.93v-20.11l15.4-.04v19.65c0,21.01-.61,18.62,20.53,18.62,6.63,0,13.43,1.51,13.27-6.37-.16-4.35-.1-30.89,.18-31.96,2.22-.29,13.08-.04,16.99-.08,1.81-.02,1.64-.16,2,.29,.35,7.04,.03,22.17,.03,30.12,0,9.61,1.2,19.95-7.63,22.59-4.42,1.32-23.46,.79-29.29,.79-5.03,0-10.06,0-15.1,0-2.38,0-4.26-.23-5.85-1.45-1.94-1.49-1.62-2.76-2.81-4.91l-.54,1.21c-.19,.57-.33,.97-.57,1.43-1.45,2.81-3.93,3.52-7.33,3.69-4.81,.24-10.2,.03-15.07,.03-6.89,0-23.51,.78-28.99-1.11-8.88-3.06-7.99-12.05-7.99-22.28s-.35-20.37,.02-30.14h0Zm123.21,40.27l-.15-42.61h-23.09c0,3.67,.34,32.04-.2,32.88,.05,6.82-2.63,5.34-12.83,5.34-3.05,0-6.1,0-9.15,0-3.26,0-5.79,.31-6.7-2.5-1.65-5.08-.07-28.66-.74-35.84h-19.79c-.69,7.28,.56,25.13-.29,33.09-.7,6.59-4.27,5.24-14.79,5.24-15.48,0-15.09,2.35-15.09-11.67,0-5.34,.26-22.79-.05-26.67h-22.52c-.33,3.19-.06,25.66-.06,30.87,0,4.74-.35,10.84,.44,15.28,.78,4.35,3.16,7.82,6.02,9.53,6.19,3.69,19.92,2.61,28.29,2.61,5.2,0,10.39,0,15.59,0,2.47,0,4.91,.06,7.17-.47,3.68-.86,3.99-2.17,5.2-2.78,2.08,1.76,2.98,2.91,6.94,3.19,4.93,.36,24.82,.05,30.66,.05,8.93,0,19.24,1.46,23.42-6.98,.92-1.86,2.06-6.18,1.73-8.58Z"/>
  <path class="cls-7" d="M295.38,217.64c.18,2.77,.13,29.23-.21,30.4-1.92,.28-12.36,.04-15.93,.08-.25,0-1.06,.04-1.24,0-1.15-.16-.39,.15-.76-.34-.32-3.27-.05-24.81-.05-30.02,0-10.03-.92-19.52,7.92-22.33,5.94-1.89,21.79-1.08,29.02-1.08,4.92,0,10.23-.19,15.1,.02,7.34,.32,6.92,3.71,8.37,6.54,1.94-4.64,2.21-6.56,8.69-6.56,5.03,0,10.06,0,15.1,0,5.79,0,25.01-.51,29.35,.74,9.07,2.62,7.54,13.95,7.54,22.67,0,5.77,.3,25.98-.04,30.01-.47,.48,.03,.36-2.21,.34-3.72-.03-14.71,.2-16.69-.08-.25-.77-.4-28.17-.21-30.53,.6-9.17-6.29-7.8-12.05-7.8-22.51,0-21.79-2.39-21.79,18.21v20.13l-15.35-.02v-20.35c0-5.63,.99-14.4-3.42-16.83-3.17-1.75-14.5-1.12-19.06-1.12-2.61,0-7.37-.42-9.33,.72-1.81,1.05-2.85,4.23-2.74,7.22h0Zm35.08,32.66h14.6c3.36,0,2.49-4.23,2.49-8.8,0-6.24-.23-17.65,.06-23.26,.21-4.1,.63-6.34,5.12-6.34h19.79c4.64,0,4.18,2.71,4.5,6.84,.29,3.78,.09,22.79,.05,28.46-.01,1.81,.36,3.1,2.37,3.1h18.28c1.72,0,2.76-.66,2.76-2.37v-40.07c0-9.9-4.91-15.78-14.85-15.78h-41.01c-3.09,0-5.7,1.74-6.99,3.25-1.04-.49-3.1-3.25-8.16-3.25h-37.61c-7.41,0-13.54,2.66-15.96,9.96-1.65,4.97-.98,18.82-.98,25.1,0,4.29,0,8.57,0,12.86,0,6.41-.99,10.23,2.82,10.29,4.26,.07,8.61-.01,12.88-.01,6.89,0,6.9,.82,6.9-6.08,0-8.62-.14-17.36,0-25.97,.12-7.22,2.63-6.34,6.46-6.34,3.57,0,16.21-.18,19.25,.24,2.18,.3,3.03,.85,3.7,2.69,1.3,3.57,.81,25.65,.78,31.61-.01,2.48,.08,3.85,2.74,3.85Z"/>
  <path class="cls-7" d="M102.78,113.83l.1-20.17c.89-.12,17.27-.4,18.33,.14v20.04s52.45,.09,52.45,.09l.03,15.15c-1.83,.67-45.35-.14-52.42,.22l-.04,15.94c.43,6.56,4.48,5.88,10.3,5.88,5.44,0,10.89,0,16.33,0,6.96,0,8.47-.14,8.69-7.61l17.11-.07c.12,4.8-.17,10.75-1.59,14.92-3.32,9.79-14.44,8.63-24.21,8.65-5.9,.01-29,.49-32.76-.07-4.29-.64-8.04-2.77-10.13-6.5-2.49-4.44-2.09-8.7-2.09-14.42v-16.68l-13.54-.14c-.32-.35-.18,.23-.33-.74-.01-.1,0-.84,0-1,.04-3.23-.16-11.53,.07-13.5,1.29-.45,11.84-.32,13.68-.14h0Zm-2.21-2.26l-13.72,.08-.06,19.88,13.77,.08c.1,5.89,.01,11.8,.01,17.64,0,6.03,.64,10.26,3.63,14.21,6.19,8.17,19.06,5.94,29.05,5.94,5.83,0,11.71-.11,17.57-.11,5.52,0,11.25,.08,15.94-1.87,4.13-1.72,6.67-5.02,7.95-9.86,.92-3.46,1.75-12.58,1.19-16.3l-21.66-.04c-.15,2.1,.17,4.39-.5,6.26-.72,2.02-3.37,1.41-5.65,1.37-6.15-.12-15.45,.27-20.79,.03-2.75-.12-3.47-.68-3.75-3.32-.39-3.72-.18-10.07-.07-13.95h52.41s.07-19.88,.07-19.88l-52.44-.08-.07-20.16-22.87-.13-.03,20.23Z"/>
  <path class="cls-7" d="M262.77,194.88c.43,6.96,.03,15.27,.03,22.38,0,6.09,.57,16.37-.63,21.79-1.51,6.79-5.68,9-13.61,8.98-14.69-.03-30.25,.2-44.78,0-16.87-.23-13.28-16.77-13.53-31.26-.11-6.46-.57-15.82,.18-21.98l18.66,.09c.33,5.67,.03,20.62,.03,27.33,0,5.54-1.09,9.45,3.64,10.09,2.16,.29,24.97,.33,27.41,.1,2.25-.21,3.04-1.44,3.16-3.76,.44-8.43-.56-27.1,.08-33.87l19.37,.1h0Zm-74.93,8.78l.18,17.07c.17,4.94-.04,10.01,.21,14.85,.45,8.96,6.03,14.73,15.31,14.73h46.27c10.55,0,15.26-6.41,15.26-16.46v-38.59c0-1.73-.82-2.72-2.64-2.72h-18.8c-3.46,0-2.55,4.46-2.55,7.67v20.28c0,2.4,.45,8-.47,9.56-2.14,.31-26.04,.35-27.88-.02-.58-.12-.81-.16-1.09-.62-.52-.85-.24-25.07-.24-29.45,0-2.81,.8-7.42-2.41-7.42h-18.31c-2.66,0-2.61,1.96-2.62,4.2,0,2.27-.21,4.72-.21,6.93Z"/>
  <path class="cls-7" d="M430.04,132.24l-.23,34.72c-1.36,.32-18.07,.29-19.03-.07-.55-6.5-.38-13.59-.19-20.13,.06-1.99-.05-19.74,.43-19.84-.3-3.57,1.44-7.34,3.09-9.32,1.6-1.93,4.9-3.52,8.41-3.82,4.1-.35,30.72-.08,37.09-.08,7.02,0,16.63-1.31,20.84,3.81,1.6,1.95,3.15,5.85,2.86,9.19l.26,1.23c.03,.43,.03,.82,.03,1.25,.05,5.57,.2,35.88-.1,37.76-1.88,.41-7.75,.13-10.05,.13-.99,0-8.83,.29-9.67-.27,.1-6.25,.01-12.57,.01-18.83,0-20.08,1.85-18.72-9.14-18.72h-18.56c-2.92,.05-5.82,.2-6.06,2.96h0Zm-21.46,37.01l23.54-.02c.03-4.16-.37-36,.31-36.97,.56-.7,1.71-.67,2.93-.67h24.25c2.28,0,1.93,.78,1.95,3.05v34.62s24.23-.03,24.23-.03c.06-12.27,0-24.54,0-36.8,0-10.93-1.06-21.01-15.79-21.01h-45.28c-6.17,0-10.37,2.07-13.01,5.53-2.86,3.76-3.19,9.62-3.19,15.48,0,6.18-.09,12.16-.16,18.3-.07,6.3,.18,12.29,.22,18.52Z"/>
  <path class="cls-7" d="M410.86,264.45c-.43-10.1-.03-21.15-.03-31.36,0-6.44-.59-25.23,.9-30.3,2.91-9.9,11.97-8.45,22.88-8.45h31.18c4.91,0,10.04-.09,13.32,2.42,2.86,2.19,4.16,6.47,4.34,11.09,.2,5.05,.33,26.59-.42,30.57-2.06,10.87-11.22,9.39-21.94,9.39-7.95,0-24.35-.33-31.23,.04l-.02,16.63-18.98-.03h0Zm-2.19-56.59v56.4c0,1.83,.81,2.49,2.7,2.49h18.08c3.52,0,2.64-3.67,2.64-6.95s-.05-6.49,.02-9.71c11.42-.3,23.23-.02,34.69-.02,8.2,0,14.76-.64,17.65-8.26,.64-1.68,1.31-5.31,1.31-7.25v-26.22c0-9.75-4.92-16.27-14.75-16.27h-47.26c-9.33,0-15.07,6.49-15.07,15.78Z"/>
  <path class="cls-7" d="M102,264.84c-.36-4.4-.04-25.08-.04-31.26s-.56-25.1,.87-30.17c2.78-9.85,11.74-8.63,22.52-8.63h31.18c5.07,0,9.63-.36,13.29,2.27,3.06,2.2,4.21,5.87,4.51,11.08,.27,4.7,.32,26.9-.39,30.75-2.03,10.96-11.05,9.37-21.87,9.37s-20.82-.06-31.32,0l.12,16.67-18.88-.08h0Zm-2.21-56.24v56.15c0,1.87,.94,2.44,2.79,2.44h17.81c3.08,0,2.82-1.79,2.8-4.42l-.21-12.01c1.55-.66,30.49-.24,34.77-.24,5.44,0,10.97-.16,14.24-3.19,3.09-2.87,4.65-7.17,4.65-13v-25.48c0-9.84-4.92-16.32-14.68-16.32h-47.01c-9.53,0-15.16,6.74-15.16,16.08Z"/>
  <path class="cls-7" d="M188.49,155.18c-.43-3.53-.36-27.97,.22-31.13,2.2-11.99,11.74-10.54,21.01-10.54h31.42c11.64,0,18.49-.13,19.66,12.07,.36,3.83,.35,27.58-.15,31.03-1.65,11.42-10.03,10.35-20.99,10.35h-31.42c-8.84,0-18.25,.64-19.74-11.79h0Zm-2.46-26.96v24.49c0,10.82,6.01,16.57,16.76,16.57h44.04c11.91,0,16.42-5.45,16.42-17.31v-23c0-11.24-4.38-17.76-15.67-17.76h-45.83c-10.5,0-15.71,6.62-15.71,17.02Z"/>
  <path class="cls-6" d="M432.25,212.64c-.42,2.19-.39,15.45,.09,17.29,1.94,.47,27.93,.51,29,0,.82-.64,.48-7.35,.48-8.7,0-2.81,.31-6.25-.26-8.89-2.32-.83-20.98-.4-26.2-.43-1.69,0-2.05-.12-3.1,.73Z"/>
  <path class="cls-6" d="M123.29,230.94c2.67,.76,23.82,.34,28.28,.34,1.73,0,1.15-4.42,1.15-7.09,0-2.81,0-5.61,0-8.42,0-1.53,.24-2.56-1.39-2.64-4.67-.21-15.93,.02-21.29,.02-2.11,0-6.53-.76-7.02,1.26-.23,.94-.18,14.79,.27,16.53Z"/>
  <path class="cls-5" d="M238.61,148.96c.42-.53,.39-.82,.4-1.94,.02-3.33,.19-13.91-.26-15.69-1.37-.37-27.56-.37-28.38,.01-1.13,.52-.82,2.46-.82,3.8,0,2.53-.42,13.34,.57,13.92,.79,.46,27.67,.5,28.49-.1Z"/>
  <path class="cls-7" d="M238.61,148.96c-.81,.6-27.7,.56-28.49,.1-.99-.57-.57-11.39-.57-13.92,0-1.33-.31-3.28,.82-3.8,.82-.38,27.01-.38,28.38-.01,.45,1.78,.28,12.36,.26,15.69,0,1.12,.02,1.4-.4,1.94h0Zm-31.32-15.8v14.35c0,2.83,1.23,4.06,4.15,4.06h25.98c3.35,0,3.88-1.62,3.88-4.8v-12.86c0-3.48-.68-5.06-4.37-5.06h-24.99c-3.06,0-4.65,1.27-4.65,4.31Z"/>
  <path class="cls-7" d="M123.29,230.94c-.45-1.74-.5-15.59-.27-16.53,.49-2.03,4.92-1.26,7.02-1.26,5.36,0,16.62-.23,21.29-.02,1.63,.07,1.39,1.1,1.39,2.64,0,2.81,0,5.61,0,8.42,0,2.67,.58,7.09-1.15,7.09-4.46,0-25.61,.42-28.28-.34h0Zm2.05-20.1c-6.06,0-4.64,6.12-4.64,11.37,0,6.53-1.34,11.34,4.64,11.34h25.73c2.9,0,3.85-1.37,3.85-4.17v-14.35c0-2.8-.95-4.2-3.91-4.2h-25.67Z"/>
  <path class="cls-7" d="M432.25,212.64c1.05-.85,1.42-.74,3.1-.73,5.23,.02,23.88-.41,26.2,.43,.58,2.63,.26,6.08,.26,8.89,0,1.35,.35,8.06-.48,8.7-1.07,.52-27.05,.48-29,0-.48-1.84-.51-15.1-.09-17.29h0Zm.81-2.78c-4.3,.94-3.2,4.64-3.2,11.12,0,2.39-.03,4.79,0,7.18,.02,2.52,.66,3.91,3.05,4.2l28.42-.03c3.71-.66,2.69-6.17,2.69-11.34s1.08-10.57-3.06-11.2c-2.17-.33-26.26-.27-27.9,.09Z"/>
  <path class="cls-7" d="M503.16,327.33c0-2.68,1.12-5.36,2.79-7.35,2.66-3.18,7.73-4.24,11.48-2.22,10.75,5.79,5.05,22.18-6.22,19.82-.38-.08-.65-.14-.98-.26-2.16-.73-3.88-2.14-5.15-4.01-.58-.86-.68-.66-1-1.72-.27-.89-.93-3.09-.93-4.27h0Zm11.33,12.61c1.66-.14,3.21-.52,4.34-1.15,5.08-2.84,6.84-6.52,6.84-12.2,0-3.33-1.31-6.13-3.53-8.35-1.6-1.6-1.03-.93-2.45-2-3.38-2.54-9.86-2.32-13.18,.11-1.46,1.07-2.86,1.93-3.94,3.73-1.36,2.26-2.14,4.27-2.14,7.26,0,3.71,2,8.29,4.96,10.13l1.73,1.24c1.21,.69,2.87,1.1,4.6,1.24h2.77Z"/>
  <path class="cls-7" d="M513.69,326.59l-.63,.22h-2.34l.1-4.87c1.09-.07,2.32-.3,3.16,.2,.78,.56,1.71,1.17,1.74,2.26,.04,1.16-1.14,1.82-2.03,2.19h0Zm-5.34-6.18v14.35h2.72v-6.18c5.32,0,3.36,2.35,5.2,6.18h2.72c-1.4-2.64-.6-6.29-2.97-6.93,.62-.84,.7-.36,1.39-1.09,.03-.03,.5-.7,.51-.73,.78-1.45,.97-5.02-3.15-5.83-2.25-.45-4.22-.28-6.41,.23Z"/>
  <path class="cls-4" d="M376.69,144.19c.54-.84,.2-29.2,.2-32.88h23.09s.15,42.62,.15,42.62c.4-.57,.28-1.47,.27-2.21-.06-6.38,.26-38.36-.09-40.41-1.19-.49-20.94-.34-23.61-.18l-.02,33.06Z"/>
  <path class="cls-8" d="M430.04,132.24c-.68,.41-.37,7.23-.37,8.35v26.25h-18.56c-.48-6.59-.44-13.23-.29-19.82,.06-2.72,.47-18.73,.2-20.09-.48,.1-.37,17.86-.43,19.84-.19,6.54-.36,13.63,.19,20.13,.96,.35,17.68,.38,19.03,.07l.23-34.72Z"/>
  <path class="cls-8" d="M378.86,145.42c.77-.42,.3-28.51,.3-31.76l18.87,.02c-.36-.45-.19-.31-2-.29-3.91,.04-14.77-.21-16.99,.08-.28,1.06-.34,27.61-.18,31.96Z"/>
  <path class="cls-8" d="M463.8,166.83c.84,.55,8.68,.27,9.67,.27,2.3,0,8.16,.28,10.05-.13,.29-1.88,.14-32.19,.1-37.76,0-.43,0-.82-.03-1.25l-.26-1.23,.03,40.11h-19.55Z"/>
  <path class="cls-8" d="M277.23,247.78c.37,.5-.38,.18,.76,.34,.19,.03,1,0,1.24,0,3.58-.04,14.01,.2,15.93-.08,.34-1.16,.39-27.62,.21-30.4-.73,.4-.3,27.15-.3,30.21l-17.85-.07Z"/>
  <path class="cls-8" d="M398.23,247.77l-18.79,.08c0-8.26,.24-20.46-.03-28.62l-.19-1.58s-.06-.1-.09-.16c-.2,2.37-.05,29.76,.21,30.53,1.98,.28,12.97,.05,16.69,.08,2.24,.02,1.74,.15,2.21-.34Z"/>
  <path class="cls-8" d="M295.17,144.15c.17-2.58,.08-29.6-.19-30.68l-18.06,.19h17.94c0,5.1,0,10.2,0,15.3,0,1.99-.31,14.59,.31,15.19Z"/>
  <path class="cls-2" d="M102.78,113.83l.22-.28c.27-.92,.1-18.78,.1-19.74h18.11c-1.06-.54-17.44-.26-18.33-.14l-.1,20.17Z"/>
  <path class="cls-8" d="M89.34,129.21l-.06-15.15h10.33c.58,0,1.16,0,1.74,0l1.42-.24c-1.85-.18-12.4-.3-13.68,.14-.23,1.98-.04,10.28-.07,13.5,0,.15-.02,.9,0,1,.15,.97,0,.39,.33,.74Z"/>
  <path class="cls-3" d="M513.69,326.59h-2.61v-4.45s2.9,0,2.9,0c-.84-.5-2.07-.27-3.16-.2l-.1,4.87h2.34l.63-.22Z"/>
</svg>