<?xml version="1.0" encoding="utf-8"?>
<!-- Generator: Adobe Illustrator 27.0.1, SVG Export Plug-In . SVG Version: 6.00 Build 0)  -->
<svg version="1.1" id="layer" xmlns="http://www.w3.org/2000/svg" xmlns:xlink="http://www.w3.org/1999/xlink" x="0px" y="0px"
	 viewBox="0 0 630 212" style="enable-background:new 0 0 630 212;" xml:space="preserve">
<g>
	<path d="M132.3,89.4h-21.6v48.8h21.6V89.4z M203,99.8v7.8h7.4v23c0,4.2,3.4,7.6,7.6,7.6h41v-23h-21.7v11.2v3.9c0,0-0.7,0.4-1.6,0.4
		c-2,0-3.6-1.6-3.6-3.6v-19.5H259v-7.8h-26.9v-7.7h-21.7v7.7H203z M191.6,138.2c0.1,0,0.1,0,0.2,0h0.1c0.1,0,0.1,0,0.2,0l0,0
		c4-0.2,7.2-3.5,7.2-7.6v-0.1v-22v-0.1c0-4.1-3.2-7.4-7.2-7.6l0,0c-0.1,0-0.1,0-0.2,0c0,0,0,0-0.1,0s-0.1,0-0.2,0H148
		c-0.1,0-0.2,0-0.2,0c-4,0.2-7.2,3.5-7.2,7.6v0.1v22v0.1c0,4.1,3.2,7.4,7.2,7.6l0,0c0.1,0,0.1,0,0.2,0h0.1c0.1,0,0.1,0,0.2,0H191.6z
		 M177.6,127.9c0,2.1-1.6,3.7-3.6,3.7h-5.5h-2.7c-2,0-3.6-1.7-3.6-3.7v-16.7c0-2.1,1.6-3.7,3.6-3.7h2.7h5.5c2,0,3.6,1.7,3.6,3.7
		V127.9z M102.4,100.9H80.8v37.3h21.6V100.9z M102.4,89.4H80.8V96h21.6V89.4z M65,87H14.8v67h21.7v-21.1H65c4.2,0,7.7-3.4,7.7-7.6
		V94.6C72.6,91.2,69.7,87,65,87 M50.9,122.7c0,2-1.6,3.6-3.6,3.6H36.5V93.5h10.8c2,0,3.6,1.7,3.6,3.7
		C50.9,97.2,50.9,122.7,50.9,122.7z"/>
	<path d="M271.3,132.1c2.6,0,4.7,2.1,4.7,4.8c0,2.7-2.1,4.8-4.7,4.8s-4.7-2.1-4.7-4.8C266.6,134.2,268.7,132.1,271.3,132.1
		L271.3,132.1z M271.3,132.8c-2.1,0-3.8,1.8-3.8,4c0,2.3,1.7,4,3.8,4c2.1,0,3.8-1.8,3.8-4C275.1,134.6,273.5,132.8,271.3,132.8
		L271.3,132.8z M270.4,139.6h-0.8v-5.3c0.4-0.1,0.9-0.1,1.5-0.1c0.8,0,1.3,0.2,1.6,0.4c0.3,0.2,0.5,0.6,0.5,1.1c0,0.7-0.5,1.1-1,1.3
		l0,0c0.5,0.1,0.8,0.5,0.9,1.3s0.3,1.1,0.3,1.3h-0.9c-0.1-0.2-0.2-0.7-0.4-1.4c-0.1-0.7-0.5-0.9-1.1-0.9h-0.6V139.6z M270.4,136.7
		h0.6c0.7,0,1.3-0.3,1.3-0.9c0-0.5-0.3-0.9-1.3-0.9c-0.3,0-0.5,0-0.6,0V136.7z"/>
	<path d="M610.2,136c2.6,0,4.7,2.1,4.7,4.8c0,2.7-2.1,4.8-4.7,4.8c-2.6,0-4.7-2.1-4.7-4.8C605.4,138.1,607.5,136,610.2,136
		L610.2,136z M610.1,136.7c-2.1,0-3.8,1.8-3.8,4c0,2.3,1.7,4,3.8,4s3.8-1.8,3.8-4C614,138.5,612.3,136.7,610.1,136.7L610.1,136.7z
		 M609.2,143.5h-0.8v-5.3c0.4-0.1,0.9-0.1,1.5-0.1c0.8,0,1.3,0.2,1.6,0.4c0.3,0.2,0.5,0.6,0.5,1.1c0,0.7-0.5,1.1-1,1.3l0,0
		c0.5,0.1,0.8,0.5,0.9,1.3c0.1,0.8,0.3,1.1,0.3,1.3h-0.9c-0.1-0.2-0.2-0.7-0.4-1.4c-0.1-0.7-0.5-0.9-1.1-0.9h-0.6V143.5z
		 M609.2,140.6h0.6c0.7,0,1.3-0.3,1.3-0.9c0-0.5-0.3-0.9-1.3-0.9c-0.3,0-0.5,0-0.6,0V140.6z"/>
	<polygon points="338,111.1 340.6,102 361.5,102 363.6,92.8 330.9,92.8 319.2,138.6 331.1,138.6 335.8,120.3 355.9,120.3 
		358.2,111.1 	"/>
	<polygon points="417.4,92.8 405.9,108.8 400.6,92.8 388.8,92.8 397.5,117.9 392.3,138.6 404.1,138.6 409,119.4 430.8,92.8 	"/>
	<polygon points="433.5,92.8 422,138.6 433.9,138.6 445.4,92.8 	"/>
	<polygon points="477.9,92.8 471.3,121.1 464,92.8 452.2,92.8 440.5,138.6 451.5,138.6 458.4,110.4 465.5,138.6 477.2,138.6 
		488.8,92.8 	"/>
	<polygon points="370.2,130.7 379.5,92.8 367.7,92.8 356.1,138.6 386.5,138.6 388.9,130.7 	"/>
	<path d="M548.3,136.6c-1.3-3.2-1.1-5.9-0.8-8.7l0.4-3.6c0,0-0.8-0.4-2.4-0.6c-1-0.1-3.4-0.2-6.2-0.1c-3,0.1-3.7,0.6-3.7,0.6
		s-0.3,0.3-0.8,3.7c-0.4,2.8-0.5,5.5,0.8,8.7c1.7,4,3.9,5.9,7.7,7.5c3.2,1.4,7,2.1,10.1,1.9c1.5-0.1,3.4-0.5,4.3-0.8
		c-0.5-0.1-1.1-0.2-1.6-0.4C552.4,143.5,550,140.7,548.3,136.6"/>
	<path d="M576.2,93.2L576.2,93.2L576.2,93.2z"/>
	<path d="M601.1,108.3l-26-8.8c0,0,3.4-18.1,4.2-22.2c1.6-8.9,1.4-17.9,1.3-18.9v-0.1l0,0c-1.1,1.1-5.5,6.6-8.6,12.7
		c-29.4-2.7-43,16.8-46.2,22.6c-2.9-1.8-6.8-3-11.4-3c-0.1,0-0.3,0-0.4,0c-0.2,0-0.3,0-0.5,0c-17.7,0-25.2,16.3-25.7,28
		c-0.5,15.5,9.3,21.1,17.4,21.1c0.1,0,0.2,0,0.4,0s0.3,0,0.5,0c5.1,0,8-2,10.1-4l-0.7,2.9h10.7l6.3-26.1h-20.2l-2.2,10.5h9.2
		c-1,2.6-1.9,4.6-4.5,6.5c-1.6,1.2-3.6,1.6-5.5,1.7c-1.7-0.1-3.3-0.6-4.6-1.5c-3.3-2.2-4.4-6.7-4.2-11c0.3-8.1,4.7-18.4,13.2-18.7
		c1.1,0,2.6,0.3,4.1,1.2c2.6,1.6,3.1,3.4,3.6,5.6l11.5-2.9l0,0l0,0c6.7-29.8,32-30.4,37.9-30.1c-0.9,2-1.8,4.1-2.4,6.2L563,98.4
		l-30.2,10.4l-0.2,2.5h27.9l-4.7,20.4c-1,3.9-2.2,5-4.4,5.5c2.6,9.3,14.1,3.5,15-0.1c0.4-1.6,6.4-26.3,6.4-26.3l28.5-0.1
		C601.2,110.7,601.2,109.1,601.1,108.3"/>
	<path d="M582.4,73.6c-0.1,0.3-0.3,0.8-0.4,1.4c18,7.5,26.3,28.8,18.7,47.9c-0.7,1.8-1.6,3.5-2.5,5.2c-3.2,5.9-7.4,9.9-11.8,12.7
		c-5.5,3.7-11.9,5.7-18.4,6c0.3,0.6,0.6,1.2,1,1.7c6.7,1.8,26.4,1.7,37.3-21.2c0.2-0.5,0.4-0.9,0.6-1.4c0.2-0.6,0.4-1.2,0.6-1.9
		C614.3,102.6,602.7,80.5,582.4,73.6"/>
</g>
</svg>
