<svg id="Component_528_2" data-name="Component 528 – 2" xmlns="http://www.w3.org/2000/svg" width="273.161" height="123.83" viewBox="0 0 273.161 123.83">
  <g id="Group_19314" data-name="Group 19314" transform="translate(0 0)">
    <g id="XMLID_192_" transform="translate(-225.756 -673.543)">
      <g id="XMLID_3_" transform="translate(225.756 690.353)" opacity="0.419">
        <path id="XMLID_162_" d="M673.971,835.3h0a7.3,7.3,0,0,0,7.3-7.3h0a7.3,7.3,0,0,0-7.3-7.3h0a7.3,7.3,0,0,0-7.3,7.3h0A7.3,7.3,0,0,0,673.971,835.3Z" transform="translate(-469.153 -762.311)" fill="#e5f3e5"/>
        <path id="XMLID_70_" d="M725.241,770.128h14.524a7.3,7.3,0,0,0,7.3-7.3h0a7.3,7.3,0,0,0-7.3-7.3H725.241a7.3,7.3,0,0,0-7.3,7.3h0A7.3,7.3,0,0,0,725.241,770.128Z" transform="translate(-497.455 -726.332)" fill="#e5f3e5"/>
        <path id="XMLID_75_" d="M810.236,770.128h0a7.3,7.3,0,0,0,7.3-7.3h0a7.3,7.3,0,0,0-7.3-7.3h0a7.3,7.3,0,0,0-7.3,7.3h0A7.3,7.3,0,0,0,810.236,770.128Z" transform="translate(-544.375 -726.332)" fill="#e5f3e5"/>
        <path id="XMLID_170_" d="M462.61,697.652h0a7.3,7.3,0,0,0-7.3-7.3H233.055a7.3,7.3,0,0,0-7.3,7.3h0a7.3,7.3,0,0,0,7.3,7.3h81.536a7.3,7.3,0,0,1,7.3,7.3h0a7.3,7.3,0,0,1-7.3,7.3H257.71a7.3,7.3,0,0,0-7.3,7.3h0a7.3,7.3,0,0,0,7.3,7.3h36.5a7.3,7.3,0,0,1,7.3,7.3h0a7.3,7.3,0,0,1-7.3,7.3H234.352a7.3,7.3,0,0,0-7.3,7.3h0a7.3,7.3,0,0,0,7.3,7.3h74.969a7.3,7.3,0,0,1,7.3,7.3h0a7.3,7.3,0,0,1-7.3,7.3h-9.886a7.3,7.3,0,0,0-7.3,7.3h0a7.3,7.3,0,0,0,7.3,7.3h66.2a7.3,7.3,0,0,0,7.3-7.3h0a7.3,7.3,0,0,0-7.3-7.3h-3.711a7.3,7.3,0,0,1-7.3-7.3h0a7.3,7.3,0,0,1,7.3-7.3H408.11a7.3,7.3,0,0,0,7.3-7.3h0a7.3,7.3,0,0,0-7.3-7.3H380.234a7.3,7.3,0,0,1-7.3-7.3h0a7.3,7.3,0,0,1,7.3-7.3H430.16a7.3,7.3,0,0,0,7.3-7.3h0a7.3,7.3,0,0,0-7.3-7.3H399.929a7.3,7.3,0,0,1-7.3-7.3h0a7.3,7.3,0,0,1,7.3-7.3H455.31A7.3,7.3,0,0,0,462.61,697.652ZM347.326,748.747H332.544a7.3,7.3,0,0,1-7.3-7.3h0a7.3,7.3,0,0,1,7.3-7.3h14.782a7.3,7.3,0,0,1,7.3,7.3h0A7.3,7.3,0,0,1,347.326,748.747Zm15.318-29.2h-6.268a7.3,7.3,0,0,1-7.3-7.3h0a7.3,7.3,0,0,1,7.3-7.3h6.268a7.3,7.3,0,0,1,7.3,7.3h0A7.3,7.3,0,0,1,362.644,719.55Z" transform="translate(-225.756 -690.353)" fill="#e5f3e5"/>
        <path id="XMLID_161_" d="M332.607,900.48h0a7.3,7.3,0,0,1-7.3-7.3h0a7.3,7.3,0,0,1,7.3-7.3h0a7.3,7.3,0,0,1,7.3,7.3h0A7.3,7.3,0,0,1,332.607,900.48Z" transform="translate(-280.711 -798.29)" fill="#e5f3e5"/>
        <path id="XMLID_66_" d="M606.362,900.48h0a7.3,7.3,0,0,1-7.3-7.3h0a7.3,7.3,0,0,1,7.3-7.3h0a7.3,7.3,0,0,1,7.3,7.3h0A7.3,7.3,0,0,1,606.362,900.48Z" transform="translate(-431.831 -798.29)" fill="#e5f3e5"/>
      </g>
      <g id="XMLID_103_" transform="translate(292.432 690.353)">
        <path id="XMLID_109_" d="M328.319,704.952H354.58a7.3,7.3,0,0,1,7.3,7.3h0a7.3,7.3,0,0,1-7.3,7.3H331.034a7.3,7.3,0,0,0-7.3,7.3h0a7.3,7.3,0,0,0,7.3,7.3h23.188a7.3,7.3,0,0,1,7.3,7.3h0a7.3,7.3,0,0,1-7.3,7.3h-3.209a7.3,7.3,0,0,0-7.3,7.3h0a7.3,7.3,0,0,0,7.3,7.3h18.459a7.3,7.3,0,0,1,7.3,7.3h0a7.3,7.3,0,0,1-7.3,7.3h-.651a7.3,7.3,0,0,0-7.3,7.3h0a7.3,7.3,0,0,0,7.3,7.3h41.963a7.3,7.3,0,0,0,7.3-7.3h0a7.3,7.3,0,0,0-7.3-7.3h-9.952a7.3,7.3,0,0,1-7.3-7.3h0a7.3,7.3,0,0,1,7.3-7.3h32.649a7.3,7.3,0,0,0,7.3-7.3h0a7.3,7.3,0,0,0-7.3-7.3h-5.172a7.3,7.3,0,0,1-7.3-7.3h0a7.3,7.3,0,0,1,7.3-7.3h4.461a7.3,7.3,0,0,0,7.3-7.3h0a7.3,7.3,0,0,0-7.3-7.3H398.1a7.3,7.3,0,0,1-7.3-7.3h0a7.3,7.3,0,0,1,7.3-7.3h18.018a7.3,7.3,0,0,0,7.3-7.3h0a7.3,7.3,0,0,0-7.3-7.3h-87.8a7.3,7.3,0,0,0-7.3,7.3h0A7.3,7.3,0,0,0,328.319,704.952Zm48.452,36.5h0a7.3,7.3,0,0,1,7.3-7.3h13.457a7.3,7.3,0,0,1,7.3,7.3h0a7.3,7.3,0,0,1-7.3,7.3H384.071A7.3,7.3,0,0,1,376.771,741.448Z" transform="translate(-321.02 -690.353)" fill="#e5f3e5"/>
      </g>
    </g>
    <g id="Group_19280" data-name="Group 19280" transform="translate(-75.493 -155.967)">
      <g id="Group_19368" data-name="Group 19368" transform="translate(173.557 181.352)">
        <g id="Ellipse_1134" data-name="Ellipse 1134" transform="translate(-6 -5)" fill="#92e61f" stroke="#008581" stroke-width="1">
          <circle cx="46.444" cy="46.444" r="46.444" stroke="none"/>
          <circle cx="46.444" cy="46.444" r="45.944" fill="none"/>
        </g>
        <path id="Subtraction_27" data-name="Subtraction 27" d="M8261.01,10547.179a45.321,45.321,0,0,1-35.353-16.965,45.323,45.323,0,0,0,62.9-64.36,45.507,45.507,0,0,1,12.939,15.6,44.982,44.982,0,0,1,3.576,9.745,45.387,45.387,0,0,1-26.423,52.415A45.027,45.027,0,0,1,8261.01,10547.179Z" transform="translate(-8220.443 -10460.291)" fill="#83d316"/>
        <g id="Union_49" data-name="Union 49" transform="translate(6.926 -2)" fill="#fff" stroke-linecap="round">
          <path d="M 32.28392028808594 71.74512481689453 C 30.45706939697266 71.74512481689453 28.73651885986328 71.01731109619141 27.43921852111816 69.69575500488281 L 1.482256770133972 43.16532135009766 C -1.158430695533752 40.46847152709961 -1.158430695533752 36.08014678955078 1.482406735420227 33.38315963745117 C 2.771306753158569 32.06347274780273 4.492181777954102 31.33643341064453 6.327544212341309 31.33643341064453 C 8.160894393920898 31.33643341064453 9.880657196044922 32.06347274780273 11.17000675201416 33.38360977172852 L 32.28388214111328 54.95793914794922 L 84.54454803466797 1.546846151351929 C 85.83872222900391 0.2267960906028748 87.55934143066406 -0.5000039339065552 89.38980865478516 -0.5000039339065552 C 91.22028350830078 -0.5000039339065552 92.94091033935547 0.2267960906028748 94.23471832275391 1.546496152877808 C 96.87653350830078 4.242821216583252 96.87657928466797 8.631196022033691 94.23493194580078 11.32902145385742 L 37.12762069702148 69.69516754150391 C 35.83152008056641 71.01723480224609 34.11144256591797 71.74512481689453 32.28392028808594 71.74512481689453 Z" stroke="none"/>
          <path d="M 32.28390884399414 71.2451171875 C 33.98181533813477 71.2451171875 35.5740966796875 70.56558227539062 36.77024078369141 69.34548950195312 L 93.877685546875 10.97919845581055 C 96.33056640625 8.47417163848877 96.33056640625 4.400025367736816 93.877685546875 1.896531939506531 C 92.68154907226562 0.6764519214630127 91.08927154541016 -1.406250021318556e-06 89.38980102539062 -1.406250021318556e-06 C 87.69034576416016 -1.406250021318556e-06 86.09808349609375 0.6764519214630127 84.90192413330078 1.896531939506531 L 32.28390884399414 55.6728401184082 L 10.81230926513672 33.73297119140625 C 9.616162300109863 32.50826644897461 8.027002334594727 31.83643913269043 6.327536106109619 31.83643913269043 C 4.632735729217529 31.83643913269043 3.035802602767944 32.50826644897461 1.839655995368958 33.73297119140625 C -0.6132240295410156 36.23801040649414 -0.6132240295410156 40.31061172485352 1.839655995368958 42.81563949584961 L 27.79603004455566 69.34548950195312 C 28.99373626708984 70.56558227539062 30.5844554901123 71.2451171875 32.28390884399414 71.2451171875 M 32.28390884399414 72.2451171875 C 30.32176208496094 72.2451171875 28.47449684143066 71.46413421630859 27.0824031829834 70.04602813720703 L 1.124869227409363 43.51497268676758 C -1.704557418823242 40.62539672851562 -1.704557418823242 35.92322540283203 1.125149250030518 33.03334426879883 C 2.508496046066284 31.61697196960449 4.356389045715332 30.83643913269043 6.327536106109619 30.83643913269043 C 8.296682357788086 30.83643913269043 10.14346885681152 31.61697196960449 11.52770900726318 33.03425216674805 L 32.28383636474609 54.24304580688477 L 84.18716430664062 1.197158575057983 C 85.57649230957031 -0.2199480682611465 87.42391204833984 -1.000001430511475 89.38980102539062 -1.000001430511475 C 91.35572052001953 -1.000001430511475 93.20314788818359 -0.2199480682611465 94.59176635742188 1.196465253829956 C 97.42268371582031 4.085798740386963 97.42277526855469 8.788064956665039 94.59218597412109 11.67882537841797 L 37.48501586914062 70.04485321044922 C 36.09375 71.46397399902344 34.24688339233398 72.2451171875 32.28390884399414 72.2451171875 Z" stroke="none" fill="#008581"/>
        </g>
        <path id="Union_52" data-name="Union 52" d="M31.905,67.081A5.254,5.254,0,0,1,28.144,65.5L1.557,38.611a5.361,5.361,0,0,1-1.505-3.05,5.481,5.481,0,0,1,.573-3.289,5.424,5.424,0,0,0,.932,1.27L28.144,60.436a5.275,5.275,0,0,0,7.521,0L94.16,1.27A5.376,5.376,0,0,0,95.091,0a5.472,5.472,0,0,1,.573,3.289,5.354,5.354,0,0,1-1.5,3.05L35.665,65.5A5.253,5.253,0,0,1,31.905,67.081Z" transform="translate(6.927 2.164)" fill="#e5f3e5"/>
      </g>
      <g id="Group_19270" data-name="Group 19270" transform="translate(130.05 162.297)">
        <path id="Path_34928" data-name="Path 34928" d="M22.4,49.5,23,48c.2-.4.8-.4.9,0l.6,1.5a4.738,4.738,0,0,0,2.6,2.6l1.5.6c.4.2.4.8,0,.9l-1.6.5a4.738,4.738,0,0,0-2.6,2.6l-.6,1.5c-.2.4-.8.4-.9,0l-.6-1.5a4.738,4.738,0,0,0-2.6-2.6l-1.5-.6c-.4-.2-.4-.8,0-.9l1.5-.6A4.466,4.466,0,0,0,22.4,49.5Z" fill="#92e61f"/>
        <path id="Path_34929" data-name="Path 34929" d="M92.473,89.129l.476-1.191c.159-.318.635-.318.715,0l.476,1.191A3.762,3.762,0,0,0,96.2,91.193l1.191.476c.318.159.318.635,0,.715l-1.27.4a3.762,3.762,0,0,0-2.064,2.064l-.476,1.191c-.159.318-.635.318-.715,0l-.476-1.191a3.762,3.762,0,0,0-2.064-2.064L89.138,92.3c-.318-.159-.318-.635,0-.715l1.191-.476A3.545,3.545,0,0,0,92.473,89.129Z" transform="translate(26 21.225)" fill="#92e61f"/>
        <path id="Path_34930" data-name="Path 34930" d="M95.746,90.438l.913-2.282c.3-.608,1.217-.608,1.369,0l.913,2.282a7.208,7.208,0,0,0,3.955,3.955l2.282.913c.609.3.609,1.217,0,1.369l-2.434.761a7.208,7.208,0,0,0-3.955,3.955l-.913,2.282c-.3.608-1.217.608-1.369,0l-.913-2.282a7.208,7.208,0,0,0-3.955-3.955l-2.282-.913c-.608-.3-.608-1.217,0-1.369l2.282-.913A6.793,6.793,0,0,0,95.746,90.438Z" transform="translate(26 -94.03)" fill="#92e61f"/>
        <circle id="Ellipse_1397" data-name="Ellipse 1397" cx="2" cy="2" r="2" transform="translate(21 75)" fill="#00a6a2"/>
        <circle id="Ellipse_1401" data-name="Ellipse 1401" cx="1" cy="1" r="1" transform="translate(26.9 65)" fill="#00a6a2"/>
        <circle id="Ellipse_1398" data-name="Ellipse 1398" cx="1" cy="1" r="1" transform="translate(132 77)" fill="#00a6a2"/>
        <circle id="Ellipse_1399" data-name="Ellipse 1399" cx="1.5" cy="1.5" r="1.5" transform="translate(141 72)" fill="#00a6a2"/>
      </g>
    </g>
  </g>
</svg>
