<svg width="21" height="20" viewBox="0 0 21 20" fill="none" xmlns="http://www.w3.org/2000/svg">
<g clip-path="url(#clip0_2848_225)">
<path d="M19.6422 9.85441V8.9591C19.6422 6.56602 18.7103 4.31625 17.0181 2.62406C15.326 0.931875 13.0761 0 10.6831 0C8.29004 0 6.0402 0.931875 4.34805 2.62406C2.6559 4.31625 1.72402 6.56602 1.72402 8.9591V9.8607C1.09594 10.3234 0.6875 11.0677 0.6875 11.9058V15.4837C0.6875 16.8837 1.82652 18.0228 3.22656 18.0228H4.6625C4.98609 18.0228 5.24844 17.7604 5.24844 17.4368V16.9332H7.01562C7.33922 16.9332 7.60156 16.6708 7.60156 16.3472V11.0422C7.60156 10.7186 7.33922 10.4563 7.01562 10.4563H5.24844V8.95473C5.24844 5.95559 7.6884 3.51562 10.6875 3.51562C13.6866 3.51562 16.1266 5.95559 16.1266 8.95469V10.4562H14.3594C14.0358 10.4562 13.7734 10.7186 13.7734 11.0422V16.3472C13.7734 16.6708 14.0358 16.9332 14.3594 16.9332H16.0667C15.8228 18.0164 14.8536 18.8281 13.6978 18.8281H11.269V17.381C11.9533 17.1404 12.4453 16.488 12.4453 15.7225V15.1648C12.4453 14.1956 11.6568 13.407 10.6875 13.407C9.71824 13.407 8.92969 14.1956 8.92969 15.1648V15.7225C8.92969 16.4847 9.41746 17.1349 10.0971 17.378V19.4141C10.0971 19.7377 10.3595 20 10.6831 20H13.6978C15.0995 20 16.3166 19.1948 16.9111 18.0228H18.1484C19.5485 18.0228 20.6875 16.8837 20.6875 15.4837V11.9058C20.6875 11.0637 20.2752 10.3166 19.6422 9.85441ZM10.1016 15.1648C10.1016 14.8418 10.3644 14.5789 10.6875 14.5789C11.0106 14.5789 11.2734 14.8418 11.2734 15.1648V15.7225C11.2734 16.0456 11.0106 16.3084 10.6875 16.3084C10.3644 16.3084 10.1016 16.0456 10.1016 15.7225V15.1648ZM4.07656 16.8509H3.22656C2.4727 16.8509 1.85938 16.2376 1.85938 15.4837V11.9058C1.85938 11.1519 2.4727 10.5386 3.22656 10.5386H4.07656V16.8509ZM6.42969 15.7613H5.24844V11.6282H6.42969V15.7613ZM10.6875 2.34375C7.04223 2.34375 4.07656 5.30941 4.07656 8.95469V9.36672H2.8959V8.95906C2.8959 4.6652 6.38922 1.17188 10.6831 1.17188C14.977 1.17188 18.4703 4.66519 18.4703 8.9591V9.36676H17.2984V8.95469C17.2984 5.30941 14.3328 2.34375 10.6875 2.34375ZM14.9453 11.6282H16.1266V15.7613H14.9453V11.6282ZM19.5156 15.4837C19.5156 16.2376 18.9023 16.8509 18.1484 16.8509H17.2984V10.5386H18.1484C18.9023 10.5386 19.5156 11.1519 19.5156 11.9058V15.4837Z" fill="black"/>
</g>
<defs>
<clipPath id="clip0_2848_225">
<rect width="20" height="20" fill="white" transform="translate(0.6875)"/>
</clipPath>
</defs>
</svg>
