<svg width="221" height="74" viewBox="0 0 221 74" fill="none" xmlns="http://www.w3.org/2000/svg">
<path d="M114.071 32.8314C114.128 32.88 114.185 32.9287 114.244 32.9788C114.298 33.0242 114.353 33.0696 114.409 33.1164C114.923 33.5754 115.159 34.1134 115.274 34.7915C115.282 34.9442 115.286 35.0972 115.286 35.2501C115.287 35.3408 115.287 35.4315 115.288 35.5249C115.288 35.6729 115.288 35.6729 115.288 35.8238C115.289 35.9285 115.289 36.0332 115.29 36.1411C115.291 36.4286 115.291 36.716 115.292 37.0034C115.292 37.1846 115.292 37.3657 115.293 37.5469C115.294 38.118 115.295 38.6891 115.295 39.2602C115.295 39.8468 115.296 40.4335 115.299 41.0201C115.315 45.2582 115.11 49.3396 114.32 53.5114C115.732 53.3118 116.876 52.4019 117.737 51.2813C118.078 50.8214 118.344 50.33 118.604 49.8198C118.982 49.1167 119.486 48.6233 120.095 48.1197C120.603 47.5634 120.634 46.8275 120.731 46.1069C120.919 44.8263 121.207 43.7095 122.276 42.899C123.543 42.049 125.081 42.01 126.54 42.2674C128.936 42.8335 130.957 44.5822 132.25 46.6559C133.608 48.9188 134.033 51.3426 133.846 53.9508C134.621 53.3002 135.321 52.6612 135.928 51.8416C136.007 51.7388 136.086 51.6361 136.165 51.5336C136.654 50.898 136.894 50.5433 136.917 49.7144C136.923 49.5443 136.929 49.3741 136.935 49.204C136.938 49.1144 136.941 49.0249 136.944 48.9326C137.004 47.2182 137.106 45.5349 137.404 43.8438C137.417 43.7681 137.43 43.6923 137.444 43.6143C137.62 42.6531 137.922 41.7579 138.733 41.1633C139.856 40.491 141.309 40.4399 142.56 40.7074C143.432 40.9421 144.381 41.3693 144.867 42.174C145.181 43.1291 144.951 44.1049 144.796 45.0688C144.565 46.566 144.418 48.0153 144.422 49.532C144.422 49.7551 144.422 49.9782 144.421 50.2012C144.421 50.3456 144.421 50.4901 144.422 50.6345C144.421 50.7326 144.421 50.7326 144.421 50.8326C144.423 51.2918 144.464 51.7374 144.52 52.1931C145.045 50.9638 145.565 49.733 146.06 48.4909C146.955 46.2574 147.934 44.0749 149.293 42.0861C149.347 42.0052 149.347 42.0052 149.403 41.9226C149.928 41.1442 150.505 40.4248 151.115 39.7131C151.218 39.5868 151.321 39.4605 151.424 39.3341C151.494 39.2562 151.564 39.1782 151.636 39.0979C151.693 39.0979 151.751 39.0979 151.81 39.0979C151.843 39.0196 151.843 39.0196 151.878 38.9397C152.066 38.5934 152.377 38.3772 152.677 38.1312C152.758 38.0651 152.838 37.9991 152.921 37.931C154.26 36.8717 155.629 36.4784 157.317 36.6714C158.806 36.9404 160.06 37.7364 160.957 38.9719C161.934 40.4831 162.07 42.1456 161.744 43.8856C161.347 45.8081 160.586 47.5841 159.752 49.3475C158.938 51.0682 158.232 52.8254 157.541 54.5992C157.422 54.9023 157.303 55.2051 157.183 55.5078C155.937 58.5235 155.937 58.5235 155.077 61.6626C155.021 61.9486 155.021 61.9486 154.934 62.1243C155.694 61.7837 156.34 61.3355 156.919 60.7291C157.103 60.5424 157.103 60.5424 157.293 60.449C157.502 60.3397 157.524 60.2289 157.624 60.0151C157.759 59.8268 157.903 59.6608 158.058 59.4877C158.115 59.4877 158.172 59.4877 158.231 59.4877C158.252 59.4399 158.273 59.3921 158.295 59.3429C158.432 59.0857 158.6 58.8714 158.779 58.6418C159.774 57.3498 160.692 55.9984 161.616 54.6539C161.671 54.574 161.726 54.4941 161.782 54.4118C162.013 54.0769 162.243 53.742 162.473 53.4068C162.776 52.9646 163.08 52.5232 163.386 52.0829C163.448 51.9928 163.511 51.9027 163.575 51.8099C163.694 51.6386 163.812 51.4675 163.932 51.2966C164.399 50.6208 164.786 49.9464 165.098 49.183C165.879 47.3306 166.891 45.6807 168.125 44.1075C168.214 43.9916 168.214 43.9916 168.304 43.8734C168.56 43.5593 168.856 43.3109 169.166 43.0529C169.24 42.99 169.314 42.9271 169.391 42.8623C171.267 41.3479 173.527 40.946 175.877 41.1357C177.508 41.325 179.316 42.0789 180.361 43.4044C180.775 43.9825 180.993 44.5548 181.142 45.25C181.529 45.1294 181.891 44.9746 182.257 44.802C182.952 44.5066 183.803 44.5354 184.51 44.7721C185.338 45.1247 185.977 45.7008 186.326 46.5478C186.538 47.1334 186.59 47.7051 186.634 48.324C186.642 48.4332 186.651 48.5424 186.66 48.6549C186.683 48.9445 186.705 49.2341 186.726 49.5238C186.765 50.0376 186.805 50.5513 186.845 51.065C186.854 51.176 186.863 51.287 186.872 51.4014C186.941 52.2542 187.041 53.1003 187.159 53.9475C187.223 54.416 187.265 54.8858 187.304 55.357C187.459 55.2312 187.615 55.1047 187.77 54.978C187.857 54.9077 187.943 54.8373 188.032 54.7648C188.27 54.5734 188.27 54.5734 188.432 54.3024C188.489 54.3024 188.546 54.3024 188.605 54.3024C188.605 54.2444 188.605 54.1864 188.605 54.1266C188.7 54.0271 188.796 53.9282 188.895 53.8317C190.155 52.5708 191.332 51 192.028 49.3474C192.834 47.4347 193.838 45.7346 195.114 44.1075C195.173 44.0302 195.232 43.953 195.294 43.8734C195.55 43.5593 195.845 43.3109 196.155 43.0529C196.229 42.99 196.304 42.9271 196.38 42.8623C198.256 41.3479 200.516 40.946 202.867 41.1357C204.497 41.325 206.305 42.0789 207.35 43.4044C207.764 43.9825 207.982 44.5548 208.131 45.25C208.519 45.1294 208.88 44.9746 209.247 44.802C209.941 44.5066 210.792 44.5354 211.499 44.7721C212.327 45.1247 212.966 45.7008 213.315 46.5478C213.527 47.1334 213.579 47.7051 213.623 48.324C213.632 48.4332 213.64 48.5424 213.649 48.6549C213.672 48.9445 213.694 49.2341 213.716 49.5238C213.754 50.0376 213.794 50.5513 213.834 51.065C213.843 51.176 213.852 51.287 213.861 51.4014C213.931 52.2542 214.03 53.1003 214.148 53.9475C214.213 54.416 214.254 54.8858 214.293 55.357C214.436 55.2439 214.579 55.1303 214.721 55.0165C214.841 54.9217 214.841 54.9217 214.962 54.8249C215.166 54.672 215.166 54.672 215.247 54.4782C215.305 54.4782 215.362 54.4782 215.421 54.4782C215.421 54.4202 215.421 54.3622 215.421 54.3024C215.478 54.3024 215.535 54.3024 215.595 54.3024C215.595 54.2444 215.595 54.1864 215.595 54.1266C215.69 54.0271 215.786 53.9282 215.884 53.8317C216.854 52.8604 217.647 51.7305 218.394 50.5789C218.535 50.3633 218.678 50.1507 218.827 49.941C218.884 49.8605 218.884 49.8605 218.942 49.7783C219.196 49.5026 219.467 49.4386 219.831 49.4247C220.263 49.4311 220.473 49.5629 220.777 49.8634C220.993 50.1212 221.004 50.3483 220.999 50.6821C220.921 51.3046 220.445 51.8782 220.102 52.3799C220.052 52.4527 220.003 52.5254 219.951 52.6004C219.314 53.5282 218.634 54.4028 217.873 55.23C217.705 55.4144 217.547 55.603 217.39 55.7965C216.597 56.7189 215.533 57.519 214.466 58.0815C214.409 58.0815 214.352 58.0815 214.293 58.0815C214.291 58.1684 214.289 58.2553 214.288 58.3449C214.124 66.3857 214.124 66.3857 211.429 69.7705C211.382 69.8291 211.336 69.8876 211.288 69.948C211.242 70.0044 211.195 70.0608 211.148 70.119C211.106 70.1702 211.064 70.2214 211.021 70.2741C210.908 70.3857 210.908 70.3857 210.735 70.3857C210.706 70.4727 210.677 70.5597 210.648 70.6494C210.436 70.8762 210.192 71.0673 209.954 71.2646C209.872 71.3331 209.79 71.4017 209.706 71.4723C207.642 73.1619 205.23 73.9566 202.577 73.8133C201.671 73.6986 200.828 73.3009 200.234 72.5829C199.316 71.365 199.212 69.9479 199.398 68.4617C199.874 65.5192 201.301 62.8855 203.185 60.6303C203.246 60.549 203.307 60.4678 203.369 60.3841C203.423 60.3203 203.477 60.2565 203.532 60.1908C203.589 60.1908 203.646 60.1908 203.705 60.1908C203.738 60.1093 203.738 60.1093 203.77 60.026C203.899 59.8053 204.004 59.7724 204.226 59.6635C204.255 59.5765 204.283 59.4895 204.313 59.3998C204.497 59.2289 204.497 59.2289 204.736 59.0373C204.822 58.9676 204.908 58.898 204.997 58.8262C205.131 58.7186 205.131 58.7186 205.267 58.6089C205.432 58.4718 205.597 58.3345 205.761 58.1969C206.095 57.9187 206.435 57.6545 206.79 57.4039C206.942 57.287 206.942 57.287 207.003 57.0269C207.011 56.8189 207.014 56.6106 207.015 56.4024C207.015 56.3402 207.015 56.2779 207.015 56.2138C207.015 56.0106 207.015 55.8074 207.014 55.6042C207.014 55.5008 207.014 55.5008 207.014 55.3952C207.012 54.5104 207.001 53.6266 206.965 52.7424C206.96 52.6173 206.96 52.6173 206.955 52.4897C206.935 52.0633 206.897 51.6477 206.83 51.2264C206.368 51.8308 205.909 52.4378 205.457 53.05C204.908 53.794 204.352 54.5332 203.792 55.2692C203.749 55.3256 203.706 55.3821 203.662 55.4403C203.206 56.0406 202.741 56.6244 202.234 57.1824C202.07 57.3638 201.911 57.5486 201.753 57.7355C200.505 59.1784 198.989 60.4885 197.024 60.6439C195.352 60.739 193.763 60.3244 192.468 59.2151C191.388 58.1762 190.937 56.8335 190.775 55.357C190.729 55.4113 190.684 55.4656 190.638 55.5215C189.974 56.2946 189.218 56.903 188.405 57.5048C188.355 57.5422 188.305 57.5796 188.253 57.6181C187.946 57.8412 187.663 57.9683 187.304 58.0815C187.302 58.1684 187.3 58.2553 187.298 58.3449C187.134 66.3857 187.134 66.3857 184.44 69.7705C184.393 69.8291 184.346 69.8876 184.298 69.948C184.252 70.0044 184.206 70.0608 184.159 70.119C184.117 70.1702 184.075 70.2214 184.032 70.2741C183.919 70.3857 183.919 70.3857 183.745 70.3857C183.717 70.4727 183.688 70.5597 183.659 70.6494C183.447 70.8762 183.203 71.0673 182.964 71.2646C182.883 71.3331 182.801 71.4017 182.716 71.4723C180.653 73.1619 178.24 73.9566 175.588 73.8133C174.682 73.6986 173.838 73.3009 173.245 72.5829C172.871 72.0871 172.615 71.6066 172.464 71.0009C172.448 70.9382 172.432 70.8754 172.416 70.8107C172.219 69.5456 172.391 68.2689 172.724 67.046C172.741 66.9821 172.759 66.9182 172.776 66.8524C173.362 64.7485 174.439 62.869 175.761 61.1576C175.815 61.0886 175.815 61.0886 175.869 61.0182C176.333 60.4191 176.333 60.4191 176.543 60.1908C176.6 60.1908 176.657 60.1908 176.716 60.1908C176.738 60.1365 176.759 60.0821 176.781 60.026C176.909 59.8053 177.015 59.7724 177.237 59.6635C177.265 59.5765 177.294 59.4895 177.324 59.3998C177.507 59.2289 177.507 59.2289 177.747 59.0373C177.833 58.9676 177.919 58.898 178.008 58.8262C178.097 58.7545 178.186 58.6828 178.278 58.6089C178.443 58.4718 178.607 58.3345 178.772 58.1969C179.106 57.9187 179.446 57.6545 179.8 57.4039C179.952 57.287 179.952 57.287 180.014 57.0269C180.022 56.8189 180.025 56.6106 180.025 56.4024C180.025 56.3402 180.026 56.2779 180.026 56.2138C180.026 56.0106 180.025 55.8074 180.025 55.6042C180.024 55.5008 180.024 55.5008 180.024 55.3952C180.023 54.5104 180.012 53.6266 179.976 52.7424C179.971 52.6173 179.971 52.6173 179.966 52.4897C179.945 52.0633 179.908 51.6477 179.84 51.2264C179.378 51.8308 178.92 52.4378 178.468 53.05C177.918 53.794 177.363 54.5332 176.803 55.2692C176.76 55.3256 176.717 55.3821 176.673 55.4403C176.216 56.0406 175.752 56.6244 175.245 57.1824C175.081 57.3638 174.922 57.5486 174.763 57.7355C173.516 59.1784 172 60.4885 170.035 60.6439C168.362 60.739 166.774 60.3244 165.479 59.2151C164.501 58.2746 164.095 57.0999 163.786 55.7965C163.267 56.5003 162.763 57.211 162.278 57.9387C161.461 59.1585 160.569 60.3048 159.62 61.4213C159.545 61.5138 159.47 61.6064 159.396 61.699C159.228 61.899 159.069 62.0667 158.871 62.2342C158.667 62.409 158.47 62.5852 158.278 62.7735C157.022 63.9945 155.576 64.6312 153.831 64.6037C152.562 64.5583 151.459 63.915 150.595 63.0032C149.41 61.7083 149.034 59.9646 149.092 58.2474C149.199 56.2656 149.867 54.2851 150.595 52.4568C150.624 52.383 150.653 52.3092 150.683 52.2331C151.112 51.165 151.603 50.1455 152.143 49.1316C152.291 48.8512 152.43 48.5671 152.569 48.2821C152.821 47.7656 153.081 47.2536 153.344 46.7427C153.848 45.7651 154.347 44.7853 154.837 43.8012C154.9 43.6746 154.964 43.548 155.028 43.4216C155.357 42.7676 155.665 42.1128 155.921 41.4252C155.952 41.3418 155.952 41.3418 155.984 41.2566C156.186 40.6926 156.348 40.1421 156.333 39.5374C156.331 39.4123 156.331 39.4123 156.328 39.2847C156.326 39.2231 156.324 39.1614 156.322 39.0979C155.298 39.1171 154.598 39.9158 153.892 40.592C153.834 40.647 153.775 40.7019 153.714 40.7585C149.726 44.6106 147.497 50.7674 145.82 55.9498C145.611 56.5799 145.389 57.2147 144.905 57.6806C143.767 58.2043 142.28 58.0672 141.125 57.6555C139.463 56.9827 138.472 55.7871 137.664 54.2145C137.604 54.0691 137.545 53.923 137.491 53.7751C137.433 53.8331 137.376 53.8911 137.317 53.9508C137.277 53.9914 137.236 54.032 137.195 54.0738C137.1 54.1699 137.007 54.2675 136.916 54.3663C136.126 55.2023 135.054 56.1729 133.975 56.582C133.736 56.6777 133.594 56.7526 133.412 56.939C133.241 57.3686 133.134 57.805 133.025 58.2539C132.734 59.3599 131.958 60.7865 131.155 61.597C131.098 61.597 131.041 61.597 130.982 61.597C130.961 61.6473 130.94 61.6976 130.918 61.7495C130.487 62.5294 129.554 63.0166 128.812 63.4427C128.753 63.4778 128.693 63.5129 128.632 63.5491C126.719 64.602 124.148 64.8118 122.076 64.211C120.293 63.6543 118.962 62.7487 118.051 61.0697C117.299 59.4503 116.626 56.6848 117.183 54.9176C117.103 54.9653 117.022 55.013 116.938 55.0621C115.903 55.6571 114.924 55.9898 113.712 55.8844C113.655 55.8554 113.598 55.8264 113.539 55.7965C113.508 55.9016 113.478 56.0067 113.446 56.1151C112.709 58.3369 111.069 60.3244 109.026 61.4213C107.045 62.3751 104.546 62.691 102.423 62.0426C101.575 61.7292 100.906 61.2272 100.516 60.3886C100.022 59.1702 100.192 57.7724 100.683 56.5817C101.008 55.8401 101.386 55.1836 101.91 54.5661C101.955 54.5013 102 54.4365 102.046 54.3697C102.087 54.3185 102.128 54.2673 102.17 54.2145C102.227 54.2145 102.285 54.2145 102.344 54.2145C102.361 54.1653 102.379 54.1162 102.397 54.0655C102.564 53.7841 102.799 53.6204 103.06 53.4345C103.113 53.3961 103.167 53.3576 103.223 53.318C104.412 52.4947 105.616 52.2715 107.03 52.1931C107.038 52.1341 107.047 52.0751 107.056 52.0142C107.124 51.5499 107.195 51.0876 107.283 50.6266C107.47 49.6298 107.604 48.633 107.697 47.623C107.713 47.4617 107.713 47.4617 107.728 47.2971C107.971 44.4968 107.922 41.6663 107.944 38.858C107.948 38.3088 107.953 37.7595 107.958 37.2102C107.967 36.1403 107.976 35.0704 107.985 34.0005C107.935 34.0106 107.886 34.0206 107.835 34.031C107.608 34.0772 107.381 34.1233 107.154 34.1694C107.077 34.1852 106.999 34.2011 106.919 34.2174C104.147 34.7803 104.147 34.7803 103.212 34.1763C102.945 33.996 102.712 33.8208 102.517 33.561C102.485 33.2315 102.485 33.2315 102.604 32.9458C103.036 32.6625 103.478 32.6054 103.977 32.5373C104.06 32.5252 104.144 32.5131 104.229 32.5006C104.501 32.4614 104.773 32.4234 105.045 32.3856C105.233 32.3588 105.421 32.3319 105.609 32.305C105.988 32.2508 106.367 32.1972 106.747 32.1439C107.165 32.085 107.583 32.0242 108.001 31.962C108.283 31.9201 108.565 31.8788 108.846 31.8376C108.975 31.8187 109.103 31.7996 109.232 31.7802C111.093 31.5004 112.573 31.5956 114.071 32.8314ZM124.56 44.1954C123.808 45.0548 123.499 46.043 123.519 47.1835C123.641 47.2379 123.641 47.2379 123.766 47.2934C124.41 47.5908 124.916 47.8408 125.254 48.5019C125.283 48.5539 125.312 48.6059 125.342 48.6594C125.77 49.5798 125.51 50.6138 125.201 51.5257C125.081 51.8416 125.081 51.8416 124.925 52.1244C124.796 52.3553 124.796 52.3553 124.869 52.5539C125.655 53.6033 126.822 54.4498 128.118 54.6539C128.171 51.3539 128.174 47.5113 125.835 44.915C125.537 44.6255 124.991 44.1954 124.56 44.1954ZM174.677 46.0959C174.193 46.7052 173.754 47.3378 173.341 47.9976C173.251 48.14 173.159 48.281 173.067 48.4219C171.516 50.8585 170.437 53.9368 170.381 56.8511C171.666 56.2723 172.783 55.025 173.616 53.9117C173.849 53.6005 174.095 53.3025 174.346 53.0061C174.621 52.6806 174.891 52.353 175.154 52.0173C175.417 51.6816 175.688 51.3541 175.962 51.0286C176.339 50.5816 176.7 50.1248 177.056 49.6609C177.398 49.2165 177.754 48.7847 178.113 48.3549C178.489 47.8883 178.405 47.3215 178.365 46.7441C178.282 46.026 178.138 45.3402 177.757 44.7227C177.73 44.6703 177.702 44.6178 177.673 44.5638C177.584 44.3959 177.584 44.3959 177.41 44.1954C176.271 44.0584 175.318 45.3044 174.677 46.0959ZM201.237 46.6493C200.915 47.0857 200.618 47.5377 200.33 47.9976C200.241 48.14 200.149 48.281 200.057 48.4219C198.505 50.8585 197.426 53.9368 197.37 56.8511C198.655 56.2723 199.772 55.025 200.605 53.9117C200.838 53.6005 201.084 53.3025 201.335 53.0061C201.61 52.6806 201.881 52.353 202.143 52.0173C202.406 51.6816 202.677 51.3541 202.951 51.0286C203.328 50.5816 203.69 50.1248 204.046 49.6609C204.388 49.2165 204.743 48.7847 205.103 48.3549C205.479 47.8878 205.393 47.322 205.354 46.7441C205.255 45.9491 205.082 45.2309 204.66 44.5469C204.621 44.4811 204.583 44.4153 204.543 44.3475C204.41 44.1751 204.41 44.1751 204.192 44.1628C202.893 44.3501 201.98 45.6688 201.237 46.6493ZM104.022 55.5675C103.352 56.3228 102.987 57.2075 103.017 58.2274C103.047 58.5184 103.117 58.7723 103.212 59.0483C103.733 58.9873 104.112 58.5085 104.425 58.1164C105.22 57.0816 106.249 55.6703 106.249 54.3024C105.44 54.3024 104.571 55.0272 104.022 55.5675ZM123.779 55.0055C123.551 55.6789 123.38 56.3515 123.242 57.0489C123.227 57.1215 123.213 57.1942 123.198 57.269C123.039 58.0969 122.98 58.9027 122.976 59.7459C122.974 59.8356 122.973 59.9252 122.971 60.0176C122.967 60.8207 123.084 61.5783 123.605 62.2122C123.966 62.5351 124.25 62.6226 124.72 62.5964C125.336 62.4891 125.758 61.8952 126.122 61.4213C127.009 60.1243 127.822 58.5557 127.771 56.939C127.694 56.9154 127.617 56.8919 127.538 56.8676C126.28 56.4645 125.136 55.9457 124.069 55.1538C123.896 54.9969 123.896 54.9969 123.779 55.0055ZM179.374 61.0807C177.434 63.0735 176.088 65.6068 175.81 68.4083C175.802 68.487 175.794 68.5657 175.786 68.6468C175.725 69.4061 175.782 70.1392 176.282 70.7373C176.368 70.7663 176.454 70.7953 176.543 70.8252C177.668 70.1913 178.304 69.0764 178.799 67.9249C178.824 67.8675 178.848 67.8102 178.874 67.7511C179.814 65.52 179.881 63.11 179.84 60.7182C179.658 60.7182 179.492 60.9636 179.374 61.0807ZM206.363 61.0807C204.423 63.0735 203.077 65.6068 202.8 68.4083C202.791 68.487 202.783 68.5657 202.775 68.6468C202.714 69.4061 202.772 70.1392 203.271 70.7373C203.357 70.7663 203.443 70.7953 203.532 70.8252C204.657 70.1913 205.293 69.0764 205.788 67.9249C205.813 67.8675 205.838 67.8102 205.863 67.7511C206.803 65.52 206.87 63.11 206.83 60.7182C206.647 60.7182 206.481 60.9636 206.363 61.0807Z" fill="black"/>
<path d="M77.5239 33.0335C78.013 33.4059 78.314 33.8803 78.5653 34.4397C78.5932 34.5004 78.621 34.5612 78.6497 34.6237C79.4962 36.8886 78.241 39.785 77.33 41.8329C76.3369 44.0051 75.0358 45.9715 73.5024 47.7876C73.2885 48.0413 73.078 48.2976 72.8702 48.5566C72.8154 48.6248 72.7606 48.693 72.7041 48.7632C72.4505 49.119 72.4555 49.486 72.4905 49.9078C72.5529 50.2495 72.6381 50.5839 72.7251 50.9199C72.7615 51.0639 72.7615 51.0639 72.7985 51.2108C72.8498 51.4133 72.9014 51.6157 72.9535 51.818C73.0323 52.1246 73.1098 52.4314 73.1872 52.7384C73.2374 52.9361 73.2877 53.1337 73.338 53.3313C73.3609 53.4217 73.3838 53.5121 73.4074 53.6052C73.5681 54.2278 73.7582 54.8366 73.9658 55.4447C74.0012 55.2828 74.0012 55.2828 74.0372 55.1176C74.1268 54.708 74.2173 54.2985 74.308 53.8891C74.3468 53.7136 74.3853 53.5381 74.4236 53.3625C75.0429 50.5252 75.712 47.6151 78.2636 45.911C79.5286 45.123 80.9113 44.7984 82.3891 45.0466C83.7898 45.3873 84.9862 46.1041 85.7682 47.3591C86.4583 48.6142 86.7348 49.947 86.7445 51.3799C86.7472 51.4726 86.7472 51.4726 86.7499 51.5671C86.7602 53.0849 86.352 54.5975 85.996 56.0599C85.9504 56.2499 85.9049 56.4398 85.8594 56.6297C85.6157 57.6445 85.366 58.6578 85.114 59.6705C85.0888 59.772 85.0636 59.8734 85.0376 59.978C84.9165 60.4651 84.7948 60.9521 84.6718 61.4387C84.388 62.569 84.1469 63.7003 83.9458 64.8486C84.0424 64.7523 84.1388 64.6558 84.2351 64.5592C84.2888 64.5054 84.3425 64.4517 84.3978 64.3963C84.6231 64.1603 84.8145 63.9063 85.0035 63.6402C85.0437 63.5838 85.084 63.5275 85.1256 63.4694C86.4644 61.5707 87.567 59.5021 88.6873 57.4675C89.0802 56.7545 89.4802 56.0458 89.882 55.3379C90.0316 55.0738 90.1803 54.8092 90.329 54.5446C90.8745 53.577 91.4298 52.617 92.0111 51.6711C92.0623 51.5874 92.1135 51.5038 92.1663 51.4176C92.4284 50.9951 92.6996 50.5798 92.9823 50.1712C93.0362 50.0933 93.0901 50.0154 93.1456 49.9351C93.3718 49.6692 93.6032 49.5058 93.941 49.421C94.3528 49.4043 94.5964 49.4714 94.9237 49.7321C95.1945 50.0046 95.3324 50.2194 95.339 50.6099C95.2621 51.1592 94.9134 51.5675 94.5983 52.0007C93.1337 54.0178 91.9901 56.3373 90.8286 58.5398C90.3814 59.3833 89.9079 60.2095 89.4273 61.0338C89.2307 61.3717 89.0411 61.7123 88.8567 62.0571C88.1394 63.393 87.2717 64.666 86.2889 65.8154C86.2209 65.906 86.1529 65.9967 86.0828 66.09C85.4101 66.8362 84.294 67.7607 83.2475 67.8524C82.2337 67.8792 81.343 67.8669 80.3877 67.4853C80.3108 67.4555 80.2338 67.4257 80.1545 67.395C79.2327 66.9851 78.4484 66.2234 78.0446 65.2881C76.8016 61.7268 78.2171 57.8905 79.3842 54.5104C79.7824 53.3559 80.163 52.1953 80.5394 51.0334C80.6067 50.8256 80.6748 50.6182 80.7435 50.411C81.1052 49.319 81.4087 48.3148 80.9952 47.1833C79.91 47.3219 79.0875 48.0591 78.4297 48.8971C76.4166 51.7276 76.39 55.5096 76.6354 58.8457C76.7352 60.2459 76.7352 60.2459 76.309 60.8058C75.5941 61.4615 74.5558 61.6729 73.6187 61.7726C73.5249 61.7836 73.5249 61.7836 73.4292 61.7949C71.7754 61.8931 70.3024 60.8804 69.106 59.8391C68.413 59.2127 67.8561 58.5309 67.3704 57.7298C67.3403 57.6805 67.3102 57.6311 67.2792 57.5803C66.4878 56.2536 66.0865 54.742 65.7215 53.2475C65.6921 53.2963 65.6627 53.345 65.6323 53.3952C64.9213 54.568 64.1873 55.7229 63.4326 56.8674C63.3926 56.9282 63.3526 56.9889 63.3114 57.0515C61.9237 59.1561 61.9237 59.1561 61.2197 60.0972C61.176 60.1558 61.1323 60.2144 61.0873 60.2747C60.9546 60.452 60.8214 60.629 60.6882 60.8058C60.6476 60.8599 60.6071 60.914 60.5654 60.9698C60.0499 61.6562 59.5066 62.3018 58.9223 62.9292C58.7447 63.1219 58.5753 63.3159 58.4101 63.5194C58.1308 63.8539 57.8083 64.1287 57.4772 64.4092C57.4066 64.4719 57.336 64.5345 57.2633 64.5991C55.6317 66.0137 53.9635 66.477 51.8364 66.3427C50.6029 66.191 49.6589 65.6766 48.8804 64.7003C47.9084 63.3491 47.955 61.42 48.1522 59.8315C48.4054 58.2257 49.0644 56.6794 49.6668 55.1811C49.6019 55.2361 49.537 55.2912 49.4702 55.3479C49.3847 55.4197 49.2993 55.4916 49.2112 55.5656C49.1266 55.6369 49.0421 55.7083 48.9549 55.7819C48.7595 55.935 48.5901 56.0491 48.3651 56.1478C48.3651 56.2058 48.3651 56.2638 48.3651 56.3236C48.2376 56.4522 48.2376 56.4522 48.0613 56.601C47.6885 56.9221 47.3318 57.2572 46.9766 57.598C46.5738 57.9844 46.1664 58.3628 45.7473 58.7311C45.5344 58.9199 45.3283 59.1159 45.1216 59.3118C43.7199 60.5985 42.4578 60.9568 40.6055 60.9049C39.5331 60.8514 38.3574 60.3266 37.581 59.5689C36.89 58.7918 36.447 57.8919 36.3024 56.8509C36.0836 57.0533 35.9443 57.2633 35.7973 57.5231C35.7512 57.6037 35.7052 57.6842 35.6577 57.7672C35.6091 57.8527 35.5605 57.9383 35.5105 58.0264C35.0802 58.7726 34.6418 59.4961 34.1328 60.1906C34.0959 60.2413 34.0591 60.292 34.0211 60.3443C33.0405 61.6836 31.901 62.8387 30.2276 63.1788C29.1909 63.3167 28.1059 63.0359 27.2336 62.4537C26.1043 61.5657 25.471 60.3359 25.2293 58.9216C25.1489 58.2037 25.1643 57.4791 25.1671 56.7575C25.1673 56.671 25.1675 56.5845 25.1678 56.4954C25.1752 54.5737 25.3869 52.7497 25.742 50.8636C25.7539 50.8006 25.7657 50.7377 25.7779 50.6728C26.1506 48.7164 26.679 46.8074 27.2553 44.9038C27.3167 44.6997 27.378 44.4956 27.4392 44.2915C27.5601 43.889 27.6812 43.4866 27.8027 43.0843C28.0131 42.3868 28.2223 41.6889 28.4312 40.9908C28.4851 40.8107 28.5392 40.6306 28.5934 40.4506C28.6251 40.3448 28.6569 40.239 28.6896 40.1301C28.7167 40.04 28.7437 39.95 28.7716 39.8573C28.8279 39.6635 28.8795 39.4699 28.9259 39.2735C27.228 40.3849 26.2943 42.22 25.4475 44.0263C25.3692 44.1923 25.2887 44.357 25.2078 44.5217C23.5075 48.0253 22.3121 51.8368 21.2511 55.5821C21.2334 55.6442 21.2157 55.7063 21.1975 55.7703C21.1463 55.9511 21.0956 56.132 21.0453 56.313C21.0292 56.371 21.013 56.429 20.9964 56.4888C20.911 56.8021 20.834 57.1159 20.7656 57.4335C20.7509 57.5008 20.7362 57.5682 20.7211 57.6376C20.6936 57.7663 20.667 57.8953 20.6418 58.0244C20.5578 58.4178 20.4416 58.6737 20.1609 58.9602C19.4525 59.2228 18.6544 59.2773 17.9045 59.3118C17.8198 59.3174 17.7352 59.3231 17.6479 59.3289C16.7127 59.3662 15.8388 59.1471 15.1214 58.5177C13.6816 57.033 13.8037 54.3944 13.8102 52.436C13.8343 50.5435 14.0368 48.6714 14.2943 46.7988C14.3744 46.2146 14.4515 45.6299 14.5282 45.0452C14.543 44.932 14.5579 44.8187 14.5732 44.7021C14.7393 43.4226 14.8675 42.143 14.9539 40.8555C14.9598 40.7708 14.9657 40.686 14.9717 40.5988C15.0594 39.2793 15.0504 37.9587 15.0407 36.6369C14.9157 36.7041 14.791 36.7719 14.6665 36.8401C14.597 36.8779 14.5275 36.9156 14.4559 36.9545C14.2577 37.0669 14.2577 37.0669 14.1149 37.2229C14.0768 37.2616 14.0386 37.3002 13.9993 37.34C13.942 37.34 13.8848 37.34 13.8258 37.34C13.8037 37.3893 13.7817 37.4386 13.759 37.4893C13.6375 37.7193 13.4908 37.909 13.3322 38.1145C11.5791 40.546 11.5134 43.9016 11.2094 46.7868C11.1841 47.0264 11.1586 47.2659 11.1329 47.5054C10.9227 49.4716 10.7174 51.4384 10.528 53.4068C10.5194 53.4957 10.5107 53.5845 10.5018 53.6761C10.3956 54.7707 10.3956 54.7707 10.3338 55.8685C10.3307 55.9523 10.3277 56.0362 10.3245 56.1226C10.3193 56.2814 10.3153 56.4403 10.3126 56.5993C10.2974 57.1003 10.2257 57.4942 9.87276 57.875C8.90581 58.5894 7.76574 59.1845 6.53605 59.0481C5.08597 58.8179 3.85877 58.1193 2.97154 56.9254C1.49438 54.7133 0.908569 51.9782 0.434179 49.3915C0.413126 49.2779 0.392074 49.1643 0.370384 49.0472C0.0831749 47.4103 -0.0055719 45.779 0.000267387 44.1183C0.000367893 44.0289 0.00046575 43.9395 0.000569302 43.8474C0.00397452 42.3066 0.0909761 40.8019 0.287733 39.2735C0.307796 39.1005 0.3278 38.9275 0.347735 38.7544C0.587094 36.8034 0.587094 36.8034 1.26403 36.148C2.1694 35.4688 3.46642 35.4976 4.54006 35.5822C5.18114 35.7012 5.74952 35.8726 6.18892 36.3732C6.55699 36.9249 6.71432 37.4457 6.80759 38.0994C6.82147 38.1902 6.83535 38.2811 6.84965 38.3747C7.01536 39.5083 7.11344 40.6495 7.20925 41.791C7.22512 41.9788 7.24134 42.1666 7.25767 42.3543C7.38769 43.8492 7.50666 45.3447 7.61439 46.8414C7.61931 46.9097 7.62424 46.9781 7.62931 47.0485C7.677 47.7118 7.72393 48.3751 7.76872 49.0386C7.78127 49.2237 7.79403 49.4088 7.80687 49.594C7.82238 49.8186 7.83747 50.0432 7.85204 50.2679C7.89518 51.3027 7.89519 51.3027 8.18492 52.2808C8.3426 51.1738 8.45492 50.0626 8.56928 48.9503C9.70914 37.9119 9.70914 37.9119 12.9091 35.2417C14.0761 34.3826 15.3993 34.0285 16.8279 34.2172C17.8021 34.3857 18.8026 34.7167 19.453 35.515C20.5169 37.1513 20.7759 39.4095 20.786 41.333C20.7865 41.41 20.787 41.487 20.7875 41.5664C20.7883 41.7291 20.7889 41.8918 20.7892 42.0545C20.79 42.2944 20.7927 42.5342 20.7955 42.7741C20.8086 44.9383 20.4596 47.074 20.15 49.2102C20.103 49.5363 20.0561 49.8624 20.0094 50.1885C19.9807 50.3885 19.9518 50.5886 19.9227 50.7886C19.843 51.3436 19.7764 51.8979 19.727 52.4566C19.7549 52.3595 19.7549 52.3595 19.7835 52.2606C20.676 49.1789 21.6224 46.1188 23.0247 43.2284C23.0783 43.1155 23.1318 43.0025 23.1854 42.8896C24.0469 41.0898 25.0901 39.4455 26.4092 37.9552C26.4787 37.8763 26.5481 37.7975 26.6197 37.7163C27.629 36.6322 28.8653 35.9075 30.3547 35.8435C31.7745 35.8546 33.1031 36.3707 34.1511 37.342C34.9896 38.2165 35.2004 39.2498 35.1871 40.4322C35.0809 43.1973 34.2477 45.8401 33.422 48.4561C32.2934 52.0388 31.1928 55.6757 30.3903 59.3502C30.3642 59.4697 30.3642 59.4697 30.3375 59.5916C30.2584 59.9737 30.2087 60.325 30.2276 60.718C32.4982 59.437 33.6685 56.648 34.8796 54.4321C35.9361 52.4998 35.9361 52.4998 36.5681 51.6052C36.9114 51.0936 37.1155 50.5563 37.3319 49.9824C38.2145 47.6716 39.6602 45.712 41.3357 43.9315C41.3879 43.8731 41.44 43.8146 41.4937 43.7544C42.401 42.7662 43.6972 41.9902 44.9806 41.6465C45.0777 41.6194 45.0777 41.6194 45.1769 41.5919C46.9234 41.1892 49.0254 41.43 50.5706 42.3502C51.8757 43.1997 52.6489 44.3638 53.0115 45.8866C53.0583 46.1712 53.0611 46.4406 53.0598 46.7291C53.0595 46.8427 53.0592 46.9563 53.059 47.0733C53.0582 47.1924 53.0575 47.3115 53.0567 47.4305C53.0563 47.5513 53.0559 47.6721 53.0556 47.7929C53.0545 48.0877 53.0531 48.3826 53.0513 48.6774C53.1375 48.6361 53.2236 48.5947 53.3123 48.5521C54.734 47.8853 56.0662 47.5847 57.6094 48.0619C58.0983 48.2626 58.4265 48.5171 58.6922 48.9795C58.898 49.7221 58.6854 50.2799 58.4427 50.99C58.4072 51.0956 58.3716 51.2013 58.335 51.3101C58.0402 52.1775 57.7198 53.0335 57.3901 53.8878C57.0521 54.7647 56.7258 55.646 56.3979 56.5268C56.3014 56.7856 56.205 57.0444 56.1086 57.3031C56.0457 57.4719 55.9828 57.6407 55.9199 57.8095C55.6943 58.4149 55.4686 59.0203 55.2422 59.6254C55.1643 59.8336 55.0865 60.0419 55.0089 60.2502C54.8485 60.6791 54.6865 61.1071 54.5165 61.5323C54.2062 62.31 53.9706 63.0526 53.8324 63.8819C54.9069 63.5231 55.713 62.8154 56.5226 62.0363C56.6058 61.9566 56.6891 61.877 56.7748 61.7949C57.3779 61.2071 57.9011 60.5783 58.4052 59.9025C58.5136 59.7578 58.6237 59.6146 58.7345 59.4717C59.814 58.0734 60.7731 56.5947 61.7259 55.1064C61.8885 54.8523 62.0515 54.5985 62.2146 54.3448C62.7488 53.5139 62.7488 53.5139 63.2794 52.6807C64.7478 50.3667 64.7478 50.3667 65.0273 50.0836C65.0163 49.5436 64.9585 49.0022 64.8977 48.4656C64.7749 47.3696 64.7356 46.2865 64.7398 45.1839C64.7399 45.0997 64.7401 45.0155 64.7402 44.9287C64.7437 43.6441 64.7804 42.3835 65.0273 41.1191C65.0447 41.0281 65.0447 41.0281 65.0625 40.9352C65.4661 38.9408 66.4181 37.1986 67.7175 35.6701C67.7756 35.5949 67.8336 35.5197 67.8935 35.4422C68.0476 35.2517 68.1995 35.098 68.3847 34.9396C68.5693 34.7806 68.7521 34.622 68.9287 34.4538C71.3477 32.1633 74.568 31.1899 77.5239 33.0335ZM74.5377 35.0796C72.575 37.1663 72.113 41.1953 72.1109 43.9315C72.1107 43.9921 72.1105 44.0526 72.1103 44.115C72.0588 44.7821 72.0588 44.7821 72.317 45.3377C75.2435 41.0412 75.2435 41.0412 76.0486 36.0217C75.9362 35.4312 75.7386 34.9865 75.3544 34.5276C75.0152 34.5276 74.7741 34.8571 74.5377 35.0796ZM48.7122 43.8436C48.5649 43.9974 48.4295 44.1515 48.2946 44.316C48.2525 44.3672 48.2104 44.4184 48.167 44.4711C45.8653 47.3096 44.1818 50.6093 43.0388 54.0825C43.0169 54.1491 42.9949 54.2157 42.9723 54.2843C42.4069 55.8019 42.4069 55.8019 42.2035 57.3782C42.5266 57.3782 42.583 57.3046 42.8273 57.0981C42.9417 57.0026 42.9417 57.0026 43.0585 56.9052C43.1014 56.869 43.1442 56.8328 43.1884 56.7956C43.4676 56.561 43.7498 56.33 44.0314 56.0984C44.092 56.0484 44.1527 55.9985 44.2152 55.947C44.5739 55.6517 44.9348 55.3599 45.3009 55.074C46.0717 54.4717 46.8322 53.8574 47.5863 53.234C48.056 52.8465 48.5313 52.4667 49.0095 52.0899C49.0558 52.0514 49.1021 52.0129 49.1498 51.9732C49.3197 51.8414 49.3197 51.8414 49.5645 51.6876C49.9644 51.4129 50.23 51.2148 50.3603 50.7308C50.4027 50.3538 50.3935 49.9788 50.3828 49.6002C50.3823 49.4653 50.3821 49.3304 50.3824 49.1955C50.3815 48.8174 50.3722 48.4401 50.3611 48.0622C50.3592 47.9729 50.3572 47.8837 50.3553 47.7917C50.3455 47.3811 50.3205 46.9765 50.2743 46.5681C50.2656 46.4869 50.2568 46.4057 50.2479 46.322C50.1043 45.368 49.5941 44.4834 48.8858 43.8436C48.8285 43.8436 48.7712 43.8436 48.7122 43.8436Z" fill="black"/>
<path d="M133.949 1.54807C134.07 1.64595 134.07 1.64595 134.193 1.74581C134.241 1.78411 134.289 1.8224 134.338 1.86185C135.19 2.62129 135.613 3.85485 135.683 4.97579C135.904 10.0065 133.378 15.0608 130.982 19.3232C130.899 19.4704 130.899 19.4704 130.815 19.6205C129.521 21.9197 128.122 24.1322 126.431 26.1565C126.37 26.2304 126.37 26.2304 126.307 26.3058C125.657 27.0695 125.657 27.0695 125.221 27.2135C125.159 27.2181 125.096 27.2228 125.032 27.2276C124.969 27.2338 124.906 27.24 124.842 27.2465C124.157 27.1994 123.658 26.6269 123.23 26.1343C122.937 25.7787 122.663 25.408 122.39 25.0359C122.346 24.9764 122.302 24.9169 122.257 24.8556C119.038 20.5126 116.091 14.4545 116.115 8.9196C116.115 8.85996 116.115 8.80033 116.116 8.73888C116.12 7.84735 116.151 7.00104 116.403 6.14017C116.419 6.08267 116.436 6.02518 116.453 5.96594C116.87 4.58803 117.599 3.37451 118.892 2.67412C119.793 2.29228 120.798 2.34478 121.696 2.71257C121.98 2.86261 122.227 3.03909 122.477 3.23989C122.548 3.29597 122.618 3.35205 122.691 3.40983C123.997 4.52072 124.682 6.10346 125.168 7.72214C125.207 7.64463 125.207 7.64463 125.248 7.56557C126.05 6.01444 126.919 4.67545 128.118 3.41567C128.182 3.34531 128.246 3.27496 128.312 3.20247C129.722 1.69413 131.963 0.443776 133.949 1.54807Z" fill="#A10800"/>
<path d="M171.904 1.00542C172.709 1.81324 172.979 2.77938 172.995 3.90569C172.996 4.05553 172.996 4.20537 172.996 4.35521C172.996 4.43833 172.996 4.52145 172.996 4.60709C172.997 4.88422 172.997 5.16135 172.997 5.43849C172.997 5.63776 172.997 5.83703 172.998 6.03631C172.998 6.57672 172.999 7.11713 172.999 7.65754C172.999 7.99544 172.999 8.33335 172.999 8.67126C173 9.79009 173 10.9089 173 12.0277C173 12.088 173 12.1482 173 12.2103C173 12.2706 173 12.3309 173 12.393C173 13.3698 173.001 14.3465 173.002 15.3233C173.004 16.328 173.004 17.3326 173.004 18.3373C173.004 18.9007 173.004 19.464 173.005 20.0274C173.006 20.5574 173.006 21.0875 173.005 21.6176C173.005 21.8116 173.006 22.0056 173.006 22.1996C173.014 25.2558 173.014 25.2558 171.965 26.3873C171.08 27.2078 170.231 27.4499 169.052 27.4309C168.023 27.3604 167.276 26.8903 166.606 26.1164C166.017 25.3857 165.815 24.5902 165.823 23.6606C165.823 23.5715 165.822 23.4825 165.822 23.3908C165.82 23.0952 165.821 22.7997 165.822 22.5042C165.821 22.2911 165.82 22.0781 165.82 21.8651C165.818 21.3482 165.818 20.8312 165.818 20.3143C165.819 19.8938 165.819 19.4733 165.818 19.0528C165.818 18.9928 165.818 18.9327 165.818 18.8709C165.818 18.7489 165.818 18.6269 165.818 18.5049C165.816 17.363 165.817 16.2211 165.818 15.0792C165.82 14.0366 165.818 12.994 165.816 11.9514C165.813 10.8784 165.812 9.80553 165.813 8.73261C165.813 8.61104 165.813 8.48947 165.813 8.3679C165.813 8.3081 165.813 8.2483 165.814 8.18669C165.814 7.76724 165.813 7.34781 165.812 6.92837C165.81 6.36265 165.811 5.79697 165.813 5.23125C165.813 5.02425 165.813 4.81725 165.812 4.61024C165.805 3.25014 165.811 2.06984 166.808 1.03701C168.312 -0.321261 170.382 -0.337527 171.904 1.00542ZM167.43 1.48228C166.746 2.1877 166.522 2.90181 166.529 3.86911C166.528 3.95666 166.528 4.04421 166.527 4.13441C166.526 4.42654 166.527 4.71864 166.527 5.01077C166.527 5.22072 166.526 5.43067 166.525 5.64062C166.524 6.15097 166.524 6.66132 166.524 7.17167C166.525 7.5867 166.525 8.00172 166.524 8.41675C166.524 8.47592 166.524 8.53508 166.524 8.59604C166.524 8.71626 166.524 8.83647 166.524 8.95669C166.522 10.083 166.523 11.2093 166.524 12.3356C166.525 13.3648 166.524 14.3939 166.521 15.4231C166.519 16.4812 166.519 17.5393 166.519 18.5974C166.519 19.191 166.519 19.7844 166.518 20.3779C166.516 20.9362 166.517 21.4943 166.518 22.0525C166.519 22.2571 166.518 22.4617 166.517 22.6662C166.516 22.9461 166.517 23.2259 166.519 23.5057C166.518 23.5861 166.517 23.6665 166.516 23.7494C166.527 24.6726 166.867 25.3326 167.491 25.9911C168.072 26.5368 168.777 26.7553 169.563 26.7333C170.346 26.631 171.082 26.2617 171.574 25.6327C172.106 24.8513 172.216 24.1566 172.215 23.2237C172.215 23.0969 172.215 23.0969 172.215 22.9674C172.216 22.6843 172.216 22.4011 172.216 22.118C172.216 21.9148 172.216 21.7117 172.217 21.5085C172.217 20.9569 172.218 20.4052 172.218 19.8536C172.218 19.3929 172.218 18.9323 172.218 18.4717C172.219 17.447 172.219 16.4222 172.219 15.3975C172.219 15.336 172.219 15.2746 172.219 15.2113C172.219 15.119 172.219 15.119 172.219 15.0248C172.219 14.028 172.22 13.0311 172.221 12.0343C172.223 11.0099 172.223 9.98543 172.223 8.96099C172.223 8.3862 172.223 7.81142 172.224 7.23663C172.225 6.69597 172.225 6.15531 172.224 5.61464C172.224 5.41642 172.225 5.21819 172.225 5.01997C172.226 4.74894 172.225 4.47793 172.225 4.2069C172.225 4.12886 172.226 4.05082 172.226 3.97042C172.221 3.09973 172.06 2.34658 171.509 1.65805C170.248 0.521641 168.762 0.380539 167.43 1.48228Z" fill="black"/>
<path d="M54.1601 0.943172C54.8864 1.64904 55.272 2.49473 55.3157 3.519C55.3192 3.73968 55.32 3.96021 55.3198 4.18092C55.32 4.26527 55.3203 4.34963 55.3205 4.43654C55.3213 4.7184 55.3214 5.00025 55.3216 5.2821C55.322 5.48454 55.3224 5.68698 55.3229 5.88942C55.324 6.43893 55.3246 6.98843 55.3249 7.53794C55.3252 7.88157 55.3256 8.22521 55.3259 8.56885C55.327 9.52176 55.3279 10.4747 55.3282 11.4276C55.3282 11.519 55.3282 11.519 55.3282 11.6122C55.3283 11.7037 55.3283 11.7037 55.3283 11.7972C55.3283 11.9209 55.3284 12.0446 55.3284 12.1683C55.3284 12.2296 55.3285 12.291 55.3285 12.3542C55.3288 13.3473 55.3303 14.3405 55.3324 15.3336C55.3344 16.3552 55.3355 17.3767 55.3356 18.3983C55.3357 18.9711 55.3362 19.5439 55.3378 20.1166C55.3392 20.6559 55.3394 21.1951 55.3386 21.7343C55.3385 21.9315 55.3389 22.1287 55.3398 22.3259C55.3514 25.1453 55.3514 25.1453 54.3204 26.3267C53.3071 27.2308 52.399 27.4825 51.0552 27.4089C50.1468 27.2717 49.4125 26.7137 48.8392 26.0061C48.3121 25.2629 48.1653 24.5186 48.1682 23.6203C48.1678 23.5322 48.1674 23.4441 48.167 23.3533C48.1659 23.0586 48.1661 22.764 48.1662 22.4694C48.1657 22.2579 48.1651 22.0464 48.1645 21.8348C48.1631 21.3203 48.1625 20.8057 48.1624 20.2911C48.1624 19.8726 48.162 19.4541 48.1614 19.0356C48.1599 17.8477 48.1591 16.6599 48.1592 15.472C48.1593 15.408 48.1593 15.344 48.1593 15.2781C48.1593 15.2141 48.1593 15.15 48.1593 15.084C48.1594 14.0464 48.1577 13.0087 48.1553 11.9711C48.1528 10.9044 48.1516 9.83761 48.1517 8.77085C48.1518 8.17248 48.1513 7.57412 48.1494 6.97575C48.1477 6.41278 48.1477 5.84984 48.149 5.28688C48.1492 5.08065 48.1488 4.87442 48.1477 4.6682C48.1464 4.38586 48.1472 4.1036 48.1485 3.82126C48.1472 3.69993 48.1472 3.69993 48.1458 3.57615C48.1542 2.76794 48.4003 2.03952 48.8857 1.39428C48.9555 1.28824 48.9555 1.28824 49.0267 1.18005C50.4048 -0.325756 52.645 -0.374747 54.1601 0.943172ZM49.7054 1.52268C49.014 2.26822 48.859 3.04053 48.8631 4.03142C48.8627 4.11754 48.8624 4.20365 48.8621 4.29238C48.8612 4.57964 48.8615 4.86689 48.8619 5.15416C48.8615 5.36064 48.861 5.56713 48.8605 5.77362C48.8593 6.33362 48.8593 6.89363 48.8595 7.45364C48.8596 7.98069 48.8591 8.50774 48.8586 9.03479C48.8577 10.1425 48.8579 11.2502 48.8584 12.3579C48.8588 13.37 48.8579 14.3821 48.8562 15.3942C48.8545 16.4349 48.8538 17.4755 48.8541 18.5161C48.8543 19.0998 48.8541 19.6835 48.8529 20.2672C48.8518 20.8161 48.8519 21.3651 48.8531 21.9141C48.8533 22.1152 48.853 22.3164 48.8523 22.5175C48.8514 22.7928 48.8521 23.068 48.8532 23.3432C48.8526 23.4222 48.8519 23.5013 48.8513 23.5827C48.8586 24.4541 49.0787 25.1394 49.6396 25.8035C50.2073 26.3668 50.8989 26.6984 51.6953 26.7332C52.5236 26.709 53.2598 26.3305 53.8336 25.7325C54.4089 25.0312 54.5662 24.3375 54.5596 23.4395C54.56 23.3529 54.5604 23.2664 54.5608 23.1772C54.5619 22.889 54.561 22.6008 54.5602 22.3126C54.5606 22.1053 54.561 21.8979 54.5616 21.6905C54.5628 21.1285 54.5623 20.5665 54.5615 20.0045C54.5611 19.6532 54.5611 19.3019 54.5614 18.9506C54.5614 18.8629 54.5614 18.8629 54.5615 18.7735C54.5616 18.6548 54.5617 18.5361 54.5617 18.4174C54.5625 17.3056 54.5616 16.1939 54.5602 15.0821C54.5591 14.1295 54.5593 13.1769 54.5605 12.2243C54.5619 11.1165 54.5624 10.0087 54.5616 8.90087C54.5615 8.78259 54.5615 8.6643 54.5614 8.54602C54.5613 8.48783 54.5613 8.42964 54.5613 8.36969C54.561 7.96091 54.5614 7.55214 54.562 7.14336C54.5628 6.59244 54.5622 6.04154 54.5607 5.49062C54.5604 5.28875 54.5605 5.08688 54.5611 4.88501C54.5618 4.60882 54.5609 4.33268 54.5596 4.05649C54.5602 3.97718 54.5608 3.89786 54.5614 3.81615C54.553 2.89215 54.3068 2.14356 53.6587 1.48217C52.4484 0.486655 50.8915 0.452722 49.7054 1.52268Z" fill="black"/>
<path d="M57.8243 0.16379C58.0722 0.162148 58.3201 0.160955 58.5681 0.160014C58.6376 0.159508 58.7071 0.159002 58.7787 0.15848C60.3018 0.154154 61.4267 0.579711 62.5973 1.56998C62.6544 1.61768 62.7114 1.66538 62.7702 1.71452C64.1591 2.99464 64.755 5.01744 64.8713 6.85866C64.905 9.14412 64.227 11.1861 62.6733 12.869C62.0259 13.5078 61.226 14.0139 60.341 14.2257C60.2735 14.242 60.2061 14.2584 60.1366 14.2752C59.8738 14.3192 59.6255 14.3221 59.3593 14.3191C59.2665 14.3183 59.1738 14.3175 59.0782 14.3167C59.0081 14.3157 58.938 14.3147 58.8657 14.3136C58.9037 14.3896 58.9418 14.4656 58.981 14.544C59.3419 15.2687 59.6924 15.9978 60.0373 16.7305C60.4487 17.6036 60.8722 18.4698 61.301 19.3342C61.7378 20.2145 62.1672 21.0975 62.5834 21.9882C62.9693 22.8107 63.3731 23.6241 63.7786 24.437C63.9089 24.6986 64.038 24.9609 64.1661 25.2238C64.2217 25.3374 64.2777 25.4508 64.3341 25.5641C64.4221 25.7417 64.5086 25.9201 64.5947 26.0987C64.622 26.153 64.6492 26.2073 64.6773 26.2632C64.8335 26.5922 64.8816 26.7952 64.7669 27.1451C64.5662 27.2001 64.5662 27.2001 64.333 27.233C64.0537 27.0444 64.0077 26.9639 63.8719 26.6659C63.8346 26.5852 63.7973 26.5045 63.7589 26.4214C63.7192 26.334 63.6796 26.2465 63.6387 26.1564C63.553 25.9709 63.4671 25.7855 63.3811 25.6002C63.3373 25.5058 63.2936 25.4114 63.2485 25.3141C63.0523 24.8958 62.8469 24.4824 62.6407 24.0691C62.3356 23.4552 62.0368 22.8388 61.7458 22.218C61.1719 20.9936 60.5807 19.7777 59.9911 18.561C59.9112 18.396 59.8313 18.231 59.7515 18.066C59.7163 17.9936 59.6812 17.9212 59.645 17.8466C59.2899 17.1125 58.948 16.3721 58.6054 15.6319C58.6051 15.6906 58.6048 15.7494 58.6045 15.8099C58.5974 17.2372 58.5895 18.6645 58.5804 20.0918C58.576 20.7821 58.572 21.4723 58.5687 22.1626C58.5659 22.764 58.5624 23.3655 58.5582 23.9669C58.5561 24.2855 58.5542 24.6041 58.553 24.9227C58.5517 25.278 58.549 25.6332 58.5462 25.9885C58.5461 26.0947 58.5459 26.2009 58.5457 26.3103C58.5447 26.4067 58.5437 26.5031 58.5427 26.6023C58.5423 26.6864 58.5418 26.7705 58.5413 26.8572C58.5186 27.0572 58.5186 27.0572 58.345 27.233C57.9497 27.1842 57.9497 27.1842 57.8243 27.0572C57.8159 26.9138 57.8136 26.7701 57.8136 26.6264C57.8135 26.5326 57.8133 26.4387 57.8131 26.342C57.8134 26.2376 57.8136 26.1332 57.8139 26.0257C57.8138 25.9158 57.8137 25.8059 57.8137 25.6927C57.8135 25.3862 57.8138 25.0798 57.8142 24.7734C57.8146 24.4435 57.8145 24.1135 57.8144 23.7836C57.8144 23.2115 57.8146 22.6395 57.8151 22.0674C57.8158 21.2403 57.8161 20.4131 57.8162 19.586C57.8164 18.2441 57.8169 16.9023 57.8178 15.5605C57.8186 14.2567 57.8192 12.9529 57.8195 11.6491C57.8196 11.5688 57.8196 11.4885 57.8196 11.4057C57.8197 11.0029 57.8198 10.6 57.8199 10.1971C57.8208 6.85269 57.8224 3.50824 57.8243 0.16379ZM58.5186 0.866887C58.5186 5.07228 58.5186 9.27768 58.5186 13.6105C60.052 13.6105 61.1083 13.3589 62.2339 12.2702C63.6562 10.7471 64.1501 8.81627 64.097 6.76287C64.0085 4.75744 63.1581 3.14175 61.7417 1.76464C60.8225 0.986923 59.6651 0.866887 58.5186 0.866887Z" fill="black"/>
<path d="M133.949 1.54807C134.07 1.64595 134.07 1.64595 134.193 1.74581C134.241 1.78411 134.289 1.8224 134.338 1.86185C135.19 2.62129 135.613 3.85485 135.683 4.97579C135.904 10.0065 133.378 15.0608 130.982 19.3232C130.899 19.4704 130.899 19.4704 130.815 19.6205C129.521 21.9197 128.122 24.1322 126.431 26.1565C126.37 26.2304 126.37 26.2304 126.307 26.3058C125.657 27.0695 125.657 27.0695 125.221 27.2135C125.159 27.2181 125.096 27.2228 125.032 27.2276C124.969 27.2338 124.906 27.24 124.842 27.2465C124.157 27.1994 123.658 26.6269 123.23 26.1343C122.937 25.7787 122.663 25.408 122.39 25.0359C122.346 24.9764 122.302 24.9169 122.257 24.8556C119.038 20.5126 116.091 14.4545 116.115 8.9196C116.115 8.85996 116.115 8.80033 116.116 8.73888C116.12 7.84735 116.151 7.00104 116.403 6.14017C116.419 6.08267 116.436 6.02518 116.453 5.96594C116.87 4.58803 117.599 3.37451 118.892 2.67412C119.793 2.29228 120.798 2.34478 121.696 2.71257C121.98 2.86261 122.227 3.03909 122.477 3.23989C122.548 3.29597 122.618 3.35205 122.691 3.40983C123.997 4.52072 124.682 6.10346 125.168 7.72214C125.207 7.64463 125.207 7.64463 125.248 7.56557C126.05 6.01444 126.919 4.67545 128.118 3.41567C128.182 3.34531 128.246 3.27496 128.312 3.20247C129.722 1.69413 131.963 0.443776 133.949 1.54807ZM128.639 3.67933C128.54 3.77263 128.54 3.77263 128.439 3.86781C126.904 5.35623 125.949 7.36687 125.081 9.3041C125.052 9.3041 125.023 9.3041 124.994 9.3041C124.969 9.19987 124.943 9.09565 124.917 8.98826C124.391 6.8647 123.678 4.74024 121.823 3.43661C121.075 2.98877 120.288 2.93019 119.44 3.06412C119.131 3.16384 118.909 3.29758 118.659 3.50356C118.607 3.5397 118.555 3.57584 118.502 3.61307C117.437 4.42064 116.959 5.82891 116.75 7.10693C116.703 7.64213 116.707 8.17952 116.712 8.71636C116.712 8.7902 116.712 8.86404 116.713 8.94012C116.736 11.9696 117.619 14.8123 118.832 17.5655C118.869 17.6488 118.905 17.7321 118.942 17.818C120.016 20.2816 121.228 22.6739 122.911 24.7722C122.972 24.8502 123.032 24.9281 123.094 25.0084C123.812 26.0599 123.812 26.0599 124.837 26.6673C125.648 26.546 126.171 25.6553 126.643 25.0359C126.683 24.9831 126.723 24.9304 126.765 24.876C128.404 22.7222 129.781 20.3818 131.032 17.9788C131.148 17.7553 131.266 17.5326 131.384 17.3101C132.367 15.4543 133.202 13.5608 133.933 11.5892C133.979 11.4659 133.979 11.4659 134.026 11.3401C134.661 9.64225 135.076 7.91848 135.086 6.09747C135.087 5.97307 135.089 5.84867 135.092 5.72429C135.116 4.55562 134.964 3.45895 134.193 2.5368C133.779 2.10608 133.348 1.77946 132.744 1.70771C131.049 1.70603 129.83 2.50353 128.639 3.67933Z" fill="black"/>
<path d="M86.5493 0.251676C86.5493 4.13804 86.5493 8.02441 86.5493 12.0285C88.153 12.0285 89.7568 12.0285 91.4091 12.0285C91.4078 11.6754 91.4064 11.3222 91.405 10.9583C91.4007 9.79405 91.3978 8.62977 91.3956 7.46549C91.3943 6.75929 91.3925 6.05309 91.3895 5.34689C91.3869 4.73154 91.3852 4.11618 91.3846 3.50082C91.3843 3.17484 91.3835 2.84888 91.3816 2.5229C91.3795 2.15944 91.3794 1.796 91.3796 1.43253C91.3786 1.32386 91.3777 1.21519 91.3767 1.10323C91.3773 0.955339 91.3773 0.955339 91.3778 0.804459C91.3776 0.718423 91.3773 0.632386 91.3771 0.543743C91.3877 0.476363 91.3982 0.408984 91.4091 0.339563C91.6695 0.163789 91.6695 0.163789 91.8973 0.18576C91.9993 0.218388 91.9993 0.218388 92.1034 0.251676C92.2116 0.470821 92.2012 0.617568 92.2016 0.862857C92.2019 0.9555 92.2022 1.04814 92.2026 1.14359C92.2025 1.24618 92.2024 1.34876 92.2023 1.45445C92.2026 1.5628 92.2029 1.67115 92.2031 1.78278C92.2038 2.08449 92.204 2.3862 92.204 2.68792C92.2042 3.01293 92.2049 3.33794 92.2054 3.66296C92.2066 4.37403 92.2071 5.0851 92.2075 5.79617C92.2078 6.23986 92.2081 6.68356 92.2085 7.12725C92.2096 8.35487 92.2105 9.5825 92.2108 10.8101C92.2108 10.928 92.2108 10.928 92.2108 11.0483C92.2109 11.1665 92.2109 11.1665 92.2109 11.2871C92.2109 11.4468 92.211 11.6065 92.211 11.7661C92.211 11.8454 92.211 11.9246 92.2111 12.0062C92.2114 13.2904 92.2129 14.5746 92.2149 15.8588C92.217 17.1762 92.2181 18.4936 92.2182 19.811C92.2183 20.5512 92.2188 21.2913 92.2203 22.0314C92.2217 22.6615 92.2221 23.2915 92.2214 23.9216C92.2211 24.2433 92.2211 24.5649 92.2224 24.8866C92.2237 25.2348 92.223 25.583 92.2221 25.9312C92.2227 26.0336 92.2234 26.136 92.2242 26.2414C92.2233 26.3808 92.2233 26.3808 92.2224 26.5229C92.2225 26.6033 92.2225 26.6837 92.2226 26.7666C92.1902 26.9693 92.1902 26.9693 92.0722 27.1305C91.9298 27.233 91.9298 27.233 91.702 27.211C91.4959 27.1451 91.4959 27.1451 91.4091 27.0572C91.4007 26.8726 91.3985 26.6876 91.3987 26.5028C91.3986 26.4442 91.3985 26.3857 91.3985 26.3253C91.3983 26.1276 91.3988 25.9299 91.3993 25.7322C91.3993 25.5911 91.3993 25.4499 91.3992 25.3088C91.3992 24.9244 91.3997 24.54 91.4003 24.1556C91.4009 23.7543 91.4009 23.353 91.401 22.9518C91.4013 22.1913 91.402 21.4309 91.4029 20.6705C91.4038 19.8051 91.4043 18.9396 91.4048 18.0741C91.4057 16.2933 91.4073 14.5125 91.4091 12.7316C89.8054 12.7316 88.2016 12.7316 86.5493 12.7316C86.5502 13.1647 86.5511 13.5977 86.5521 14.0439C86.5549 15.4713 86.5569 16.8986 86.5583 18.326C86.5592 19.1918 86.5604 20.0576 86.5624 20.9234C86.5641 21.6778 86.5653 22.4322 86.5656 23.1866C86.5659 23.5863 86.5664 23.9859 86.5677 24.3856C86.5688 24.7614 86.5692 25.1373 86.5689 25.5131C86.569 25.6513 86.5693 25.7896 86.57 25.9278C86.5709 26.116 86.5707 26.3041 86.5702 26.4922C86.5703 26.5977 86.5705 26.7032 86.5707 26.8119C86.5493 27.0572 86.5493 27.0572 86.3757 27.233C86.1534 27.211 86.1534 27.211 85.9418 27.1451C85.8336 26.926 85.844 26.7792 85.8436 26.5339C85.8431 26.395 85.8431 26.395 85.8426 26.2532C85.8427 26.1506 85.8428 26.048 85.8429 25.9423C85.8426 25.834 85.8424 25.7257 85.8421 25.614C85.8415 25.3123 85.8412 25.0106 85.8412 24.7089C85.841 24.3839 85.8404 24.0589 85.8398 23.7338C85.8386 23.0228 85.8381 22.3117 85.8377 21.6006C85.8374 21.1569 85.8371 20.7132 85.8367 20.2695C85.8356 19.0419 85.8347 17.8143 85.8344 16.5867C85.8344 16.5081 85.8344 16.4295 85.8344 16.3485C85.8344 16.2697 85.8343 16.1909 85.8343 16.1097C85.8343 15.95 85.8342 15.7903 85.8342 15.6306C85.8342 15.5514 85.8342 15.4722 85.8341 15.3906C85.8338 14.1064 85.8323 12.8222 85.8303 11.538C85.8282 10.2206 85.8271 8.90316 85.827 7.58575C85.827 6.84563 85.8264 6.10552 85.8249 5.36541C85.8235 4.73534 85.8231 4.10528 85.8238 3.47522C85.8242 3.15354 85.8241 2.83188 85.8229 2.5102C85.8216 2.162 85.8223 1.81381 85.8232 1.46561C85.8225 1.36322 85.8218 1.26084 85.821 1.15535C85.8216 1.06248 85.8222 0.969603 85.8228 0.873916C85.8227 0.793484 85.8227 0.713051 85.8226 0.630181C85.8551 0.42745 85.8551 0.42745 85.9601 0.262222C86.1154 0.163789 86.1154 0.163789 86.5493 0.251676Z" fill="black"/>
<path d="M136.623 0.16394C136.84 0.169433 136.84 0.169433 137.056 0.251828C137.201 0.549893 137.269 0.84471 137.326 1.17007C137.343 1.26557 137.361 1.36107 137.378 1.45947C137.396 1.56379 137.414 1.6681 137.433 1.77558C137.453 1.88665 137.473 1.99773 137.493 2.11216C137.536 2.35539 137.579 2.59867 137.622 2.842C137.691 3.23593 137.76 3.62974 137.83 4.02354C137.931 4.59158 138.031 5.15968 138.131 5.72781C138.288 6.61931 138.445 7.51068 138.603 8.40202C138.616 8.4764 138.63 8.55077 138.643 8.6274C138.71 9.00556 138.777 9.38371 138.844 9.76187C138.898 10.0678 138.952 10.3738 139.007 10.6797C139.56 13.8052 140.121 16.9293 140.685 20.0528C140.74 20.3576 140.795 20.6623 140.85 20.9671C141.089 22.2941 141.329 23.6211 141.569 24.9481C141.584 24.8634 141.599 24.7787 141.615 24.6914C141.986 22.5921 142.357 20.4928 142.728 18.3935C142.89 17.4771 143.052 16.5607 143.214 15.6444C143.249 15.4465 143.284 15.2487 143.319 15.0508C143.406 14.5588 143.493 14.0668 143.58 13.5748C143.753 12.6006 143.925 11.6263 144.098 10.6521C144.166 10.2693 144.233 9.88641 144.301 9.50357C144.318 9.41006 144.334 9.31656 144.351 9.22021C144.575 7.95925 144.795 6.69785 145.014 5.43602C145.098 4.94958 145.183 4.46323 145.268 3.97688C145.346 3.52787 145.424 3.07871 145.5 2.62941C145.547 2.35816 145.594 2.08706 145.642 1.816C145.663 1.69182 145.685 1.56757 145.706 1.44326C145.734 1.27529 145.763 1.10756 145.793 0.939853C145.809 0.846591 145.825 0.753328 145.842 0.657239C145.912 0.414827 145.966 0.308718 146.169 0.16394C146.402 0.191405 146.402 0.191405 146.603 0.251828C146.702 0.624536 146.671 0.908114 146.603 1.28609C146.593 1.34494 146.583 1.40379 146.572 1.46442C146.537 1.66168 146.501 1.85871 146.465 2.05577C146.44 2.19792 146.415 2.34009 146.389 2.48226C146.32 2.87118 146.25 3.25991 146.18 3.64861C146.105 4.06283 146.031 4.47721 145.957 4.89157C145.83 5.60043 145.703 6.30918 145.576 7.01785C145.394 8.02899 145.212 9.04029 145.031 10.0516C144.769 11.5189 144.506 12.986 144.242 14.4531C143.915 16.2721 143.59 18.0912 143.266 19.9106C143.211 20.2176 143.156 20.5246 143.102 20.8316C143.08 20.9499 143.059 21.0682 143.038 21.1865C143.023 21.273 143.023 21.273 143.007 21.3611C142.977 21.5315 142.946 21.7019 142.916 21.8724C142.858 22.2 142.799 22.5276 142.741 22.8553C142.722 22.9627 142.702 23.0702 142.683 23.1809C142.575 23.7869 142.466 24.3929 142.358 24.9989C142.326 25.1772 142.294 25.3555 142.263 25.5338C142.22 25.7722 142.177 26.0106 142.135 26.249C142.123 26.3178 142.11 26.3866 142.098 26.4576C142.046 26.7481 141.989 27.0351 141.916 27.321C141.623 27.376 141.623 27.376 141.309 27.4089C141.074 27.1716 141.061 26.9261 141.006 26.6072C140.989 26.5092 140.989 26.5092 140.97 26.4091C140.931 26.1886 140.892 25.9679 140.854 25.7472C140.825 25.589 140.797 25.4307 140.769 25.2725C140.691 24.8393 140.615 24.4059 140.538 23.9724C140.457 23.5129 140.375 23.0535 140.293 22.594C140.135 21.7099 139.979 20.8256 139.822 19.9413C139.643 18.9303 139.463 17.9195 139.283 16.9087C139.053 15.6142 138.823 14.3197 138.594 13.0252C138.236 11.0106 137.878 8.99611 137.517 6.98229C137.405 6.35961 137.293 5.73688 137.182 5.11415C137.101 4.66255 137.02 4.21098 136.938 3.75948C136.865 3.35319 136.792 2.94682 136.72 2.54037C136.694 2.39864 136.669 2.25694 136.643 2.11529C136.609 1.92827 136.576 1.74116 136.543 1.554C136.524 1.45199 136.506 1.34997 136.487 1.24487C136.447 0.937193 136.431 0.649684 136.449 0.339715C136.506 0.281709 136.564 0.223704 136.623 0.16394Z" fill="black"/>
<path d="M149.553 0.16394C154.5 0.16394 154.5 0.16394 154.76 0.339715C154.782 0.564925 154.782 0.564925 154.76 0.77915C154.732 0.808153 154.703 0.837156 154.673 0.867037C153.241 0.867037 151.81 0.867037 150.334 0.867037C150.334 4.55038 150.334 8.23373 150.334 12.0287C151.451 12.0287 152.568 12.0287 153.719 12.0287C153.805 12.1157 153.805 12.1157 153.892 12.2045C153.844 12.6048 153.844 12.6048 153.719 12.7318C152.602 12.7318 151.485 12.7318 150.334 12.7318C150.334 17.2852 150.334 21.8387 150.334 26.5301C151.766 26.5301 153.198 26.5301 154.673 26.5301C154.76 26.618 154.76 26.618 154.776 26.8322C154.76 27.0574 154.76 27.0574 154.587 27.2332C152.926 27.2332 151.265 27.2332 149.553 27.2332C149.553 18.3003 149.553 9.36748 149.553 0.16394Z" fill="black"/>
<path d="M95.835 0.16394C97.4673 0.16394 99.0997 0.16394 100.782 0.16394C100.867 0.308954 100.953 0.453968 101.042 0.603376C100.985 0.690384 100.927 0.777392 100.868 0.867037C99.4364 0.867037 98.0045 0.867037 96.5292 0.867037C96.5292 4.55038 96.5292 8.23373 96.5292 12.0287C97.6747 12.0287 98.8203 12.0287 100.001 12.0287C100.174 12.2924 100.174 12.2924 100.147 12.4791C100.087 12.6439 100.087 12.6439 100.001 12.7318C98.855 12.7318 97.7095 12.7318 96.5292 12.7318C96.5292 17.2852 96.5292 21.8387 96.5292 26.5301C97.9611 26.5301 99.393 26.5301 100.868 26.5301C100.926 26.6751 100.983 26.8201 101.042 26.9695C100.913 27.1 100.913 27.1 100.782 27.2332C99.1492 27.2332 97.5168 27.2332 95.835 27.2332C95.835 18.3003 95.835 9.36748 95.835 0.16394Z" fill="black"/>
<path d="M76.7661 0.119865C76.8301 0.11939 76.894 0.118916 76.9599 0.118426C77.1714 0.117327 77.3828 0.11878 77.5943 0.120359C77.7412 0.120345 77.888 0.120214 78.0349 0.119971C78.3428 0.119849 78.6506 0.120955 78.9585 0.122955C79.3533 0.12545 79.7481 0.125209 80.143 0.12409C80.4463 0.123479 80.7496 0.124162 81.0529 0.125255C81.1985 0.125652 81.3441 0.125681 81.4897 0.125337C81.6931 0.125081 81.8964 0.126529 82.0998 0.128448C82.1903 0.127855 82.1903 0.127855 82.2826 0.127249C82.5307 0.131141 82.6945 0.138644 82.9017 0.28359C82.9911 0.42762 82.9911 0.42762 82.9694 0.658324C82.9043 0.867056 82.9043 0.867056 82.8175 0.954943C82.5987 0.962719 82.3823 0.965074 82.1636 0.963525C82.0655 0.963339 82.0655 0.963339 81.9655 0.963149C81.7559 0.962655 81.5463 0.961552 81.3368 0.960436C81.195 0.959995 81.0533 0.959594 80.9115 0.959234C80.5633 0.958263 80.2151 0.956745 79.8669 0.954943C79.867 1.00945 79.8671 1.06396 79.8672 1.12012C79.873 4.34929 79.8775 7.57846 79.8802 10.8076C79.8805 11.1952 79.8808 11.5828 79.8812 11.9703C79.8813 12.0475 79.8813 12.1246 79.8814 12.2041C79.8825 13.4542 79.8846 14.7042 79.887 15.9542C79.8894 17.2364 79.8909 18.5187 79.8914 19.8009C79.8917 20.5924 79.8929 21.3839 79.895 22.1753C79.8964 22.7178 79.8968 23.2602 79.8964 23.8026C79.8963 24.1158 79.8965 24.4289 79.8979 24.7421C79.8994 25.0814 79.8989 25.4207 79.8982 25.76C79.899 25.8592 79.8997 25.9585 79.9005 26.0607C79.9 26.1516 79.8995 26.2425 79.8989 26.3361C79.899 26.4145 79.8991 26.4928 79.8992 26.5735C79.8599 26.8414 79.7556 27.0109 79.6065 27.2332C79.1835 27.1563 79.1835 27.1563 79.0859 27.0574C79.0774 26.9181 79.0751 26.7785 79.0752 26.6389C79.075 26.5478 79.0748 26.4567 79.0746 26.3629C79.0749 26.2616 79.0752 26.1603 79.0754 26.0559C79.0753 25.9492 79.0753 25.8426 79.0752 25.7327C79.0751 25.4352 79.0753 25.1378 79.0758 24.8404C79.0762 24.5202 79.076 24.2 79.076 23.8798C79.0759 23.3245 79.0762 22.7693 79.0767 22.214C79.0774 21.4112 79.0776 20.6084 79.0777 19.8057C79.0779 18.5033 79.0785 17.201 79.0793 15.8986C79.0801 14.6332 79.0807 13.3677 79.0811 12.1023C79.0811 12.0243 79.0811 11.9464 79.0812 11.8661C79.0813 11.4751 79.0814 11.0841 79.0815 10.6931C79.0824 7.44702 79.0839 4.20098 79.0859 0.954943C78.9531 0.955633 78.9531 0.955633 78.8177 0.956337C78.4901 0.957926 78.1624 0.958936 77.8348 0.959771C77.6928 0.960213 77.5509 0.960813 77.409 0.961573C77.2052 0.962637 77.0014 0.963137 76.7976 0.963525C76.7022 0.964206 76.7022 0.964206 76.6048 0.9649C76.155 0.964951 76.155 0.964951 75.9617 0.867056C75.8912 0.70776 75.8912 0.70776 75.8749 0.515507C76.0762 0.100383 76.3517 0.114029 76.7661 0.119865Z" fill="black"/>
<path d="M40.468 0.163909C41.1084 0.157801 41.7489 0.153115 42.3893 0.150248C42.6867 0.148871 42.9841 0.147005 43.2815 0.144018C43.6233 0.140607 43.9652 0.139326 44.3071 0.13816C44.4139 0.1368 44.5208 0.135439 44.6309 0.134037C44.7299 0.134017 44.8289 0.133997 44.9309 0.133976C45.0182 0.133391 45.1055 0.132805 45.1954 0.132202C45.4145 0.163909 45.4145 0.163909 45.5763 0.285937C45.6749 0.42757 45.6749 0.42757 45.6532 0.61433C45.5881 0.779118 45.5881 0.779118 45.5013 0.867005C44.0694 0.867005 42.6375 0.867005 41.1622 0.867005C41.1622 4.55035 41.1622 8.2337 41.1622 12.0287C42.3077 12.0287 43.4533 12.0287 44.6335 12.0287C44.7194 12.1157 44.7194 12.1157 44.8071 12.2044C44.7589 12.6048 44.7589 12.6048 44.6335 12.7318C44.3769 12.7396 44.1223 12.7419 43.8657 12.7403C43.7503 12.7402 43.7503 12.7402 43.6326 12.74C43.3859 12.7395 43.1392 12.7384 42.8924 12.7373C42.7256 12.7368 42.5588 12.7364 42.3919 12.7361C41.982 12.7351 41.5721 12.7336 41.1622 12.7318C41.1624 12.8054 41.1625 12.8791 41.1627 12.955C41.1665 14.7454 41.1694 16.5357 41.1712 18.3261C41.1721 19.1919 41.1733 20.0577 41.1753 20.9235C41.177 21.6779 41.1782 22.4323 41.1785 23.1868C41.1788 23.5864 41.1793 23.9861 41.1806 24.3857C41.1817 24.7616 41.1821 25.1374 41.1818 25.5132C41.1819 25.6515 41.1822 25.7897 41.1829 25.9279C41.1838 26.1161 41.1836 26.3042 41.1831 26.4924C41.1832 26.5978 41.1834 26.7033 41.1836 26.812C41.1622 27.0574 41.1622 27.0574 40.9887 27.2331C40.5933 27.1843 40.5933 27.1843 40.468 27.0574C40.4595 26.914 40.4572 26.7702 40.4573 26.6265C40.4571 26.5327 40.4569 26.4388 40.4568 26.3421C40.457 26.2377 40.4573 26.1334 40.4575 26.0258C40.4574 25.9159 40.4574 25.806 40.4573 25.6928C40.4571 25.3864 40.4575 25.0799 40.4579 24.7735C40.4583 24.4436 40.4581 24.1137 40.4581 23.7837C40.458 23.2117 40.4583 22.6396 40.4588 22.0675C40.4595 21.2404 40.4597 20.4132 40.4598 19.5861C40.46 18.2443 40.4606 16.9024 40.4614 15.5606C40.4622 14.2568 40.4628 12.953 40.4632 11.6492C40.4632 11.5689 40.4632 11.4886 40.4633 11.4058C40.4634 11.003 40.4635 10.6001 40.4636 10.1973C40.4645 6.85281 40.466 3.50836 40.468 0.163909Z" fill="black"/>
<path d="M175.501 0.16394C180.361 0.16394 180.361 0.16394 180.621 0.339715C180.643 0.564925 180.643 0.564925 180.621 0.77915C180.592 0.808153 180.564 0.837156 180.534 0.867037C179.102 0.867037 177.67 0.867037 176.195 0.867037C176.195 4.55038 176.195 8.23373 176.195 12.0287C177.312 12.0287 178.429 12.0287 179.58 12.0287C179.666 12.1157 179.666 12.1157 179.753 12.2045C179.705 12.6048 179.705 12.6048 179.58 12.7318C179.329 12.7396 179.081 12.7419 178.831 12.7404C178.718 12.7402 178.718 12.7402 178.603 12.74C178.363 12.7395 178.122 12.7384 177.882 12.7373C177.719 12.7368 177.557 12.7364 177.394 12.7361C176.994 12.7351 176.595 12.7336 176.195 12.7318C176.195 12.8049 176.195 12.8781 176.196 12.9534C176.199 14.7314 176.202 16.5093 176.204 18.2872C176.205 19.147 176.206 20.0068 176.208 20.8666C176.21 21.6158 176.211 22.3651 176.211 23.1143C176.212 23.5111 176.212 23.908 176.213 24.3049C176.215 24.6782 176.215 25.0515 176.215 25.4248C176.215 25.562 176.215 25.6992 176.216 25.8364C176.217 26.0234 176.216 26.2103 176.216 26.3973C176.216 26.502 176.216 26.6068 176.216 26.7147C176.195 26.9695 176.195 26.9695 176.022 27.2332C175.85 27.2042 175.678 27.1752 175.501 27.1453C175.501 18.2414 175.501 9.33759 175.501 0.16394Z" fill="black"/>
<path d="M112.508 0.185786C112.671 0.251701 112.671 0.251701 112.757 0.339588C112.766 0.479321 112.768 0.619434 112.768 0.759427C112.768 0.850833 112.768 0.94224 112.769 1.03642C112.768 1.18889 112.768 1.18889 112.768 1.34444C112.768 1.45147 112.768 1.55849 112.768 1.66876C112.768 1.96718 112.768 2.26559 112.768 2.564C112.767 2.88529 112.767 3.20659 112.767 3.52789C112.767 4.085 112.767 4.64211 112.767 5.19923C112.766 6.00473 112.766 6.81023 112.766 7.61573C112.765 8.92247 112.765 10.2292 112.764 11.5359C112.763 12.8056 112.763 14.0753 112.762 15.345C112.762 15.4232 112.762 15.5015 112.762 15.582C112.762 15.9744 112.762 16.3667 112.762 16.759C112.761 20.016 112.759 23.273 112.757 26.5299C112.82 26.5297 112.883 26.5295 112.948 26.5293C113.539 26.5276 114.131 26.5262 114.722 26.5254C115.026 26.5249 115.33 26.5243 115.634 26.5233C115.983 26.5222 116.332 26.5217 116.681 26.5214C116.791 26.5209 116.901 26.5204 117.014 26.52C117.114 26.52 117.215 26.52 117.319 26.52C117.453 26.5197 117.453 26.5197 117.589 26.5194C117.791 26.5299 117.791 26.5299 117.878 26.6178C117.881 26.7936 117.881 26.9694 117.878 27.1451C117.635 27.2678 117.437 27.2435 117.167 27.243C117.054 27.243 116.941 27.243 116.824 27.243C116.701 27.2425 116.577 27.2421 116.453 27.2416C116.327 27.2415 116.201 27.2413 116.075 27.2412C115.742 27.2409 115.41 27.24 115.077 27.2391C114.738 27.2382 114.399 27.2378 114.06 27.2373C113.394 27.2364 112.729 27.2349 112.063 27.233C112.057 23.8227 112.053 20.4123 112.05 17.0019C112.05 16.5996 112.049 16.1973 112.049 15.7949C112.049 15.7149 112.049 15.6348 112.049 15.5522C112.048 14.2541 112.046 12.9559 112.043 11.6578C112.041 10.3265 112.039 8.99516 112.039 7.66386C112.038 6.84189 112.037 6.01992 112.035 5.19795C112.034 4.63486 112.033 4.07178 112.034 3.50868C112.034 3.18345 112.034 2.85823 112.032 2.533C112.031 2.18093 112.031 1.82889 112.032 1.47682C112.031 1.37329 112.03 1.26976 112.03 1.16309C112.03 1.06919 112.031 0.975295 112.031 0.878551C112.031 0.797222 112.031 0.715893 112.031 0.6321C112.063 0.427475 112.063 0.427475 112.184 0.266079C112.324 0.163814 112.324 0.163814 112.508 0.185786Z" fill="black"/>
</svg>
