<?xml version="1.0" encoding="UTF-8"?>
<svg id="Layer_1" data-name="Layer 1" xmlns="http://www.w3.org/2000/svg" viewBox="0 0 242 230">
  <defs>
    <style>
      .cls-1 {
        fill: #fff;
      }

      .cls-1, .cls-2, .cls-3 {
        fill-rule: evenodd;
      }

      .cls-2 {
        fill: #ef3e42;
      }

      .cls-3 {
        fill: #005a9c;
      }
    </style>
  </defs>
  <polygon class="cls-1" points="-.69 -5.69 241.44 -5.69 241.44 236.44 -.69 236.44 -.69 -5.69 -.69 -5.69"/>
  <polygon class="cls-1" points="23.94 19.99 215.97 19.99 215.97 209.92 23.94 209.92 23.94 19.99 23.94 19.99"/>
  <path class="cls-2" d="M175.03,95.96l-8.86-11.82-3.8-5.07-4.22-9.28-4.64-9.71-6.33-10.55-1.27-2.53-1.69-1.27-1.27-.84-1.69-.42-1.27,.42-.84,.84-2.53,2.53-1.69,3.8-1.69,4.22-1.69,8.02-.42,2.53-4.64,.84-3.38-3.8-14.77-16.88-2.53-2.11-2.11-.42-1.69,1.27-1.27,2.53-.42,3.38-.84,3.8-.42,8.86,.42,12.66-8.02,8.02-4.64,6.33-2.53,3.8-.42,2.11,1.69,3.38v2.53l-.42,.84-1.27,.84-13.08,8.44-13.93,10.13-1.69,1.69-.84,1.69-.42,1.27v1.27l.84,2.11,1.27,2.11,3.38,2.95,3.38,2.95,6.33,4.64,7.17,4.22-2.11,4.22v1.69l.42,1.27,.84,.84,.84,.84,2.11,.84h5.49l3.38-1.27,1.69-1.27,1.69-.84,3.38-.42,2.11,.42,.84,.42,1.69,.42,.84,.84,1.69,2.95,.42,3.38v8.44l1.27,4.64,2.11,3.38,2.95,2.53,1.69,.84,2.11,.42,2.11-.42,2.11-.42,1.27-1.27v-2.11l-.42-2.95-2.11-3.38-1.69-2.95-.42-2.53v-2.53l.42-1.69,1.69-2.96,.84-.84h6.33l4.64-.84,3.38-1.69,2.11-2.53,1.27-2.53,.84-2.11,.42-2.11-.84-4.22-1.27-2.95-1.27-1.69-1.69-1.27h-2.95l-1.27,.42v2.95l-.42,2.53-.85,2.11-1.69,2.11-1.69,1.27-2.11,1.27-2.95,.84-3.38-.42-5.91-.42-5.91,.84-6.75,.84,1.27-1.69,2.11-.84,5.49-1.27,7.17-1.27,3.8-1.27,2.95-.84,1.27-1.69,.84-1.69v-2.95l-.42-1.69-.84-.84-.84-.42h-3.38l-2.95,.42-3.38,1.69-6.33,2.95-2.11,1.69-5.49,2.53-5.91,.84-5.91-.42-5.91-1.69-4.22-2.11-2.11-2.53-1.27-2.53,.42-2.53,.84-2.53,.84-1.69,1.27-2.11-2.11-2.11-1.27-2.11,.84-1.69,.84-2.11,3.8-2.95,2.95-1.69,17.73-10.55v-4.22l1.27-2.95,.84-2.53,1.27-2.11,1.69-1.27-.84,2.96-.42,2.95,.42,4.22,.84,3.8,1.27,3.38,1.69,2.95,3.8,5.07,2.95,3.38,2.11,2.11,2.53,1.69,2.53,.42h1.27l1.27-1.27,.84-.84,.42-1.27-.42-2.53-1.69-1.69-2.53-.84-2.95-.84-1.27-2.11-1.27-2.11,3.38-2.53,2.53-.84,2.11-.84,1.27-.42,1.27,.42,.84,.84,.84,3.38,1.27,1.69,1.69,.42h2.53l2.53-1.27,3.38-1.69,2.95-.84,2.95-.42,2.53,.42,2.11,1.27,2.11,1.27,1.69,1.69,1.27,2.11,2.53,5.49,1.69,5.07,2.11,8.86v8.44l-1.69,3.38-1.69,3.38-2.95,2.53-3.8,2.53-4.22,2.53-4.64,2.11-2.53,.84-2.11,1.69-1.69,1.69-1.27,1.27-1.69,3.8-.84,4.22,.84,3.8,.84,3.8,1.69,2.95,2.11,2.11,2.11,.85,2.53,.42,2.53-.42,2.53-1.27,2.53-2.11,2.11-3.38,1.69-3.38,1.69-4.64,1.69-4.22,1.27-2.95,2.11-1.69,1.27-.84h2.95l2.11,.84,2.11,.84h2.11l1.69-.84,1.69-1.27,1.27-1.69,1.27-2.11,1.69-5.49,2.53-10.97,.84-4.22,1.27-2.53,3.38-2.53,4.22-2.53,2.11-2.53,.42-2.96-.42-4.22-1.27-4.22-1.69-4.64-2.53-4.64-5.91-9.71h0Zm-36.72-21.95l-2.53-6.33,2.95-3.8,1.27-2.95,.42-2.53v-2.53l2.11,3.38,.84,4.22,.42,8.44v8.44l-.42,8.44-4.22-4.64-3.38-2.95-4.64-2.53,4.22,.84,2.53,.42,1.27-.42,.84-.84v-1.27l-.42-1.69-1.27-1.69h0Zm-31.65-19.84l2.11,5.07,1.69,4.64,2.11,5.91-1.69,1.69-2.11,1.27-1.69,.84-.84-1.69v-8.02l.42-9.71h0Zm6.33,44.74l-.84-.42-2.53-1.27-1.27-.42-1.27,.42-.84,.84-1.27,1.69-.84,1.69-.84,.42h-1.27l.42-3.38,1.27-2.95,.84-1.27,1.27-.84,4.64-3.38,2.53-.84h3.38l1.27,.84,1.69,1.69,1.27,2.53-.42,2.11v1.27l.42,1.69,.42,2.11,1.69,2.53-2.53-.84-7.18-4.22h0Z"/>
  <path class="cls-3" d="M18.03,13.66H222.73V217.09H18.03V13.66h0ZM170.81,202.32l7.17-.84,7.18-2.11,6.33-3.38,5.49-4.64,4.64-5.49,3.38-6.33,2.11-6.75,.42-3.8V65.57l-.42-7.6-2.11-6.75-3.38-6.33-4.64-5.49-5.49-4.64-6.33-3.38-7.18-2.11-3.8-.42H69.94l-7.6,.42-6.75,2.11-6.33,3.38-5.49,4.64-4.64,5.49-3.38,6.33-2.11,6.75-.42,3.8-.42,3.8v100.03l.84,7.17,2.11,6.75,3.38,6.33,4.64,5.49,5.49,4.64,6.33,3.38,6.75,2.11,3.8,.42,3.8,.42h100.87Z"/>
</svg>