<?xml version="1.0" encoding="UTF-8"?>
<svg id="Layer_1" data-name="Layer 1" xmlns="http://www.w3.org/2000/svg" viewBox="0 0 575.28 308.89">
  <defs>
    <style>
      .cls-1 {
        fill: #fff;
      }

      .cls-1, .cls-2, .cls-3 {
        fill-rule: evenodd;
      }

      .cls-2 {
        fill: #c4072a;
      }
    </style>
  </defs>
  <path class="cls-3" d="M564.5,154.25c0,78.49-124.12,142.13-277.06,142.13S10.26,232.75,10.26,154.25,134.37,12.13,287.44,12.13s277.06,63.63,277.06,142.12Z"/>
  <path class="cls-1" d="M101.02,60.68c-24.31,12.01-43.52,25.96-57.03,41.57-14.11,16.36-21.31,33.92-21.31,51.93s7.2,35.57,21.31,51.93c13.36,15.61,32.57,29.57,57.03,41.57,49.83,24.46,116.01,37.97,186.4,37.97s136.57-13.51,186.4-37.97c24.31-12.01,43.52-25.96,57.03-41.57,14.11-16.36,21.31-33.92,21.31-51.93s-7.05-35.57-21.31-51.93c-13.51-15.61-32.57-29.57-57.03-41.57-49.83-24.46-116.01-37.97-186.4-37.97s-136.57,13.51-186.4,37.97Z"/>
  <path class="cls-2" d="M186.11,270.19c-30.91-6.45-58.68-15.61-82.54-27.31-23.71-11.71-42.17-25.21-55.23-40.22-13.21-15.31-19.81-31.52-19.81-48.18s6.75-32.87,19.81-48.18c12.91-15.01,31.52-28.52,55.23-40.22,23.86-11.71,51.63-20.86,82.54-27.31,32.12-6.6,66.19-10.06,101.31-10.06s69.19,3.45,101.3,10.06c30.92,6.45,58.68,15.61,82.54,27.31,23.71,11.71,42.32,25.21,55.23,40.22,13.21,15.31,19.81,31.52,19.81,48.18s-6.75,32.87-19.81,48.18c-12.91,15.01-31.52,28.52-55.23,40.22-23.86,11.71-51.63,20.86-82.54,27.31-32.12,6.6-66.18,10.06-101.3,10.06s-69.19-3.3-101.31-10.06Z"/>
  <path class="cls-3" d="M157.85,104.91l-34.51,34.22,17.71,47.26c1.2,1.8,2.71,3,4.36,3.9l-17.56-46.82,39.01-38.56h-9.01Zm290.26,0c-.75,4.65-1.8,9.6-2.55,12.15l-26.57,.31c-9.45,3.45-17.41,9.61-20.56,20.11-2.25,7.66-4.95,18.75,0,25.96,1.05,1.05,2.1,1.96,3.45,2.56-3.3-7.05-1.06-16.96,1.05-24.02,3-10.51,10.96-16.66,20.42-20.11l26.57-.3c1.05-3.45,2.4-11.1,3.15-16.66h-4.95Zm-336.33,.15c-1.8,10.36-5.26,25.96-5.26,25.96,2.1-1.95,4.36-4.05,6.76-6.3,1.35-6.6,3-14.71,3.75-19.66h-5.25Zm237.27,19.21c.3,.6,.6,1.05,.9,1.5h0c2.4,4.52,1.65,11.57-.6,15.77-2.55,5.25-7.2,7.65-11.1,10.2,1.5,1.95,1.95,5.11,3.91,5.86l.74-1.21s0-.15-.15-.15c.15,0,.29-.16,.29-.3l2.1-3.45h2.86c2.25-1.65,4.35-3.6,5.7-6.6,2.1-4.2,3-11.25,.6-15.75-1.5-2.56-3.3-4.51-5.25-5.86h0Zm-14.11,5.41c1.35,0,3.15,.44,3.75,2.24,.15,.75,.16,1.51,.16,2.26-1.8,.3-3.46,1.65-3.91,3.6-.15,.6-.15,1.2,0,1.81-.75,.6-1.65,1.19-2.4,1.34-1.05-2.25-2.4-4.65-1.95-7.5,.6-2.1,2.56-3.59,4.36-3.75h0Zm159.99,3.16c2.1,1.5,4.36,3.75,5.86,6.75,4.65,10.8,1.65,24.31-2.55,33.77-7.36,14.41-19.52,18.91-32.42,17.26-4.8-.75-9.76-3.14-13.06-7.8,2.7,1.8,5.55,2.84,8.56,3.29,13.06,1.8,25.07-2.85,32.57-17.26,4.05-9.46,7.21-22.82,2.4-33.62-.29-.9-.9-1.64-1.35-2.39h0Zm-212.2,.44c.6,1.05,1.2,2.25,1.5,3.6,1.65,5.55,.15,11.26-.76,16.51l-6.3,31.52h-13.8l-.9,4.5h19.06l6.3-31.52c1.05-5.25,2.56-10.96,.76-16.51-.75-3.6-3.16-6.45-5.86-8.1h0Zm-83.74,.15h0s-10.65,51.63-10.65,51.63c-4.05,.45-8.41,.3-12.77,.45-.3,1.5-.6,3-.6,4.65,6-.3,12.31,0,17.87-.45l11.54-56.12-5.39-.16h0Zm-32.86,.16c1.65,0,3.45,0,5.25,.15l-6.91,34.07c-.15,.75-.15,1.35,0,1.95-.75-.15-1.35-.46-2.1-.76-1.35-1.2-2.69-3.15-2.24-5.7h0s6-29.72,6-29.72h0Zm307.21,7.65c-4.95,.45-8.12,7.36-9.62,12.91-.9,3.9-2.1,9.9,.31,13.66,.9,1.65,2.1,2.1,3.45,2.1-.9-3.6,0-8.1,.74-11.25,1.35-5.7,4.65-12.61,9.6-12.91,.45,0,.9,0,1.35,.16-.16-.9-.6-1.96-.9-2.86-1.2-1.65-3.14-1.66-4.94-1.81h0Zm-31.07,.45h5.56l-10.96,45.18c-4.2,15.31-9.31,26.42-29.87,27.17H148.42c-9.75-1.35-14.85-4.21-18.9-9.46,3.3,2.55,7.8,4.05,14.4,4.95H402.51c20.41-.9,25.66-12.01,29.86-27.17l9.91-40.67h0Zm-183.31,2.38h0c1.52-.19,3.05,.11,4.25,1.24,.9,.75,1.2,1.95,1.35,3.15-1.8,0-3.91,.75-5.41,1.81l-2.1,3-7.65,36.17-18.9,.15,.89-4.5,13.66-.15,7.66-36.17,2.1-3c1.13-.83,2.62-1.5,4.14-1.69h0Zm-32.07,.19c1.95,0,3.76-.15,5.26,1.36,.45,1.05,.73,2.1,.89,3.15h-1.79c-2.25,.6-4.35,2.41-5.55,4.81-3.15,11.86-5.11,24.16-7.81,36.01l-19.06,.16,.9-4.5,13.66-.16c2.85-12.01,4.81-24.31,7.81-36.01,1.35-2.55,3.45-4.36,5.7-4.81h0Zm186.09,9.46h2.55s-.3,1.34-.6,1.94c-.15,.9-.45,1.8-.76,2.55h-1.95l.76-4.49h0Zm-305.87,2.24l-8.25,7.51-3.76,21.16-15.45,.15-.9,4.5,20.86-.15,3.76-21.16,6.15-5.55c-.75-1.95-1.5-4.05-2.4-6.45h0Zm250.64,1.21h0s5.86,0,5.86,0c-1.35,7.05-5.85,13.05-10.51,18,1.95,4.65,4.81,8.71,6.76,13.51l-17.27,.16c-1.65-7.21-4.65,0-8.1,.6-7.95,1.65-17.41,2.1-23.71-4.96-.45-.45-.75-.9-1.05-1.5,6,3.9,13.65,3.31,20.26,1.95,3.45-.44,6.45-7.8,8.1-.6l17.27-.16c-1.95-4.8-4.81-9.01-6.76-13.51,3.75-3.9,7.2-8.39,9.15-13.5h0Zm-32.56,.89c-1.8,.15-3.31,1.5-4.66,2.4-1.65,1.2-2.99,3.3-2.84,6,.45,1.65,1.2,3.45,2.55,4.2,.75,.3,1.35,.61,1.95,.61v-.31c-.3-2.55,1.04-4.8,2.84-6,.75-.6,1.65-1.2,2.55-1.65l-2.39-5.26h0Zm183.55,12.91c-4.05,0-7.36,3.31-7.36,7.36s3.31,7.35,7.36,7.35,7.34-3.29,7.34-7.35-3.29-7.36-7.34-7.36h0Zm0,1.95c-3.15,0-5.4,2.1-5.4,5.41s2.25,5.41,5.4,5.41,5.39-2.1,5.39-5.41-2.24-5.41-5.39-5.41h0Zm-3.16,1.36h3.91c2.1,0,3,.6,3,2.4,0,1.5-.75,2.1-2.1,2.1l1.95,3.44h0s-1.95,.01-1.95,.01l-1.81-3.31h-1.2v3.31h-1.81v-7.96h0Zm1.95,1.34h1.65c.6,0,1.66,0,1.66,.9s-.46,1.05-1.21,1.05v-.15h-2.1v-1.81h0Zm-336.16,3.46c-.15,2.25-1.06,4.35-.9,6.6,1.2-.15,2.26-.15,3.31,0-5.85,5.25-13.81,7.5-21.47,4.65-2.25-.9-4.5-2.7-6-5.25,.45,.3,1.05,.6,1.5,.76,8.55,3.15,17.71,.14,23.56-6.76h0Zm238.31,3c-5.7,3.15-12.91,5.4-19.51,3.15-2.1-.45-4.05-1.51-5.85-2.86,2.85,3.75,6.45,6.46,10.35,7.21,4.2,1.5,8.86,1.05,12.91-.31,1.05-1.8,1.5-4.36,2.1-6.91v-.29Z"/>
  <path class="cls-1" d="M89.13,98.16l-17.71,84.04,20.87-.16,3.75-21.02,8.26-7.49c6,16.36,7.8,22.06,13.35,36.77,5.4,10.35,9.75,14.86,23.41,16.66H399.64c20.56-.75,25.66-11.86,29.86-27.02l10.96-45.18h-32.57l-2.84,16.51h7.79s-.29,1.5-.45,1.95c-.9,5.4-4.65,10.06-9.15,10.96-2.7,.6-5.25-.9-7.2-3-4.95-7.05-2.25-18.31,0-25.97,3-10.51,10.95-16.66,20.4-20.11l26.57-.29c1.05-3.45,2.41-11.11,3.31-16.66h-32.72c-9.46,1.05-17.72,5.39-24.92,12.9-12,15.01-21.31,35.57-15.46,57.19,2.4,7.05,8.11,13.36,14.27,14.7,6.75,2.25,13.95,0,19.5-3.15v.29c-.9,4.95-1.8,9.3-6.15,10.05l-246.57,.31c-5.85,0-12.02-1.2-15.77-6.6l-17.55-47.28,38.56-38.42h-23.71c-8.86,9-22.52,21.31-32.12,30.31,0,0,4.5-21.01,6-30.31h-20.56Zm244.27,16.94h0c5.56,.03,10.89,2.28,14.17,8.28,2.39,4.5,1.65,11.55-.6,15.75-2.55,5.25-7.2,7.65-11.1,10.2,1.5,1.95,1.95,5.09,3.9,5.85l3.14-4.94,13.81,.15c-1.35,7.05-5.7,13.06-10.51,18.01,1.95,4.5,4.81,8.71,6.76,13.51l-17.26,.15c-1.65-7.2-4.65,.01-8.1,.61-7.95,1.65-17.42,2.25-23.73-4.95-3.9-4.65-5.25-12.31-3.6-18.46,2.1-8.55,9.46-13.51,15.61-16.06-1.8-3.45-3-8.1-2.25-12.61,.9-6,5.24-11.41,9.9-13.51,3.1-1.24,6.51-2,9.84-1.98h0Zm138.06,7.27c4.99-.37,10.1,.42,14.94,2.22,2.56,1.65,5.56,4.35,7.51,8.1h-.02c4.8,10.81,1.82,24.17-2.39,33.62-7.5,14.41-19.52,19.06-32.42,17.26-6-1.05-12.16-4.2-15.15-11.7-4.66-12.91-1.35-27.48,5.55-37.38,5.72-7.69,13.68-11.5,21.98-12.12h0Zm-203.05,1.91c1.02,.07,2.04,.21,3.07,.44,4.35,.6,9.16,4.36,10.36,9.76,1.65,5.55,.16,11.26-.74,16.51l-6.31,31.51h-19.06l6.31-33.17c.3-2.1,.59-4.96-1.21-6.46-2.4-2.25-6.14-1.2-8.4,.45l-1.95,3-7.65,36.17-18.92,.16,6.75-34.52c.3-1.65-.15-3.29-.89-4.8-1.5-1.5-3.3-1.36-5.41-1.36-2.25,.6-4.35,2.26-5.7,4.81-3.15,11.7-4.96,24.16-7.81,36.01l-19.06,.16,11.26-56.28c6-.75,12.3-.45,18.3-.45,.15,2.1-.74,4.51-.74,6.91,5.7-7.2,13.96-9.91,22.21-7.51,2.25,.75,4.95,2.26,6.3,5.41,.15,.89,.46,1.79,.76,2.39,4.86-6.3,11.43-9.63,18.53-9.15h0Zm-71.07,2.1h0l-11.56,56.28c-5.7,.6-12,.3-17.85,.45,0-2.25,.75-4.36,.9-6.76-5.85,6.9-14.86,9.91-23.56,6.76-2.7-1.05-5.56-3.61-6.91-6.91-1.65-3.6-1.2-8.85-.45-12.75l7.66-36.48c6.3-.75,12.44-.59,18.6-.29l-6.6,34.22c-.45,2.55,.9,4.5,2.26,5.7,2.4,1.2,5.09,.9,7.34-.45,3.15-1.95,4.06-6.3,5.26-10.05l6.15-29.56,18.76-.16h0Zm135.08,.76c1.35,0,3.14,.44,3.74,2.24,.6,2.1,0,3.91-1.05,5.26-1.5,1.8-3.3,3.15-5.1,3.75-1.05-2.25-2.4-4.65-1.95-7.51,.45-2.1,2.41-3.59,4.36-3.75h0Zm138.51,11.7c-4.95,.45-8.25,7.36-9.6,12.91-.9,3.9-2.1,9.9,.16,13.66,1.35,2.25,3.45,1.95,5.25,2.1,2.7-.45,4.96-2.55,6.76-5.55,2.85-6,5.4-14.56,2.25-21.61-1.05-1.35-3-1.35-4.8-1.5h-.02Zm-148.11,16.96l4.34,9.6c-2.4,2.85-6,4.8-9.3,3-1.5-.9-2.25-2.71-2.55-4.21-.15-2.7,1.21-4.8,2.86-6,1.35-.9,2.85-2.24,4.65-2.39Z"/>
</svg>