<?xml version="1.0" encoding="utf-8"?>
<!-- Generator: Adobe Illustrator 19.2.1, SVG Export Plug-In . SVG Version: 6.00 Build 0)  -->
<svg version="1.1" id="layer" xmlns="http://www.w3.org/2000/svg" xmlns:xlink="http://www.w3.org/1999/xlink" x="0px" y="0px"
	 viewBox="0 0 652 652" style="enable-background:new 0 0 652 652;" xml:space="preserve">
<style type="text/css">
	.st0{fill:#FFFFFF;}
	.st1{fill:none;stroke:#FFFFFF;stroke-width:0.5396;stroke-miterlimit:3.864;}
	.st2{fill:#0060A9;}
	.st3{fill:none;stroke:#0060A9;stroke-width:2.7352;stroke-miterlimit:3.864;}
	.st4{fill:#ED1B2D;}
	.st5{fill:none;stroke:#ED1B2D;stroke-width:2.7352;stroke-miterlimit:3.864;}
	.st6{fill-rule:evenodd;clip-rule:evenodd;}
</style>
<g>
	<polygon points="-40.1,410.8 -58.7,410.8 -58.7,396.3 -1.1,396.3 -1.1,410.8 -19.8,410.8 -19.8,461.8 -40.1,461.8 	"/>
	<path d="M9.3,412.4h17.9v9.4c4.3-7.7,7.8-10.3,13.2-10.3c3.5,0,6,0.7,11.2,3.5l-6.7,15.7c-3.6-2.5-5.4-3.2-8-3.2
		c-5.2,0-9.7,5.6-9.7,12v22.2H9.3V412.4z"/>
	<path d="M77.2,462.6c-8.4,0-14.4-5-14.4-12.1c0-7.1,5.7-12.2,17.5-15.5l6.7-1.8l2-0.6V430c0-3.7-1.7-5.3-5.5-5.3
		c-4.4,0-10,2.1-14,5.1c-1.5,1.1-3.2,2.7-5.3,4.8v-14.2c5.7-4.5,8.4-5.9,13.6-7.5c3.2-1,6.7-1.5,10-1.5c11.7,0,19.2,6.5,19.2,16.7
		V447c0,3.1,0.8,4,3.3,4c0.6,0,1.3-0.2,2.5-0.6l-3.5,11.2c-4.5,0.7-6.4,1-8.9,1c-5.8,0-8.8-1-11.3-3.7
		C84.7,461.7,81.6,462.6,77.2,462.6 M88.9,440.5l-1.6,0.6c-7.2,2.4-9.5,4.3-9.5,7.9c0,2.8,2.2,4.9,4.9,4.9c2.3,0,3.9-0.7,6.2-2.6
		V440.5z"/>
	<path d="M121.5,412.4h19.2l7.2,22.7c0.4,1.2,0.5,2.1,0.5,4c0.2-2.2,0.3-3,0.7-4l7.5-22.7h16.1l-18.3,49.3H140L121.5,412.4z"/>
	<path d="M210.6,462.6c-16.1,0-26.9-10.4-26.9-25.8c0-14.7,10.1-25.3,24.1-25.3c13.8,0,23.3,9.5,23.3,23.4v4h-29.7
		c1.7,7.9,6,11.1,14.3,11.1c4.7,0,8.4-1,15.1-4.4v12.1C222.7,461.5,217.6,462.6,210.6,462.6 M216.4,431.6c-0.6-5.1-2.9-7.7-7.1-7.7
		c-4.1,0-6.5,2.5-7.4,7.7H216.4z"/>
	<rect x="250.2" y="396.3" width="18" height="65.5"/>
	<path d="M321.5,462.6c-20.2,0-34.8-13.8-34.8-33c0-19.9,14.7-34.2,35.3-34.2c7.7,0,11.8,1,21,5v15.6c-7.2-3.7-10.4-4.6-16.3-4.6
		c-11.7,0-19.8,7.3-19.8,17.8c0,10.4,7.9,17.7,19.4,17.7c6.2,0,9.5-1.1,16.7-5.2v15.6C333.6,461.7,329.5,462.6,321.5,462.6"/>
	<path d="M385.6,462.6c-16.1,0-26.9-10.4-26.9-25.8c0-14.7,10.1-25.3,24.1-25.3c13.8,0,23.3,9.5,23.3,23.4v4h-29.7
		c1.7,7.9,6,11.1,14.3,11.1c4.7,0,8.4-1,15.1-4.4v12.1C397.7,461.5,392.7,462.6,385.6,462.6 M391.4,431.6c-0.6-5.1-2.9-7.7-7.1-7.7
		c-4.1,0-6.5,2.5-7.4,7.7H391.4z"/>
	<path d="M425.2,412.4h17.9v7.5c4.9-6.2,8.7-8.4,15.1-8.4c9.6,0,15.8,6.5,15.8,16.8v33.4h-18v-26.6c0-5.4-1.9-8-5.7-8
		c-2.7,0-4.4,1.1-7.3,4.2v30.4h-17.9V412.4z"/>
	<path d="M515.6,462.6c-11.2,0-18.2-5.7-18.2-14.8v-24.2h-8.1v-11.2h8.1v-14.1h17.9v14h14.3v11.2h-14.3v17.8c0,4.5,2.3,6.9,6.5,6.9
		c2.7,0,5.3-1.1,8-3.5v13.9C523.9,461.8,521.1,462.6,515.6,462.6"/>
	<path d="M569.8,462.6c-16.1,0-26.9-10.4-26.9-25.8c0-14.7,10.1-25.3,24.1-25.3c13.8,0,23.3,9.5,23.3,23.4v4h-29.7
		c1.7,7.9,6,11.1,14.3,11.1c4.7,0,8.4-1,15.1-4.4v12.1C581.9,461.5,576.9,462.6,569.8,462.6 M575.6,431.6c-0.6-5.1-2.9-7.7-7.1-7.7
		c-4.1,0-6.5,2.5-7.4,7.7H575.6z"/>
	<path d="M609.4,412.4h17.9v9.4c4.3-7.7,7.8-10.3,13.2-10.3c3.5,0,6,0.7,11.2,3.5l-6.7,15.7c-3.6-2.5-5.4-3.2-8-3.2
		c-5.2,0-9.7,5.6-9.7,12v22.2h-17.9V412.4z"/>
	<path d="M663.1,445.3c7,4.7,9.5,5.9,13,5.9c3.5,0,5.9-1.8,5.9-4.5c0-2.1-1.4-3.4-5.2-5.5l-4.4-2.4c-6.9-3.5-9.2-6.9-9.2-12.7
		c0-8.8,7.2-14.6,17.9-14.6c5.4,0,9,0.9,16.9,4.1v12.3c-4.9-3.6-7.5-4.7-11-4.7c-3.4,0-6,1.8-6,4.1c0,1.7,0.8,2.5,3.9,3.9l4.7,2.4
		c7.8,3.6,10.5,7.3,10.5,13.5c0,9.4-7.9,15.5-19.8,15.5c-6.4,0-9.6-0.7-17.2-3.5V445.3z"/>
	<path d="M54.1,520.7c14.9,0,26.6,11.2,26.6,25.6c0,14.3-11.8,25.5-26.7,25.5c-14.8,0-26.6-11.2-26.6-25.5
		C27.4,531.9,39.2,520.7,54.1,520.7 M54,557.9c5.5,0,9.7-5.1,9.7-11.8c0-6.8-4-11.6-9.6-11.6c-5.5,0-9.7,5.1-9.7,11.7
		C44.4,552.8,48.6,557.9,54,557.9"/>
	<path d="M100,537.3h-6.9v-11.1h6.9v-5.6c0-9.6,7.2-16,18-16c3.3,0,4.9,0.1,10.5,0.9v11.6c-1.8-0.6-2.5-0.7-3.8-0.7
		c-4.4,0-6.9,2.5-6.9,6.9v2.8h7.7v11.2h-7.6v33.6H100V537.3z"/>
	<path d="M199.3,505.5H219l27.2,65.5h-21.8l-4.5-13.1h-21.4l-4.6,13.1h-21.9L199.3,505.5z M215.9,545.4l-6.8-20l-6.9,20H215.9z"/>
	<path d="M260,521.6h17.9v6.7c4.6-5.7,8-7.6,13.7-7.6c6.7,0,11.1,2.8,14.5,9.2c5.1-6.8,9.3-9.2,16.1-9.2c7.3,0,13.4,4,14.9,10
		c0.5,2,0.8,4.4,0.8,7.2v33h-17.8v-26.3c-0.1-5.6-1.7-8.1-5.5-8.1c-2.6,0-4.3,1.1-7.4,4.4c0.1,1.5,0.1,1.7,0.1,3.6v26.3h-16.8v-26.3
		c0-5.1-2-8-5.7-8c-2.5,0-4.4,1.3-7,4.3v30H260V521.6z"/>
	<path d="M382,571.8c-16.1,0-26.9-10.4-26.9-25.8c0-14.6,10.1-25.3,24.1-25.3c13.8,0,23.3,9.5,23.3,23.4v4h-29.7
		c1.7,7.9,6,11.1,14.3,11.1c4.7,0,8.4-1,15.1-4.4v12.1C394.1,570.6,389.1,571.8,382,571.8 M387.8,540.7c-0.6-5.1-2.9-7.7-7.1-7.7
		c-4.1,0-6.5,2.5-7.4,7.7H387.8z"/>
	<path d="M421.7,521.6h17.9v9.4c4.3-7.7,7.8-10.3,13.2-10.3c3.5,0,6,0.7,11.2,3.5l-6.7,15.7c-3.6-2.5-5.4-3.2-8-3.2
		c-5.2,0-9.7,5.6-9.7,12v22.2h-17.9V521.6z"/>
	<path d="M496.2,570.9h-18.6v-49.3h18.6V570.9z M488.9,500.4c4.6,0,8.4,3.9,8.4,8.6s-3.8,8.6-8.4,8.6c-4.7,0-8.6-3.8-8.6-8.6
		S484.1,500.4,488.9,500.4"/>
	<path d="M540.9,571.8c-15.7,0-27.2-10.8-27.2-25.7c0-14.6,11.1-25.4,26.3-25.4c5.4,0,8.1,0.6,14.4,3.2v14
		c-4.6-2.6-6.8-3.2-10.4-3.2c-7.2,0-12.4,5-12.4,11.9c0,6.7,5.3,11.5,12.8,11.5c3.4,0,5.5-0.6,10-3v13.9
		C548.7,571.2,546.4,571.8,540.9,571.8"/>
	<path d="M584.2,571.8c-8.4,0-14.4-5-14.4-12.1c0-7.1,5.7-12.2,17.5-15.5l6.7-1.8l2-0.6v-2.7c0-3.7-1.7-5.3-5.5-5.3
		c-4.4,0-10,2.1-14,5.1c-1.5,1.1-3.2,2.8-5.3,4.8v-14.2c5.7-4.5,8.4-5.9,13.6-7.5c3.2-1,6.7-1.5,10-1.5c11.7,0,19.2,6.5,19.2,16.7
		v18.8c0,3,0.8,4,3.3,4c0.6,0,1.3-0.2,2.5-0.6l-3.5,11.2c-4.5,0.7-6.4,1-8.9,1c-5.8,0-8.8-1-11.3-3.7
		C591.7,570.8,588.6,571.8,584.2,571.8 M595.9,549.7l-1.6,0.6c-7.2,2.4-9.5,4.3-9.5,7.9c0,2.8,2.2,4.9,4.9,4.9
		c2.3,0,3.9-0.7,6.2-2.6V549.7z"/>
	<polygon class="st0" points="177.9,71.8 409.7,71.8 485.9,327.4 404.3,327.4 390.7,287.3 329.5,287.3 315.9,327.4 158.1,327.4 
		211.4,148.6 154.8,148.6 	"/>
	<g>
		<polygon class="st1" points="177.9,71.8 409.7,71.8 485.9,327.4 404.3,327.4 390.7,287.3 329.5,287.3 315.9,327.4 158.1,327.4 
			211.4,148.6 154.8,148.6 		"/>
	</g>
	<path class="st2" d="M370.3,77.7c0,0-21.2,65.3-20.8,65.4c0.4,0.1-0.8,0-59,0c-0.3,0-56.2,178-56.7,178h-65.9
		c-0.1,0,52.6-178.5,52.6-178.5h-56.2c-0.3,0,19.8-64.7,19.8-64.9C184,77.7,370.1,77.4,370.3,77.7"/>
	<path class="st3" d="M370.3,77.7c0,0-21.2,65.3-20.8,65.4c0.4,0.1-0.8,0-59,0c-0.3,0-56.2,178-56.7,178h-65.9
		c-0.1,0,52.6-178.5,52.6-178.5h-56.2c-0.3,0,19.8-64.7,19.8-64.9C184,77.7,370.1,77.4,370.3,77.7z"/>
	<path class="st4" d="M381.3,77.7h22.1c0.3,0,73.1,243.2,72.9,243.2h-66.4c0,0-12.5-40.5-13.1-40.5h-73.1c-0.4,0-13.2,41.1-13.1,41
		c0.4-0.2-65.7,0-65.7,0c0.3,0.1,52.8-170.1,52.8-170.1l59.4,0C357,151.6,381.2,77.7,381.3,77.7 M360,165.4l-17.2,52.3h34.6
		l-17.3-52.3L360,165.4z"/>
	<path class="st5" d="M381.3,77.7h22.1c0.3,0,73.1,243.2,72.9,243.2h-66.4c0,0-12.5-40.5-13.1-40.5h-73.1c-0.4,0-13.2,41.1-13.1,41
		c0.4-0.2-65.7,0-65.7,0c0.3,0.1,52.8-170.1,52.8-170.1l59.4,0C357,151.6,381.2,77.7,381.3,77.7z M360,165.4l-17.2,52.3h34.6
		l-17.3-52.3L360,165.4z"/>
	<path class="st6" d="M499.5,323.2c6.7,0,12.1-5.5,12.1-12.2c0-6.7-5.4-12.1-12.1-12.1c-6.8,0-12.2,5.4-12.2,12.1
		C487.4,317.7,492.8,323.2,499.5,323.2 M499.5,321.7c-5.9,0-10.7-4.8-10.7-10.7c0-5.9,4.8-10.7,10.7-10.7c5.9,0,10.7,4.8,10.7,10.7
		C510.2,316.9,505.4,321.7,499.5,321.7 M501.5,311.5c2.4-0.1,4.3-1.1,4.3-3.7c0-1.2-0.5-2.4-1.5-2.9c-1-0.6-2.2-0.7-3.3-0.7H495
		v13.6h1.7v-6.3h3.1l3.9,6.3h2L501.5,311.5z M496.7,310.2v-4.8h3.9c1.7,0,3.5,0.3,3.5,2.4c0,2.8-3,2.5-4.9,2.5H496.7z"/>
</g>
</svg>
