<svg width="41" height="43" viewBox="0 0 41 43" fill="none" xmlns="http://www.w3.org/2000/svg">
<path d="M1.5 3C1.5 2.17157 2.17157 1.5 3 1.5H27C27.8284 1.5 28.5 2.17157 28.5 3V41.5H1.5V3Z" stroke="#6F8EA5" stroke-width="3"/>
<path d="M34.5783 5.80881C33.9204 5.30533 32.979 5.4305 32.4755 6.08837C31.972 6.74625 32.0972 7.68771 32.755 8.19119L34.5783 5.80881ZM39 11.0816H40.5V10.3407L39.9116 9.89044L39 11.0816ZM39 32V33.5H40.5V32H39ZM33.6667 32H32.1667V33.5H33.6667V32ZM33.6667 21.7959H35.1667V20.2959H33.6667V21.7959ZM32.755 8.19119L38.0884 12.2728L39.9116 9.89044L34.5783 5.80881L32.755 8.19119ZM37.5 11.0816V32H40.5V11.0816H37.5ZM39 30.5H33.6667V33.5H39V30.5ZM35.1667 32V21.7959H32.1667V32H35.1667ZM33.6667 20.2959H29V23.2959H33.6667V20.2959Z" fill="#6F8EA5"/>
<mask id="path-3-inside-1_554_1808" fill="white">
<rect x="5" y="5" width="20" height="13" rx="2"/>
</mask>
<rect x="5" y="5" width="20" height="13" rx="2" stroke="#6F8EA5" stroke-width="6" mask="url(#path-3-inside-1_554_1808)"/>
</svg>
