<?xml version="1.0" encoding="UTF-8"?>
<svg xmlns="http://www.w3.org/2000/svg" xmlns:xlink="http://www.w3.org/1999/xlink" width="30px" height="30px" viewBox="0 0 30 30" version="1.1">
<g id="surface1">
<path style=" stroke:none;fill-rule:nonzero;fill:rgb(100%,100%,100%);fill-opacity:1;" d="M 26.550781 15 C 26.550781 8.621094 21.378906 3.449219 15 3.449219 C 8.621094 3.449219 3.449219 8.621094 3.449219 15 C 3.449219 21.378906 8.621094 26.550781 15 26.550781 C 21.378906 26.550781 26.550781 21.378906 26.550781 15 Z M 26.550781 15 "/>
<path style=" stroke:none;fill-rule:nonzero;fill:rgb(6.666667%,32.549021%,83.529413%);fill-opacity:1;" d="M 17.519531 0.175781 C 17.566406 0.183594 17.609375 0.191406 17.660156 0.199219 C 20.421875 0.652344 23.035156 1.917969 25.082031 3.828125 C 25.234375 3.96875 25.390625 4.105469 25.550781 4.242188 C 25.859375 4.519531 26.136719 4.816406 26.40625 5.125 C 26.480469 5.207031 26.550781 5.289062 26.625 5.371094 C 28.640625 7.6875 29.949219 10.882812 29.949219 13.953125 C 29.949219 14.035156 29.949219 14.113281 29.949219 14.191406 C 29.949219 14.359375 29.949219 14.527344 29.949219 14.691406 C 29.949219 14.859375 29.953125 15.027344 29.953125 15.195312 C 29.960938 16.339844 29.933594 17.433594 29.671875 18.550781 C 29.65625 18.617188 29.640625 18.683594 29.625 18.746094 C 29.070312 21.023438 27.957031 23.199219 26.347656 24.910156 C 26.210938 25.054688 26.082031 25.207031 25.949219 25.355469 C 24.820312 26.613281 23.464844 27.578125 21.972656 28.359375 C 21.925781 28.382812 21.882812 28.410156 21.835938 28.433594 C 20.710938 29.019531 19.488281 29.441406 18.25 29.707031 C 18.199219 29.714844 18.148438 29.726562 18.097656 29.738281 C 17.140625 29.925781 16.160156 29.960938 15.191406 29.957031 C 15.023438 29.957031 14.851562 29.957031 14.6875 29.957031 C 13.789062 29.960938 12.894531 29.90625 12.019531 29.722656 C 11.972656 29.710938 11.921875 29.703125 11.875 29.691406 C 10.53125 29.402344 9.238281 28.949219 8.027344 28.300781 C 7.972656 28.273438 7.972656 28.273438 7.914062 28.242188 C 6.914062 27.710938 5.992188 27.070312 5.15625 26.308594 C 5.121094 26.277344 5.085938 26.246094 5.046875 26.210938 C 2.257812 23.691406 0.375 20.195312 0.128906 16.402344 C 0.105469 15.933594 0.105469 15.464844 0.105469 14.996094 C 0.105469 14.941406 0.105469 14.890625 0.105469 14.832031 C 0.113281 12.625 0.527344 10.566406 1.464844 8.554688 C 1.484375 8.511719 1.503906 8.46875 1.523438 8.425781 C 1.980469 7.457031 2.558594 6.582031 3.222656 5.742188 C 3.25 5.710938 3.273438 5.675781 3.300781 5.644531 C 4.066406 4.683594 4.988281 3.714844 5.992188 3 C 6.105469 2.921875 6.210938 2.84375 6.320312 2.761719 C 8.152344 1.402344 10.351562 0.539062 12.597656 0.175781 C 12.644531 0.167969 12.691406 0.160156 12.738281 0.152344 C 14.257812 -0.078125 16.003906 -0.0664062 17.519531 0.175781 Z M 12.070312 4.160156 C 11.949219 4.195312 11.824219 4.234375 11.707031 4.269531 C 11.011719 4.484375 10.363281 4.746094 9.726562 5.097656 C 9.632812 5.148438 9.632812 5.148438 9.535156 5.203125 C 8.414062 5.835938 7.316406 6.730469 6.503906 7.734375 C 6.449219 7.796875 6.394531 7.863281 6.34375 7.925781 C 5.917969 8.441406 5.550781 8.972656 5.214844 9.550781 C 5.195312 9.585938 5.171875 9.621094 5.152344 9.65625 C 3.753906 12.019531 3.464844 15.089844 4.125 17.726562 C 4.472656 19.054688 5.035156 20.34375 5.859375 21.445312 C 5.894531 21.496094 5.894531 21.496094 5.933594 21.546875 C 6.25 21.972656 6.59375 22.371094 6.953125 22.757812 C 6.992188 22.796875 7.027344 22.835938 7.0625 22.875 C 7.796875 23.652344 8.679688 24.316406 9.609375 24.84375 C 9.707031 24.902344 9.707031 24.902344 9.808594 24.960938 C 12.398438 26.433594 15.476562 26.554688 18.304688 25.804688 C 19.429688 25.484375 20.503906 24.949219 21.445312 24.257812 C 21.492188 24.222656 21.492188 24.222656 21.539062 24.191406 C 23.945312 22.457031 25.652344 19.859375 26.191406 16.933594 C 26.246094 16.558594 26.261719 16.191406 26.261719 15.8125 C 26.261719 15.753906 26.261719 15.691406 26.261719 15.625 C 26.261719 15.492188 26.261719 15.363281 26.261719 15.230469 C 26.261719 15.035156 26.265625 14.839844 26.269531 14.640625 C 26.273438 13.714844 26.195312 12.855469 25.917969 11.964844 C 25.902344 11.914062 25.886719 11.867188 25.871094 11.816406 C 25.371094 10.226562 24.605469 8.859375 23.496094 7.617188 C 23.46875 7.585938 23.4375 7.550781 23.40625 7.519531 C 21.960938 5.894531 20.167969 4.777344 18.085938 4.144531 C 18.039062 4.132812 17.992188 4.117188 17.941406 4.101562 C 17.210938 3.886719 16.488281 3.800781 15.726562 3.789062 C 15.640625 3.789062 15.640625 3.789062 15.554688 3.789062 C 14.339844 3.773438 13.230469 3.765625 12.070312 4.160156 Z M 12.070312 4.160156 "/>
</g>
</svg>
