<?xml version="1.0" encoding="UTF-8"?>
<svg id="Layer_1" data-name="Layer 1" xmlns="http://www.w3.org/2000/svg" viewBox="0 0 465 379.5">
  <defs>
    <style>
      .cls-1 {
        fill: #fff;
      }

      .cls-1, .cls-2 {
        fill-rule: evenodd;
      }

      .cls-2 {
        fill: #e6340d;
      }
    </style>
  </defs>
  <path class="cls-2" d="M278.9,289.76c-1.72,24.29-29.66,30.82-39.72,18.21-13.25-16.61,5.42-61.01,29.38-67.76,23.03-6.49,29.38,22.56,10.72,36.6-6.41,4.82-15.46,8.29-25.58,9.59-.63,2.47,1.74,5.28,3.02,6.21,1.89,1.38,4.87,1.85,7.74,1.8,7.14-.13,12.2-3.92,14.44-4.64h0Zm22.03-49.34c.15,18.95-8.95,27.47-15.36,44.31-3.15,8.27-4.34,17.66,2.19,22.59,2.99,2.25,7.4,3.17,11.95,2.18,2.03-.44,3.85-1.13,5.41-1.94,1.76-.92,3.26-2.08,4.78-2.83-1.55,5.29-7.62,11.22-13.55,13.13-3.44,1.11-7.86,1.42-11.59,.37-2.52-.71-4.55-1.88-6.38-3.44-.77-.66-.9-1.16-1.94-1.6-1.36,3.64-2.49,5.89-2.31,10.63,.44,11.42,11.12,17.18,23.56,15.26,25.11-3.87,34.57-42.35,40.6-64.01,1.66-5.97,4.33-15.44,4.11-22.09-.16-4.72-1.57-6.81-4-9.11-1.67-1.59-5.79-3.93-8.83-4.26-.3,10.54-12.18,41.91-19.68,51.47-.84,1.07-4.47,5-6.34,2.07-1.76-2.77,3.26-12.37,4.39-14.91,3.43-7.69,11.51-23.36,6.59-30.94-2.2-3.38-7.82-6.55-13.62-6.88h0Zm-143.19,61.95c-1.34,1.74-2.57,2.98-4.02,4.42-11.58,11.46-27.19,5.52-25-14.97,2.12-19.86,14.88-35.08,25-43.6,4.16-3.51,15.95-11.71,24.54-9.01,2.42,.76,3.61,2.24,4.8,3.92,.76,1.07,.98,1.67,1.56,2.8,1.04,2.04,5.69,.76,8.47,4.36,.93,1.2-.53,2.75-1.75,5.61-4.04,9.46-9.83,29.32-11.07,40.42-.74,6.6-.71,9.56,1.58,14.97-3.12,3.52-19.83,5.88-20.27-14l-3.84,5.08h0Zm189.01-18.59c2.38,10.97,18.92,11.76,20.37,5.13,1.46-6.64-10.53-9.12-13.12-20.34-3.93-17.04,22.07-35.52,34.25-28.24,1.98,1.18,4.62,3.52,5.97,5.2,4.47,5.6,1.76,10.75-.55,17.14l-2.57,8.65c-4.03-.7-9.84-3.93-11.22-6.81-2.49-5.17,2.01-10.39,2.75-14.17-4.87,1.54-10.25,5.66-11.92,10.07-1.32,3.5-.53,6.42,1.33,8.66,4.48,5.41,12.49,8.87,14.79,18.16,1.68,6.76-.43,13.3-3.57,17.6-9.98,13.67-39.49,13.14-42.16-5.1-.84-5.78,1.87-14.23,5.63-15.94h0Zm-153.28,1.54l-.39-1.35c-6.77,3.14-12.38,20.94,1.55,27.95,9.79,4.93,24.74,2.18,31.6-7.53,3.08-4.36,4.93-11.12,3.04-17.56-1.65-5.64-5.8-9.51-9.54-12.53-1.68-1.35-4.32-3.58-5.58-5.32-5.66-7.86,3.33-16.31,10.78-18.62-.64,3.74-5.25,8.89-2.73,14.12,1.42,2.96,7.18,6.04,11.2,6.84,.46-.79,.36-1.11,.59-2.2,2.44-11.52,11.11-18.96-2.76-28.38-9.31-6.33-23.07,2.59-29.57,10.22-9.5,11.14-6.33,21.7,2.94,29.5,1.54,1.29,4.42,3.93,5,5.89,1.08,3.64-.99,6.33-3.88,7.09-5.29,1.38-10.94-2.16-12.24-8.1h0Zm-71.49-1.45c-2.63,3.39-4.38,5.95-8.75,7.78-4.34,1.82-10.1,1.33-13.54-1.11-6.72-4.76-7.15-16.48-4.79-26.21,2.99-12.38,10.41-23.5,19.52-30.88,2.28-1.84,7.36-5.24,11.09-5.82-.75,2.53-2.74,5.96-3.81,8.72-1.15,2.97-2.49,7.25-1.77,10.8,1.42,7.07,11.61,10.83,14.74,10.41,.96-9.02,9.71-22.71,8.89-30.72-.58-5.71-4.93-9.48-8.19-11.75-4.68-3.25-10.48-2.99-16.46-1.37-18.02,4.9-32.8,23.25-39.89,39.35-8.58,19.48-11.45,48.54,5.17,60.32,14.88,10.55,39.64,1.86,39.49-21.17-.02-2.45-.13-7.03-1.7-8.36h0Zm224.72-36.6c4.3,1.59,6.63,3.24,10.85-2.77,2.14-3.04,4.6-6.59,6.33-10.02,2.34-4.65,3.27-8.6-.81-11.73-2.21-1.69-8.93-4.45-12.75-3.19,.87,5.5,.42,9.09-.51,14.46l-3.1,13.25h0ZM188.39,32.44c2.94-1.13,5.08-3.32,10.68-3.37,3.51-.03,8.75,1.71,9.78,4.01-9.07,.8-18.35,4.4-19.08,14.88,3.44-1.3,5.39-3.19,11.21-2.78,3.91,.27,8.01,2.38,9.29,4.85-8.82,.83-16.77,4.75-16.79,13.95,2.05-.75,6.68-4.39,11.31-1.95,2.93,1.55,4.42,5.47,6.03,8.96,3.53,7.65,7.01,11.59,16.84,13.13l.02,14.53-16.49,.03-2.57-5.37-25.44-.07c.57,2.1,4.09,8.54,4.09,9.65,0,1.24-3.56,7.45-4.09,9.6h25.51s2.42-5.41,2.42-5.41h16.46s.12,16.83,.12,16.83c-7,3.27-20.05,10.38-27.58,14.34L20.43,231.79c-2.29,1.15-4.59,2.45-6.98,3.64-1.51,.75-5.7,2.72-6.86,3.67l12.75,24.74,26.83-13.82,.09,116.21H417.89s.04-116.09,.04-116.09c1.64,.42,11.14,5.65,13.56,6.89,2.18,1.11,11.85,6.36,13.33,6.8l12.88-24.68c-1.72-1.35-62.99-32.81-69-36.05-4.48-2.42-9.18-4.84-13.8-7.18-18.08-9.15-37.28-19.37-55.37-28.8l-55.34-28.84c-4.52-2.36-9.29-4.68-13.79-7.17-4.53-2.51-9.52-4.71-13.92-7.29l-.02-16.68,18.06-.06,.13,8.07,24.26-12.14c-.64-.65-23.06-12.08-24.23-12.39l-.06,8.04-18.06,.02-.08-14.92c12.74-2.1,25.35-12.05,25.57-25.54,.15-9.69-7.76-13.27-7.08-18.21,.23-1.72,2.12-2.47,3.41,.05,.87,1.69,1.24,3.08,3.62,2.95,1.83-.09,2.96-1.42,3.2-3.09,.36-2.56-.74-3.41-1.37-5.13,1.76-.92,4.37-.89,6.5-1.23-.68-3.06-7.23-4.87-7.93-5.31,.76-1.07,2.44-2.41,1.27-4.38-.83-1.4-3.26-.91-4.57-1.98-1.18-.97-1.2-3.22-2.47-3.81-2.43-1.12-2.89,1.19-3.61,2.51-1.3-.72-2.5-3.2-4.63-3.15-2.87,.07-2.1,2.8-1.65,5.02-2.47-.31-8.05-2.1-7.7,1.96,.23,2.68,4.45,3.84,7.21,4.34-.65,1.19-1.87,1.85-2.82,3.8-2.28,4.67-2.72,10.49-4.1,15.51-1.54,5.64-3.83,10.06-9.98,9.5-2.04-.18-3.31-1.26-4.46-1.99,.12-1.34,1.11-3.02,1.62-4.53,.55-1.62,.95-3.18,1.3-4.99,4.66-24.79-14.61-35.38-28.83-28.28-4.71,2.35-9.82,7.72-10.58,14.66Z"/>
  <path class="cls-1" d="M300.93,240.42c.15,18.95-8.95,27.47-15.36,44.31-3.15,8.27-4.34,17.66,2.19,22.59,2.99,2.25,7.4,3.17,11.95,2.18,2.03-.44,3.85-1.13,5.41-1.94,1.76-.92,3.26-2.08,4.78-2.83-1.55,5.29-7.62,11.22-13.55,13.13-3.44,1.11-7.86,1.42-11.59,.37-2.52-.71-4.55-1.88-6.38-3.44-.77-.66-.9-1.16-1.94-1.6-1.36,3.64-2.49,5.89-2.31,10.63,.44,11.42,11.12,17.18,23.56,15.26,25.11-3.87,34.57-42.35,40.6-64.01,1.66-5.97,4.33-15.44,4.11-22.09-.16-4.72-1.57-6.81-4-9.11-1.67-1.59-5.79-3.93-8.83-4.26-.3,10.54-12.18,41.91-19.68,51.47-.84,1.07-4.47,5-6.34,2.07-1.76-2.77,3.26-12.37,4.39-14.91,3.43-7.69,11.51-23.36,6.59-30.94-2.2-3.38-7.82-6.55-13.62-6.88Z"/>
  <path class="cls-1" d="M121.99,283.86c-2.63,3.39-4.38,5.95-8.75,7.78-4.34,1.82-10.1,1.33-13.54-1.11-6.72-4.76-7.15-16.48-4.79-26.21,2.99-12.38,10.41-23.5,19.52-30.88,2.28-1.84,7.36-5.24,11.09-5.82-.75,2.53-2.74,5.96-3.81,8.72-1.15,2.97-2.49,7.25-1.77,10.8,1.42,7.07,11.61,10.83,14.74,10.41,.96-9.02,9.71-22.71,8.89-30.72-.58-5.71-4.93-9.48-8.19-11.75-4.68-3.25-10.48-2.99-16.46-1.37-18.02,4.9-32.8,23.25-39.89,39.35-8.58,19.48-11.45,48.54,5.17,60.32,14.88,10.55,39.64,1.86,39.49-21.17-.02-2.45-.13-7.03-1.7-8.36Z"/>
  <path class="cls-1" d="M177.4,250.15c-1.83,7.99-20.22,49.68-27.45,41.34-4.33-4.99,5.6-22.26,7.85-25.56,3.64-5.34,11.34-14.57,19.59-15.78h0Zm-15.82,47.13c.44,19.88,17.15,17.53,20.27,14-2.28-5.42-2.32-8.38-1.58-14.97,1.24-11.1,7.03-30.96,11.07-40.42,1.22-2.86,2.67-4.41,1.75-5.61-2.78-3.6-7.43-2.32-8.47-4.36-.58-1.13-.8-1.73-1.56-2.8-1.19-1.68-2.39-3.16-4.8-3.92-8.59-2.7-20.38,5.5-24.54,9.01-10.12,8.52-22.88,23.74-25,43.6-2.19,20.49,13.43,26.43,25,14.97,1.45-1.44,2.68-2.69,4.02-4.42l3.84-5.08Z"/>
  <path class="cls-1" d="M254.77,275.46c1.34-8.2,13.19-28.13,18.8-22.33,2.03,2.1,.8,6.43-.31,8.66-1.36,2.74-2.73,4.27-4.57,6.07-2.88,2.81-8.46,6.74-13.92,7.6h0Zm24.13,14.3c-2.24,.71-7.3,4.5-14.44,4.64-2.87,.05-5.85-.42-7.74-1.8-1.28-.94-3.66-3.74-3.02-6.21,10.11-1.3,19.17-4.76,25.58-9.59,18.66-14.04,12.3-43.09-10.72-36.6-23.96,6.76-42.63,51.15-29.38,67.76,10.06,12.61,38,6.09,39.72-18.21Z"/>
  <path class="cls-1" d="M346.76,283.77c-3.76,1.71-6.48,10.17-5.63,15.94,2.67,18.24,32.18,18.77,42.16,5.1,3.14-4.3,5.24-10.84,3.57-17.6-2.31-9.29-10.31-12.75-14.79-18.16-1.86-2.25-2.65-5.17-1.33-8.66,1.67-4.41,7.05-8.53,11.92-10.07-.75,3.78-5.24,9-2.75,14.17,1.38,2.88,7.2,6.11,11.22,6.81l2.57-8.65c2.31-6.39,5.01-11.54,.55-17.14-1.34-1.68-3.99-4.02-5.97-5.2-12.18-7.27-38.18,11.21-34.25,28.24,2.59,11.22,14.57,13.71,13.12,20.34-1.45,6.63-18,5.84-20.37-5.13Z"/>
  <path class="cls-1" d="M193.09,283.97c-6.77,3.14-12.38,20.94,1.55,27.95,9.79,4.93,24.74,2.18,31.6-7.53,3.08-4.36,4.93-11.12,3.04-17.56-1.65-5.64-5.8-9.51-9.54-12.53-1.68-1.35-4.32-3.58-5.58-5.32-5.66-7.86,3.33-16.31,10.78-18.62-.64,3.74-5.25,8.89-2.73,14.12,1.42,2.96,7.18,6.04,11.2,6.84,.46-.79,.36-1.11,.59-2.2,2.44-11.52,11.11-18.96-2.76-28.38-9.31-6.33-23.07,2.59-29.57,10.22-9.5,11.14-6.33,21.7,2.94,29.5,1.54,1.29,4.42,3.93,5,5.89,1.08,3.64-.99,6.33-3.88,7.09-5.29,1.38-10.94-2.16-12.24-8.1l-.39-1.35Z"/>
  <path class="cls-2" d="M177.4,250.15c-8.26,1.22-15.95,10.44-19.59,15.78-2.25,3.3-12.18,20.57-7.85,25.56,7.23,8.34,25.61-33.36,27.45-41.34Z"/>
  <path class="cls-1" d="M350.32,219.55c.87,5.5,.42,9.09-.51,14.46l-3.1,13.25c4.3,1.59,6.63,3.24,10.85-2.77,2.14-3.04,4.6-6.59,6.33-10.02,2.34-4.65,3.27-8.6-.81-11.73-2.21-1.69-8.93-4.45-12.75-3.19Z"/>
  <path class="cls-2" d="M254.77,275.46c5.46-.86,11.04-4.79,13.92-7.6,1.84-1.79,3.2-3.33,4.57-6.07,1.12-2.24,2.34-6.57,.31-8.66-5.61-5.8-17.46,14.13-18.8,22.33Z"/>
</svg>