<?xml version="1.0" encoding="UTF-8"?>
<svg id="Layer_1" data-name="Layer 1" xmlns="http://www.w3.org/2000/svg" viewBox="0 0 364 95">
  <defs>
    <style>
      .cls-1 {
        fill: #ed1b2f;
      }

      .cls-1, .cls-2 {
        fill-rule: evenodd;
      }

      .cls-2 {
        fill: #231f20;
      }
    </style>
  </defs>
  <path class="cls-2" d="M340.74,66.73l.64-1.67h.62v2.27h-.4v-1.85h-.01l-.71,1.85h-.28l-.71-1.85h-.01v1.85h-.4v-2.27h.62l.65,1.67h0Zm-1.67-1.34h-.7v1.94h-.4v-1.94h-.7v-.33h1.8v.33h0Z"/>
  <path class="cls-1" d="M145.16,36.41h8.59v2.93c.92-.8,3.9-3.65,9.4-3.65,6.47,0,11.61,4.78,11.61,12.28v19.46h-9.08v-17.06c0-4.18-2.03-6.66-5.72-6.66s-5.73,2.34-5.73,6.66v17.06h-9.07v-31.02h0Z"/>
  <path class="cls-1" d="M240.5,51.92c0-4.29,3.21-7.81,7.66-7.81s7.66,3.52,7.66,7.81-3.2,7.81-7.66,7.81-7.66-3.52-7.66-7.81h0Zm-8.95,0c0,8.95,7.17,16.21,16.55,16.21s16.55-7.27,16.55-16.21-7.17-16.23-16.55-16.23-16.55,7.28-16.55,16.23h0Z"/>
  <path class="cls-1" d="M115.95,51.93c0-4.29,3.2-7.81,7.66-7.81s7.66,3.52,7.66,7.81-3.2,7.81-7.66,7.81-7.66-3.53-7.66-7.81h0Zm-8.95,0c0,8.95,7.17,16.21,16.55,16.21s16.55-7.27,16.55-16.21-7.17-16.23-16.55-16.23-16.55,7.29-16.55,16.23h0Z"/>
  <path class="cls-1" d="M308.64,36.41h9.19v31.02h-9.19v-31.02h0Zm0-11.33h9.19v7.89h-9.19v-7.89h0Z"/>
  <polygon class="cls-1" points="324.92 25.08 334.12 25.08 334.12 67.44 324.92 67.44 324.92 25.08 324.92 25.08"/>
  <path class="cls-1" d="M293.98,51.91c0,4.37-3.36,7.77-7.75,7.77s-7.78-3.39-7.78-7.75,3.38-7.77,7.79-7.77,7.74,3.38,7.74,7.74h0Zm-15.29,15.53l.09-2.39c.64,.49,3.48,3.1,9.43,3.1,7.82,0,15.08-7.01,15.08-16.22s-6.81-16.23-14.97-16.23c-6.24,0-9.1,2.86-9.53,3.18v-13.79h-8.82v42.35h8.72Z"/>
  <polygon class="cls-1" points="53.53 67.44 67.99 49.33 55.2 36.41 67.9 36.41 73.57 42.26 84.01 28.82 94.66 28.82 79.37 48.09 85.32 54.07 99.07 36.41 109.75 36.41 91.14 59.92 114.77 83.67 101.89 83.67 85.45 66.95 76.71 78.26 66.04 78.26 79.68 61.19 73.72 55.15 64.17 67.44 53.53 67.44 53.53 67.44"/>
  <polygon class="cls-1" points="23.53 25.08 51.42 25.08 51.42 32.98 33.02 32.98 33.02 41.75 50.59 41.75 50.59 49.41 33.02 49.41 33.02 59.53 51.42 59.53 51.42 67.44 23.53 67.44 23.53 25.08 23.53 25.08"/>
  <polygon class="cls-1" points="182.02 25.08 197.02 25.08 204.09 56 204.41 56 211.67 25.08 226.24 25.08 226.24 67.44 217.32 67.44 217.32 35.46 216.91 35.46 209.05 67.44 199.03 67.44 191.35 35.46 190.95 35.46 190.95 67.44 182.02 67.44 182.02 25.08 182.02 25.08"/>
</svg>