<?xml version="1.0" encoding="UTF-8"?>
<svg id="Layer_1" data-name="Layer 1" xmlns="http://www.w3.org/2000/svg" xmlns:xlink="http://www.w3.org/1999/xlink" viewBox="0 0 163.08 42.5">
  <defs>
    <style>
      .cls-1 {
        fill: #fff;
      }

      .cls-2 {
        fill: url(#linear-gradient);
        opacity: .35;
      }

      .cls-2, .cls-3 {
        mix-blend-mode: multiply;
      }

      .cls-3, .cls-4 {
        opacity: .2;
      }

      .cls-5 {
        fill: #ea1f27;
      }

      .cls-6 {
        fill: #134b8c;
      }

      .cls-4, .cls-7 {
        mix-blend-mode: darken;
      }

      .cls-8 {
        opacity: .5;
      }

      .cls-8, .cls-9 {
        fill: #221f1f;
      }

      .cls-10 {
        clip-path: url(#clippath);
      }

      .cls-7 {
        opacity: .6;
      }
    </style>
    <clipPath id="clippath">
      <path class="cls-5" d="M62.48,12.99c-.58,1.28-2.21,2.33-3.62,2.33H2.62c-1.41-.01-2.09-1.06-1.5-2.34L5.97,2.33C6.56,1.05,8.19,0,9.6,0h56.24c1.42,.01,2.09,1.06,1.5,2.34l-4.85,10.66Z"/>
    </clipPath>
    <linearGradient id="linear-gradient" x1="180.71" y1="309.97" x2="149.57" y2="283.84" gradientTransform="translate(-127.19 -287.38) rotate(.01)" gradientUnits="userSpaceOnUse">
      <stop offset="0" stop-color="#fff"/>
      <stop offset=".01" stop-color="#f5f4f4"/>
      <stop offset=".07" stop-color="#c9c8c8"/>
      <stop offset=".13" stop-color="#a19f9f"/>
      <stop offset=".2" stop-color="#7e7c7c"/>
      <stop offset=".27" stop-color="#615f5f"/>
      <stop offset=".35" stop-color="#4a4747"/>
      <stop offset=".45" stop-color="#383535"/>
      <stop offset=".55" stop-color="#2b2828"/>
      <stop offset=".7" stop-color="#242121"/>
      <stop offset="1" stop-color="#221f1f"/>
    </linearGradient>
    <symbol id="RaceTrac_Logo" data-name="RaceTrac Logo" viewBox="0 0 68.39 15.43">
      <g>
        <g>
          <path class="cls-5" d="M62.48,12.99c-.58,1.28-2.21,2.33-3.62,2.33H2.62c-1.41-.01-2.09-1.06-1.5-2.34L5.97,2.33C6.56,1.05,8.19,0,9.6,0h56.24c1.42,.01,2.09,1.06,1.5,2.34l-4.85,10.66Z"/>
          <g class="cls-10">
            <g class="cls-3">
              <polygon class="cls-9" points="61.4 15.43 61.84 14.48 .44 14.46 0 15.42 61.4 15.43"/>
              <polygon class="cls-9" points="62.07 13.95 62.46 13.1 1.06 13.09 .68 13.94 62.07 13.95"/>
              <polygon class="cls-9" points="62.75 12.46 63.08 11.74 1.68 11.73 1.35 12.45 62.75 12.46"/>
              <polygon class="cls-9" points="63.42 10.98 63.7 10.38 2.31 10.36 2.02 10.97 63.42 10.98"/>
              <polygon class="cls-9" points="67.21 2.68 67.71 1.59 6.31 1.58 5.82 2.67 67.21 2.68"/>
              <polygon class="cls-9" points="67.84 1.31 68.39 .09 6.99 .08 6.44 1.3 67.84 1.31"/>
              <polygon class="cls-9" points="66.59 4.04 67.03 3.08 5.63 3.07 5.19 4.03 66.59 4.04"/>
              <polygon class="cls-9" points="65.97 5.41 66.35 4.56 4.95 4.55 4.57 5.4 65.97 5.41"/>
              <polygon class="cls-9" points="65.35 6.77 65.68 6.04 4.28 6.03 3.95 6.76 65.35 6.77"/>
              <polygon class="cls-9" points="64.72 8.14 65 7.53 3.61 7.52 3.33 8.13 64.72 8.14"/>
              <polygon class="cls-9" points="64.1 9.5 64.33 9.01 2.93 9 2.71 9.49 64.1 9.5"/>
            </g>
          </g>
        </g>
        <path class="cls-2" d="M10.27,10.84l8.01,4.1H59.13s2.14,.17,5.38-7.51L44.51,3.31l-10.65,4.05-5.33-2.25-1.08-.12-9.68-1.8-7.5,7.65Z"/>
        <polygon class="cls-8" points="16.03 3.15 29.43 5.75 25.32 8.99 15.16 4.45 16.03 3.15"/>
        <g class="cls-4">
          <g>
            <path class="cls-9" d="M46.39,2.32h-7.23s-1.52,2.76-1.52,2.76l-.2,.37h1.72s.07,0,.15,0c-.04,.06-2.85,5.3-2.85,5.3h6.95s.98-1.95,.98-1.95c.13-.24,.26-.48,.35-.59,.13-.17,.25-.25,.37-.25,.11,0,.16,.04,.18,.09,.03,.06,.02,.13-.03,.23-.09,.14-.22,.42-.27,.61-.14,.46-.11,.93,.09,1.25,.29,.49,.82,.76,1.48,.76,.38,0,.74-.05,1.1-.14h0s3.21,0,3.21,0l.17-.31s.06-.1,.06-.1c0,0,.19-.31,.19-.31,0,0,.04-.07,.08-.15,.03,.08,.07,.16,.07,.16,.05,.08,.48,.86,2.01,.86,1.6,0,3.09-.85,4.2-2.41,.48-.66,.83-1.28,1.01-1.85,.21-.67,.15-1.28-.19-1.72h0c-.42-.56-1.12-.84-2.03-.84-1.44,.02-2.19,.38-3.23,1.12,0,0-.05,.03-.12,.08,0-.06-.02-.14-.02-.14-.13-.64-.89-1.02-2.16-1.06-.72-.02-1.62,.15-2.15,.33,0,0-.02,.02-.04,.02-.01,0-.04-.02-.04-.02-.23-.07-.65-.2-1.01-.21-.53-.01-.79,.04-1.15,.16,0,0,0,0,0,0,0,0-.99,0-1.07,0,.04-.06,.07-.13,.07-.13l1.09-1.92h-.19Z"/>
            <path class="cls-9" d="M53.43,11.23c-1.13,0-1.75-.4-2.06-.72-.02,.04-.04,.07-.06,.11l-.26,.47h-3.37c-.38,.09-.73,.14-1.08,.14h-.06c-.78,0-1.4-.33-1.76-.92-.2-.33-.27-.75-.2-1.19l-.97,1.95h-7.7s.26-.48,.26-.48c.23-.43,1.93-3.59,2.59-4.82h-1.88s2.08-3.77,2.08-3.77h8.17s-1.15,2.04-1.15,2.04h.47c.36-.12,.65-.17,1.2-.16,.36,0,.76,.11,1.05,.21,.56-.17,1.45-.34,2.19-.32,1.53,.06,2.12,.57,2.35,1,.95-.65,1.76-.99,3.16-1h.03c1,0,1.79,.33,2.27,.97,.4,.54,.48,1.25,.24,2.02-.19,.6-.55,1.26-1.06,1.95-1.17,1.64-2.76,2.54-4.46,2.54h0Zm-1.72-1.34c.11,.18,.54,.68,1.72,.69,1.49,0,2.89-.81,3.93-2.27,.47-.64,.79-1.23,.97-1.76,.18-.56,.13-1.07-.14-1.43-.35-.46-.95-.71-1.75-.71h-.02c-1.36,.02-2.04,.34-3.04,1.06l-.03,.02s-.04,.02-.08,.06l-.43,.33-.09-.54c-.01-.06-.02-.13-.02-.13-.1-.47-.77-.76-1.85-.8-.03,0-.07,0-.11,0-.65,0-1.43,.16-1.89,.3-.09,.04-.23,.06-.35,0-.21-.07-.58-.17-.88-.18-.5-.01-.71,.04-1.04,.14l-.05,.02-.6,.2,.08-.2h-1.15s.25-.48,.25-.48c.04-.08,.09-.15,.09-.15l.8-1.42h-6.67s-1.36,2.47-1.36,2.47h1.87s-.27,.48-.27,.48c-.04,.07-1.59,2.95-2.59,4.82h6.2s.92-1.83,.92-1.83c.14-.25,.25-.46,.36-.59,.18-.24,.39-.37,.62-.37,.26,0,.41,.14,.47,.28,.05,.11,.09,.29-.04,.53v.02c-.08,.1-.19,.35-.25,.53-.12,.37-.1,.74,.05,.99,.23,.39,.66,.6,1.2,.6h.05c.31,0,.62-.04,.96-.13h.08s3.03,0,3.03,0l.23-.42h.01c.04-.07,.08-.14,.08-.14,0,0,.04-.07,.08-.13l.33-.62,.26,.65c.02,.05,.04,.1,.06,.13h0Z"/>
          </g>
          <g>
            <path class="cls-9" d="M14.98,2.31h-.07s-4.51,8.42-4.51,8.42h3.92s1.38-2.51,1.38-2.51c0,0,.01-.02,.02-.05,.03,0,.06,0,.06,0,.08,0,.18,0,.25,.03,.05,.02,.08,.05,.1,.09,.02,.07,0,.14-.04,.21-.65,1-.69,1.76-.65,2.14v.1s3.53,0,3.54,0c0,0,.01,0,.01,0,0,0,0,0-.01,0h0c.11,.06,.55,.21,.89,.21,.4,0,.94-.07,1.33-.2,0,0,.01,0,.02,0,0,0,3.13,0,3.13,0l.34-.61s.04-.06,.07-.13c.04,.06,.08,.13,.08,.13,.02,.03,.52,.81,1.81,.82,1.23,0,2.46-.48,3.44-1.36,0,0,.05-.05,.1-.1,.02,.06,.04,.14,.04,.14,.04,.11,.09,.21,.14,.31,.35,.64,1.05,.98,1.98,.98,1.57,0,2.89-.61,3.92-1.83,.48-.55,.84-1.13,1.02-1.49,.36-.79,.48-1.48,.35-2.05l-.04-.24v-.02s-.13-.22-.13-.22v-.03c-.25-.44-.8-.95-1.99-.96-1.16,0-2.36,.47-3.37,1.33,0,0-.05,.05-.1,.09-.02-.07-.04-.13-.04-.13-.04-.13-.09-.23-.16-.34-.24-.41-.72-.95-2.03-.98-1.15-.02-2.31,.37-3.21,1.09,0,0-.04,.03-.1,.07-.01-.05-.03-.1-.03-.1l-.04-.07c-.23-.48-.48-.97-2.27-.97-.91,0-1.74,.26-2.27,.49,0,0-.07,.03-.15,.06,0-.08,.03-.17,.03-.17,.02-.12,.03-.24,.03-.35,0-.26-.06-.48-.17-.69-.48-.92-1.49-1.1-2.85-1.1h-3.8Zm3.95,8.4s.02,.02,.03,.02h0s-.03-.02-.03-.02Zm7.66-5.57h0Z"/>
            <path class="cls-9" d="M19.28,11.52l-.45-.46h-3.71s-.02-.42-.02-.42c-.02-.17-.02-.41,.03-.72l-.62,1.13h-4.65S14.71,1.98,14.71,1.98h4.06c1.48,0,2.59,.22,3.14,1.28,.14,.26,.2,.54,.2,.85,0,0,0,0,0,0,.53-.19,1.24-.37,2.03-.37,1.66,0,2.16,.42,2.47,.97,.88-.63,2-.99,3.09-.99h.09c1.1,.03,1.86,.4,2.3,1.14,.02,.04,.04,.07,.06,.1,1.01-.78,2.17-1.2,3.31-1.21,1.37,.01,2,.62,2.28,1.13l.16,.31,.02,.06,.04,.24c.14,.63,.01,1.38-.37,2.24-.18,.38-.56,.98-1.07,1.57-1.09,1.29-2.5,1.94-4.17,1.94-1.05,0-1.85-.41-2.26-1.15-.01-.02-.02-.04-.03-.06-1,.8-2.2,1.23-3.42,1.23-.97,0-1.55-.39-1.85-.68l-.27,.48h-3.29c-.4,.13-.92,.21-1.34,.21h-.05c-.18,0-.39-.04-.57-.08v.34h0Zm0-1.01c.16,.05,.39,.1,.57,.11h.05c.36,0,.84-.07,1.18-.18l.05-.02h.08s2.94,0,2.94,0l.25-.44s.04-.06,.07-.12l.26-.5,.38,.61c.04,.06,.46,.66,1.53,.66,1.15,0,2.29-.45,3.22-1.26,.02-.03,.07-.07,.12-.12l.35-.29,.16,.43c.02,.06,.04,.12,.05,.16,.04,.09,.07,.17,.12,.25,.37,.67,1.13,.81,1.69,.81,1.47,0,2.71-.58,3.67-1.71,.47-.54,.82-1.1,.97-1.42,.33-.71,.44-1.33,.32-1.83l-.04-.2-.13-.25c-.3-.5-.86-.76-1.68-.76-1.09,0-2.2,.44-3.14,1.25-.02,.02-.07,.06-.12,.11l-.37,.3-.14-.46c-.02-.07-.04-.14-.04-.14-.03-.09-.06-.16-.12-.26-.22-.37-.62-.8-1.76-.83h-.08c-1.04,0-2.11,.37-2.92,1.02,0,0-.05,.04-.09,.08l-.39,.31-.13-.48s-.01-.05-.02-.06l-.03-.06c-.2-.41-.39-.79-1.98-.79-.87,0-1.64,.25-2.14,.46-.02,0-.08,.03-.13,.06l-.52,.26,.06-.59c0-.11,.03-.21,.03-.21,.01-.08,.02-.17,.02-.28,0-.2-.04-.37-.13-.54-.35-.67-1.05-.92-2.57-.93h-3.67s-4.16,7.77-4.16,7.77h3.18l1.28-2.35,.05-.17,.19-.04c.05-.01,.1-.01,.12-.01,0,0,.03,0,.05,0,.13,0,.23,.02,.32,.06,.14,.06,.25,.17,.28,.31,.03,.1,.05,.27-.07,.47-.5,.77-.61,1.37-.62,1.74h3.3s-.05-.01-.08-.01h.32s0,.11,0,.11h0Z"/>
          </g>
        </g>
        <g class="cls-7">
          <path class="cls-9" d="M46.38,2.65h-7.23s-1.52,2.76-1.52,2.76l-.2,.37h.19s.12,0,.12,0h1.42s.07-.02,.15-.02c-.04,.07-2.85,5.31-2.85,5.31h6.95l.98-1.95c.13-.24,.26-.47,.35-.59,.13-.17,.25-.25,.37-.24,.1,0,.16,.04,.18,.09,.03,.06,.02,.14-.03,.23-.09,.14-.21,.43-.27,.61-.14,.46-.11,.93,.09,1.26,.29,.49,.82,.75,1.48,.75,.38,0,.74-.04,1.1-.13,0,0,0,0,0,0,0,0,3.21,0,3.21,0l.17-.3s.06-.11,.06-.11c0,0,.19-.32,.19-.32,0,0,.04-.08,.08-.15,.03,.08,.07,.16,.07,.16,.05,.09,.48,.86,2.01,.86,1.6,0,3.09-.85,4.2-2.42,.49-.65,.83-1.28,1.01-1.84,.21-.68,.15-1.29-.19-1.73h0c-.42-.56-1.12-.85-2.04-.84-1.44,.02-2.19,.37-3.22,1.13,0,0-.05,.03-.12,.07,0-.06-.02-.13-.02-.13-.13-.65-.89-1.02-2.16-1.07-.72-.02-1.62,.15-2.15,.33,0,0-.02,.02-.04,.02-.01-.02-.04-.02-.04-.02-.22-.08-.65-.19-1.01-.2-.52-.02-.79,.04-1.15,.16,0-.01,0,0-.01,0,0,0-.99,0-1.07,0,.03-.07,.07-.13,.07-.13l1.08-1.91h-.19Z"/>
          <path class="cls-9" d="M14.97,2.64h-.07l-4.51,8.42h3.91s1.38-2.52,1.38-2.52c0,0,.01-.01,.02-.04,.03,0,.05,0,.05,0,.08,0,.19-.01,.25,.03,.05,.01,.08,.04,.1,.09,.02,.06,0,.13-.04,.2-.65,1.01-.69,1.77-.66,2.13v.11s3.53,0,3.54,0c0,0,.01,.01,.01,.01,0,0,0-.01-.01,0h0c.12,.06,.56,.21,.9,.21,.4,0,.94-.08,1.33-.21,0,0,.01,0,.02,0,0,0,3.13,0,3.13,0l.34-.6s.04-.07,.07-.12c.04,.05,.08,.12,.08,.12,.02,.03,.52,.81,1.81,.81,1.23,0,2.46-.49,3.45-1.36,0,0,.05-.05,.1-.1,.02,.07,.04,.13,.04,.13,.04,.11,.09,.22,.14,.32,.35,.63,1.05,.99,1.98,.99,1.57,0,2.89-.63,3.92-1.84,.48-.54,.84-1.12,1.02-1.48,.36-.8,.47-1.48,.35-2.06l-.04-.24v-.02s-.13-.22-.13-.22v-.03c-.25-.43-.8-.95-1.99-.97-1.16,0-2.36,.48-3.37,1.34,0,0-.04,.05-.1,.09-.02-.07-.04-.13-.04-.13-.04-.13-.09-.22-.16-.35-.24-.4-.72-.95-2.03-.97-1.15-.03-2.31,.37-3.21,1.08,0,0-.04,.03-.1,.08-.01-.05-.03-.11-.03-.11l-.04-.07c-.23-.48-.48-.97-2.27-.97-.91,0-1.74,.27-2.27,.49,0,0-.07,.03-.15,.07,.01-.09,.03-.16,.03-.16,.02-.13,.03-.25,.03-.36,0-.25-.06-.48-.17-.69-.48-.91-1.49-1.1-2.85-1.1h-3.8Zm3.95,8.4s.02,0,.03,.02h0s-.03-.02-.03-.02Zm7.66-5.58h0Z"/>
        </g>
        <g class="cls-4">
          <path class="cls-9" d="M45.4,3.29h-7.23s-1.52,2.75-1.52,2.75l-.2,.37h.19s.12,0,.12,0h1.42s.07,0,.15,0c-.04,.06-2.85,5.3-2.85,5.3h6.95s.97-1.96,.97-1.96c.13-.23,.26-.47,.35-.58,.13-.17,.25-.25,.37-.25,.11,0,.15,.05,.18,.08,.02,.06,.02,.14-.04,.23-.08,.14-.21,.42-.27,.61-.14,.47-.12,.93,.08,1.27,.29,.48,.82,.75,1.48,.75,.38,0,.74-.05,1.1-.14,0,0,0,0,0,0,0,0,3.21,0,3.21,0l.18-.3,.06-.1,.18-.32s.04-.06,.08-.15c.03,.09,.07,.17,.07,.17,.05,.09,.48,.87,2.01,.87,1.6,0,3.09-.86,4.2-2.41,.49-.66,.84-1.28,1.01-1.85,.21-.66,.14-1.27-.19-1.72h0c-.42-.56-1.12-.85-2.03-.84-1.44,.02-2.19,.37-3.23,1.12,0,0-.05,.03-.11,.08-.01-.06-.03-.14-.03-.14-.12-.64-.89-1.02-2.16-1.07-.72-.02-1.62,.15-2.15,.33,0,0-.02,0-.03,.02-.02-.02-.05-.02-.05-.02-.22-.07-.65-.2-1.01-.21-.53-.01-.79,.04-1.15,.16,0,0,0,0-.01,0,0,0-1,0-1.07,0,.04-.06,.07-.13,.07-.13l1.09-1.91h-.2Z"/>
          <path class="cls-9" d="M14,3.29h-.07s-4.5,8.42-4.5,8.42h3.91s1.38-2.51,1.38-2.51c0,0,.02-.02,.02-.05,.03,0,.05,0,.05,0,.08,0,.19,0,.25,.03,.05,.02,.08,.05,.1,.1,.01,.06,0,.13-.04,.2-.66,1.01-.7,1.78-.66,2.14v.11s3.53,0,3.53,0c.01,0,.02,0,.02,0,0,0,0,0,0,0h0c.12,.06,.56,.21,.9,.2,.4,0,.93-.07,1.33-.2,0,0,.01,0,.02,0h3.13l.35-.61s.04-.06,.07-.13c.04,.06,.08,.13,.08,.13,.02,.03,.52,.82,1.81,.81,1.23,0,2.46-.49,3.44-1.37,0,0,.05-.04,.11-.08,.02,.07,.04,.13,.04,.13,.04,.11,.09,.21,.15,.31,.35,.63,1.05,.99,1.97,.99,1.57,0,2.89-.63,3.92-1.83,.49-.55,.84-1.13,1.02-1.48,.36-.79,.48-1.48,.35-2.05l-.05-.25h0s-.12-.24-.12-.24v-.02c-.25-.43-.79-.96-1.98-.96-1.17,0-2.37,.47-3.37,1.33,0,0-.05,.04-.1,.09-.02-.07-.04-.13-.04-.13-.04-.13-.08-.23-.16-.36-.25-.4-.72-.94-2.02-.97-1.15-.03-2.32,.37-3.21,1.09,0,0-.05,.03-.1,.07-.02-.04-.04-.1-.04-.1l-.04-.07c-.23-.48-.48-.98-2.27-.97-.92,0-1.74,.26-2.27,.49,0,0-.08,.03-.15,.06,.01-.08,.03-.16,.03-.16,.02-.13,.03-.24,.03-.35,0-.26-.05-.48-.16-.69-.48-.92-1.49-1.1-2.85-1.1h-3.8Zm3.95,8.4s.01,.01,.02,.01h0s-.02-.01-.02-.01Zm7.66-5.57h0Z"/>
        </g>
        <g>
          <path class="cls-1" d="M56.88,10.72v-.16s.04,0,.04,0c.09,0,.11,.04,.11,.07,0,.07-.04,.09-.12,.1h-.03m-.22,.41h.22s0-.27,0-.27h.02s.12,.27,.12,.27h.25s-.13-.25-.15-.31c.08-.02,.15-.11,.14-.21,0-.1-.11-.2-.3-.2h-.31v.71Z"/>
          <path class="cls-1" d="M56.95,10.14c-.37,0-.67,.29-.67,.65,0,.37,.3,.66,.67,.66,.36,0,.66-.29,.66-.66,0-.35-.3-.65-.66-.65m0,1.17c-.29,0-.53-.23-.53-.52,0-.29,.24-.53,.53-.52,.28,0,.52,.24,.52,.52,0,.29-.24,.53-.52,.52Z"/>
        </g>
        <g>
          <path class="cls-6" d="M44.75,2.97h-7.23s-1.52,2.76-1.52,2.76l-.2,.37h.19s.12,0,.12,0h1.42s.07,0,.15,0c-.04,.06-2.85,5.3-2.85,5.3h6.95s.98-1.96,.98-1.96c.12-.23,.26-.47,.34-.58,.13-.18,.26-.26,.37-.26,.11,0,.16,.05,.18,.09,.03,.06,.02,.14-.03,.23-.09,.14-.21,.42-.27,.61-.15,.47-.12,.93,.08,1.27,.29,.48,.82,.74,1.49,.75,.39,0,.74-.04,1.09-.14,0,0,0,0,.01,0,0,0,3.21,0,3.21,0l.18-.3s.06-.11,.06-.11c0,0,.18-.32,.18-.32,0,0,.04-.08,.09-.15,.03,.08,.07,.16,.07,.16,.05,.09,.48,.87,2.01,.87,1.6,0,3.09-.85,4.2-2.41,.49-.66,.83-1.29,1.01-1.85,.21-.67,.14-1.28-.19-1.72h0c-.43-.56-1.13-.85-2.03-.84-1.44,.02-2.19,.37-3.23,1.13,0,0-.06,.03-.12,.07-.01-.07-.03-.13-.03-.13-.13-.65-.89-1.02-2.16-1.07-.71-.02-1.62,.15-2.15,.33,0,0-.02,0-.04,.02-.01,0-.05-.02-.05-.02-.22-.08-.65-.2-1.01-.21-.52-.01-.79,.04-1.15,.16,0,0,0,0,0,0-.01,0-1,0-1.07,0,.03-.07,.07-.13,.07-.13l1.08-1.91h-.19Z"/>
          <path class="cls-6" d="M13.34,2.96h-.07s-4.5,8.43-4.5,8.43h3.91s1.38-2.52,1.38-2.52c0,0,.01-.02,.02-.04,.03,0,.05,0,.05,0,.08,0,.19,0,.25,.03,.05,0,.08,.06,.09,.1,.02,.06,0,.13-.04,.19-.66,1.01-.69,1.77-.65,2.14v.11s3.52,0,3.53,0c.01,0,.02,0,.02,0,0,0,0,0-.01,0h0c.12,.06,.56,.2,.9,.2,.4,0,.93-.08,1.33-.19,0,0,0,0,.02,0,0,0,3.13,0,3.13,0l.35-.61s.04-.06,.07-.12c.04,.06,.08,.12,.08,.12,.02,.04,.52,.81,1.81,.81,1.23,0,2.45-.48,3.44-1.35,0,0,.05-.05,.1-.08,.02,.06,.04,.13,.04,.13,.04,.1,.08,.21,.15,.31,.35,.63,1.05,.98,1.97,.98,1.57,0,2.89-.62,3.92-1.84,.48-.54,.84-1.12,1.02-1.47,.36-.79,.47-1.48,.35-2.06,0,0-.05-.24-.05-.24h0s-.12-.23-.12-.23v-.03c-.25-.44-.8-.96-1.98-.98-1.17,0-2.37,.48-3.37,1.35,0,0-.05,.04-.1,.08-.02-.06-.04-.13-.04-.13-.04-.13-.09-.23-.16-.35-.25-.4-.72-.95-2.03-.98-1.15-.03-2.31,.37-3.21,1.1,0,0-.05,.03-.1,.07-.02-.04-.04-.11-.04-.11l-.04-.07c-.24-.47-.48-.97-2.27-.97-.92,0-1.74,.26-2.27,.49,0,0-.07,.02-.14,.06,0-.08,.02-.16,.02-.16,.02-.13,.03-.25,.03-.36,0-.25-.06-.47-.17-.69-.48-.9-1.48-1.1-2.85-1.1h-3.8Zm3.96,8.4s.01,.02,.02,.01h0s-.02-.01-.02-.01Zm7.66-5.57h0Z"/>
        </g>
        <polygon class="cls-1" points="35.82 10.78 38.03 10.78 40.93 5.43 42.87 5.43 43.92 3.58 37.88 3.56 36.83 5.43 38.69 5.43 35.82 10.78 35.82 10.78 35.82 10.78"/>
        <path class="cls-1" d="M39.54,10.79h1.87s.8-1.62,.8-1.62h0c.37-.68,.7-1.14,1-1.45,.61-.59,1.38-.61,1.69-.61,.11,0,.34,.03,.45,.07h0l.96-1.68h0c-.07-.01-.14-.02-.21-.03-.94-.09-1.8,.32-2.5,1.03-.03,.04,.44-.87,.44-.87h-1.76s-2.73,5.16-2.73,5.16h0Z"/>
        <path class="cls-1" d="M25.07,10.97c1.29,0,2.78-.6,3.88-2.28h-1.88c-.29,.43-.69,.81-1.17,.81-.55-.01-.51-.56-.04-1.4,.36-.65,.75-1.26,1.45-1.29,.2-.02,.36,.05,.43,.18,.07,.12,.07,.31,.01,.5h1.87c.58-1.64-.27-2.18-1.51-2.19-1.54,0-3.13,.79-4.18,2.67-1.04,1.86-.35,2.98,1.15,2.99h0Z"/>
        <path class="cls-1" d="M51.76,10.97c1.29,0,2.77-.6,3.87-2.28h-1.88c-.29,.43-.69,.81-1.17,.81-.55-.01-.51-.56-.04-1.39,.37-.65,.75-1.26,1.45-1.29,.2-.02,.36,.05,.43,.18,.08,.12,.08,.31,.02,.5h1.88c.58-1.64-.27-2.14-1.52-2.16-1.54,0-3.12,.75-4.18,2.64-1.04,1.86-.36,2.98,1.15,2.99h0Z"/>
        <path class="cls-1" d="M17.3,3.56h-3.55s-3.92,7.22-3.92,7.22h2.37s1.43-2.56,1.43-2.56h1.01s1.09,0,.29,1.26c-.54,.85-.47,1.3-.47,1.3h2.28s-.04-.62,.38-1.35c.87-1.5,.4-1.74-.12-2.03,.89-.24,1.82-.8,2.28-1.69,.65-1.25,0-2.15-1.97-2.15Zm-.59,2.56c-.35,.38-.55,.48-1.24,.49h-.97s.79-1.49,.79-1.49h1.12c.78,0,.65,.61,.3,1Z"/>
        <path class="cls-1" d="M34.84,8.58c1.14-1.97,.76-3.24-.98-3.25-1.5-.01-3.24,.95-4.26,2.74-1.04,1.83-.38,2.88,1.12,2.89,1.09,0,2.53-.44,3.62-1.79h-1.78c-.32,.33-.67,.48-.97,.47-.49,0-.86-.43-.5-1.07h3.74Zm-1.72-1.88c.44,0,.6,.39,.32,.88h-1.69c.33-.58,.82-.88,1.37-.88Z"/>
        <path class="cls-1" d="M22.61,5.35c-1.85-.03-3.02,.67-3.67,1.83h1.72c.31-.47,.86-.71,1.23-.67,.23,.02,.41,.16,.19,.55-.58,1.02-3.17-.29-4.57,2.17-.65,1.13-.09,1.71,.79,1.71,.66,0,1.34-.12,2.13-.62,.03-.03-.2,.47-.2,.47h2.04s.06-.1,.06-.1c-.11-.23-.08-.32,.1-.62l1.31-2.58c.74-1.29,.93-2.11-1.13-2.13Zm-1.25,3.14c-.37,.7-.86,1.16-1.49,1.18-.38,.01-.51-.16-.37-.41,.38-.67,1.06-.54,1.82-.83,.05-.02,.08-.02,.04,.06Z"/>
        <path class="cls-1" d="M49.22,5.35c-1.85-.03-3.02,.67-3.68,1.83h1.72c.31-.46,.86-.71,1.22-.67,.24,.02,.42,.16,.19,.55-.58,1.02-3.17-.29-4.57,2.17-.65,1.13-.09,1.71,.79,1.72,.67,0,1.35-.13,2.13-.62,.03-.03-.19,.48-.19,.48h2.03s.06-.11,.06-.11c-.11-.23-.09-.32,.09-.63l1.32-2.58c.73-1.29,.92-2.11-1.13-2.14Zm-1.25,3.14c-.38,.7-.86,1.16-1.48,1.18-.38,.01-.52-.16-.38-.41,.38-.67,1.06-.54,1.82-.83,.05-.02,.09-.02,.05,.06Z"/>
        <path class="cls-1" d="M58.12,14.81H3.57c-.82-.01-1.19-.33-1.36-.61-.27-.44-.23-1.07,.11-1.77L6.67,2.74c.6-1.23,2.24-2.22,3.68-2.22h54.55c.81,.01,1.19,.33,1.36,.6,.27,.44,.23,1.07-.11,1.77l-4.35,9.69c-.59,1.23-2.24,2.22-3.67,2.22h0ZM10.34,.85c-1.31,0-2.83,.91-3.37,2.03L2.62,12.57c-.29,.6-.34,1.11-.13,1.45,.18,.29,.55,.44,1.08,.44H58.12c1.29,.01,2.83-.92,3.37-2.02l4.35-9.69c.29-.6,.34-1.12,.13-1.45-.18-.29-.55-.44-1.07-.44H10.34Z"/>
      </g>
    </symbol>
  </defs>
  <use width="68.39" height="15.43" transform="translate(0 2.85) scale(2.38)" xlink:href="#RaceTrac_Logo"/>
</svg>