<?xml version="1.0" encoding="UTF-8"?>
<svg id="Layer_1" data-name="Layer 1" xmlns="http://www.w3.org/2000/svg" viewBox="0 0 266.78 65.44">
  <defs>
    <style>
      .cls-1 {
        fill: #fff;
      }

      .cls-1, .cls-2, .cls-3, .cls-4 {
        fill-rule: evenodd;
      }

      .cls-2 {
        fill: #e70d30;
      }

      .cls-3 {
        fill: #010101;
      }
    </style>
  </defs>
  <rect id="Rectangle" x="152.84" y="11.92" width="6.85" height="5.65"/>
  <polygon id="Path" points="159.69 21.65 159.69 48.11 152.84 48.11 152.84 21.65 159.69 21.65"/>
  <path id="Path-2" data-name="Path" d="M150.43,21.62v26.48h-7.03s.02-2.27,.02-2.27c0,0,.03-.24-.1-.12-2.84,2.25-4.65,3.04-7.41,3.04-2.96,0-7.14-1.87-8.62-5.67-.05-.11-.56-1.23-.56-2.61V21.62h6.95v17.59c0,.16-.02,.32,.17,.89,.8,2.39,2.77,2.72,4.34,2.72,.17,0,1.03-.05,1.48-.16,2.34-.55,3.68-2.79,3.68-4.62V21.62h7.08"/>
  <polygon id="Path-3" data-name="Path" points="207.83 11.92 207.83 17.92 196.32 17.92 196.32 48.11 188.66 48.11 188.66 17.99 177.6 17.99 177.6 11.92 207.83 11.92"/>
  <polygon id="Path-4" data-name="Path" points="162.14 11.92 169.11 11.92 169.11 31.09 178.45 21.62 186.9 21.62 176.83 31.5 187.87 48.11 179.29 48.11 172.01 36.2 169.1 38.97 169.1 48.11 162.14 48.11 162.14 11.92"/>
  <path id="Path-5" data-name="Path" d="M213.22,20.95c.17,0,.89,0,1.4,0h.03v5.9c-.57,.01-1.43,.07-1.6,.07s-.28,.02-1.17,.11c-2.32,.24-5.28,3.47-5.29,5.62,0,.14,.02,.34,.02,.5v14.95h-6.91V21.62h6.95s0,2.77,0,2.77c1.96-2.51,4.42-3.44,6.58-3.44"/>
  <polygon id="Path-6" data-name="Path" points="215.7 11.92 222.54 11.92 222.54 17.56 215.69 17.56 215.7 11.92"/>
  <polygon id="Path-7" data-name="Path" points="222.54 21.62 222.54 48.09 215.7 48.09 215.69 21.61 222.54 21.62"/>
  <path id="Shape" d="M254.64,42.02c-1.67,0-3.08,1.31-3.08,3.03s1.41,3.07,3.08,3.07,3.06-1.31,3.06-3.07-1.4-3.03-3.06-3.03Zm0,5.65c-1.43,0-2.52-1.13-2.52-2.61s1.09-2.58,2.52-2.58,2.51,1.13,2.51,2.58-1.1,2.61-2.51,2.61Z"/>
  <path id="Shape-2" data-name="Shape" d="M255.14,45.27c.53-.06,.94-.32,.94-.97,0-.69-.4-1.02-1.25-1.02h-1.38v3.56h.56v-1.53h.59l.97,1.53h.59l-1.03-1.57Zm-.55-.41h-.58v-1.13h.74c.37,0,.78,.07,.78,.55,0,.56-.45,.58-.94,.58Z"/>
  <path id="Shape-3" data-name="Shape" class="cls-4" d="M107.78,9.11c11.03-.01,17.87,10.1,17.87,19.73,0,3.85-1.31,9.63-4.76,13.42l3.91,3.88-4.12,4.11-4.13-4.14c-3.03,2.01-5.77,2.57-8.76,2.57-8.9,0-17.74-7.94-17.74-19.81,0-10.14,7.37-19.75,17.74-19.76m0,6.11c7.1,0,10.27,8.19,10.27,13.77,0,2.4-.51,5.96-2.13,8.24l-.17-.06-2.9-2.92-4.09,4.13s3.06,2.94,3.02,2.98c-.85,.82-2.93,1.12-4.19,1.11-5.17-.04-10.16-5.86-10.16-13.57,0-5.43,3.38-13.68,10.35-13.68"/>
  <path id="Shape-4" data-name="Shape" class="cls-4" d="M240.44,20.18c7.93,0,11.45,8.6,11.45,14.38,0,8.19-5.45,14.44-11.54,14.44-3.77,0-6.53-1.79-7.68-3.63v11.54s-7.37,0-7.37,0l-.03-35.28h7.19l-.02,2.34c2.2-2.72,5.24-3.79,8-3.79m-8.35,14.34c0-4.81,2.84-8.7,6.34-8.7s6.34,3.9,6.34,8.7-2.84,8.7-6.34,8.7c-3.51,0-6.34-3.89-6.34-8.7"/>
  <path id="Path-8" data-name="Path" class="cls-2" d="M15.88,2.66h58.97c4.19,0,7.73,3.22,7.73,7.41V54.86c0,4.19-3.22,7.41-7.41,7.41H15.55c-3.87,0-7.09-3.22-7.09-7.41V10.07c0-3.87,3.22-7.41,7.41-7.41"/>
  <path id="Shape-5" data-name="Shape" class="cls-3" d="M55.19,57.94l4.6-4.77h8.6V23.79h6.77v-6.89l-5.55-4.86-.15,6.59h-21.96s4.23,5.59,3.39,14.59c-.75,8.11-8.62,15.68-15.38,16.2-6.97,.94-12.43-3.64-12.43-3.64,1.51,1.11,11.75,14.79,25.53,5.8l6.57,6.36m-23.31-14.98c-3.87-1.22-6.8-6.49-6.8-12.77s3.62-12.79,8.52-12.79,6.98,4.67,6.98,4.67c0,0-6.36,.09-9.33,7.21-2.95,7.06,.62,13.67,.62,13.67"/>
  <path id="Shape-6" data-name="Shape" class="cls-1" d="M34.07,37.58l4.14,3.94c-.9,.74-2.24,1.94-4.92,1.72-5.21-.43-8.29-7.08-8.22-13.17,.06-6,3.5-12.64,8.58-12.64s8.88,6.05,8.94,12.41c.02,2.43-.12,3.73-.82,5.94l-3.07-2.97-4.63,4.77m20.47-18.87v29.43h8.29V18.71h6.77v-6.65h-22.59v5.6c-3.14-3.94-7.78-6.53-13.36-6.53-10.3,0-16.95,8.87-17.17,18.93-.24,10.53,6.86,19.6,17.17,19.6,3.49,0,6.91-1.22,9.65-3.2l6.67,6.43,4.56-4.75-6.72-6.49c2.66-3.41,3.46-6.4,3.46-11.59,0-6.2-3.45-11.34-3.45-11.34h6.71Z"/>
</svg>