<svg width="25" height="24" viewBox="0 0 25 24" fill="none" xmlns="http://www.w3.org/2000/svg">
<path d="M18.5455 10.5276H15.3367C15.3641 10.3506 15.3779 10.1717 15.3779 9.99257V6.56233C15.3768 5.63975 15.0099 4.75525 14.3575 4.10288C13.7052 3.45052 12.8207 3.08356 11.8981 3.08252H6.82953C5.90695 3.08356 5.02245 3.45052 4.37009 4.10289C3.71773 4.75525 3.35077 5.63975 3.34973 6.56233V9.99256C3.35077 10.9151 3.71773 11.7996 4.37009 12.452C5.02246 13.1044 5.90695 13.4713 6.82953 13.4724H10.0392C10.0113 13.6494 9.99729 13.8282 9.99716 14.0074V17.4377C9.99821 18.3602 10.3652 19.2447 11.0175 19.8971C11.6699 20.5495 12.5544 20.9164 13.4769 20.9175H18.5455C19.4681 20.9164 20.3526 20.5495 21.005 19.8971C21.6573 19.2447 22.0243 18.3602 22.0253 17.4377V14.0074C22.0243 13.0848 21.6573 12.2003 21.005 11.548C20.3526 10.8956 19.4681 10.5287 18.5455 10.5276ZM4.0997 9.99256V6.56233C4.10052 5.83859 4.38839 5.14472 4.90016 4.63296C5.41192 4.1212 6.10579 3.83333 6.82953 3.83252H11.8981C12.6218 3.83333 13.3157 4.1212 13.8274 4.63296C14.3392 5.14472 14.6271 5.83859 14.6279 6.56233V9.99256C14.6271 10.7163 14.3392 11.4102 13.8274 11.9219C13.3157 12.4337 12.6218 12.7215 11.8981 12.7224H6.82953C6.10579 12.7215 5.41192 12.4337 4.90016 11.9219C4.38839 11.4102 4.10052 10.7163 4.0997 9.99256ZM18.8268 14.8504H17.9127C17.6633 15.741 17.1994 16.5568 16.5616 17.2266C16.8813 17.4821 17.227 17.7033 17.593 17.8866L18.1032 18.1427C18.1472 18.1648 18.1864 18.1954 18.2186 18.2326C18.2508 18.2699 18.2753 18.3131 18.2908 18.3599C18.3063 18.4066 18.3125 18.456 18.3089 18.5051C18.3053 18.5542 18.2921 18.6021 18.27 18.6461C18.2479 18.6902 18.2174 18.7294 18.1801 18.7616C18.1428 18.7938 18.0996 18.8183 18.0529 18.8338C18.0061 18.8493 17.9568 18.8555 17.9077 18.8519C17.8585 18.8483 17.8106 18.8351 17.7666 18.813L17.2564 18.5568C16.8114 18.3345 16.3931 18.0623 16.0095 17.7455C15.6272 18.0623 15.21 18.3345 14.766 18.5568L14.2559 18.813C14.167 18.8576 14.064 18.8651 13.9696 18.8338C13.8752 18.8025 13.7971 18.735 13.7524 18.6461C13.7078 18.5572 13.7003 18.4543 13.7316 18.3599C13.7629 18.2655 13.8304 18.1873 13.9193 18.1427L14.4294 17.8866C14.7945 17.7036 15.1393 17.4827 15.458 17.2273C15.0803 16.8269 14.7615 16.3748 14.511 15.8846C14.4887 15.8408 14.4752 15.7929 14.4713 15.7438C14.4675 15.6947 14.4733 15.6453 14.4885 15.5985C14.5037 15.5517 14.528 15.5083 14.56 15.4708C14.592 15.4334 14.631 15.4026 14.6749 15.3803C14.7188 15.3579 14.7666 15.3444 14.8157 15.3405C14.8648 15.3367 14.9142 15.3425 14.961 15.3577C15.0079 15.3729 15.0512 15.3972 15.0887 15.4292C15.1261 15.4612 15.1569 15.5002 15.1793 15.5441C15.3987 15.9732 15.6783 16.3688 16.0096 16.7189C16.5173 16.1871 16.9 15.5488 17.1297 14.8504H13.1957C13.0962 14.8504 13.0008 14.8109 12.9305 14.7406C12.8602 14.6703 12.8207 14.5749 12.8207 14.4754C12.8207 14.376 12.8602 14.2806 12.9305 14.2102C13.0008 14.1399 13.0962 14.1004 13.1957 14.1004H15.6362V12.9672C15.6362 12.8678 15.6758 12.7724 15.7461 12.7021C15.8164 12.6318 15.9118 12.5922 16.0112 12.5922C16.1107 12.5922 16.2061 12.6318 16.2764 12.7021C16.3467 12.7724 16.3862 12.8678 16.3862 12.9672V14.1004H18.8268C18.9262 14.1004 19.0216 14.1399 19.0919 14.2102C19.1623 14.2806 19.2018 14.376 19.2018 14.4754C19.2018 14.5749 19.1623 14.6703 19.0919 14.7406C19.0216 14.8109 18.9262 14.8504 18.8268 14.8504Z" fill="black"/>
<path d="M10.0347 6.26289C9.91227 5.96002 9.65519 5.77185 9.3638 5.77185C9.07241 5.77185 8.81531 5.96002 8.69286 6.26292L7.07404 10.2675C7.05559 10.3132 7.04631 10.362 7.04673 10.4113C7.04715 10.4605 7.05727 10.5092 7.0765 10.5545C7.09574 10.5999 7.12371 10.641 7.15883 10.6755C7.19395 10.71 7.23553 10.7373 7.28118 10.7557C7.32684 10.7742 7.37568 10.7835 7.42493 10.783C7.47417 10.7826 7.52285 10.7725 7.56818 10.7533C7.61352 10.734 7.65462 10.7061 7.68914 10.6709C7.72367 10.6358 7.75093 10.5942 7.76939 10.5486L8.37629 9.04724H10.3513L10.9582 10.5486C10.9766 10.5944 11.0038 10.6361 11.0383 10.6714C11.0728 10.7066 11.1139 10.7347 11.1593 10.7541C11.2047 10.7734 11.2535 10.7836 11.3028 10.7841C11.3521 10.7845 11.4011 10.7752 11.4468 10.7567C11.4926 10.7383 11.5342 10.7109 11.5694 10.6763C11.6045 10.6417 11.6325 10.6005 11.6517 10.555C11.6709 10.5096 11.681 10.4608 11.6813 10.4115C11.6816 10.3621 11.6722 10.3132 11.6535 10.2675L10.0347 6.26289ZM8.67947 8.29724L9.3638 6.60436L10.0481 8.29724H8.67947Z" fill="black"/>
</svg>
