<?xml version="1.0" encoding="UTF-8"?>
<svg id="Layer_1" data-name="Layer 1" xmlns="http://www.w3.org/2000/svg" viewBox="0 0 481 177">
  <defs>
    <style>
      .cls-1 {
        fill: #f5eb12;
      }

      .cls-2 {
        fill: #ef3d35;
      }

      .cls-3 {
        fill: #010101;
      }
    </style>
  </defs>
  <path class="cls-2" d="M65.45,83.53s-3-41.95,58.13-44.34c-.3,0,11.39-16.86,33.26-16.48,17.08,.3,23.97,15.58,23.97,23.07,0,3.31-2.1,12.28-8.39,16.48l.9,7.49s10.44-.5,14.44,5.5c3.5-2,9-4.25,16.75-4.25s12,4.75,14.75,4.75c2.04,0,10.62-7.02,18.05-12.42,2.69-1.95,6.47-3.36,10.2-3.33,13.26,.08,13.75,15,13.75,15l16.75-13.25s9.26-6.76,18.51,.5c3.5,2.75,3.99,7.75,3.99,7.75l.75,6.75s2,1.5,5.5-.75,11.5-4.5,18-4.25,15,3.5,18.75,7.25c2.75-2,8.25-6.25,19-6.25,7.25,0,12.5,4.75,13,4.75,1.5-1.25,4-3.75,13.25-3.25-.25,0-9.08-17.75,8.42-27.75,11.92-6.81,24-1.28,30,7.17,4.5,6.33,1.82,17.99,1.82,17.99,0,0,10.85,.68,18.35,10.34s7.33,16.5,.5,25.67c1.17,2,8.67,20-13.17,33.17-21.83,13.17-49.5,3.83-53.5-21.67,0,.33-4-.5-4-.5l-5.67,13.5s-4.17,11.67-10.33,11.67h-19.83s-3.21-.33-5.15-1.6c-1.95-1.28-5.02,.77-5.02,.77,0,0-5.17,3.94-15.79,3.94s-19.69-7.5-22-7.5c-2.88,0-9.56,5.94-18.94,5.94s-12.94-5.44-15.5-5.44-7.44,5.56-19.87,5.56-15-6.5-19.25-6.5-3.19,5.19-16.87,5.19c-12.25,0-11.25-4.12-14.94-4.12s-6.81,4.94-16.69,4.94-12.31-5.56-16.31-5.56-4.44,5.75-17.31,5.75-18.56-7.12-20.56-12.19c-.56,.5-15.38,24-44.62,24s-39.5-25-39.5-36,8.39-33.18,32.45-37.47Z"/>
  <path class="cls-3" d="M438.31,80.41c-3.03-2.09-8.73-4.2-14.62-4.2-2.48,0-4.82,.37-6.99,1.09,4.59-4.19,7.42-9.63,7.42-14.87,0-7.26-6.93-12.89-12.89-12.89-3.76,0-8.59,1.82-11.22,5.75-3.6,1.71-6.73,5.03-6.85,10.2-.14,5.83,3,8.39,5.28,9.48-1.31,2.25-3.16,4.25-5.39,5.85-1.27-.42-2.66-.69-4.17-.79-5.59-.4-9.48,2.18-11.93,4.51-2.79-3.88-7.12-6.02-12.4-5.9-9.58,.23-15.25,5.64-15.48,5.87l-2.41,2.34,.25,.28c-.14,.04-.24,.07-.26,.08l-2.01,.63c-3.16-6.87-10.81-10.44-18.19-10.44-.83,0-1.66,.05-2.46,.13-6.83,.76-17.1,3.84-23.74,14.78l2.25-11.51h-9.69l2.02-6.96-.02-.55c-.14-4.92-2.41-8.1-5.78-8.1-1.3,0-2.59,.5-3.85,1.49-3.33,2.63-15.97,12.17-18.51,14.08h-14.51l1.98-7.5-.02-.53c-.19-4.22-2.47-7.06-5.67-7.06-1.18,0-2.37,.4-3.54,1.2-4.23,2.87-16.97,12.8-18.54,14.02-2.82,2.17-4.99,3.84-4.99,3.84l-.76,.52-1.79,4.67c.04-.44,.06-.86,.04-1.24-.1-3.82-.31-11.78-12.12-11.78-8.99,0-14.69,4.45-14.93,4.64l-2.43,1.93,.17,.27c-.23,.1-.44,.19-.62,.28-.46-.97-1.04-1.9-1.76-2.77-2.82-3.39-7.13-5.11-11.61-4.63-7.76,.84-10.42,3.25-13.24,5.79l-1.67,1.51c.29-.57,.56-1.17,.8-1.8,3.7-3.74,5.66-8.41,5.66-13.82,0-3.89-1.24-7.23-3.31-10.03,3.25-1.62,6.22-4.8,8.07-7.93,.48-.75,.87-1.54,1.17-2.36,.39-.97,.64-1.89,.72-2.71,.13-.79,.2-1.57,.2-2.29-.04-4.19-3.4-12.13-15.85-12.13-13.23,0-23.23,9.16-27.47,16.14-.86-.03-1.77-.05-2.71-.05-19.05,0-39.78,5.46-47.21,20.11-3.34,3.84-5.56,8.54-6.17,14.22-.3,2.84,.01,5.38,.93,7.58-8.87,.8-34.33,5.61-34.53,34.59-.04,6.34,2.52,12.44,7.22,17.17,5.89,5.93,14.6,9.33,23.9,9.33,11.75,0,23.23-5.35,32.32-15.05,.48-.51,.94-1.03,1.4-1.56,.35-.34,.69-.67,1.03-1.02,7.94-8.3,13.98-19.88,17.67-28.19,.11,.38,.18,1.07,0,2.18-.22,1.36-.45,2.69-.68,4-1.06,6.05-2.06,11.76-.77,17.7,1.27,5.86,7.96,10.2,15.15,9.69,5.62-.4,11.34-3.48,17.37-9.38,2.7,7.22,9.09,8.45,13.14,8.45,.59,0,1.21-.02,1.84-.07,9.03-.71,13.5-3.75,16.07-6.13,.2-.13,.4-.26,.59-.39,3.6,3.8,8.83,5.86,15.11,5.86,7.89,0,13.99-3.21,17.53-6.16,2.72,3.29,8.12,7.16,18.47,7.16,9.26,0,17.31-4.41,22.03-7.71,.51,1.63,1.32,3.04,2.44,4.23,2.38,2.54,5.96,3.83,10.64,3.83,.33,0,.66,0,1-.02,8.62-.32,15.51-4.7,19.22-7.65,2.84,3.92,8.92,8.99,21.33,8.99,8.97,0,17.4-3.52,23.43-7.03-.16,.42-.31,.83-.45,1.21l-1.46,4.02h23.16l1.79-4.5h2.55l9.88-24.91c.95,1.85,2.83,4.65,8.73,4.65,.71,0,1.48-.04,2.28-.12,5.28-.51,9.42-3.37,12.16-6.78,.24,.85,.52,1.7,.89,2.53-.08,.05-.16,.1-.25,.16-10.21,7.07-9.96,11.37-9.88,12.78,.27,4.68,7.04,18.27,25.31,18.27,8.92,0,15.95-3.36,20.43-8.06,6.71-4.06,10.52-10.58,10.52-16.79,0-2.47-.75-6.19-4.11-10.31,2.8-1.99,5.3-4.76,6.11-6.54,.07-.15,.1-.29,.16-.43,.53-.83,.92-1.73,1.14-2.67,1.29-5.6-5.13-11.01-9.08-13.73Zm-36.37,5.7c1.25,0,1.54-.15,1.64-.2,.37-.2,.74-.41,1.1-.62-1.4,1.15-2.65,2.42-3.72,3.78-.26-.99-.68-2.06-1.31-3.12,1.26,.15,2.19,.16,2.3,.16Zm-56.14,10.82c.22,1.46,.36,2.85,.29,3.93-.29,4.7-.83,7.59-1.45,8.2-.78,.78-6.89,2.87-11.26,4.26,.06-.04,.11-.08,.17-.12,6.24-3.4,10.99-10.79,12.26-16.28Zm-52.56,5.47c-1.33,2.88-2.41,6.22-3.15,10.07-.18,.01-.35,.03-.54,.03-.39,0-.9-.05-1.09-.28-.12-.16-1.18-1.69,.15-7.75,.16-.74,.31-1.43,.45-2.06h4.18Zm2.41-4.39l.02-.11h.05s-.05,.07-.08,.11Zm-44.67,15.49c-2.78-.11-3.57-.85-3.75-1.07-.48-.61-.21-1.98-.13-2.43,.23-1.17,.77-4.09,1.31-7h14.46l-1.68,6.77c-1.09,.94-3.96,3.01-8.66,3.71-.51,.03-1.03,.04-1.56,.02Zm-29.07-11.5l-1.14,5.01c-.05,.41-.66,3.99-7.76,3.99-.04,0-.06,0-.1,0,.02-.47,.09-1.06,.27-1.86,.09-.37,.61-1.83,1.07-3.11,.49-1.36,.96-2.71,1.42-4.03h6.24Zm-33.28-6.25c.14,.83,.22,1.55,.21,2.07-.04,7.24-1.49,10.29-3.94,11.42,0-.51,.07-1.1,.2-1.56,.12-.37,2.1-6.68,3.53-11.93Zm-33.47-5.41s2.74,2.64,2.72,7.29c-.02,3.3-.69,6.91-1.83,7.75-.03-.21-.05-.45-.05-.74,0-.16-.02-.39,0-.68,.49-4.92,.19-9.12-.74-12.7-.04-.3-.08-.6-.11-.92Zm-69.02,11.51c-.05-1.5,.53-3.08,1.6-4.49,2.05,.4,4.29,.61,6.73,.61h.65s.67-.03,.67-.03c.45-.06,2.37-.3,4.67-.63-3.6,3.16-8.26,6.34-12,6.34-.78,0-1.45-.16-2.06-.46-.15-.39-.25-.85-.27-1.35Zm25.51-28.25c-.14-.15-.58-.61-.51-1.99,0-.1,.03-.2,.04-.3,1.82-.75,3.96-1.18,5.97-1.42l-2.4,4.8c-1.44-.14-2.56-.52-3.1-1.09Z"/>
  <g>
    <path class="cls-1" d="M397.9,93.01s.84-8.79-9.27-9.51c-8.32-.59-11.63,7.2-12.62,7-.59-1.98-3.05-8.57-11.38-8.37-8.32,.2-13.12,4.87-13.12,4.87,0,0,3.58,3.99,3.1,8.64-.43,4.16-1.87,12.92-3.45,14.21-2.17,1.77-13.47,8.72-23.18,8.72-8.52,0-8.72-2.38-9.71-5.35,2.38-.59,25.3-4,24.37-19.22-.59-9.71-10.38-13.88-18.25-13-8.49,.94-23.94,5.87-26.71,31.23-.79,1.19-3.37,3.76-8.12,3.76s-6.14-4.16-4.36-12.28c1.78-8.12,1.98-9.31,1.98-9.31h9.11l1.98-10.11h-10.1l3.17-10.91s-.2-6.93-3.96-3.96c-3.76,2.97-19.02,14.47-19.02,14.47l-1.78,10.49h5.75l-4.14,15.12s-6.81,7.92-17.33,7.5c-8.33-.33-7.56-5.64-7.17-7.67,.51-2.61,2.67-14.33,2.67-14.33h13.79l2.25-10.75h-14.75l3-11.37s-.25-5.5-3.75-3.12c-4.36,2.96-18.5,14-18.5,14l-3.75,10.37h5.75l-3.5,14.87s-.62,6.32-11.88,7.12c-7,.5-5.62-6-5.25-7.75s5.75-14.87,5.62-19.62-.75-8.37-8.62-8.37-12.75,3.87-12.75,3.87c0,0,2.62,4.25,2.88,8.25,.23,3.62,0,6.75,0,6.75,0,0-1.5,14.87-10.62,14.87-6.75,0-4.5-7.5-4.5-7.5,0,0,3.92-12.48,4.74-16.89,.76-4.11-3.49-10.43-10.54-9.66-6.76,.73-8.76,2.65-11.42,5.05,3.3,6.45,1.58,15.76,1.58,15.76,0,0-1.35,9.34-8.28,9.34-4.52,0-5.35-3.39-5.35-5.57s.75-17.62-4.74-18.67c6.78-2.11,15.89-6.92,15.89-17.69s-11.67-15.81-20.86-16.86c0,0,.68-5.2,5.8-7.15,5.12-1.96,8.28-.38,8.28-.38,0,0-1.05,7.45,6.78,7.45,6.85,0,6.85-8.36,6.85-8.36,0,0-.08-8.66-12.35-8.66s-22.29,9.49-25.45,16.26c-10.18-.84-48.41,.53-51.12,25.98-1.5,14.08,15.44,13.4,17.84,13.4,0,0,12.2-.75,15.06-1.58-1.28,2.41-19.12,27.46-29.76,18.35-3-2.57-2.97-8.55,1.46-12.91,0,0-34.12-5.98-36.53,26.52-1.58,21.39,34.09,31.03,54.67,9.51,13.07-13.67,21-37.24,21-37.24,0,0,9.51-.99,8.32,6.54-1.19,7.53-3.61,18.19-2.18,24.76,.99,4.56,4.36,6.93,9.9,6.54,5.55-.4,12.48-4.75,20.01-13.47,.2,1.98,.99,14.46,13.67,13.47,12.68-.99,14.26-8.52,16.44-9.91,1.19,1.98,5.35,8.72,15.25,8.72s16.24-6.93,17.63-9.31c.79,1.98,5.35,10.7,18.82,10.7s23.57-12.08,23.57-12.08c0,5.15-.4,11.29,11.29,12.28s20.4-10.9,20.4-10.9c.99,2.58,5.74,11.89,21,11.89s28.53-12.28,29.52-13.67c-1.47,3.7-2.72,6.95-4.16,10.7h16.84l9.51-23.97s2.18-4.56,5.94-4.36c3.76,.2,1.04,5.72,11.09,4.75,10.3-.99,9.71-12.28,9.71-12.28Zm-68.87-.81c7.06,0,4.56,5.34,3.49,6.41-1.08,1.08-5.16,4.56-14.03,4.69,0,0,3.49-11.1,10.54-11.1Zm-211.16-14.09s-10.66,1.57-10.24-6.69,11.08-9.83,18.5-9.83l-8.26,16.52Zm26.97-8.57c-2.09,7.74-15.05,8.47-15.05,8.47l6.79-16.31c2.09,0,10.35,.1,8.26,7.84Z"/>
    <path class="cls-1" d="M408.36,71.42c1.04,.78-3,3.13-5.74,6,1.3,3,5.93,1.22,6.52,.91,7.05-3.65,11.48-10.31,11.48-15.92s-5.61-9.39-9.39-9.39-9.66,2.48-9.66,8.87,5.45,8.52,6.79,9.53Z"/>
    <path class="cls-1" d="M436.33,83.29c-3.34-2.3-13.45-6.04-21.58-1.29-5.84,3.41-9.78,9.26-9.78,15s4.05,11.09,10.57,15.01c6.52,3.91,9.13,5.35,6.65,8.09-2.48,2.74-7.44,.91-10.05-3.13-2.61-4.04-4.82-6.83-7.62-6.73-5.22,.18-7.95,4.51-7.78,7.39,.16,2.74,5.09,13.83,21.4,13.83,15,0,22.44-9.92,22.44-17.35,0-5.74-5.33-12.48-17.59-18.09-1.06-.49-3.14-2.11-1.07-4.48,1.44-1.64,5.93-.86,8.01,.7,2.09,1.57,7.15,5.19,7.75,5.4,2.11,.74,5.61-1.38,6.28-4.27,.74-3.19-4.03-7.56-7.65-10.06Z"/>
  </g>
</svg>