<?xml version="1.0" encoding="UTF-8"?>
<svg xmlns="http://www.w3.org/2000/svg" xmlns:xlink="http://www.w3.org/1999/xlink" width="40px" height="40px" viewBox="0 0 40 40" version="1.1">
<g id="surface1">
<path style=" stroke:none;fill-rule:nonzero;fill:rgb(27.843139%,45.490196%,28.627452%);fill-opacity:1;" d="M 20 10 C 25.523438 10 30 14.476562 30 20 C 30 25.523438 25.523438 30 20 30 C 14.476562 30 10 25.523438 10 20 C 10 14.476562 14.476562 10 20 10 Z M 20 10 "/>
<path style="fill-rule:nonzero;fill:rgb(100%,100%,100%);fill-opacity:1;stroke-width:0.00019;stroke-linecap:butt;stroke-linejoin:miter;stroke:rgb(100%,100%,100%);stroke-opacity:1;stroke-miterlimit:4;" d="M 16.417485 9.582829 C 16.417485 13.956688 12.871907 17.499594 8.500719 17.499594 C 4.12686 17.499594 0.583953 13.956688 0.583953 9.582829 C 0.583953 5.211641 4.12686 1.666063 8.500719 1.666063 C 12.871907 1.666063 16.417485 5.211641 16.417485 9.582829 Z M 13.534532 6.959047 C 13.534532 6.739954 13.358188 6.560938 13.139094 6.560938 L 12.284094 6.560938 C 12.102407 5.86625 11.474516 5.379969 10.755782 5.379969 C 10.037047 5.379969 9.406485 5.86625 9.224797 6.560938 L 3.91311 6.560938 C 3.694016 6.560938 3.515 6.739954 3.515 6.959047 C 3.515 7.175469 3.694016 7.354485 3.91311 7.354485 L 9.224797 7.354485 C 9.406485 8.049172 10.037047 8.535454 10.755782 8.535454 C 11.474516 8.535454 12.102407 8.049172 12.284094 7.354485 L 13.139094 7.354485 C 13.358188 7.354485 13.534532 7.175469 13.534532 6.959047 Z M 13.534532 9.588172 C 13.534532 9.369079 13.358188 9.192735 13.139094 9.192735 L 7.824735 9.192735 C 7.643047 8.495375 7.015157 8.009094 6.296422 8.009094 C 5.577688 8.009094 4.947125 8.495375 4.76811 9.192735 L 3.91311 9.192735 C 3.694016 9.192735 3.515 9.369079 3.515 9.588172 C 3.515 9.807266 3.694016 9.98361 3.91311 9.98361 L 4.76811 9.98361 C 4.947125 10.680969 5.577688 11.164579 6.296422 11.164579 C 7.015157 11.164579 7.643047 10.680969 7.824735 9.98361 L 13.139094 9.98361 C 13.358188 9.98361 13.534532 9.807266 13.534532 9.588172 Z M 13.534532 12.217297 C 13.534532 11.998204 13.358188 11.82186 13.139094 11.82186 L 12.284094 11.82186 C 12.102407 11.127172 11.474516 10.640891 10.755782 10.640891 C 10.037047 10.640891 9.406485 11.127172 9.224797 11.82186 L 3.91311 11.82186 C 3.766157 11.813844 3.627219 11.888657 3.552407 12.014235 C 3.477594 12.139813 3.477594 12.294782 3.552407 12.42036 C 3.627219 12.545938 3.766157 12.620751 3.91311 12.612735 L 9.224797 12.612735 C 9.406485 13.310094 10.037047 13.793704 10.755782 13.793704 C 11.474516 13.793704 12.102407 13.310094 12.284094 12.612735 L 13.139094 12.612735 C 13.358188 12.612735 13.534532 12.436391 13.534532 12.217297 Z M 7.081954 9.588172 C 7.081954 10.023688 6.729266 10.376375 6.29375 10.376375 C 5.858235 10.376375 5.505547 10.023688 5.508219 9.588172 C 5.508219 9.152657 5.860907 8.799969 6.296422 8.799969 C 6.731938 8.799969 7.081954 9.152657 7.081954 9.588172 Z M 11.543985 6.959047 C 11.543985 7.391891 11.191297 7.744579 10.755782 7.744579 C 10.322938 7.744579 9.97025 7.391891 9.97025 6.959047 C 9.967579 6.523532 10.320266 6.170844 10.755782 6.170844 C 11.188626 6.170844 11.541313 6.523532 11.541313 6.959047 Z M 11.543985 12.217297 C 11.541313 12.652813 11.191297 13.005501 10.755782 13.002829 C 10.320266 13.002829 9.97025 12.652813 9.97025 12.217297 C 9.967579 11.781782 10.320266 11.431766 10.755782 11.429094 C 11.188626 11.431766 11.541313 11.781782 11.541313 12.217297 Z M 11.543985 12.217297 " transform="matrix(1.461988,0,0,1.461988,6.111111,6.111111)"/>
</g>
</svg>
